%TF.GenerationSoftware,KiCad,Pcbnew,(6.0.0)*%
%TF.CreationDate,2022-01-09T15:33:56+08:00*%
%TF.ProjectId,orange_juice_board,6f72616e-6765-45f6-9a75-6963655f626f,rev?*%
%TF.SameCoordinates,Original*%
%TF.FileFunction,Legend,Bot*%
%TF.FilePolarity,Positive*%
%FSLAX46Y46*%
G04 Gerber Fmt 4.6, Leading zero omitted, Abs format (unit mm)*
G04 Created by KiCad (PCBNEW (6.0.0)) date 2022-01-09 15:33:56*
%MOMM*%
%LPD*%
G01*
G04 APERTURE LIST*
%ADD10C,0.150000*%
%ADD11C,0.125000*%
%ADD12C,0.300000*%
G04 APERTURE END LIST*
D10*
X113047619Y-98095238D02*
X112238095Y-98095238D01*
X112142857Y-98047619D01*
X112095238Y-98000000D01*
X112047619Y-97904761D01*
X112047619Y-97714285D01*
X112095238Y-97619047D01*
X112142857Y-97571428D01*
X112238095Y-97523809D01*
X113047619Y-97523809D01*
X112333333Y-97095238D02*
X112333333Y-96619047D01*
X112047619Y-97190476D02*
X113047619Y-96857142D01*
X112047619Y-96523809D01*
X112047619Y-95619047D02*
X112523809Y-95952380D01*
X112047619Y-96190476D02*
X113047619Y-96190476D01*
X113047619Y-95809523D01*
X113000000Y-95714285D01*
X112952380Y-95666666D01*
X112857142Y-95619047D01*
X112714285Y-95619047D01*
X112619047Y-95666666D01*
X112571428Y-95714285D01*
X112523809Y-95809523D01*
X112523809Y-96190476D01*
X113047619Y-95333333D02*
X113047619Y-94761904D01*
X112047619Y-95047619D02*
X113047619Y-95047619D01*
X112571428Y-110595238D02*
X112571428Y-110928571D01*
X112047619Y-110928571D02*
X113047619Y-110928571D01*
X113047619Y-110452380D01*
X112333333Y-110119047D02*
X112333333Y-109642857D01*
X112047619Y-110214285D02*
X113047619Y-109880952D01*
X112047619Y-109547619D01*
X112047619Y-109214285D02*
X113047619Y-109214285D01*
X112047619Y-108642857D01*
X113047619Y-108642857D01*
X111952380Y-108404761D02*
X111952380Y-107642857D01*
X113047619Y-106928571D02*
X113047619Y-107404761D01*
X112571428Y-107452380D01*
X112619047Y-107404761D01*
X112666666Y-107309523D01*
X112666666Y-107071428D01*
X112619047Y-106976190D01*
X112571428Y-106928571D01*
X112476190Y-106880952D01*
X112238095Y-106880952D01*
X112142857Y-106928571D01*
X112095238Y-106976190D01*
X112047619Y-107071428D01*
X112047619Y-107309523D01*
X112095238Y-107404761D01*
X112142857Y-107452380D01*
X113047619Y-106595238D02*
X112047619Y-106261904D01*
X113047619Y-105928571D01*
X119595238Y-113928571D02*
X119928571Y-113928571D01*
X119928571Y-114452380D02*
X119928571Y-113452380D01*
X119452380Y-113452380D01*
X119119047Y-114166666D02*
X118642857Y-114166666D01*
X119214285Y-114452380D02*
X118880952Y-113452380D01*
X118547619Y-114452380D01*
X118214285Y-114452380D02*
X118214285Y-113452380D01*
X117642857Y-114452380D01*
X117642857Y-113452380D01*
X117404761Y-114547619D02*
X116642857Y-114547619D01*
X115928571Y-113452380D02*
X116404761Y-113452380D01*
X116452380Y-113928571D01*
X116404761Y-113880952D01*
X116309523Y-113833333D01*
X116071428Y-113833333D01*
X115976190Y-113880952D01*
X115928571Y-113928571D01*
X115880952Y-114023809D01*
X115880952Y-114261904D01*
X115928571Y-114357142D01*
X115976190Y-114404761D01*
X116071428Y-114452380D01*
X116309523Y-114452380D01*
X116404761Y-114404761D01*
X116452380Y-114357142D01*
X115595238Y-113452380D02*
X115261904Y-114452380D01*
X114928571Y-113452380D01*
X130547619Y-113928571D02*
X130880952Y-113928571D01*
X130880952Y-114452380D02*
X130880952Y-113452380D01*
X130404761Y-113452380D01*
X130071428Y-114166666D02*
X129595238Y-114166666D01*
X130166666Y-114452380D02*
X129833333Y-113452380D01*
X129500000Y-114452380D01*
X129166666Y-114452380D02*
X129166666Y-113452380D01*
X128595238Y-114452380D01*
X128595238Y-113452380D01*
X128357142Y-114547619D02*
X127595238Y-114547619D01*
X126833333Y-114452380D02*
X127404761Y-114452380D01*
X127119047Y-114452380D02*
X127119047Y-113452380D01*
X127214285Y-113595238D01*
X127309523Y-113690476D01*
X127404761Y-113738095D01*
X126452380Y-113547619D02*
X126404761Y-113500000D01*
X126309523Y-113452380D01*
X126071428Y-113452380D01*
X125976190Y-113500000D01*
X125928571Y-113547619D01*
X125880952Y-113642857D01*
X125880952Y-113738095D01*
X125928571Y-113880952D01*
X126500000Y-114452380D01*
X125880952Y-114452380D01*
X124738095Y-113404761D02*
X125595238Y-114690476D01*
X124452380Y-113547619D02*
X124404761Y-113500000D01*
X124309523Y-113452380D01*
X124071428Y-113452380D01*
X123976190Y-113500000D01*
X123928571Y-113547619D01*
X123880952Y-113642857D01*
X123880952Y-113738095D01*
X123928571Y-113880952D01*
X124500000Y-114452380D01*
X123880952Y-114452380D01*
X123023809Y-113785714D02*
X123023809Y-114452380D01*
X123261904Y-113404761D02*
X123500000Y-114119047D01*
X122880952Y-114119047D01*
X122642857Y-113452380D02*
X122309523Y-114452380D01*
X121976190Y-113452380D01*
X139880952Y-114452380D02*
X139880952Y-113452380D01*
X139500000Y-113452380D01*
X139404761Y-113500000D01*
X139357142Y-113547619D01*
X139309523Y-113642857D01*
X139309523Y-113785714D01*
X139357142Y-113880952D01*
X139404761Y-113928571D01*
X139500000Y-113976190D01*
X139880952Y-113976190D01*
X138976190Y-113452380D02*
X138738095Y-114452380D01*
X138547619Y-113738095D01*
X138357142Y-114452380D01*
X138119047Y-113452380D01*
X137738095Y-114452380D02*
X137738095Y-113452380D01*
X137404761Y-114166666D01*
X137071428Y-113452380D01*
X137071428Y-114452380D01*
X136071428Y-114452380D02*
X136642857Y-114452380D01*
X136357142Y-114452380D02*
X136357142Y-113452380D01*
X136452380Y-113595238D01*
X136547619Y-113690476D01*
X136642857Y-113738095D01*
X151380952Y-114452380D02*
X151380952Y-113452380D01*
X151000000Y-113452380D01*
X150904761Y-113500000D01*
X150857142Y-113547619D01*
X150809523Y-113642857D01*
X150809523Y-113785714D01*
X150857142Y-113880952D01*
X150904761Y-113928571D01*
X151000000Y-113976190D01*
X151380952Y-113976190D01*
X150476190Y-113452380D02*
X150238095Y-114452380D01*
X150047619Y-113738095D01*
X149857142Y-114452380D01*
X149619047Y-113452380D01*
X149238095Y-114452380D02*
X149238095Y-113452380D01*
X148904761Y-114166666D01*
X148571428Y-113452380D01*
X148571428Y-114452380D01*
X148142857Y-113547619D02*
X148095238Y-113500000D01*
X148000000Y-113452380D01*
X147761904Y-113452380D01*
X147666666Y-113500000D01*
X147619047Y-113547619D01*
X147571428Y-113642857D01*
X147571428Y-113738095D01*
X147619047Y-113880952D01*
X148190476Y-114452380D01*
X147571428Y-114452380D01*
X159880952Y-114452380D02*
X159880952Y-113452380D01*
X159500000Y-113452380D01*
X159404761Y-113500000D01*
X159357142Y-113547619D01*
X159309523Y-113642857D01*
X159309523Y-113785714D01*
X159357142Y-113880952D01*
X159404761Y-113928571D01*
X159500000Y-113976190D01*
X159880952Y-113976190D01*
X158976190Y-113452380D02*
X158738095Y-114452380D01*
X158547619Y-113738095D01*
X158357142Y-114452380D01*
X158119047Y-113452380D01*
X157738095Y-114452380D02*
X157738095Y-113452380D01*
X157404761Y-114166666D01*
X157071428Y-113452380D01*
X157071428Y-114452380D01*
X156690476Y-113452380D02*
X156071428Y-113452380D01*
X156404761Y-113833333D01*
X156261904Y-113833333D01*
X156166666Y-113880952D01*
X156119047Y-113928571D01*
X156071428Y-114023809D01*
X156071428Y-114261904D01*
X156119047Y-114357142D01*
X156166666Y-114404761D01*
X156261904Y-114452380D01*
X156547619Y-114452380D01*
X156642857Y-114404761D01*
X156690476Y-114357142D01*
X179285714Y-113147380D02*
X179285714Y-112147380D01*
X179047619Y-112147380D01*
X178904761Y-112195000D01*
X178809523Y-112290238D01*
X178761904Y-112385476D01*
X178714285Y-112575952D01*
X178714285Y-112718809D01*
X178761904Y-112909285D01*
X178809523Y-113004523D01*
X178904761Y-113099761D01*
X179047619Y-113147380D01*
X179285714Y-113147380D01*
X177714285Y-113052142D02*
X177761904Y-113099761D01*
X177904761Y-113147380D01*
X178000000Y-113147380D01*
X178142857Y-113099761D01*
X178238095Y-113004523D01*
X178285714Y-112909285D01*
X178333333Y-112718809D01*
X178333333Y-112575952D01*
X178285714Y-112385476D01*
X178238095Y-112290238D01*
X178142857Y-112195000D01*
X178000000Y-112147380D01*
X177904761Y-112147380D01*
X177761904Y-112195000D01*
X177714285Y-112242619D01*
X177523809Y-113242619D02*
X176761904Y-113242619D01*
X176523809Y-113147380D02*
X176523809Y-112147380D01*
X176047619Y-113147380D02*
X176047619Y-112147380D01*
X175476190Y-113147380D01*
X175476190Y-112147380D01*
X179095238Y-114757380D02*
X179666666Y-114757380D01*
X179380952Y-114757380D02*
X179380952Y-113757380D01*
X179476190Y-113900238D01*
X179571428Y-113995476D01*
X179666666Y-114043095D01*
X178714285Y-113852619D02*
X178666666Y-113805000D01*
X178571428Y-113757380D01*
X178333333Y-113757380D01*
X178238095Y-113805000D01*
X178190476Y-113852619D01*
X178142857Y-113947857D01*
X178142857Y-114043095D01*
X178190476Y-114185952D01*
X178761904Y-114757380D01*
X178142857Y-114757380D01*
X177000000Y-113709761D02*
X177857142Y-114995476D01*
X176714285Y-113852619D02*
X176666666Y-113805000D01*
X176571428Y-113757380D01*
X176333333Y-113757380D01*
X176238095Y-113805000D01*
X176190476Y-113852619D01*
X176142857Y-113947857D01*
X176142857Y-114043095D01*
X176190476Y-114185952D01*
X176761904Y-114757380D01*
X176142857Y-114757380D01*
X175285714Y-114090714D02*
X175285714Y-114757380D01*
X175523809Y-113709761D02*
X175761904Y-114424047D01*
X175142857Y-114424047D01*
X174904761Y-113757380D02*
X174571428Y-114757380D01*
X174238095Y-113757380D01*
X166452380Y-94380952D02*
X165452380Y-94380952D01*
X166166666Y-94714285D01*
X165452380Y-95047619D01*
X166452380Y-95047619D01*
X166166666Y-95476190D02*
X166166666Y-95952380D01*
X166452380Y-95380952D02*
X165452380Y-95714285D01*
X166452380Y-96047619D01*
X165452380Y-96285714D02*
X166452380Y-96952380D01*
X165452380Y-96952380D02*
X166452380Y-96285714D01*
X165452380Y-97238095D02*
X165452380Y-97857142D01*
X165833333Y-97523809D01*
X165833333Y-97666666D01*
X165880952Y-97761904D01*
X165928571Y-97809523D01*
X166023809Y-97857142D01*
X166261904Y-97857142D01*
X166357142Y-97809523D01*
X166404761Y-97761904D01*
X166452380Y-97666666D01*
X166452380Y-97380952D01*
X166404761Y-97285714D01*
X166357142Y-97238095D01*
X166452380Y-98809523D02*
X166452380Y-98238095D01*
X166452380Y-98523809D02*
X165452380Y-98523809D01*
X165595238Y-98428571D01*
X165690476Y-98333333D01*
X165738095Y-98238095D01*
X165880952Y-99380952D02*
X165833333Y-99285714D01*
X165785714Y-99238095D01*
X165690476Y-99190476D01*
X165642857Y-99190476D01*
X165547619Y-99238095D01*
X165500000Y-99285714D01*
X165452380Y-99380952D01*
X165452380Y-99571428D01*
X165500000Y-99666666D01*
X165547619Y-99714285D01*
X165642857Y-99761904D01*
X165690476Y-99761904D01*
X165785714Y-99714285D01*
X165833333Y-99666666D01*
X165880952Y-99571428D01*
X165880952Y-99380952D01*
X165928571Y-99285714D01*
X165976190Y-99238095D01*
X166071428Y-99190476D01*
X166261904Y-99190476D01*
X166357142Y-99238095D01*
X166404761Y-99285714D01*
X166452380Y-99380952D01*
X166452380Y-99571428D01*
X166404761Y-99666666D01*
X166357142Y-99714285D01*
X166261904Y-99761904D01*
X166071428Y-99761904D01*
X165976190Y-99714285D01*
X165928571Y-99666666D01*
X165880952Y-99571428D01*
X165452380Y-100619047D02*
X165452380Y-100428571D01*
X165500000Y-100333333D01*
X165547619Y-100285714D01*
X165690476Y-100190476D01*
X165880952Y-100142857D01*
X166261904Y-100142857D01*
X166357142Y-100190476D01*
X166404761Y-100238095D01*
X166452380Y-100333333D01*
X166452380Y-100523809D01*
X166404761Y-100619047D01*
X166357142Y-100666666D01*
X166261904Y-100714285D01*
X166023809Y-100714285D01*
X165928571Y-100666666D01*
X165880952Y-100619047D01*
X165833333Y-100523809D01*
X165833333Y-100333333D01*
X165880952Y-100238095D01*
X165928571Y-100190476D01*
X166023809Y-100142857D01*
X165452380Y-101619047D02*
X165452380Y-101142857D01*
X165928571Y-101095238D01*
X165880952Y-101142857D01*
X165833333Y-101238095D01*
X165833333Y-101476190D01*
X165880952Y-101571428D01*
X165928571Y-101619047D01*
X166023809Y-101666666D01*
X166261904Y-101666666D01*
X166357142Y-101619047D01*
X166404761Y-101571428D01*
X166452380Y-101476190D01*
X166452380Y-101238095D01*
X166404761Y-101142857D01*
X166357142Y-101095238D01*
X120452380Y-84380952D02*
X120452380Y-84571428D01*
X120500000Y-84666666D01*
X120595238Y-84761904D01*
X120785714Y-84809523D01*
X121119047Y-84809523D01*
X121309523Y-84761904D01*
X121404761Y-84666666D01*
X121452380Y-84571428D01*
X121452380Y-84380952D01*
X121404761Y-84285714D01*
X121309523Y-84190476D01*
X121119047Y-84142857D01*
X120785714Y-84142857D01*
X120595238Y-84190476D01*
X120500000Y-84285714D01*
X120452380Y-84380952D01*
X121452380Y-85238095D02*
X120785714Y-85238095D01*
X120976190Y-85238095D02*
X120880952Y-85285714D01*
X120833333Y-85333333D01*
X120785714Y-85428571D01*
X120785714Y-85523809D01*
X121452380Y-86285714D02*
X120928571Y-86285714D01*
X120833333Y-86238095D01*
X120785714Y-86142857D01*
X120785714Y-85952380D01*
X120833333Y-85857142D01*
X121404761Y-86285714D02*
X121452380Y-86190476D01*
X121452380Y-85952380D01*
X121404761Y-85857142D01*
X121309523Y-85809523D01*
X121214285Y-85809523D01*
X121119047Y-85857142D01*
X121071428Y-85952380D01*
X121071428Y-86190476D01*
X121023809Y-86285714D01*
X120785714Y-86761904D02*
X121452380Y-86761904D01*
X120880952Y-86761904D02*
X120833333Y-86809523D01*
X120785714Y-86904761D01*
X120785714Y-87047619D01*
X120833333Y-87142857D01*
X120928571Y-87190476D01*
X121452380Y-87190476D01*
X120785714Y-88095238D02*
X121595238Y-88095238D01*
X121690476Y-88047619D01*
X121738095Y-88000000D01*
X121785714Y-87904761D01*
X121785714Y-87761904D01*
X121738095Y-87666666D01*
X121404761Y-88095238D02*
X121452380Y-88000000D01*
X121452380Y-87809523D01*
X121404761Y-87714285D01*
X121357142Y-87666666D01*
X121261904Y-87619047D01*
X120976190Y-87619047D01*
X120880952Y-87666666D01*
X120833333Y-87714285D01*
X120785714Y-87809523D01*
X120785714Y-88000000D01*
X120833333Y-88095238D01*
X121404761Y-88952380D02*
X121452380Y-88857142D01*
X121452380Y-88666666D01*
X121404761Y-88571428D01*
X121309523Y-88523809D01*
X120928571Y-88523809D01*
X120833333Y-88571428D01*
X120785714Y-88666666D01*
X120785714Y-88857142D01*
X120833333Y-88952380D01*
X120928571Y-89000000D01*
X121023809Y-89000000D01*
X121119047Y-88523809D01*
X121452380Y-89428571D02*
X120452380Y-89428571D01*
X120452380Y-89809523D01*
X120500000Y-89904761D01*
X120547619Y-89952380D01*
X120642857Y-90000000D01*
X120785714Y-90000000D01*
X120880952Y-89952380D01*
X120928571Y-89904761D01*
X120976190Y-89809523D01*
X120976190Y-89428571D01*
X121452380Y-90428571D02*
X120785714Y-90428571D01*
X120452380Y-90428571D02*
X120500000Y-90380952D01*
X120547619Y-90428571D01*
X120500000Y-90476190D01*
X120452380Y-90428571D01*
X120547619Y-90428571D01*
X120452380Y-91571428D02*
X120452380Y-92238095D01*
X121452380Y-91571428D01*
X121452380Y-92238095D01*
X121404761Y-93000000D02*
X121452380Y-92904761D01*
X121452380Y-92714285D01*
X121404761Y-92619047D01*
X121309523Y-92571428D01*
X120928571Y-92571428D01*
X120833333Y-92619047D01*
X120785714Y-92714285D01*
X120785714Y-92904761D01*
X120833333Y-93000000D01*
X120928571Y-93047619D01*
X121023809Y-93047619D01*
X121119047Y-92571428D01*
X121452380Y-93476190D02*
X120785714Y-93476190D01*
X120976190Y-93476190D02*
X120880952Y-93523809D01*
X120833333Y-93571428D01*
X120785714Y-93666666D01*
X120785714Y-93761904D01*
X121452380Y-94238095D02*
X121404761Y-94142857D01*
X121357142Y-94095238D01*
X121261904Y-94047619D01*
X120976190Y-94047619D01*
X120880952Y-94095238D01*
X120833333Y-94142857D01*
X120785714Y-94238095D01*
X120785714Y-94380952D01*
X120833333Y-94476190D01*
X120880952Y-94523809D01*
X120976190Y-94571428D01*
X121261904Y-94571428D01*
X121357142Y-94523809D01*
X121404761Y-94476190D01*
X121452380Y-94380952D01*
X121452380Y-94238095D01*
X120500000Y-96285714D02*
X120452380Y-96190476D01*
X120452380Y-96047619D01*
X120500000Y-95904761D01*
X120595238Y-95809523D01*
X120690476Y-95761904D01*
X120880952Y-95714285D01*
X121023809Y-95714285D01*
X121214285Y-95761904D01*
X121309523Y-95809523D01*
X121404761Y-95904761D01*
X121452380Y-96047619D01*
X121452380Y-96142857D01*
X121404761Y-96285714D01*
X121357142Y-96333333D01*
X121023809Y-96333333D01*
X121023809Y-96142857D01*
X121452380Y-96761904D02*
X120452380Y-96761904D01*
X120452380Y-97142857D01*
X120500000Y-97238095D01*
X120547619Y-97285714D01*
X120642857Y-97333333D01*
X120785714Y-97333333D01*
X120880952Y-97285714D01*
X120928571Y-97238095D01*
X120976190Y-97142857D01*
X120976190Y-96761904D01*
X121452380Y-97761904D02*
X120452380Y-97761904D01*
X120452380Y-98428571D02*
X120452380Y-98619047D01*
X120500000Y-98714285D01*
X120595238Y-98809523D01*
X120785714Y-98857142D01*
X121119047Y-98857142D01*
X121309523Y-98809523D01*
X121404761Y-98714285D01*
X121452380Y-98619047D01*
X121452380Y-98428571D01*
X121404761Y-98333333D01*
X121309523Y-98238095D01*
X121119047Y-98190476D01*
X120785714Y-98190476D01*
X120595238Y-98238095D01*
X120500000Y-98333333D01*
X120452380Y-98428571D01*
X155952380Y-82333333D02*
X155952380Y-82523809D01*
X156000000Y-82619047D01*
X156095238Y-82714285D01*
X156285714Y-82761904D01*
X156619047Y-82761904D01*
X156809523Y-82714285D01*
X156904761Y-82619047D01*
X156952380Y-82523809D01*
X156952380Y-82333333D01*
X156904761Y-82238095D01*
X156809523Y-82142857D01*
X156619047Y-82095238D01*
X156285714Y-82095238D01*
X156095238Y-82142857D01*
X156000000Y-82238095D01*
X155952380Y-82333333D01*
X156952380Y-83190476D02*
X156285714Y-83190476D01*
X156476190Y-83190476D02*
X156380952Y-83238095D01*
X156333333Y-83285714D01*
X156285714Y-83380952D01*
X156285714Y-83476190D01*
X156952380Y-84238095D02*
X156428571Y-84238095D01*
X156333333Y-84190476D01*
X156285714Y-84095238D01*
X156285714Y-83904761D01*
X156333333Y-83809523D01*
X156904761Y-84238095D02*
X156952380Y-84142857D01*
X156952380Y-83904761D01*
X156904761Y-83809523D01*
X156809523Y-83761904D01*
X156714285Y-83761904D01*
X156619047Y-83809523D01*
X156571428Y-83904761D01*
X156571428Y-84142857D01*
X156523809Y-84238095D01*
X156285714Y-84714285D02*
X156952380Y-84714285D01*
X156380952Y-84714285D02*
X156333333Y-84761904D01*
X156285714Y-84857142D01*
X156285714Y-85000000D01*
X156333333Y-85095238D01*
X156428571Y-85142857D01*
X156952380Y-85142857D01*
X156285714Y-86047619D02*
X157095238Y-86047619D01*
X157190476Y-86000000D01*
X157238095Y-85952380D01*
X157285714Y-85857142D01*
X157285714Y-85714285D01*
X157238095Y-85619047D01*
X156904761Y-86047619D02*
X156952380Y-85952380D01*
X156952380Y-85761904D01*
X156904761Y-85666666D01*
X156857142Y-85619047D01*
X156761904Y-85571428D01*
X156476190Y-85571428D01*
X156380952Y-85619047D01*
X156333333Y-85666666D01*
X156285714Y-85761904D01*
X156285714Y-85952380D01*
X156333333Y-86047619D01*
X156904761Y-86904761D02*
X156952380Y-86809523D01*
X156952380Y-86619047D01*
X156904761Y-86523809D01*
X156809523Y-86476190D01*
X156428571Y-86476190D01*
X156333333Y-86523809D01*
X156285714Y-86619047D01*
X156285714Y-86809523D01*
X156333333Y-86904761D01*
X156428571Y-86952380D01*
X156523809Y-86952380D01*
X156619047Y-86476190D01*
X156952380Y-87380952D02*
X155952380Y-87380952D01*
X155952380Y-87761904D01*
X156000000Y-87857142D01*
X156047619Y-87904761D01*
X156142857Y-87952380D01*
X156285714Y-87952380D01*
X156380952Y-87904761D01*
X156428571Y-87857142D01*
X156476190Y-87761904D01*
X156476190Y-87380952D01*
X156952380Y-88380952D02*
X156285714Y-88380952D01*
X155952380Y-88380952D02*
X156000000Y-88333333D01*
X156047619Y-88380952D01*
X156000000Y-88428571D01*
X155952380Y-88380952D01*
X156047619Y-88380952D01*
X155952380Y-89523809D02*
X155952380Y-90190476D01*
X156952380Y-89523809D01*
X156952380Y-90190476D01*
X156904761Y-90952380D02*
X156952380Y-90857142D01*
X156952380Y-90666666D01*
X156904761Y-90571428D01*
X156809523Y-90523809D01*
X156428571Y-90523809D01*
X156333333Y-90571428D01*
X156285714Y-90666666D01*
X156285714Y-90857142D01*
X156333333Y-90952380D01*
X156428571Y-91000000D01*
X156523809Y-91000000D01*
X156619047Y-90523809D01*
X156952380Y-91428571D02*
X156285714Y-91428571D01*
X156476190Y-91428571D02*
X156380952Y-91476190D01*
X156333333Y-91523809D01*
X156285714Y-91619047D01*
X156285714Y-91714285D01*
X156952380Y-92190476D02*
X156904761Y-92095238D01*
X156857142Y-92047619D01*
X156761904Y-92000000D01*
X156476190Y-92000000D01*
X156380952Y-92047619D01*
X156333333Y-92095238D01*
X156285714Y-92190476D01*
X156285714Y-92333333D01*
X156333333Y-92428571D01*
X156380952Y-92476190D01*
X156476190Y-92523809D01*
X156761904Y-92523809D01*
X156857142Y-92476190D01*
X156904761Y-92428571D01*
X156952380Y-92333333D01*
X156952380Y-92190476D01*
X156952380Y-93714285D02*
X155952380Y-93714285D01*
X156285714Y-94190476D02*
X156952380Y-94190476D01*
X156380952Y-94190476D02*
X156333333Y-94238095D01*
X156285714Y-94333333D01*
X156285714Y-94476190D01*
X156333333Y-94571428D01*
X156428571Y-94619047D01*
X156952380Y-94619047D01*
X156285714Y-94952380D02*
X156285714Y-95333333D01*
X155952380Y-95095238D02*
X156809523Y-95095238D01*
X156904761Y-95142857D01*
X156952380Y-95238095D01*
X156952380Y-95333333D01*
X156904761Y-96047619D02*
X156952380Y-95952380D01*
X156952380Y-95761904D01*
X156904761Y-95666666D01*
X156809523Y-95619047D01*
X156428571Y-95619047D01*
X156333333Y-95666666D01*
X156285714Y-95761904D01*
X156285714Y-95952380D01*
X156333333Y-96047619D01*
X156428571Y-96095238D01*
X156523809Y-96095238D01*
X156619047Y-95619047D01*
X156952380Y-96523809D02*
X156285714Y-96523809D01*
X156476190Y-96523809D02*
X156380952Y-96571428D01*
X156333333Y-96619047D01*
X156285714Y-96714285D01*
X156285714Y-96809523D01*
X156285714Y-97000000D02*
X156285714Y-97380952D01*
X156952380Y-97142857D02*
X156095238Y-97142857D01*
X156000000Y-97190476D01*
X155952380Y-97285714D01*
X155952380Y-97380952D01*
X156952380Y-98142857D02*
X156428571Y-98142857D01*
X156333333Y-98095238D01*
X156285714Y-98000000D01*
X156285714Y-97809523D01*
X156333333Y-97714285D01*
X156904761Y-98142857D02*
X156952380Y-98047619D01*
X156952380Y-97809523D01*
X156904761Y-97714285D01*
X156809523Y-97666666D01*
X156714285Y-97666666D01*
X156619047Y-97714285D01*
X156571428Y-97809523D01*
X156571428Y-98047619D01*
X156523809Y-98142857D01*
X156904761Y-99047619D02*
X156952380Y-98952380D01*
X156952380Y-98761904D01*
X156904761Y-98666666D01*
X156857142Y-98619047D01*
X156761904Y-98571428D01*
X156476190Y-98571428D01*
X156380952Y-98619047D01*
X156333333Y-98666666D01*
X156285714Y-98761904D01*
X156285714Y-98952380D01*
X156333333Y-99047619D01*
X156904761Y-99857142D02*
X156952380Y-99761904D01*
X156952380Y-99571428D01*
X156904761Y-99476190D01*
X156809523Y-99428571D01*
X156428571Y-99428571D01*
X156333333Y-99476190D01*
X156285714Y-99571428D01*
X156285714Y-99761904D01*
X156333333Y-99857142D01*
X156428571Y-99904761D01*
X156523809Y-99904761D01*
X156619047Y-99428571D01*
X186047619Y-81047619D02*
X185238095Y-81047619D01*
X185142857Y-81000000D01*
X185095238Y-80952380D01*
X185047619Y-80857142D01*
X185047619Y-80666666D01*
X185095238Y-80571428D01*
X185142857Y-80523809D01*
X185238095Y-80476190D01*
X186047619Y-80476190D01*
X185095238Y-80047619D02*
X185047619Y-79904761D01*
X185047619Y-79666666D01*
X185095238Y-79571428D01*
X185142857Y-79523809D01*
X185238095Y-79476190D01*
X185333333Y-79476190D01*
X185428571Y-79523809D01*
X185476190Y-79571428D01*
X185523809Y-79666666D01*
X185571428Y-79857142D01*
X185619047Y-79952380D01*
X185666666Y-80000000D01*
X185761904Y-80047619D01*
X185857142Y-80047619D01*
X185952380Y-80000000D01*
X186000000Y-79952380D01*
X186047619Y-79857142D01*
X186047619Y-79619047D01*
X186000000Y-79476190D01*
X185571428Y-78714285D02*
X185523809Y-78571428D01*
X185476190Y-78523809D01*
X185380952Y-78476190D01*
X185238095Y-78476190D01*
X185142857Y-78523809D01*
X185095238Y-78571428D01*
X185047619Y-78666666D01*
X185047619Y-79047619D01*
X186047619Y-79047619D01*
X186047619Y-78714285D01*
X186000000Y-78619047D01*
X185952380Y-78571428D01*
X185857142Y-78523809D01*
X185761904Y-78523809D01*
X185666666Y-78571428D01*
X185619047Y-78619047D01*
X185571428Y-78714285D01*
X185571428Y-79047619D01*
X184952380Y-78285714D02*
X184952380Y-77523809D01*
X185047619Y-77285714D02*
X186047619Y-77285714D01*
X186047619Y-76904761D01*
X186000000Y-76809523D01*
X185952380Y-76761904D01*
X185857142Y-76714285D01*
X185714285Y-76714285D01*
X185619047Y-76761904D01*
X185571428Y-76809523D01*
X185523809Y-76904761D01*
X185523809Y-77285714D01*
X185047619Y-76142857D02*
X185095238Y-76238095D01*
X185142857Y-76285714D01*
X185238095Y-76333333D01*
X185523809Y-76333333D01*
X185619047Y-76285714D01*
X185666666Y-76238095D01*
X185714285Y-76142857D01*
X185714285Y-76000000D01*
X185666666Y-75904761D01*
X185619047Y-75857142D01*
X185523809Y-75809523D01*
X185238095Y-75809523D01*
X185142857Y-75857142D01*
X185095238Y-75904761D01*
X185047619Y-76000000D01*
X185047619Y-76142857D01*
X185047619Y-75380952D02*
X185714285Y-75380952D01*
X185523809Y-75380952D02*
X185619047Y-75333333D01*
X185666666Y-75285714D01*
X185714285Y-75190476D01*
X185714285Y-75095238D01*
X185714285Y-74904761D02*
X185714285Y-74523809D01*
X186047619Y-74761904D02*
X185190476Y-74761904D01*
X185095238Y-74714285D01*
X185047619Y-74619047D01*
X185047619Y-74523809D01*
X185952380Y-73476190D02*
X186000000Y-73428571D01*
X186047619Y-73333333D01*
X186047619Y-73095238D01*
X186000000Y-73000000D01*
X185952380Y-72952380D01*
X185857142Y-72904761D01*
X185761904Y-72904761D01*
X185619047Y-72952380D01*
X185047619Y-73523809D01*
X185047619Y-72904761D01*
X186095238Y-71761904D02*
X184809523Y-72619047D01*
X186047619Y-71523809D02*
X186047619Y-70904761D01*
X185666666Y-71238095D01*
X185666666Y-71095238D01*
X185619047Y-71000000D01*
X185571428Y-70952380D01*
X185476190Y-70904761D01*
X185238095Y-70904761D01*
X185142857Y-70952380D01*
X185095238Y-71000000D01*
X185047619Y-71095238D01*
X185047619Y-71380952D01*
X185095238Y-71476190D01*
X185142857Y-71523809D01*
D11*
X109773809Y-79785714D02*
X110273809Y-79785714D01*
X109916666Y-79619047D01*
X110273809Y-79452380D01*
X109773809Y-79452380D01*
X110273809Y-79119047D02*
X110273809Y-79023809D01*
X110250000Y-78976190D01*
X110202380Y-78928571D01*
X110107142Y-78904761D01*
X109940476Y-78904761D01*
X109845238Y-78928571D01*
X109797619Y-78976190D01*
X109773809Y-79023809D01*
X109773809Y-79119047D01*
X109797619Y-79166666D01*
X109845238Y-79214285D01*
X109940476Y-79238095D01*
X110107142Y-79238095D01*
X110202380Y-79214285D01*
X110250000Y-79166666D01*
X110273809Y-79119047D01*
X109797619Y-78714285D02*
X109773809Y-78642857D01*
X109773809Y-78523809D01*
X109797619Y-78476190D01*
X109821428Y-78452380D01*
X109869047Y-78428571D01*
X109916666Y-78428571D01*
X109964285Y-78452380D01*
X109988095Y-78476190D01*
X110011904Y-78523809D01*
X110035714Y-78619047D01*
X110059523Y-78666666D01*
X110083333Y-78690476D01*
X110130952Y-78714285D01*
X110178571Y-78714285D01*
X110226190Y-78690476D01*
X110250000Y-78666666D01*
X110273809Y-78619047D01*
X110273809Y-78500000D01*
X110250000Y-78428571D01*
X109773809Y-78214285D02*
X110273809Y-78214285D01*
X109773809Y-82285714D02*
X110273809Y-82285714D01*
X109916666Y-82119047D01*
X110273809Y-81952380D01*
X109773809Y-81952380D01*
X109773809Y-81714285D02*
X110273809Y-81714285D01*
X109797619Y-81500000D02*
X109773809Y-81428571D01*
X109773809Y-81309523D01*
X109797619Y-81261904D01*
X109821428Y-81238095D01*
X109869047Y-81214285D01*
X109916666Y-81214285D01*
X109964285Y-81238095D01*
X109988095Y-81261904D01*
X110011904Y-81309523D01*
X110035714Y-81404761D01*
X110059523Y-81452380D01*
X110083333Y-81476190D01*
X110130952Y-81500000D01*
X110178571Y-81500000D01*
X110226190Y-81476190D01*
X110250000Y-81452380D01*
X110273809Y-81404761D01*
X110273809Y-81285714D01*
X110250000Y-81214285D01*
X110273809Y-80904761D02*
X110273809Y-80809523D01*
X110250000Y-80761904D01*
X110202380Y-80714285D01*
X110107142Y-80690476D01*
X109940476Y-80690476D01*
X109845238Y-80714285D01*
X109797619Y-80761904D01*
X109773809Y-80809523D01*
X109773809Y-80904761D01*
X109797619Y-80952380D01*
X109845238Y-81000000D01*
X109940476Y-81023809D01*
X110107142Y-81023809D01*
X110202380Y-81000000D01*
X110250000Y-80952380D01*
X110273809Y-80904761D01*
X109821428Y-84083333D02*
X109797619Y-84107142D01*
X109773809Y-84178571D01*
X109773809Y-84226190D01*
X109797619Y-84297619D01*
X109845238Y-84345238D01*
X109892857Y-84369047D01*
X109988095Y-84392857D01*
X110059523Y-84392857D01*
X110154761Y-84369047D01*
X110202380Y-84345238D01*
X110250000Y-84297619D01*
X110273809Y-84226190D01*
X110273809Y-84178571D01*
X110250000Y-84107142D01*
X110226190Y-84083333D01*
X109797619Y-83892857D02*
X109773809Y-83821428D01*
X109773809Y-83702380D01*
X109797619Y-83654761D01*
X109821428Y-83630952D01*
X109869047Y-83607142D01*
X109916666Y-83607142D01*
X109964285Y-83630952D01*
X109988095Y-83654761D01*
X110011904Y-83702380D01*
X110035714Y-83797619D01*
X110059523Y-83845238D01*
X110083333Y-83869047D01*
X110130952Y-83892857D01*
X110178571Y-83892857D01*
X110226190Y-83869047D01*
X110250000Y-83845238D01*
X110273809Y-83797619D01*
X110273809Y-83678571D01*
X110250000Y-83607142D01*
X110273809Y-87095238D02*
X110273809Y-86785714D01*
X110083333Y-86952380D01*
X110083333Y-86880952D01*
X110059523Y-86833333D01*
X110035714Y-86809523D01*
X109988095Y-86785714D01*
X109869047Y-86785714D01*
X109821428Y-86809523D01*
X109797619Y-86833333D01*
X109773809Y-86880952D01*
X109773809Y-87023809D01*
X109797619Y-87071428D01*
X109821428Y-87095238D01*
X110107142Y-86619047D02*
X109773809Y-86500000D01*
X110107142Y-86380952D01*
X110273809Y-86238095D02*
X110273809Y-85928571D01*
X110083333Y-86095238D01*
X110083333Y-86023809D01*
X110059523Y-85976190D01*
X110035714Y-85952380D01*
X109988095Y-85928571D01*
X109869047Y-85928571D01*
X109821428Y-85952380D01*
X109797619Y-85976190D01*
X109773809Y-86023809D01*
X109773809Y-86166666D01*
X109797619Y-86214285D01*
X109821428Y-86238095D01*
X110250000Y-89380952D02*
X110273809Y-89428571D01*
X110273809Y-89500000D01*
X110250000Y-89571428D01*
X110202380Y-89619047D01*
X110154761Y-89642857D01*
X110059523Y-89666666D01*
X109988095Y-89666666D01*
X109892857Y-89642857D01*
X109845238Y-89619047D01*
X109797619Y-89571428D01*
X109773809Y-89500000D01*
X109773809Y-89452380D01*
X109797619Y-89380952D01*
X109821428Y-89357142D01*
X109988095Y-89357142D01*
X109988095Y-89452380D01*
X109773809Y-89142857D02*
X110273809Y-89142857D01*
X109773809Y-88857142D01*
X110273809Y-88857142D01*
X109773809Y-88619047D02*
X110273809Y-88619047D01*
X110273809Y-88500000D01*
X110250000Y-88428571D01*
X110202380Y-88380952D01*
X110154761Y-88357142D01*
X110059523Y-88333333D01*
X109988095Y-88333333D01*
X109892857Y-88357142D01*
X109845238Y-88380952D01*
X109797619Y-88428571D01*
X109773809Y-88500000D01*
X109773809Y-88619047D01*
X110273809Y-95880952D02*
X110273809Y-95595238D01*
X109773809Y-95738095D02*
X110273809Y-95738095D01*
X110273809Y-95476190D02*
X109773809Y-95142857D01*
X110273809Y-95142857D02*
X109773809Y-95476190D01*
X109773809Y-98083333D02*
X110011904Y-98250000D01*
X109773809Y-98369047D02*
X110273809Y-98369047D01*
X110273809Y-98178571D01*
X110250000Y-98130952D01*
X110226190Y-98107142D01*
X110178571Y-98083333D01*
X110107142Y-98083333D01*
X110059523Y-98107142D01*
X110035714Y-98130952D01*
X110011904Y-98178571D01*
X110011904Y-98369047D01*
X110273809Y-97916666D02*
X109773809Y-97583333D01*
X110273809Y-97583333D02*
X109773809Y-97916666D01*
X109964285Y-110190476D02*
X109964285Y-109809523D01*
X109773809Y-110000000D02*
X110154761Y-110000000D01*
X109964285Y-107690476D02*
X109964285Y-107309523D01*
X118464285Y-116690476D02*
X118464285Y-116309523D01*
X118273809Y-116500000D02*
X118654761Y-116500000D01*
X116190476Y-116535714D02*
X115809523Y-116535714D01*
X127464285Y-116690476D02*
X127464285Y-116309523D01*
X127273809Y-116500000D02*
X127654761Y-116500000D01*
X125190476Y-116535714D02*
X124809523Y-116535714D01*
X136690476Y-116535714D02*
X136309523Y-116535714D01*
X138964285Y-116690476D02*
X138964285Y-116309523D01*
X138773809Y-116500000D02*
X139154761Y-116500000D01*
X150464285Y-116690476D02*
X150464285Y-116309523D01*
X150273809Y-116500000D02*
X150654761Y-116500000D01*
X158964285Y-116690476D02*
X158964285Y-116309523D01*
X158773809Y-116500000D02*
X159154761Y-116500000D01*
X136690476Y-116535714D02*
X136309523Y-116535714D01*
X148190476Y-116535714D02*
X147809523Y-116535714D01*
X156690476Y-116535714D02*
X156309523Y-116535714D01*
D10*
X175880952Y-119071428D02*
X175119047Y-119071428D01*
X175500000Y-119452380D02*
X175500000Y-118690476D01*
X179380952Y-119071428D02*
X178619047Y-119071428D01*
X112333333Y-86047619D02*
X112333333Y-85571428D01*
X112047619Y-86142857D02*
X113047619Y-85809523D01*
X112047619Y-85476190D01*
X112047619Y-85142857D02*
X113047619Y-85142857D01*
X113047619Y-84904761D01*
X113000000Y-84761904D01*
X112904761Y-84666666D01*
X112809523Y-84619047D01*
X112619047Y-84571428D01*
X112476190Y-84571428D01*
X112285714Y-84619047D01*
X112190476Y-84666666D01*
X112095238Y-84761904D01*
X112047619Y-84904761D01*
X112047619Y-85142857D01*
X113047619Y-84238095D02*
X112047619Y-83571428D01*
X113047619Y-83571428D02*
X112047619Y-84238095D01*
X112047619Y-82714285D02*
X112047619Y-83190476D01*
X113047619Y-83190476D01*
X113047619Y-82476190D02*
X113047619Y-81857142D01*
X112666666Y-82190476D01*
X112666666Y-82047619D01*
X112619047Y-81952380D01*
X112571428Y-81904761D01*
X112476190Y-81857142D01*
X112238095Y-81857142D01*
X112142857Y-81904761D01*
X112095238Y-81952380D01*
X112047619Y-82047619D01*
X112047619Y-82333333D01*
X112095238Y-82428571D01*
X112142857Y-82476190D01*
X112714285Y-81000000D02*
X112047619Y-81000000D01*
X113095238Y-81238095D02*
X112380952Y-81476190D01*
X112380952Y-80857142D01*
X113047619Y-80000000D02*
X113047619Y-80476190D01*
X112571428Y-80523809D01*
X112619047Y-80476190D01*
X112666666Y-80380952D01*
X112666666Y-80142857D01*
X112619047Y-80047619D01*
X112571428Y-80000000D01*
X112476190Y-79952380D01*
X112238095Y-79952380D01*
X112142857Y-80000000D01*
X112095238Y-80047619D01*
X112047619Y-80142857D01*
X112047619Y-80380952D01*
X112095238Y-80476190D01*
X112142857Y-80523809D01*
D12*
X151844107Y-69794761D02*
X151463154Y-69794761D01*
X151284583Y-69890000D01*
X151117916Y-70080476D01*
X151070297Y-70461428D01*
X151153630Y-71128095D01*
X151296488Y-71509047D01*
X151510773Y-71699523D01*
X151713154Y-71794761D01*
X152094107Y-71794761D01*
X152272678Y-71699523D01*
X152439345Y-71509047D01*
X152486964Y-71128095D01*
X152403630Y-70461428D01*
X152260773Y-70080476D01*
X152046488Y-69890000D01*
X151844107Y-69794761D01*
X150379821Y-71794761D02*
X150213154Y-70461428D01*
X150260773Y-70842380D02*
X150141726Y-70651904D01*
X150034583Y-70556666D01*
X149832202Y-70461428D01*
X149641726Y-70461428D01*
X148284583Y-71794761D02*
X148153630Y-70747142D01*
X148225059Y-70556666D01*
X148403630Y-70461428D01*
X148784583Y-70461428D01*
X148986964Y-70556666D01*
X148272678Y-71699523D02*
X148475059Y-71794761D01*
X148951250Y-71794761D01*
X149129821Y-71699523D01*
X149201250Y-71509047D01*
X149177440Y-71318571D01*
X149058392Y-71128095D01*
X148856011Y-71032857D01*
X148379821Y-71032857D01*
X148177440Y-70937619D01*
X147165535Y-70461428D02*
X147332202Y-71794761D01*
X147189345Y-70651904D02*
X147082202Y-70556666D01*
X146879821Y-70461428D01*
X146594107Y-70461428D01*
X146415535Y-70556666D01*
X146344107Y-70747142D01*
X146475059Y-71794761D01*
X144498869Y-70461428D02*
X144701250Y-72080476D01*
X144820297Y-72270952D01*
X144927440Y-72366190D01*
X145129821Y-72461428D01*
X145415535Y-72461428D01*
X145594107Y-72366190D01*
X144653630Y-71699523D02*
X144856011Y-71794761D01*
X145236964Y-71794761D01*
X145415535Y-71699523D01*
X145498869Y-71604285D01*
X145570297Y-71413809D01*
X145498869Y-70842380D01*
X145379821Y-70651904D01*
X145272678Y-70556666D01*
X145070297Y-70461428D01*
X144689345Y-70461428D01*
X144510773Y-70556666D01*
X142939345Y-71699523D02*
X143141726Y-71794761D01*
X143522678Y-71794761D01*
X143701250Y-71699523D01*
X143772678Y-71509047D01*
X143677440Y-70747142D01*
X143558392Y-70556666D01*
X143356011Y-70461428D01*
X142975059Y-70461428D01*
X142796488Y-70556666D01*
X142725059Y-70747142D01*
X142748869Y-70937619D01*
X143725059Y-71128095D01*
X139653630Y-69794761D02*
X139832202Y-71223333D01*
X139963154Y-71509047D01*
X140177440Y-71699523D01*
X140475059Y-71794761D01*
X140665535Y-71794761D01*
X137927440Y-70461428D02*
X138094107Y-71794761D01*
X138784583Y-70461428D02*
X138915535Y-71509047D01*
X138844107Y-71699523D01*
X138665535Y-71794761D01*
X138379821Y-71794761D01*
X138177440Y-71699523D01*
X138070297Y-71604285D01*
X137141726Y-71794761D02*
X136975059Y-70461428D01*
X136891726Y-69794761D02*
X136998869Y-69890000D01*
X136915535Y-69985238D01*
X136808392Y-69890000D01*
X136891726Y-69794761D01*
X136915535Y-69985238D01*
X135320297Y-71699523D02*
X135522678Y-71794761D01*
X135903630Y-71794761D01*
X136082202Y-71699523D01*
X136165535Y-71604285D01*
X136236964Y-71413809D01*
X136165535Y-70842380D01*
X136046488Y-70651904D01*
X135939345Y-70556666D01*
X135736964Y-70461428D01*
X135356011Y-70461428D01*
X135177440Y-70556666D01*
X133701250Y-71699523D02*
X133903630Y-71794761D01*
X134284583Y-71794761D01*
X134463154Y-71699523D01*
X134534583Y-71509047D01*
X134439345Y-70747142D01*
X134320297Y-70556666D01*
X134117916Y-70461428D01*
X133736964Y-70461428D01*
X133558392Y-70556666D01*
X133486964Y-70747142D01*
X133510773Y-70937619D01*
X134486964Y-71128095D01*
X131260773Y-70461428D02*
X130951250Y-71794761D01*
X130308392Y-70461428D01*
X129082202Y-69794761D02*
X128891726Y-69794761D01*
X128713154Y-69890000D01*
X128629821Y-69985238D01*
X128558392Y-70175714D01*
X128510773Y-70556666D01*
X128570297Y-71032857D01*
X128713154Y-71413809D01*
X128832202Y-71604285D01*
X128939345Y-71699523D01*
X129141726Y-71794761D01*
X129332202Y-71794761D01*
X129510773Y-71699523D01*
X129594107Y-71604285D01*
X129665535Y-71413809D01*
X129713154Y-71032857D01*
X129653630Y-70556666D01*
X129510773Y-70175714D01*
X129391726Y-69985238D01*
X129284583Y-69890000D01*
X129082202Y-69794761D01*
X127784583Y-71604285D02*
X127701250Y-71699523D01*
X127808392Y-71794761D01*
X127891726Y-71699523D01*
X127784583Y-71604285D01*
X127808392Y-71794761D01*
X126796488Y-69794761D02*
X125558392Y-69794761D01*
X126320297Y-70556666D01*
X126034583Y-70556666D01*
X125856011Y-70651904D01*
X125772678Y-70747142D01*
X125701250Y-70937619D01*
X125760773Y-71413809D01*
X125879821Y-71604285D01*
X125986964Y-71699523D01*
X126189345Y-71794761D01*
X126760773Y-71794761D01*
X126939345Y-71699523D01*
X127022678Y-71604285D01*
X150570297Y-75014761D02*
X150320297Y-73014761D01*
X149844107Y-73014761D01*
X149570297Y-73110000D01*
X149403630Y-73300476D01*
X149332202Y-73490952D01*
X149284583Y-73871904D01*
X149320297Y-74157619D01*
X149463154Y-74538571D01*
X149582202Y-74729047D01*
X149796488Y-74919523D01*
X150094107Y-75014761D01*
X150570297Y-75014761D01*
X147796488Y-74919523D02*
X147998869Y-75014761D01*
X148379821Y-75014761D01*
X148558392Y-74919523D01*
X148629821Y-74729047D01*
X148534583Y-73967142D01*
X148415535Y-73776666D01*
X148213154Y-73681428D01*
X147832202Y-73681428D01*
X147653630Y-73776666D01*
X147582202Y-73967142D01*
X147606011Y-74157619D01*
X148582202Y-74348095D01*
X146939345Y-74919523D02*
X146760773Y-75014761D01*
X146379821Y-75014761D01*
X146177440Y-74919523D01*
X146058392Y-74729047D01*
X146046488Y-74633809D01*
X146117916Y-74443333D01*
X146296488Y-74348095D01*
X146582202Y-74348095D01*
X146760773Y-74252857D01*
X146832202Y-74062380D01*
X146820297Y-73967142D01*
X146701250Y-73776666D01*
X146498869Y-73681428D01*
X146213154Y-73681428D01*
X146034583Y-73776666D01*
X145236964Y-75014761D02*
X145070297Y-73681428D01*
X144986964Y-73014761D02*
X145094107Y-73110000D01*
X145010773Y-73205238D01*
X144903630Y-73110000D01*
X144986964Y-73014761D01*
X145010773Y-73205238D01*
X143260773Y-73681428D02*
X143463154Y-75300476D01*
X143582202Y-75490952D01*
X143689345Y-75586190D01*
X143891726Y-75681428D01*
X144177440Y-75681428D01*
X144356011Y-75586190D01*
X143415535Y-74919523D02*
X143617916Y-75014761D01*
X143998869Y-75014761D01*
X144177440Y-74919523D01*
X144260773Y-74824285D01*
X144332202Y-74633809D01*
X144260773Y-74062380D01*
X144141726Y-73871904D01*
X144034583Y-73776666D01*
X143832202Y-73681428D01*
X143451250Y-73681428D01*
X143272678Y-73776666D01*
X142308392Y-73681428D02*
X142475059Y-75014761D01*
X142332202Y-73871904D02*
X142225059Y-73776666D01*
X142022678Y-73681428D01*
X141736964Y-73681428D01*
X141558392Y-73776666D01*
X141486964Y-73967142D01*
X141617916Y-75014761D01*
X138344107Y-73967142D02*
X138070297Y-74062380D01*
X137986964Y-74157619D01*
X137915535Y-74348095D01*
X137951250Y-74633809D01*
X138070297Y-74824285D01*
X138177440Y-74919523D01*
X138379821Y-75014761D01*
X139141726Y-75014761D01*
X138891726Y-73014761D01*
X138225059Y-73014761D01*
X138046488Y-73110000D01*
X137963154Y-73205238D01*
X137891726Y-73395714D01*
X137915535Y-73586190D01*
X138034583Y-73776666D01*
X138141726Y-73871904D01*
X138344107Y-73967142D01*
X139010773Y-73967142D01*
X137165535Y-73681428D02*
X136856011Y-75014761D01*
X136213154Y-73681428D02*
X136856011Y-75014761D01*
X137106011Y-75490952D01*
X137213154Y-75586190D01*
X137415535Y-75681428D01*
X133272678Y-73014761D02*
X133451250Y-74443333D01*
X133582202Y-74729047D01*
X133796488Y-74919523D01*
X134094107Y-75014761D01*
X134284583Y-75014761D01*
X131796488Y-74919523D02*
X131998869Y-75014761D01*
X132379821Y-75014761D01*
X132558392Y-74919523D01*
X132629821Y-74729047D01*
X132534583Y-73967142D01*
X132415535Y-73776666D01*
X132213154Y-73681428D01*
X131832202Y-73681428D01*
X131653630Y-73776666D01*
X131582202Y-73967142D01*
X131606011Y-74157619D01*
X132582202Y-74348095D01*
X130856011Y-75014761D02*
X130689345Y-73681428D01*
X130736964Y-74062380D02*
X130617916Y-73871904D01*
X130510773Y-73776666D01*
X130308392Y-73681428D01*
X130117916Y-73681428D01*
X129617916Y-75014761D02*
X129451250Y-73681428D01*
X129498869Y-74062380D02*
X129379821Y-73871904D01*
X129272678Y-73776666D01*
X129070297Y-73681428D01*
X128879821Y-73681428D01*
X128403630Y-73681428D02*
X128094107Y-75014761D01*
X127451250Y-73681428D02*
X128094107Y-75014761D01*
X128344107Y-75490952D01*
X128451250Y-75586190D01*
X128653630Y-75681428D01*
D11*
X109821428Y-76797619D02*
X109797619Y-76821428D01*
X109773809Y-76892857D01*
X109773809Y-76940476D01*
X109797619Y-77011904D01*
X109845238Y-77059523D01*
X109892857Y-77083333D01*
X109988095Y-77107142D01*
X110059523Y-77107142D01*
X110154761Y-77083333D01*
X110202380Y-77059523D01*
X110250000Y-77011904D01*
X110273809Y-76940476D01*
X110273809Y-76892857D01*
X110250000Y-76821428D01*
X110226190Y-76797619D01*
X109773809Y-76345238D02*
X109773809Y-76583333D01*
X110273809Y-76583333D01*
X109773809Y-76178571D02*
X110273809Y-76178571D01*
X109773809Y-75892857D02*
X110059523Y-76107142D01*
X110273809Y-75892857D02*
X109988095Y-76178571D01*
D10*
X154223809Y-77144571D02*
X154557142Y-77144571D01*
X154557142Y-77668380D02*
X154557142Y-76668380D01*
X154080952Y-76668380D01*
X153557142Y-77668380D02*
X153652380Y-77620761D01*
X153700000Y-77573142D01*
X153747619Y-77477904D01*
X153747619Y-77192190D01*
X153700000Y-77096952D01*
X153652380Y-77049333D01*
X153557142Y-77001714D01*
X153414285Y-77001714D01*
X153319047Y-77049333D01*
X153271428Y-77096952D01*
X153223809Y-77192190D01*
X153223809Y-77477904D01*
X153271428Y-77573142D01*
X153319047Y-77620761D01*
X153414285Y-77668380D01*
X153557142Y-77668380D01*
X152795238Y-77668380D02*
X152795238Y-77001714D01*
X152795238Y-77192190D02*
X152747619Y-77096952D01*
X152700000Y-77049333D01*
X152604761Y-77001714D01*
X152509523Y-77001714D01*
X151223809Y-76668380D02*
X151033333Y-76668380D01*
X150938095Y-76716000D01*
X150842857Y-76811238D01*
X150795238Y-77001714D01*
X150795238Y-77335047D01*
X150842857Y-77525523D01*
X150938095Y-77620761D01*
X151033333Y-77668380D01*
X151223809Y-77668380D01*
X151319047Y-77620761D01*
X151414285Y-77525523D01*
X151461904Y-77335047D01*
X151461904Y-77001714D01*
X151414285Y-76811238D01*
X151319047Y-76716000D01*
X151223809Y-76668380D01*
X150366666Y-77668380D02*
X150366666Y-77001714D01*
X150366666Y-77192190D02*
X150319047Y-77096952D01*
X150271428Y-77049333D01*
X150176190Y-77001714D01*
X150080952Y-77001714D01*
X149319047Y-77668380D02*
X149319047Y-77144571D01*
X149366666Y-77049333D01*
X149461904Y-77001714D01*
X149652380Y-77001714D01*
X149747619Y-77049333D01*
X149319047Y-77620761D02*
X149414285Y-77668380D01*
X149652380Y-77668380D01*
X149747619Y-77620761D01*
X149795238Y-77525523D01*
X149795238Y-77430285D01*
X149747619Y-77335047D01*
X149652380Y-77287428D01*
X149414285Y-77287428D01*
X149319047Y-77239809D01*
X148842857Y-77001714D02*
X148842857Y-77668380D01*
X148842857Y-77096952D02*
X148795238Y-77049333D01*
X148700000Y-77001714D01*
X148557142Y-77001714D01*
X148461904Y-77049333D01*
X148414285Y-77144571D01*
X148414285Y-77668380D01*
X147509523Y-77001714D02*
X147509523Y-77811238D01*
X147557142Y-77906476D01*
X147604761Y-77954095D01*
X147700000Y-78001714D01*
X147842857Y-78001714D01*
X147938095Y-77954095D01*
X147509523Y-77620761D02*
X147604761Y-77668380D01*
X147795238Y-77668380D01*
X147890476Y-77620761D01*
X147938095Y-77573142D01*
X147985714Y-77477904D01*
X147985714Y-77192190D01*
X147938095Y-77096952D01*
X147890476Y-77049333D01*
X147795238Y-77001714D01*
X147604761Y-77001714D01*
X147509523Y-77049333D01*
X146652380Y-77620761D02*
X146747619Y-77668380D01*
X146938095Y-77668380D01*
X147033333Y-77620761D01*
X147080952Y-77525523D01*
X147080952Y-77144571D01*
X147033333Y-77049333D01*
X146938095Y-77001714D01*
X146747619Y-77001714D01*
X146652380Y-77049333D01*
X146604761Y-77144571D01*
X146604761Y-77239809D01*
X147080952Y-77335047D01*
X146176190Y-77001714D02*
X146176190Y-78001714D01*
X146176190Y-77049333D02*
X146080952Y-77001714D01*
X145890476Y-77001714D01*
X145795238Y-77049333D01*
X145747619Y-77096952D01*
X145700000Y-77192190D01*
X145700000Y-77477904D01*
X145747619Y-77573142D01*
X145795238Y-77620761D01*
X145890476Y-77668380D01*
X146080952Y-77668380D01*
X146176190Y-77620761D01*
X145271428Y-77668380D02*
X145271428Y-77001714D01*
X145271428Y-76668380D02*
X145319047Y-76716000D01*
X145271428Y-76763619D01*
X145223809Y-76716000D01*
X145271428Y-76668380D01*
X145271428Y-76763619D01*
X144128571Y-77001714D02*
X143604761Y-77001714D01*
X144128571Y-77668380D01*
X143604761Y-77668380D01*
X142842857Y-77620761D02*
X142938095Y-77668380D01*
X143128571Y-77668380D01*
X143223809Y-77620761D01*
X143271428Y-77525523D01*
X143271428Y-77144571D01*
X143223809Y-77049333D01*
X143128571Y-77001714D01*
X142938095Y-77001714D01*
X142842857Y-77049333D01*
X142795238Y-77144571D01*
X142795238Y-77239809D01*
X143271428Y-77335047D01*
X142366666Y-77668380D02*
X142366666Y-77001714D01*
X142366666Y-77192190D02*
X142319047Y-77096952D01*
X142271428Y-77049333D01*
X142176190Y-77001714D01*
X142080952Y-77001714D01*
X141604761Y-77668380D02*
X141700000Y-77620761D01*
X141747619Y-77573142D01*
X141795238Y-77477904D01*
X141795238Y-77192190D01*
X141747619Y-77096952D01*
X141700000Y-77049333D01*
X141604761Y-77001714D01*
X141461904Y-77001714D01*
X141366666Y-77049333D01*
X141319047Y-77096952D01*
X141271428Y-77192190D01*
X141271428Y-77477904D01*
X141319047Y-77573142D01*
X141366666Y-77620761D01*
X141461904Y-77668380D01*
X141604761Y-77668380D01*
X140176190Y-77001714D02*
X139985714Y-77668380D01*
X139795238Y-77192190D01*
X139604761Y-77668380D01*
X139414285Y-77001714D01*
X139033333Y-77668380D02*
X139033333Y-77001714D01*
X139033333Y-76668380D02*
X139080952Y-76716000D01*
X139033333Y-76763619D01*
X138985714Y-76716000D01*
X139033333Y-76668380D01*
X139033333Y-76763619D01*
X138700000Y-77001714D02*
X138319047Y-77001714D01*
X138557142Y-76668380D02*
X138557142Y-77525523D01*
X138509523Y-77620761D01*
X138414285Y-77668380D01*
X138319047Y-77668380D01*
X137985714Y-77668380D02*
X137985714Y-76668380D01*
X137557142Y-77668380D02*
X137557142Y-77144571D01*
X137604761Y-77049333D01*
X137700000Y-77001714D01*
X137842857Y-77001714D01*
X137938095Y-77049333D01*
X137985714Y-77096952D01*
X136319047Y-77668380D02*
X136319047Y-76668380D01*
X136223809Y-77287428D02*
X135938095Y-77668380D01*
X135938095Y-77001714D02*
X136319047Y-77382666D01*
X135366666Y-77668380D02*
X135461904Y-77620761D01*
X135509523Y-77525523D01*
X135509523Y-76668380D01*
X134985714Y-77668380D02*
X134985714Y-77001714D01*
X134985714Y-76668380D02*
X135033333Y-76716000D01*
X134985714Y-76763619D01*
X134938095Y-76716000D01*
X134985714Y-76668380D01*
X134985714Y-76763619D01*
X134509523Y-77001714D02*
X134509523Y-78001714D01*
X134509523Y-77049333D02*
X134414285Y-77001714D01*
X134223809Y-77001714D01*
X134128571Y-77049333D01*
X134080952Y-77096952D01*
X134033333Y-77192190D01*
X134033333Y-77477904D01*
X134080952Y-77573142D01*
X134128571Y-77620761D01*
X134223809Y-77668380D01*
X134414285Y-77668380D01*
X134509523Y-77620761D01*
X133604761Y-77001714D02*
X133604761Y-78001714D01*
X133604761Y-77049333D02*
X133509523Y-77001714D01*
X133319047Y-77001714D01*
X133223809Y-77049333D01*
X133176190Y-77096952D01*
X133128571Y-77192190D01*
X133128571Y-77477904D01*
X133176190Y-77573142D01*
X133223809Y-77620761D01*
X133319047Y-77668380D01*
X133509523Y-77668380D01*
X133604761Y-77620761D01*
X132319047Y-77620761D02*
X132414285Y-77668380D01*
X132604761Y-77668380D01*
X132700000Y-77620761D01*
X132747619Y-77525523D01*
X132747619Y-77144571D01*
X132700000Y-77049333D01*
X132604761Y-77001714D01*
X132414285Y-77001714D01*
X132319047Y-77049333D01*
X132271428Y-77144571D01*
X132271428Y-77239809D01*
X132747619Y-77335047D01*
X131842857Y-77668380D02*
X131842857Y-77001714D01*
X131842857Y-77192190D02*
X131795238Y-77096952D01*
X131747619Y-77049333D01*
X131652380Y-77001714D01*
X131557142Y-77001714D01*
X130604761Y-77001714D02*
X130223809Y-77001714D01*
X130461904Y-77668380D02*
X130461904Y-76811238D01*
X130414285Y-76716000D01*
X130319047Y-76668380D01*
X130223809Y-76668380D01*
X129509523Y-77620761D02*
X129604761Y-77668380D01*
X129795238Y-77668380D01*
X129890476Y-77620761D01*
X129938095Y-77525523D01*
X129938095Y-77144571D01*
X129890476Y-77049333D01*
X129795238Y-77001714D01*
X129604761Y-77001714D01*
X129509523Y-77049333D01*
X129461904Y-77144571D01*
X129461904Y-77239809D01*
X129938095Y-77335047D01*
X128604761Y-77668380D02*
X128604761Y-77144571D01*
X128652380Y-77049333D01*
X128747619Y-77001714D01*
X128938095Y-77001714D01*
X129033333Y-77049333D01*
X128604761Y-77620761D02*
X128700000Y-77668380D01*
X128938095Y-77668380D01*
X129033333Y-77620761D01*
X129080952Y-77525523D01*
X129080952Y-77430285D01*
X129033333Y-77335047D01*
X128938095Y-77287428D01*
X128700000Y-77287428D01*
X128604761Y-77239809D01*
X128271428Y-77001714D02*
X127890476Y-77001714D01*
X128128571Y-76668380D02*
X128128571Y-77525523D01*
X128080952Y-77620761D01*
X127985714Y-77668380D01*
X127890476Y-77668380D01*
X127128571Y-77001714D02*
X127128571Y-77668380D01*
X127557142Y-77001714D02*
X127557142Y-77525523D01*
X127509523Y-77620761D01*
X127414285Y-77668380D01*
X127271428Y-77668380D01*
X127176190Y-77620761D01*
X127128571Y-77573142D01*
X126652380Y-77668380D02*
X126652380Y-77001714D01*
X126652380Y-77192190D02*
X126604761Y-77096952D01*
X126557142Y-77049333D01*
X126461904Y-77001714D01*
X126366666Y-77001714D01*
X125652380Y-77620761D02*
X125747619Y-77668380D01*
X125938095Y-77668380D01*
X126033333Y-77620761D01*
X126080952Y-77525523D01*
X126080952Y-77144571D01*
X126033333Y-77049333D01*
X125938095Y-77001714D01*
X125747619Y-77001714D01*
X125652380Y-77049333D01*
X125604761Y-77144571D01*
X125604761Y-77239809D01*
X126080952Y-77335047D01*
X125223809Y-77620761D02*
X125128571Y-77668380D01*
X124938095Y-77668380D01*
X124842857Y-77620761D01*
X124795238Y-77525523D01*
X124795238Y-77477904D01*
X124842857Y-77382666D01*
X124938095Y-77335047D01*
X125080952Y-77335047D01*
X125176190Y-77287428D01*
X125223809Y-77192190D01*
X125223809Y-77144571D01*
X125176190Y-77049333D01*
X125080952Y-77001714D01*
X124938095Y-77001714D01*
X124842857Y-77049333D01*
M02*
