%TF.GenerationSoftware,KiCad,Pcbnew,(6.0.0)*%
%TF.CreationDate,2022-01-09T15:33:56+08:00*%
%TF.ProjectId,orange_juice_board,6f72616e-6765-45f6-9a75-6963655f626f,rev?*%
%TF.SameCoordinates,Original*%
%TF.FileFunction,Legend,Top*%
%TF.FilePolarity,Positive*%
%FSLAX46Y46*%
G04 Gerber Fmt 4.6, Leading zero omitted, Abs format (unit mm)*
G04 Created by KiCad (PCBNEW (6.0.0)) date 2022-01-09 15:33:56*
%MOMM*%
%LPD*%
G01*
G04 APERTURE LIST*
%ADD10C,0.150000*%
%ADD11C,0.120000*%
G04 APERTURE END LIST*
D10*
X149246761Y-81154571D02*
X148913428Y-81154571D01*
X148913428Y-81678380D02*
X148913428Y-80678380D01*
X149389619Y-80678380D01*
X149722952Y-81392666D02*
X150199142Y-81392666D01*
X149627714Y-81678380D02*
X149961047Y-80678380D01*
X150294380Y-81678380D01*
X150627714Y-81678380D02*
X150627714Y-80678380D01*
X151199142Y-81678380D01*
X151199142Y-80678380D01*
X152342000Y-80678380D02*
X152961047Y-80678380D01*
X152627714Y-81059333D01*
X152770571Y-81059333D01*
X152865809Y-81106952D01*
X152913428Y-81154571D01*
X152961047Y-81249809D01*
X152961047Y-81487904D01*
X152913428Y-81583142D01*
X152865809Y-81630761D01*
X152770571Y-81678380D01*
X152484857Y-81678380D01*
X152389619Y-81630761D01*
X152342000Y-81583142D01*
X153580095Y-80678380D02*
X153675333Y-80678380D01*
X153770571Y-80726000D01*
X153818190Y-80773619D01*
X153865809Y-80868857D01*
X153913428Y-81059333D01*
X153913428Y-81297428D01*
X153865809Y-81487904D01*
X153818190Y-81583142D01*
X153770571Y-81630761D01*
X153675333Y-81678380D01*
X153580095Y-81678380D01*
X153484857Y-81630761D01*
X153437238Y-81583142D01*
X153389619Y-81487904D01*
X153342000Y-81297428D01*
X153342000Y-81059333D01*
X153389619Y-80868857D01*
X153437238Y-80773619D01*
X153484857Y-80726000D01*
X153580095Y-80678380D01*
X154865809Y-81678380D02*
X154294380Y-81678380D01*
X154580095Y-81678380D02*
X154580095Y-80678380D01*
X154484857Y-80821238D01*
X154389619Y-80916476D01*
X154294380Y-80964095D01*
X155484857Y-80678380D02*
X155580095Y-80678380D01*
X155675333Y-80726000D01*
X155722952Y-80773619D01*
X155770571Y-80868857D01*
X155818190Y-81059333D01*
X155818190Y-81297428D01*
X155770571Y-81487904D01*
X155722952Y-81583142D01*
X155675333Y-81630761D01*
X155580095Y-81678380D01*
X155484857Y-81678380D01*
X155389619Y-81630761D01*
X155342000Y-81583142D01*
X155294380Y-81487904D01*
X155246761Y-81297428D01*
X155246761Y-81059333D01*
X155294380Y-80868857D01*
X155342000Y-80773619D01*
X155389619Y-80726000D01*
X155484857Y-80678380D01*
D11*
X156000000Y-112000000D02*
X156000000Y-82000000D01*
X126000000Y-82000000D02*
X126000000Y-112000000D01*
X126000000Y-112000000D02*
X156000000Y-112000000D01*
X156000000Y-82000000D02*
X126000000Y-82000000D01*
D10*
X119619047Y-114071428D02*
X120380952Y-114071428D01*
X120000000Y-114452380D02*
X120000000Y-113690476D01*
X129119047Y-114071428D02*
X129880952Y-114071428D01*
X129500000Y-114452380D02*
X129500000Y-113690476D01*
X140619047Y-114071428D02*
X141380952Y-114071428D01*
X141000000Y-114452380D02*
X141000000Y-113690476D01*
X152119047Y-114071428D02*
X152880952Y-114071428D01*
X152500000Y-114452380D02*
X152500000Y-113690476D01*
X158369047Y-112571428D02*
X159130952Y-112571428D01*
X158750000Y-112952380D02*
X158750000Y-112190476D01*
X112119047Y-112071428D02*
X112880952Y-112071428D01*
X112500000Y-112452380D02*
X112500000Y-111690476D01*
X132561047Y-117397428D02*
X133322952Y-117397428D01*
X132942000Y-117778380D02*
X132942000Y-117016476D01*
X144061047Y-117346428D02*
X144822952Y-117346428D01*
X144442000Y-117727380D02*
X144442000Y-116965476D01*
X161869047Y-117321428D02*
X162630952Y-117321428D01*
X162250000Y-117702380D02*
X162250000Y-116940476D01*
X181078476Y-120340380D02*
X181078476Y-119340380D01*
X181459428Y-119340380D01*
X181554666Y-119388000D01*
X181602285Y-119435619D01*
X181649904Y-119530857D01*
X181649904Y-119673714D01*
X181602285Y-119768952D01*
X181554666Y-119816571D01*
X181459428Y-119864190D01*
X181078476Y-119864190D01*
X182268952Y-119340380D02*
X182459428Y-119340380D01*
X182554666Y-119388000D01*
X182649904Y-119483238D01*
X182697523Y-119673714D01*
X182697523Y-120007047D01*
X182649904Y-120197523D01*
X182554666Y-120292761D01*
X182459428Y-120340380D01*
X182268952Y-120340380D01*
X182173714Y-120292761D01*
X182078476Y-120197523D01*
X182030857Y-120007047D01*
X182030857Y-119673714D01*
X182078476Y-119483238D01*
X182173714Y-119388000D01*
X182268952Y-119340380D01*
X183030857Y-119340380D02*
X183268952Y-120340380D01*
X183459428Y-119626095D01*
X183649904Y-120340380D01*
X183888000Y-119340380D01*
X184268952Y-119816571D02*
X184602285Y-119816571D01*
X184745142Y-120340380D02*
X184268952Y-120340380D01*
X184268952Y-119340380D01*
X184745142Y-119340380D01*
X185745142Y-120340380D02*
X185411809Y-119864190D01*
X185173714Y-120340380D02*
X185173714Y-119340380D01*
X185554666Y-119340380D01*
X185649904Y-119388000D01*
X185697523Y-119435619D01*
X185745142Y-119530857D01*
X185745142Y-119673714D01*
X185697523Y-119768952D01*
X185649904Y-119816571D01*
X185554666Y-119864190D01*
X185173714Y-119864190D01*
X181561047Y-115597428D02*
X182322952Y-115597428D01*
X181942000Y-115978380D02*
X181942000Y-115216476D01*
X172119047Y-116571428D02*
X172880952Y-116571428D01*
X172500000Y-116952380D02*
X172500000Y-116190476D01*
X154794380Y-100845047D02*
X155508666Y-100845047D01*
X155651523Y-100892666D01*
X155746761Y-100987904D01*
X155794380Y-101130761D01*
X155794380Y-101226000D01*
X155794380Y-99892666D02*
X155794380Y-100368857D01*
X154794380Y-100368857D01*
X155699142Y-98987904D02*
X155746761Y-99035523D01*
X155794380Y-99178380D01*
X155794380Y-99273619D01*
X155746761Y-99416476D01*
X155651523Y-99511714D01*
X155556285Y-99559333D01*
X155365809Y-99606952D01*
X155222952Y-99606952D01*
X155032476Y-99559333D01*
X154937238Y-99511714D01*
X154842000Y-99416476D01*
X154794380Y-99273619D01*
X154794380Y-99178380D01*
X154842000Y-99035523D01*
X154889619Y-98987904D01*
X154794380Y-98273619D02*
X155508666Y-98273619D01*
X155651523Y-98321238D01*
X155746761Y-98416476D01*
X155794380Y-98559333D01*
X155794380Y-98654571D01*
X155794380Y-97321238D02*
X155794380Y-97797428D01*
X154794380Y-97797428D01*
X155699142Y-96416476D02*
X155746761Y-96464095D01*
X155794380Y-96606952D01*
X155794380Y-96702190D01*
X155746761Y-96845047D01*
X155651523Y-96940285D01*
X155556285Y-96987904D01*
X155365809Y-97035523D01*
X155222952Y-97035523D01*
X155032476Y-96987904D01*
X154937238Y-96940285D01*
X154842000Y-96845047D01*
X154794380Y-96702190D01*
X154794380Y-96606952D01*
X154842000Y-96464095D01*
X154889619Y-96416476D01*
X154794380Y-95702190D02*
X155508666Y-95702190D01*
X155651523Y-95749809D01*
X155746761Y-95845047D01*
X155794380Y-95987904D01*
X155794380Y-96083142D01*
X155794380Y-94749809D02*
X155794380Y-95226000D01*
X154794380Y-95226000D01*
X155699142Y-93845047D02*
X155746761Y-93892666D01*
X155794380Y-94035523D01*
X155794380Y-94130761D01*
X155746761Y-94273619D01*
X155651523Y-94368857D01*
X155556285Y-94416476D01*
X155365809Y-94464095D01*
X155222952Y-94464095D01*
X155032476Y-94416476D01*
X154937238Y-94368857D01*
X154842000Y-94273619D01*
X154794380Y-94130761D01*
X154794380Y-94035523D01*
X154842000Y-93892666D01*
X154889619Y-93845047D01*
X154794380Y-93130761D02*
X155508666Y-93130761D01*
X155651523Y-93178380D01*
X155746761Y-93273619D01*
X155794380Y-93416476D01*
X155794380Y-93511714D01*
X155794380Y-92178380D02*
X155794380Y-92654571D01*
X154794380Y-92654571D01*
X155699142Y-91273619D02*
X155746761Y-91321238D01*
X155794380Y-91464095D01*
X155794380Y-91559333D01*
X155746761Y-91702190D01*
X155651523Y-91797428D01*
X155556285Y-91845047D01*
X155365809Y-91892666D01*
X155222952Y-91892666D01*
X155032476Y-91845047D01*
X154937238Y-91797428D01*
X154842000Y-91702190D01*
X154794380Y-91559333D01*
X154794380Y-91464095D01*
X154842000Y-91321238D01*
X154889619Y-91273619D01*
X183861047Y-96397428D02*
X184622952Y-96397428D01*
X184242000Y-96778380D02*
X184242000Y-96016476D01*
%TO.C,D5*%
X180803904Y-95978380D02*
X180803904Y-94978380D01*
X181042000Y-94978380D01*
X181184857Y-95026000D01*
X181280095Y-95121238D01*
X181327714Y-95216476D01*
X181375333Y-95406952D01*
X181375333Y-95549809D01*
X181327714Y-95740285D01*
X181280095Y-95835523D01*
X181184857Y-95930761D01*
X181042000Y-95978380D01*
X180803904Y-95978380D01*
X182280095Y-94978380D02*
X181803904Y-94978380D01*
X181756285Y-95454571D01*
X181803904Y-95406952D01*
X181899142Y-95359333D01*
X182137238Y-95359333D01*
X182232476Y-95406952D01*
X182280095Y-95454571D01*
X182327714Y-95549809D01*
X182327714Y-95787904D01*
X182280095Y-95883142D01*
X182232476Y-95930761D01*
X182137238Y-95978380D01*
X181899142Y-95978380D01*
X181803904Y-95930761D01*
X181756285Y-95883142D01*
%TO.C,D4*%
X159741404Y-115328380D02*
X159741404Y-114328380D01*
X159979500Y-114328380D01*
X160122357Y-114376000D01*
X160217595Y-114471238D01*
X160265214Y-114566476D01*
X160312833Y-114756952D01*
X160312833Y-114899809D01*
X160265214Y-115090285D01*
X160217595Y-115185523D01*
X160122357Y-115280761D01*
X159979500Y-115328380D01*
X159741404Y-115328380D01*
X161169976Y-114661714D02*
X161169976Y-115328380D01*
X160931880Y-114280761D02*
X160693785Y-114995047D01*
X161312833Y-114995047D01*
%TO.C,D3*%
X142702380Y-119738095D02*
X141702380Y-119738095D01*
X141702380Y-119500000D01*
X141750000Y-119357142D01*
X141845238Y-119261904D01*
X141940476Y-119214285D01*
X142130952Y-119166666D01*
X142273809Y-119166666D01*
X142464285Y-119214285D01*
X142559523Y-119261904D01*
X142654761Y-119357142D01*
X142702380Y-119500000D01*
X142702380Y-119738095D01*
X141702380Y-118833333D02*
X141702380Y-118214285D01*
X142083333Y-118547619D01*
X142083333Y-118404761D01*
X142130952Y-118309523D01*
X142178571Y-118261904D01*
X142273809Y-118214285D01*
X142511904Y-118214285D01*
X142607142Y-118261904D01*
X142654761Y-118309523D01*
X142702380Y-118404761D01*
X142702380Y-118690476D01*
X142654761Y-118785714D01*
X142607142Y-118833333D01*
%TO.C,J10*%
X136790476Y-113302380D02*
X136790476Y-114016666D01*
X136742857Y-114159523D01*
X136647619Y-114254761D01*
X136504761Y-114302380D01*
X136409523Y-114302380D01*
X137790476Y-114302380D02*
X137219047Y-114302380D01*
X137504761Y-114302380D02*
X137504761Y-113302380D01*
X137409523Y-113445238D01*
X137314285Y-113540476D01*
X137219047Y-113588095D01*
X138409523Y-113302380D02*
X138504761Y-113302380D01*
X138600000Y-113350000D01*
X138647619Y-113397619D01*
X138695238Y-113492857D01*
X138742857Y-113683333D01*
X138742857Y-113921428D01*
X138695238Y-114111904D01*
X138647619Y-114207142D01*
X138600000Y-114254761D01*
X138504761Y-114302380D01*
X138409523Y-114302380D01*
X138314285Y-114254761D01*
X138266666Y-114207142D01*
X138219047Y-114111904D01*
X138171428Y-113921428D01*
X138171428Y-113683333D01*
X138219047Y-113492857D01*
X138266666Y-113397619D01*
X138314285Y-113350000D01*
X138409523Y-113302380D01*
%TO.C,J12*%
X148690476Y-113452380D02*
X148690476Y-114166666D01*
X148642857Y-114309523D01*
X148547619Y-114404761D01*
X148404761Y-114452380D01*
X148309523Y-114452380D01*
X149690476Y-114452380D02*
X149119047Y-114452380D01*
X149404761Y-114452380D02*
X149404761Y-113452380D01*
X149309523Y-113595238D01*
X149214285Y-113690476D01*
X149119047Y-113738095D01*
X150071428Y-113547619D02*
X150119047Y-113500000D01*
X150214285Y-113452380D01*
X150452380Y-113452380D01*
X150547619Y-113500000D01*
X150595238Y-113547619D01*
X150642857Y-113642857D01*
X150642857Y-113738095D01*
X150595238Y-113880952D01*
X150023809Y-114452380D01*
X150642857Y-114452380D01*
%TO.C,J13*%
X125440476Y-113702380D02*
X125440476Y-114416666D01*
X125392857Y-114559523D01*
X125297619Y-114654761D01*
X125154761Y-114702380D01*
X125059523Y-114702380D01*
X126440476Y-114702380D02*
X125869047Y-114702380D01*
X126154761Y-114702380D02*
X126154761Y-113702380D01*
X126059523Y-113845238D01*
X125964285Y-113940476D01*
X125869047Y-113988095D01*
X126773809Y-113702380D02*
X127392857Y-113702380D01*
X127059523Y-114083333D01*
X127202380Y-114083333D01*
X127297619Y-114130952D01*
X127345238Y-114178571D01*
X127392857Y-114273809D01*
X127392857Y-114511904D01*
X127345238Y-114607142D01*
X127297619Y-114654761D01*
X127202380Y-114702380D01*
X126916666Y-114702380D01*
X126821428Y-114654761D01*
X126773809Y-114607142D01*
%TO.C,J11*%
X111952380Y-97309523D02*
X112666666Y-97309523D01*
X112809523Y-97357142D01*
X112904761Y-97452380D01*
X112952380Y-97595238D01*
X112952380Y-97690476D01*
X112952380Y-96309523D02*
X112952380Y-96880952D01*
X112952380Y-96595238D02*
X111952380Y-96595238D01*
X112095238Y-96690476D01*
X112190476Y-96785714D01*
X112238095Y-96880952D01*
X112952380Y-95357142D02*
X112952380Y-95928571D01*
X112952380Y-95642857D02*
X111952380Y-95642857D01*
X112095238Y-95738095D01*
X112190476Y-95833333D01*
X112238095Y-95928571D01*
%TO.C,J8*%
X111952380Y-109333333D02*
X112666666Y-109333333D01*
X112809523Y-109380952D01*
X112904761Y-109476190D01*
X112952380Y-109619047D01*
X112952380Y-109714285D01*
X112380952Y-108714285D02*
X112333333Y-108809523D01*
X112285714Y-108857142D01*
X112190476Y-108904761D01*
X112142857Y-108904761D01*
X112047619Y-108857142D01*
X112000000Y-108809523D01*
X111952380Y-108714285D01*
X111952380Y-108523809D01*
X112000000Y-108428571D01*
X112047619Y-108380952D01*
X112142857Y-108333333D01*
X112190476Y-108333333D01*
X112285714Y-108380952D01*
X112333333Y-108428571D01*
X112380952Y-108523809D01*
X112380952Y-108714285D01*
X112428571Y-108809523D01*
X112476190Y-108857142D01*
X112571428Y-108904761D01*
X112761904Y-108904761D01*
X112857142Y-108857142D01*
X112904761Y-108809523D01*
X112952380Y-108714285D01*
X112952380Y-108523809D01*
X112904761Y-108428571D01*
X112857142Y-108380952D01*
X112761904Y-108333333D01*
X112571428Y-108333333D01*
X112476190Y-108380952D01*
X112428571Y-108428571D01*
X112380952Y-108523809D01*
%TO.C,J9*%
X116916666Y-113302380D02*
X116916666Y-114016666D01*
X116869047Y-114159523D01*
X116773809Y-114254761D01*
X116630952Y-114302380D01*
X116535714Y-114302380D01*
X117440476Y-114302380D02*
X117630952Y-114302380D01*
X117726190Y-114254761D01*
X117773809Y-114207142D01*
X117869047Y-114064285D01*
X117916666Y-113873809D01*
X117916666Y-113492857D01*
X117869047Y-113397619D01*
X117821428Y-113350000D01*
X117726190Y-113302380D01*
X117535714Y-113302380D01*
X117440476Y-113350000D01*
X117392857Y-113397619D01*
X117345238Y-113492857D01*
X117345238Y-113730952D01*
X117392857Y-113826190D01*
X117440476Y-113873809D01*
X117535714Y-113921428D01*
X117726190Y-113921428D01*
X117821428Y-113873809D01*
X117869047Y-113826190D01*
X117916666Y-113730952D01*
%TO.C,J4*%
X120102380Y-92281333D02*
X120816666Y-92281333D01*
X120959523Y-92328952D01*
X121054761Y-92424190D01*
X121102380Y-92567047D01*
X121102380Y-92662285D01*
X120435714Y-91376571D02*
X121102380Y-91376571D01*
X120054761Y-91614666D02*
X120769047Y-91852761D01*
X120769047Y-91233714D01*
%TO.C,J7*%
X156452380Y-89583333D02*
X157166666Y-89583333D01*
X157309523Y-89630952D01*
X157404761Y-89726190D01*
X157452380Y-89869047D01*
X157452380Y-89964285D01*
X156452380Y-89202380D02*
X156452380Y-88535714D01*
X157452380Y-88964285D01*
%TO.C,R5*%
X124928333Y-75636380D02*
X124595000Y-75160190D01*
X124356904Y-75636380D02*
X124356904Y-74636380D01*
X124737857Y-74636380D01*
X124833095Y-74684000D01*
X124880714Y-74731619D01*
X124928333Y-74826857D01*
X124928333Y-74969714D01*
X124880714Y-75064952D01*
X124833095Y-75112571D01*
X124737857Y-75160190D01*
X124356904Y-75160190D01*
X125833095Y-74636380D02*
X125356904Y-74636380D01*
X125309285Y-75112571D01*
X125356904Y-75064952D01*
X125452142Y-75017333D01*
X125690238Y-75017333D01*
X125785476Y-75064952D01*
X125833095Y-75112571D01*
X125880714Y-75207809D01*
X125880714Y-75445904D01*
X125833095Y-75541142D01*
X125785476Y-75588761D01*
X125690238Y-75636380D01*
X125452142Y-75636380D01*
X125356904Y-75588761D01*
X125309285Y-75541142D01*
%TO.C,Q2*%
X115846761Y-107973619D02*
X115751523Y-107926000D01*
X115656285Y-107830761D01*
X115513428Y-107687904D01*
X115418190Y-107640285D01*
X115322952Y-107640285D01*
X115370571Y-107878380D02*
X115275333Y-107830761D01*
X115180095Y-107735523D01*
X115132476Y-107545047D01*
X115132476Y-107211714D01*
X115180095Y-107021238D01*
X115275333Y-106926000D01*
X115370571Y-106878380D01*
X115561047Y-106878380D01*
X115656285Y-106926000D01*
X115751523Y-107021238D01*
X115799142Y-107211714D01*
X115799142Y-107545047D01*
X115751523Y-107735523D01*
X115656285Y-107830761D01*
X115561047Y-107878380D01*
X115370571Y-107878380D01*
X116180095Y-106973619D02*
X116227714Y-106926000D01*
X116322952Y-106878380D01*
X116561047Y-106878380D01*
X116656285Y-106926000D01*
X116703904Y-106973619D01*
X116751523Y-107068857D01*
X116751523Y-107164095D01*
X116703904Y-107306952D01*
X116132476Y-107878380D01*
X116751523Y-107878380D01*
%TO.C,R10*%
X159107142Y-109952380D02*
X158773809Y-109476190D01*
X158535714Y-109952380D02*
X158535714Y-108952380D01*
X158916666Y-108952380D01*
X159011904Y-109000000D01*
X159059523Y-109047619D01*
X159107142Y-109142857D01*
X159107142Y-109285714D01*
X159059523Y-109380952D01*
X159011904Y-109428571D01*
X158916666Y-109476190D01*
X158535714Y-109476190D01*
X160059523Y-109952380D02*
X159488095Y-109952380D01*
X159773809Y-109952380D02*
X159773809Y-108952380D01*
X159678571Y-109095238D01*
X159583333Y-109190476D01*
X159488095Y-109238095D01*
X160678571Y-108952380D02*
X160773809Y-108952380D01*
X160869047Y-109000000D01*
X160916666Y-109047619D01*
X160964285Y-109142857D01*
X161011904Y-109333333D01*
X161011904Y-109571428D01*
X160964285Y-109761904D01*
X160916666Y-109857142D01*
X160869047Y-109904761D01*
X160773809Y-109952380D01*
X160678571Y-109952380D01*
X160583333Y-109904761D01*
X160535714Y-109857142D01*
X160488095Y-109761904D01*
X160440476Y-109571428D01*
X160440476Y-109333333D01*
X160488095Y-109142857D01*
X160535714Y-109047619D01*
X160583333Y-109000000D01*
X160678571Y-108952380D01*
%TO.C,Q4*%
X164654761Y-107797619D02*
X164559523Y-107750000D01*
X164464285Y-107654761D01*
X164321428Y-107511904D01*
X164226190Y-107464285D01*
X164130952Y-107464285D01*
X164178571Y-107702380D02*
X164083333Y-107654761D01*
X163988095Y-107559523D01*
X163940476Y-107369047D01*
X163940476Y-107035714D01*
X163988095Y-106845238D01*
X164083333Y-106750000D01*
X164178571Y-106702380D01*
X164369047Y-106702380D01*
X164464285Y-106750000D01*
X164559523Y-106845238D01*
X164607142Y-107035714D01*
X164607142Y-107369047D01*
X164559523Y-107559523D01*
X164464285Y-107654761D01*
X164369047Y-107702380D01*
X164178571Y-107702380D01*
X165464285Y-107035714D02*
X165464285Y-107702380D01*
X165226190Y-106654761D02*
X164988095Y-107369047D01*
X165607142Y-107369047D01*
%TO.C,R6*%
X124928333Y-72969380D02*
X124595000Y-72493190D01*
X124356904Y-72969380D02*
X124356904Y-71969380D01*
X124737857Y-71969380D01*
X124833095Y-72017000D01*
X124880714Y-72064619D01*
X124928333Y-72159857D01*
X124928333Y-72302714D01*
X124880714Y-72397952D01*
X124833095Y-72445571D01*
X124737857Y-72493190D01*
X124356904Y-72493190D01*
X125785476Y-71969380D02*
X125595000Y-71969380D01*
X125499761Y-72017000D01*
X125452142Y-72064619D01*
X125356904Y-72207476D01*
X125309285Y-72397952D01*
X125309285Y-72778904D01*
X125356904Y-72874142D01*
X125404523Y-72921761D01*
X125499761Y-72969380D01*
X125690238Y-72969380D01*
X125785476Y-72921761D01*
X125833095Y-72874142D01*
X125880714Y-72778904D01*
X125880714Y-72540809D01*
X125833095Y-72445571D01*
X125785476Y-72397952D01*
X125690238Y-72350333D01*
X125499761Y-72350333D01*
X125404523Y-72397952D01*
X125356904Y-72445571D01*
X125309285Y-72540809D01*
%TO.C,R15*%
X124960142Y-85288380D02*
X124626809Y-84812190D01*
X124388714Y-85288380D02*
X124388714Y-84288380D01*
X124769666Y-84288380D01*
X124864904Y-84336000D01*
X124912523Y-84383619D01*
X124960142Y-84478857D01*
X124960142Y-84621714D01*
X124912523Y-84716952D01*
X124864904Y-84764571D01*
X124769666Y-84812190D01*
X124388714Y-84812190D01*
X125912523Y-85288380D02*
X125341095Y-85288380D01*
X125626809Y-85288380D02*
X125626809Y-84288380D01*
X125531571Y-84431238D01*
X125436333Y-84526476D01*
X125341095Y-84574095D01*
X126817285Y-84288380D02*
X126341095Y-84288380D01*
X126293476Y-84764571D01*
X126341095Y-84716952D01*
X126436333Y-84669333D01*
X126674428Y-84669333D01*
X126769666Y-84716952D01*
X126817285Y-84764571D01*
X126864904Y-84859809D01*
X126864904Y-85097904D01*
X126817285Y-85193142D01*
X126769666Y-85240761D01*
X126674428Y-85288380D01*
X126436333Y-85288380D01*
X126341095Y-85240761D01*
X126293476Y-85193142D01*
%TO.C,R7*%
X143343333Y-113736380D02*
X143010000Y-113260190D01*
X142771904Y-113736380D02*
X142771904Y-112736380D01*
X143152857Y-112736380D01*
X143248095Y-112784000D01*
X143295714Y-112831619D01*
X143343333Y-112926857D01*
X143343333Y-113069714D01*
X143295714Y-113164952D01*
X143248095Y-113212571D01*
X143152857Y-113260190D01*
X142771904Y-113260190D01*
X143676666Y-112736380D02*
X144343333Y-112736380D01*
X143914761Y-113736380D01*
%TO.C,R14*%
X124960142Y-87955380D02*
X124626809Y-87479190D01*
X124388714Y-87955380D02*
X124388714Y-86955380D01*
X124769666Y-86955380D01*
X124864904Y-87003000D01*
X124912523Y-87050619D01*
X124960142Y-87145857D01*
X124960142Y-87288714D01*
X124912523Y-87383952D01*
X124864904Y-87431571D01*
X124769666Y-87479190D01*
X124388714Y-87479190D01*
X125912523Y-87955380D02*
X125341095Y-87955380D01*
X125626809Y-87955380D02*
X125626809Y-86955380D01*
X125531571Y-87098238D01*
X125436333Y-87193476D01*
X125341095Y-87241095D01*
X126769666Y-87288714D02*
X126769666Y-87955380D01*
X126531571Y-86907761D02*
X126293476Y-87622047D01*
X126912523Y-87622047D01*
%TO.C,R9*%
X124928333Y-79065380D02*
X124595000Y-78589190D01*
X124356904Y-79065380D02*
X124356904Y-78065380D01*
X124737857Y-78065380D01*
X124833095Y-78113000D01*
X124880714Y-78160619D01*
X124928333Y-78255857D01*
X124928333Y-78398714D01*
X124880714Y-78493952D01*
X124833095Y-78541571D01*
X124737857Y-78589190D01*
X124356904Y-78589190D01*
X125404523Y-79065380D02*
X125595000Y-79065380D01*
X125690238Y-79017761D01*
X125737857Y-78970142D01*
X125833095Y-78827285D01*
X125880714Y-78636809D01*
X125880714Y-78255857D01*
X125833095Y-78160619D01*
X125785476Y-78113000D01*
X125690238Y-78065380D01*
X125499761Y-78065380D01*
X125404523Y-78113000D01*
X125356904Y-78160619D01*
X125309285Y-78255857D01*
X125309285Y-78493952D01*
X125356904Y-78589190D01*
X125404523Y-78636809D01*
X125499761Y-78684428D01*
X125690238Y-78684428D01*
X125785476Y-78636809D01*
X125833095Y-78589190D01*
X125880714Y-78493952D01*
%TO.C,USB1*%
X183073904Y-67952380D02*
X183073904Y-68761904D01*
X183121523Y-68857142D01*
X183169142Y-68904761D01*
X183264380Y-68952380D01*
X183454857Y-68952380D01*
X183550095Y-68904761D01*
X183597714Y-68857142D01*
X183645333Y-68761904D01*
X183645333Y-67952380D01*
X184073904Y-68904761D02*
X184216761Y-68952380D01*
X184454857Y-68952380D01*
X184550095Y-68904761D01*
X184597714Y-68857142D01*
X184645333Y-68761904D01*
X184645333Y-68666666D01*
X184597714Y-68571428D01*
X184550095Y-68523809D01*
X184454857Y-68476190D01*
X184264380Y-68428571D01*
X184169142Y-68380952D01*
X184121523Y-68333333D01*
X184073904Y-68238095D01*
X184073904Y-68142857D01*
X184121523Y-68047619D01*
X184169142Y-68000000D01*
X184264380Y-67952380D01*
X184502476Y-67952380D01*
X184645333Y-68000000D01*
X185407238Y-68428571D02*
X185550095Y-68476190D01*
X185597714Y-68523809D01*
X185645333Y-68619047D01*
X185645333Y-68761904D01*
X185597714Y-68857142D01*
X185550095Y-68904761D01*
X185454857Y-68952380D01*
X185073904Y-68952380D01*
X185073904Y-67952380D01*
X185407238Y-67952380D01*
X185502476Y-68000000D01*
X185550095Y-68047619D01*
X185597714Y-68142857D01*
X185597714Y-68238095D01*
X185550095Y-68333333D01*
X185502476Y-68380952D01*
X185407238Y-68428571D01*
X185073904Y-68428571D01*
X186597714Y-68952380D02*
X186026285Y-68952380D01*
X186312000Y-68952380D02*
X186312000Y-67952380D01*
X186216761Y-68095238D01*
X186121523Y-68190476D01*
X186026285Y-68238095D01*
%TO.C,R4*%
X131833333Y-113736380D02*
X131500000Y-113260190D01*
X131261904Y-113736380D02*
X131261904Y-112736380D01*
X131642857Y-112736380D01*
X131738095Y-112784000D01*
X131785714Y-112831619D01*
X131833333Y-112926857D01*
X131833333Y-113069714D01*
X131785714Y-113164952D01*
X131738095Y-113212571D01*
X131642857Y-113260190D01*
X131261904Y-113260190D01*
X132690476Y-113069714D02*
X132690476Y-113736380D01*
X132452380Y-112688761D02*
X132214285Y-113403047D01*
X132833333Y-113403047D01*
%TO.C,D2*%
X131202380Y-119738095D02*
X130202380Y-119738095D01*
X130202380Y-119500000D01*
X130250000Y-119357142D01*
X130345238Y-119261904D01*
X130440476Y-119214285D01*
X130630952Y-119166666D01*
X130773809Y-119166666D01*
X130964285Y-119214285D01*
X131059523Y-119261904D01*
X131154761Y-119357142D01*
X131202380Y-119500000D01*
X131202380Y-119738095D01*
X130297619Y-118785714D02*
X130250000Y-118738095D01*
X130202380Y-118642857D01*
X130202380Y-118404761D01*
X130250000Y-118309523D01*
X130297619Y-118261904D01*
X130392857Y-118214285D01*
X130488095Y-118214285D01*
X130630952Y-118261904D01*
X131202380Y-118833333D01*
X131202380Y-118214285D01*
%TO.C,J3*%
X111952380Y-83833333D02*
X112666666Y-83833333D01*
X112809523Y-83880952D01*
X112904761Y-83976190D01*
X112952380Y-84119047D01*
X112952380Y-84214285D01*
X111952380Y-83452380D02*
X111952380Y-82833333D01*
X112333333Y-83166666D01*
X112333333Y-83023809D01*
X112380952Y-82928571D01*
X112428571Y-82880952D01*
X112523809Y-82833333D01*
X112761904Y-82833333D01*
X112857142Y-82880952D01*
X112904761Y-82928571D01*
X112952380Y-83023809D01*
X112952380Y-83309523D01*
X112904761Y-83404761D01*
X112857142Y-83452380D01*
%TO.C,J2*%
X176916666Y-111792380D02*
X176916666Y-112506666D01*
X176869047Y-112649523D01*
X176773809Y-112744761D01*
X176630952Y-112792380D01*
X176535714Y-112792380D01*
X177345238Y-111887619D02*
X177392857Y-111840000D01*
X177488095Y-111792380D01*
X177726190Y-111792380D01*
X177821428Y-111840000D01*
X177869047Y-111887619D01*
X177916666Y-111982857D01*
X177916666Y-112078095D01*
X177869047Y-112220952D01*
X177297619Y-112792380D01*
X177916666Y-112792380D01*
%TO.C,J5*%
X163718666Y-89018380D02*
X163718666Y-89732666D01*
X163671047Y-89875523D01*
X163575809Y-89970761D01*
X163432952Y-90018380D01*
X163337714Y-90018380D01*
X164671047Y-89018380D02*
X164194857Y-89018380D01*
X164147238Y-89494571D01*
X164194857Y-89446952D01*
X164290095Y-89399333D01*
X164528190Y-89399333D01*
X164623428Y-89446952D01*
X164671047Y-89494571D01*
X164718666Y-89589809D01*
X164718666Y-89827904D01*
X164671047Y-89923142D01*
X164623428Y-89970761D01*
X164528190Y-90018380D01*
X164290095Y-90018380D01*
X164194857Y-89970761D01*
X164147238Y-89923142D01*
%TO.C,Q3*%
X121346761Y-107973619D02*
X121251523Y-107926000D01*
X121156285Y-107830761D01*
X121013428Y-107687904D01*
X120918190Y-107640285D01*
X120822952Y-107640285D01*
X120870571Y-107878380D02*
X120775333Y-107830761D01*
X120680095Y-107735523D01*
X120632476Y-107545047D01*
X120632476Y-107211714D01*
X120680095Y-107021238D01*
X120775333Y-106926000D01*
X120870571Y-106878380D01*
X121061047Y-106878380D01*
X121156285Y-106926000D01*
X121251523Y-107021238D01*
X121299142Y-107211714D01*
X121299142Y-107545047D01*
X121251523Y-107735523D01*
X121156285Y-107830761D01*
X121061047Y-107878380D01*
X120870571Y-107878380D01*
X121632476Y-106878380D02*
X122251523Y-106878380D01*
X121918190Y-107259333D01*
X122061047Y-107259333D01*
X122156285Y-107306952D01*
X122203904Y-107354571D01*
X122251523Y-107449809D01*
X122251523Y-107687904D01*
X122203904Y-107783142D01*
X122156285Y-107830761D01*
X122061047Y-107878380D01*
X121775333Y-107878380D01*
X121680095Y-107830761D01*
X121632476Y-107783142D01*
%TO.C,J15*%
X156690476Y-113452380D02*
X156690476Y-114166666D01*
X156642857Y-114309523D01*
X156547619Y-114404761D01*
X156404761Y-114452380D01*
X156309523Y-114452380D01*
X157690476Y-114452380D02*
X157119047Y-114452380D01*
X157404761Y-114452380D02*
X157404761Y-113452380D01*
X157309523Y-113595238D01*
X157214285Y-113690476D01*
X157119047Y-113738095D01*
X158595238Y-113452380D02*
X158119047Y-113452380D01*
X158071428Y-113928571D01*
X158119047Y-113880952D01*
X158214285Y-113833333D01*
X158452380Y-113833333D01*
X158547619Y-113880952D01*
X158595238Y-113928571D01*
X158642857Y-114023809D01*
X158642857Y-114261904D01*
X158595238Y-114357142D01*
X158547619Y-114404761D01*
X158452380Y-114452380D01*
X158214285Y-114452380D01*
X158119047Y-114404761D01*
X158071428Y-114357142D01*
%TO.C,R8*%
X124928333Y-81732380D02*
X124595000Y-81256190D01*
X124356904Y-81732380D02*
X124356904Y-80732380D01*
X124737857Y-80732380D01*
X124833095Y-80780000D01*
X124880714Y-80827619D01*
X124928333Y-80922857D01*
X124928333Y-81065714D01*
X124880714Y-81160952D01*
X124833095Y-81208571D01*
X124737857Y-81256190D01*
X124356904Y-81256190D01*
X125499761Y-81160952D02*
X125404523Y-81113333D01*
X125356904Y-81065714D01*
X125309285Y-80970476D01*
X125309285Y-80922857D01*
X125356904Y-80827619D01*
X125404523Y-80780000D01*
X125499761Y-80732380D01*
X125690238Y-80732380D01*
X125785476Y-80780000D01*
X125833095Y-80827619D01*
X125880714Y-80922857D01*
X125880714Y-80970476D01*
X125833095Y-81065714D01*
X125785476Y-81113333D01*
X125690238Y-81160952D01*
X125499761Y-81160952D01*
X125404523Y-81208571D01*
X125356904Y-81256190D01*
X125309285Y-81351428D01*
X125309285Y-81541904D01*
X125356904Y-81637142D01*
X125404523Y-81684761D01*
X125499761Y-81732380D01*
X125690238Y-81732380D01*
X125785476Y-81684761D01*
X125833095Y-81637142D01*
X125880714Y-81541904D01*
X125880714Y-81351428D01*
X125833095Y-81256190D01*
X125785476Y-81208571D01*
X125690238Y-81160952D01*
%TO.C,R2*%
X176767833Y-110052380D02*
X176434500Y-109576190D01*
X176196404Y-110052380D02*
X176196404Y-109052380D01*
X176577357Y-109052380D01*
X176672595Y-109100000D01*
X176720214Y-109147619D01*
X176767833Y-109242857D01*
X176767833Y-109385714D01*
X176720214Y-109480952D01*
X176672595Y-109528571D01*
X176577357Y-109576190D01*
X176196404Y-109576190D01*
X177148785Y-109147619D02*
X177196404Y-109100000D01*
X177291642Y-109052380D01*
X177529738Y-109052380D01*
X177624976Y-109100000D01*
X177672595Y-109147619D01*
X177720214Y-109242857D01*
X177720214Y-109338095D01*
X177672595Y-109480952D01*
X177101166Y-110052380D01*
X177720214Y-110052380D01*
%TO.C,D1*%
X185110380Y-118086095D02*
X184110380Y-118086095D01*
X184110380Y-117848000D01*
X184158000Y-117705142D01*
X184253238Y-117609904D01*
X184348476Y-117562285D01*
X184538952Y-117514666D01*
X184681809Y-117514666D01*
X184872285Y-117562285D01*
X184967523Y-117609904D01*
X185062761Y-117705142D01*
X185110380Y-117848000D01*
X185110380Y-118086095D01*
X185110380Y-116562285D02*
X185110380Y-117133714D01*
X185110380Y-116848000D02*
X184110380Y-116848000D01*
X184253238Y-116943238D01*
X184348476Y-117038476D01*
X184396095Y-117133714D01*
%TO.C,Q1*%
X181006761Y-106719619D02*
X180911523Y-106672000D01*
X180816285Y-106576761D01*
X180673428Y-106433904D01*
X180578190Y-106386285D01*
X180482952Y-106386285D01*
X180530571Y-106624380D02*
X180435333Y-106576761D01*
X180340095Y-106481523D01*
X180292476Y-106291047D01*
X180292476Y-105957714D01*
X180340095Y-105767238D01*
X180435333Y-105672000D01*
X180530571Y-105624380D01*
X180721047Y-105624380D01*
X180816285Y-105672000D01*
X180911523Y-105767238D01*
X180959142Y-105957714D01*
X180959142Y-106291047D01*
X180911523Y-106481523D01*
X180816285Y-106576761D01*
X180721047Y-106624380D01*
X180530571Y-106624380D01*
X181911523Y-106624380D02*
X181340095Y-106624380D01*
X181625809Y-106624380D02*
X181625809Y-105624380D01*
X181530571Y-105767238D01*
X181435333Y-105862476D01*
X181340095Y-105910095D01*
%TO.C,R3*%
X172910833Y-110052380D02*
X172577500Y-109576190D01*
X172339404Y-110052380D02*
X172339404Y-109052380D01*
X172720357Y-109052380D01*
X172815595Y-109100000D01*
X172863214Y-109147619D01*
X172910833Y-109242857D01*
X172910833Y-109385714D01*
X172863214Y-109480952D01*
X172815595Y-109528571D01*
X172720357Y-109576190D01*
X172339404Y-109576190D01*
X173244166Y-109052380D02*
X173863214Y-109052380D01*
X173529880Y-109433333D01*
X173672738Y-109433333D01*
X173767976Y-109480952D01*
X173815595Y-109528571D01*
X173863214Y-109623809D01*
X173863214Y-109861904D01*
X173815595Y-109957142D01*
X173767976Y-110004761D01*
X173672738Y-110052380D01*
X173387023Y-110052380D01*
X173291785Y-110004761D01*
X173244166Y-109957142D01*
%TO.C,R1*%
X184982380Y-113554166D02*
X184506190Y-113887500D01*
X184982380Y-114125595D02*
X183982380Y-114125595D01*
X183982380Y-113744642D01*
X184030000Y-113649404D01*
X184077619Y-113601785D01*
X184172857Y-113554166D01*
X184315714Y-113554166D01*
X184410952Y-113601785D01*
X184458571Y-113649404D01*
X184506190Y-113744642D01*
X184506190Y-114125595D01*
X184982380Y-112601785D02*
X184982380Y-113173214D01*
X184982380Y-112887500D02*
X183982380Y-112887500D01*
X184125238Y-112982738D01*
X184220476Y-113077976D01*
X184268095Y-113173214D01*
%TO.C,L1*%
X178425333Y-85928380D02*
X177949142Y-85928380D01*
X177949142Y-84928380D01*
X179282476Y-85928380D02*
X178711047Y-85928380D01*
X178996761Y-85928380D02*
X178996761Y-84928380D01*
X178901523Y-85071238D01*
X178806285Y-85166476D01*
X178711047Y-85214095D01*
%TO.C,C5*%
X168005333Y-88083142D02*
X167957714Y-88130761D01*
X167814857Y-88178380D01*
X167719619Y-88178380D01*
X167576761Y-88130761D01*
X167481523Y-88035523D01*
X167433904Y-87940285D01*
X167386285Y-87749809D01*
X167386285Y-87606952D01*
X167433904Y-87416476D01*
X167481523Y-87321238D01*
X167576761Y-87226000D01*
X167719619Y-87178380D01*
X167814857Y-87178380D01*
X167957714Y-87226000D01*
X168005333Y-87273619D01*
X168910095Y-87178380D02*
X168433904Y-87178380D01*
X168386285Y-87654571D01*
X168433904Y-87606952D01*
X168529142Y-87559333D01*
X168767238Y-87559333D01*
X168862476Y-87606952D01*
X168910095Y-87654571D01*
X168957714Y-87749809D01*
X168957714Y-87987904D01*
X168910095Y-88083142D01*
X168862476Y-88130761D01*
X168767238Y-88178380D01*
X168529142Y-88178380D01*
X168433904Y-88130761D01*
X168386285Y-88083142D01*
%TO.C,U1*%
X174498095Y-98822380D02*
X174498095Y-99631904D01*
X174545714Y-99727142D01*
X174593333Y-99774761D01*
X174688571Y-99822380D01*
X174879047Y-99822380D01*
X174974285Y-99774761D01*
X175021904Y-99727142D01*
X175069523Y-99631904D01*
X175069523Y-98822380D01*
X176069523Y-99822380D02*
X175498095Y-99822380D01*
X175783809Y-99822380D02*
X175783809Y-98822380D01*
X175688571Y-98965238D01*
X175593333Y-99060476D01*
X175498095Y-99108095D01*
%TO.C,C2*%
X181902333Y-101377142D02*
X181854714Y-101424761D01*
X181711857Y-101472380D01*
X181616619Y-101472380D01*
X181473761Y-101424761D01*
X181378523Y-101329523D01*
X181330904Y-101234285D01*
X181283285Y-101043809D01*
X181283285Y-100900952D01*
X181330904Y-100710476D01*
X181378523Y-100615238D01*
X181473761Y-100520000D01*
X181616619Y-100472380D01*
X181711857Y-100472380D01*
X181854714Y-100520000D01*
X181902333Y-100567619D01*
X182283285Y-100567619D02*
X182330904Y-100520000D01*
X182426142Y-100472380D01*
X182664238Y-100472380D01*
X182759476Y-100520000D01*
X182807095Y-100567619D01*
X182854714Y-100662857D01*
X182854714Y-100758095D01*
X182807095Y-100900952D01*
X182235666Y-101472380D01*
X182854714Y-101472380D01*
%TO.C,R13*%
X168267142Y-108910380D02*
X167933809Y-108434190D01*
X167695714Y-108910380D02*
X167695714Y-107910380D01*
X168076666Y-107910380D01*
X168171904Y-107958000D01*
X168219523Y-108005619D01*
X168267142Y-108100857D01*
X168267142Y-108243714D01*
X168219523Y-108338952D01*
X168171904Y-108386571D01*
X168076666Y-108434190D01*
X167695714Y-108434190D01*
X169219523Y-108910380D02*
X168648095Y-108910380D01*
X168933809Y-108910380D02*
X168933809Y-107910380D01*
X168838571Y-108053238D01*
X168743333Y-108148476D01*
X168648095Y-108196095D01*
X169552857Y-107910380D02*
X170171904Y-107910380D01*
X169838571Y-108291333D01*
X169981428Y-108291333D01*
X170076666Y-108338952D01*
X170124285Y-108386571D01*
X170171904Y-108481809D01*
X170171904Y-108719904D01*
X170124285Y-108815142D01*
X170076666Y-108862761D01*
X169981428Y-108910380D01*
X169695714Y-108910380D01*
X169600476Y-108862761D01*
X169552857Y-108815142D01*
%TO.C,R12*%
X168267142Y-104972380D02*
X167933809Y-104496190D01*
X167695714Y-104972380D02*
X167695714Y-103972380D01*
X168076666Y-103972380D01*
X168171904Y-104020000D01*
X168219523Y-104067619D01*
X168267142Y-104162857D01*
X168267142Y-104305714D01*
X168219523Y-104400952D01*
X168171904Y-104448571D01*
X168076666Y-104496190D01*
X167695714Y-104496190D01*
X169219523Y-104972380D02*
X168648095Y-104972380D01*
X168933809Y-104972380D02*
X168933809Y-103972380D01*
X168838571Y-104115238D01*
X168743333Y-104210476D01*
X168648095Y-104258095D01*
X169600476Y-104067619D02*
X169648095Y-104020000D01*
X169743333Y-103972380D01*
X169981428Y-103972380D01*
X170076666Y-104020000D01*
X170124285Y-104067619D01*
X170171904Y-104162857D01*
X170171904Y-104258095D01*
X170124285Y-104400952D01*
X169552857Y-104972380D01*
X170171904Y-104972380D01*
%TO.C,C3*%
X167727333Y-81129142D02*
X167679714Y-81176761D01*
X167536857Y-81224380D01*
X167441619Y-81224380D01*
X167298761Y-81176761D01*
X167203523Y-81081523D01*
X167155904Y-80986285D01*
X167108285Y-80795809D01*
X167108285Y-80652952D01*
X167155904Y-80462476D01*
X167203523Y-80367238D01*
X167298761Y-80272000D01*
X167441619Y-80224380D01*
X167536857Y-80224380D01*
X167679714Y-80272000D01*
X167727333Y-80319619D01*
X168060666Y-80224380D02*
X168679714Y-80224380D01*
X168346380Y-80605333D01*
X168489238Y-80605333D01*
X168584476Y-80652952D01*
X168632095Y-80700571D01*
X168679714Y-80795809D01*
X168679714Y-81033904D01*
X168632095Y-81129142D01*
X168584476Y-81176761D01*
X168489238Y-81224380D01*
X168203523Y-81224380D01*
X168108285Y-81176761D01*
X168060666Y-81129142D01*
%TO.C,C1*%
X167727333Y-78589142D02*
X167679714Y-78636761D01*
X167536857Y-78684380D01*
X167441619Y-78684380D01*
X167298761Y-78636761D01*
X167203523Y-78541523D01*
X167155904Y-78446285D01*
X167108285Y-78255809D01*
X167108285Y-78112952D01*
X167155904Y-77922476D01*
X167203523Y-77827238D01*
X167298761Y-77732000D01*
X167441619Y-77684380D01*
X167536857Y-77684380D01*
X167679714Y-77732000D01*
X167727333Y-77779619D01*
X168679714Y-78684380D02*
X168108285Y-78684380D01*
X168394000Y-78684380D02*
X168394000Y-77684380D01*
X168298761Y-77827238D01*
X168203523Y-77922476D01*
X168108285Y-77970095D01*
%TO.C,C4*%
X174773333Y-96467142D02*
X174725714Y-96514761D01*
X174582857Y-96562380D01*
X174487619Y-96562380D01*
X174344761Y-96514761D01*
X174249523Y-96419523D01*
X174201904Y-96324285D01*
X174154285Y-96133809D01*
X174154285Y-95990952D01*
X174201904Y-95800476D01*
X174249523Y-95705238D01*
X174344761Y-95610000D01*
X174487619Y-95562380D01*
X174582857Y-95562380D01*
X174725714Y-95610000D01*
X174773333Y-95657619D01*
X175630476Y-95895714D02*
X175630476Y-96562380D01*
X175392380Y-95514761D02*
X175154285Y-96229047D01*
X175773333Y-96229047D01*
%TO.C,R11*%
X168267142Y-98774880D02*
X167933809Y-98298690D01*
X167695714Y-98774880D02*
X167695714Y-97774880D01*
X168076666Y-97774880D01*
X168171904Y-97822500D01*
X168219523Y-97870119D01*
X168267142Y-97965357D01*
X168267142Y-98108214D01*
X168219523Y-98203452D01*
X168171904Y-98251071D01*
X168076666Y-98298690D01*
X167695714Y-98298690D01*
X169219523Y-98774880D02*
X168648095Y-98774880D01*
X168933809Y-98774880D02*
X168933809Y-97774880D01*
X168838571Y-97917738D01*
X168743333Y-98012976D01*
X168648095Y-98060595D01*
X170171904Y-98774880D02*
X169600476Y-98774880D01*
X169886190Y-98774880D02*
X169886190Y-97774880D01*
X169790952Y-97917738D01*
X169695714Y-98012976D01*
X169600476Y-98060595D01*
D11*
%TO.C,D5*%
X178142000Y-96376000D02*
X178142000Y-99676000D01*
X178142000Y-99676000D02*
X183542000Y-99676000D01*
X178142000Y-96376000D02*
X183542000Y-96376000D01*
%TO.C,D4*%
X162164500Y-112266000D02*
X159479500Y-112266000D01*
X162164500Y-114186000D02*
X162164500Y-112266000D01*
X159479500Y-114186000D02*
X162164500Y-114186000D01*
%TO.C,D3*%
X142540000Y-118000000D02*
X142540000Y-120685000D01*
X144460000Y-120685000D02*
X144460000Y-118000000D01*
X142540000Y-120685000D02*
X144460000Y-120685000D01*
%TO.C,J10*%
X138250000Y-120200000D02*
X137250000Y-120200000D01*
X141560000Y-114990000D02*
X133940000Y-114990000D01*
X133950000Y-120200000D02*
X133950000Y-120950000D01*
X138250000Y-120950000D02*
X138250000Y-120200000D01*
X135750000Y-120950000D02*
X135750000Y-120200000D01*
X141550000Y-120950000D02*
X141550000Y-120200000D01*
X141850000Y-121250000D02*
X141850000Y-120000000D01*
X135750000Y-120200000D02*
X133950000Y-120200000D01*
X133940000Y-114990000D02*
X133940000Y-120960000D01*
X137250000Y-120950000D02*
X138250000Y-120950000D01*
X141560000Y-120960000D02*
X141560000Y-114990000D01*
X133940000Y-120960000D02*
X141560000Y-120960000D01*
X139750000Y-120200000D02*
X139750000Y-120950000D01*
X133950000Y-120950000D02*
X135750000Y-120950000D01*
X139750000Y-120950000D02*
X141550000Y-120950000D01*
X140800000Y-118700000D02*
X140800000Y-115750000D01*
X133950000Y-118700000D02*
X134700000Y-118700000D01*
X140800000Y-115750000D02*
X137750000Y-115750000D01*
X141550000Y-120200000D02*
X139750000Y-120200000D01*
X140600000Y-121250000D02*
X141850000Y-121250000D01*
X137250000Y-120200000D02*
X137250000Y-120950000D01*
X134700000Y-118700000D02*
X134700000Y-115750000D01*
X134700000Y-115750000D02*
X137750000Y-115750000D01*
X141550000Y-118700000D02*
X140800000Y-118700000D01*
%TO.C,J12*%
X151250000Y-120950000D02*
X153050000Y-120950000D01*
X145440000Y-120960000D02*
X153060000Y-120960000D01*
X146200000Y-118700000D02*
X146200000Y-115750000D01*
X147250000Y-120200000D02*
X145450000Y-120200000D01*
X149750000Y-120200000D02*
X148750000Y-120200000D01*
X151250000Y-120200000D02*
X151250000Y-120950000D01*
X152100000Y-121250000D02*
X153350000Y-121250000D01*
X152300000Y-118700000D02*
X152300000Y-115750000D01*
X145450000Y-120950000D02*
X147250000Y-120950000D01*
X148750000Y-120950000D02*
X149750000Y-120950000D01*
X146200000Y-115750000D02*
X149250000Y-115750000D01*
X153050000Y-120200000D02*
X151250000Y-120200000D01*
X145440000Y-114990000D02*
X145440000Y-120960000D01*
X153060000Y-120960000D02*
X153060000Y-114990000D01*
X148750000Y-120200000D02*
X148750000Y-120950000D01*
X153060000Y-114990000D02*
X145440000Y-114990000D01*
X149750000Y-120950000D02*
X149750000Y-120200000D01*
X153350000Y-121250000D02*
X153350000Y-120000000D01*
X153050000Y-120950000D02*
X153050000Y-120200000D01*
X145450000Y-120200000D02*
X145450000Y-120950000D01*
X145450000Y-118700000D02*
X146200000Y-118700000D01*
X147250000Y-120950000D02*
X147250000Y-120200000D01*
X153050000Y-118700000D02*
X152300000Y-118700000D01*
X152300000Y-115750000D02*
X149250000Y-115750000D01*
%TO.C,J13*%
X126750000Y-120200000D02*
X125750000Y-120200000D01*
X126750000Y-120950000D02*
X126750000Y-120200000D01*
X123200000Y-118700000D02*
X123200000Y-115750000D01*
X129300000Y-118700000D02*
X129300000Y-115750000D01*
X122450000Y-120200000D02*
X122450000Y-120950000D01*
X130060000Y-114990000D02*
X122440000Y-114990000D01*
X130050000Y-120200000D02*
X128250000Y-120200000D01*
X130050000Y-118700000D02*
X129300000Y-118700000D01*
X123200000Y-115750000D02*
X126250000Y-115750000D01*
X125750000Y-120950000D02*
X126750000Y-120950000D01*
X122440000Y-114990000D02*
X122440000Y-120960000D01*
X122440000Y-120960000D02*
X130060000Y-120960000D01*
X130060000Y-120960000D02*
X130060000Y-114990000D01*
X130350000Y-121250000D02*
X130350000Y-120000000D01*
X130050000Y-120950000D02*
X130050000Y-120200000D01*
X129300000Y-115750000D02*
X126250000Y-115750000D01*
X122450000Y-118700000D02*
X123200000Y-118700000D01*
X128250000Y-120950000D02*
X130050000Y-120950000D01*
X129100000Y-121250000D02*
X130350000Y-121250000D01*
X124250000Y-120950000D02*
X124250000Y-120200000D01*
X125750000Y-120200000D02*
X125750000Y-120950000D01*
X122450000Y-120950000D02*
X124250000Y-120950000D01*
X128250000Y-120200000D02*
X128250000Y-120950000D01*
X124250000Y-120200000D02*
X122450000Y-120200000D01*
%TO.C,J11*%
X110750000Y-99800000D02*
X110750000Y-96750000D01*
X106300000Y-96250000D02*
X105550000Y-96250000D01*
X105550000Y-97250000D02*
X106300000Y-97250000D01*
X107800000Y-92950000D02*
X107800000Y-93700000D01*
X111510000Y-92940000D02*
X105540000Y-92940000D01*
X106300000Y-94750000D02*
X106300000Y-92950000D01*
X106300000Y-98750000D02*
X105550000Y-98750000D01*
X110750000Y-93700000D02*
X110750000Y-96750000D01*
X111510000Y-100560000D02*
X111510000Y-92940000D01*
X105540000Y-92940000D02*
X105540000Y-100560000D01*
X105550000Y-98750000D02*
X105550000Y-100550000D01*
X106300000Y-100550000D02*
X106300000Y-98750000D01*
X105550000Y-96250000D02*
X105550000Y-97250000D01*
X105550000Y-100550000D02*
X106300000Y-100550000D01*
X106300000Y-92950000D02*
X105550000Y-92950000D01*
X105540000Y-100560000D02*
X111510000Y-100560000D01*
X105250000Y-99600000D02*
X105250000Y-100850000D01*
X106300000Y-97250000D02*
X106300000Y-96250000D01*
X105250000Y-100850000D02*
X106500000Y-100850000D01*
X107800000Y-100550000D02*
X107800000Y-99800000D01*
X105550000Y-94750000D02*
X106300000Y-94750000D01*
X107800000Y-93700000D02*
X110750000Y-93700000D01*
X107800000Y-99800000D02*
X110750000Y-99800000D01*
X105550000Y-92950000D02*
X105550000Y-94750000D01*
%TO.C,J8*%
X110750000Y-111800000D02*
X110750000Y-108750000D01*
X111510000Y-104940000D02*
X105540000Y-104940000D01*
X105550000Y-112550000D02*
X106300000Y-112550000D01*
X105550000Y-108250000D02*
X105550000Y-109250000D01*
X105250000Y-112850000D02*
X106500000Y-112850000D01*
X107800000Y-105700000D02*
X110750000Y-105700000D01*
X106300000Y-104950000D02*
X105550000Y-104950000D01*
X111510000Y-112560000D02*
X111510000Y-104940000D01*
X105550000Y-109250000D02*
X106300000Y-109250000D01*
X107800000Y-111800000D02*
X110750000Y-111800000D01*
X105550000Y-104950000D02*
X105550000Y-106750000D01*
X107800000Y-112550000D02*
X107800000Y-111800000D01*
X106300000Y-112550000D02*
X106300000Y-110750000D01*
X110750000Y-105700000D02*
X110750000Y-108750000D01*
X106300000Y-109250000D02*
X106300000Y-108250000D01*
X105540000Y-112560000D02*
X111510000Y-112560000D01*
X105250000Y-111600000D02*
X105250000Y-112850000D01*
X105550000Y-110750000D02*
X105550000Y-112550000D01*
X106300000Y-108250000D02*
X105550000Y-108250000D01*
X106300000Y-106750000D02*
X106300000Y-104950000D01*
X105540000Y-104940000D02*
X105540000Y-112560000D01*
X107800000Y-104950000D02*
X107800000Y-105700000D01*
X106300000Y-110750000D02*
X105550000Y-110750000D01*
X105550000Y-106750000D02*
X106300000Y-106750000D01*
%TO.C,J9*%
X116750000Y-120200000D02*
X116750000Y-120950000D01*
X120100000Y-121250000D02*
X121350000Y-121250000D01*
X116750000Y-120950000D02*
X117750000Y-120950000D01*
X114200000Y-118700000D02*
X114200000Y-115750000D01*
X120300000Y-118700000D02*
X120300000Y-115750000D01*
X119250000Y-120950000D02*
X121050000Y-120950000D01*
X117750000Y-120950000D02*
X117750000Y-120200000D01*
X117750000Y-120200000D02*
X116750000Y-120200000D01*
X114200000Y-115750000D02*
X117250000Y-115750000D01*
X121060000Y-114990000D02*
X113440000Y-114990000D01*
X121050000Y-118700000D02*
X120300000Y-118700000D01*
X121060000Y-120960000D02*
X121060000Y-114990000D01*
X113450000Y-118700000D02*
X114200000Y-118700000D01*
X121050000Y-120950000D02*
X121050000Y-120200000D01*
X121350000Y-121250000D02*
X121350000Y-120000000D01*
X113450000Y-120950000D02*
X115250000Y-120950000D01*
X113440000Y-120960000D02*
X121060000Y-120960000D01*
X115250000Y-120950000D02*
X115250000Y-120200000D01*
X115250000Y-120200000D02*
X113450000Y-120200000D01*
X120300000Y-115750000D02*
X117250000Y-115750000D01*
X121050000Y-120200000D02*
X119250000Y-120200000D01*
X113440000Y-114990000D02*
X113440000Y-120960000D01*
X119250000Y-120200000D02*
X119250000Y-120950000D01*
X113450000Y-120200000D02*
X113450000Y-120950000D01*
%TO.C,J4*%
X119830000Y-72970000D02*
X114630000Y-72970000D01*
X114630000Y-103510000D02*
X114630000Y-72970000D01*
X119830000Y-106110000D02*
X119830000Y-72970000D01*
X117230000Y-106110000D02*
X117230000Y-103510000D01*
X114630000Y-106110000D02*
X114630000Y-104780000D01*
X115960000Y-106110000D02*
X114630000Y-106110000D01*
X117230000Y-103510000D02*
X114630000Y-103510000D01*
X119830000Y-106110000D02*
X117230000Y-106110000D01*
%TO.C,J7*%
X157670000Y-106110000D02*
X157670000Y-104780000D01*
X160330000Y-103510000D02*
X157670000Y-103510000D01*
X159000000Y-106110000D02*
X157670000Y-106110000D01*
X160330000Y-72970000D02*
X157670000Y-72970000D01*
X157670000Y-103510000D02*
X157670000Y-72970000D01*
X160330000Y-103510000D02*
X160330000Y-72970000D01*
%TO.C,R5*%
X122839564Y-74365000D02*
X122385436Y-74365000D01*
X122839564Y-75835000D02*
X122385436Y-75835000D01*
%TO.C,Q2*%
X117510000Y-110000000D02*
X117510000Y-110650000D01*
X114390000Y-110000000D02*
X114390000Y-109350000D01*
X114390000Y-110000000D02*
X114390000Y-110650000D01*
X117510000Y-110000000D02*
X117510000Y-108325000D01*
%TO.C,R10*%
X160360436Y-111735000D02*
X160814564Y-111735000D01*
X160360436Y-110265000D02*
X160814564Y-110265000D01*
%TO.C,Q4*%
X165000000Y-107940000D02*
X165650000Y-107940000D01*
X165000000Y-111060000D02*
X165650000Y-111060000D01*
X165000000Y-107940000D02*
X163325000Y-107940000D01*
X165000000Y-111060000D02*
X164350000Y-111060000D01*
%TO.C,R6*%
X122839564Y-71655000D02*
X122385436Y-71655000D01*
X122839564Y-73125000D02*
X122385436Y-73125000D01*
%TO.C,R15*%
X122839564Y-85435000D02*
X122385436Y-85435000D01*
X122839564Y-83965000D02*
X122385436Y-83965000D01*
%TO.C,R7*%
X142765000Y-115639564D02*
X142765000Y-115185436D01*
X144235000Y-115639564D02*
X144235000Y-115185436D01*
%TO.C,R14*%
X122839564Y-88135000D02*
X122385436Y-88135000D01*
X122839564Y-86665000D02*
X122385436Y-86665000D01*
%TO.C,R9*%
X122814564Y-77765000D02*
X122360436Y-77765000D01*
X122814564Y-79235000D02*
X122360436Y-79235000D01*
%TO.C,USB1*%
X190112000Y-68690000D02*
X190732000Y-68690000D01*
X173462000Y-79100000D02*
X173462000Y-79900000D01*
X178642000Y-69690000D02*
X176462000Y-69690000D01*
X190112000Y-82310000D02*
X182142000Y-82310000D01*
X190112000Y-83310000D02*
X190112000Y-82310000D01*
X190732000Y-83310000D02*
X190112000Y-83310000D01*
X190732000Y-68690000D02*
X190732000Y-83310000D01*
X182142000Y-69690000D02*
X190112000Y-69690000D01*
X178642000Y-82310000D02*
X176462000Y-82310000D01*
X190112000Y-69690000D02*
X190112000Y-68690000D01*
X173612000Y-81190000D02*
X173612000Y-70810000D01*
%TO.C,R4*%
X131265000Y-115727064D02*
X131265000Y-115272936D01*
X132735000Y-115727064D02*
X132735000Y-115272936D01*
%TO.C,D2*%
X131040000Y-120747500D02*
X132960000Y-120747500D01*
X132960000Y-120747500D02*
X132960000Y-118062500D01*
X131040000Y-118062500D02*
X131040000Y-120747500D01*
%TO.C,J3*%
X106300000Y-91550000D02*
X106300000Y-89750000D01*
X111510000Y-91560000D02*
X111510000Y-73940000D01*
X105250000Y-90600000D02*
X105250000Y-91850000D01*
X105550000Y-89750000D02*
X105550000Y-91550000D01*
X105540000Y-73940000D02*
X105540000Y-91560000D01*
X105550000Y-77250000D02*
X105550000Y-88250000D01*
X105250000Y-91850000D02*
X106500000Y-91850000D01*
X106300000Y-73950000D02*
X105550000Y-73950000D01*
X110750000Y-90800000D02*
X110750000Y-82750000D01*
X105550000Y-73950000D02*
X105550000Y-75750000D01*
X107800000Y-91550000D02*
X107800000Y-90800000D01*
X111510000Y-73940000D02*
X105540000Y-73940000D01*
X105550000Y-91550000D02*
X106300000Y-91550000D01*
X106300000Y-75750000D02*
X106300000Y-73950000D01*
X105540000Y-91560000D02*
X111510000Y-91560000D01*
X107800000Y-74700000D02*
X110750000Y-74700000D01*
X106300000Y-89750000D02*
X105550000Y-89750000D01*
X107800000Y-90800000D02*
X110750000Y-90800000D01*
X105550000Y-75750000D02*
X106300000Y-75750000D01*
X106300000Y-77250000D02*
X105550000Y-77250000D01*
X110750000Y-74700000D02*
X110750000Y-82750000D01*
X105550000Y-88250000D02*
X106300000Y-88250000D01*
X107800000Y-73950000D02*
X107800000Y-74700000D01*
X106300000Y-88250000D02*
X106300000Y-77250000D01*
%TO.C,J2*%
X173690000Y-120600000D02*
X180810000Y-120600000D01*
X173690000Y-119500000D02*
X180810000Y-119500000D01*
X173690000Y-113340000D02*
X173690000Y-121060000D01*
X173690000Y-121060000D02*
X180810000Y-121060000D01*
X180810000Y-113340000D02*
X180810000Y-121060000D01*
X178025000Y-117681000D02*
X177931000Y-117774000D01*
X173450000Y-120660000D02*
X173450000Y-121300000D01*
X177855000Y-117441000D02*
X177726000Y-117569000D01*
X180275000Y-115431000D02*
X180146000Y-115559000D01*
X180070000Y-115225000D02*
X179976000Y-115319000D01*
X173690000Y-113340000D02*
X180810000Y-113340000D01*
X173450000Y-121300000D02*
X173850000Y-121300000D01*
X174059999Y-115634000D02*
G75*
G03*
X174074642Y-117389894I1439999J-866000D01*
G01*
X176366000Y-115059999D02*
G75*
G03*
X174610106Y-115074642I-866000J-1439999D01*
G01*
X176925000Y-117391000D02*
G75*
G03*
X176925504Y-115609807I-1425003J891000D01*
G01*
X174634000Y-117940000D02*
G75*
G03*
X175528674Y-118180099I866003J1440014D01*
G01*
X175500000Y-118180000D02*
G75*
G03*
X176390264Y-117924721I3J1679990D01*
G01*
X180680000Y-116500000D02*
G75*
G03*
X180680000Y-116500000I-1680000J0D01*
G01*
%TO.C,J5*%
X163910000Y-90420000D02*
X165240000Y-90420000D01*
X165240000Y-90420000D02*
X165240000Y-91750000D01*
X165240000Y-93020000D02*
X165240000Y-105780000D01*
X162580000Y-93020000D02*
X162580000Y-105780000D01*
X162580000Y-93020000D02*
X165240000Y-93020000D01*
X162580000Y-105780000D02*
X165240000Y-105780000D01*
%TO.C,Q3*%
X119990000Y-110000000D02*
X119990000Y-110650000D01*
X123110000Y-110000000D02*
X123110000Y-108325000D01*
X119990000Y-110000000D02*
X119990000Y-109350000D01*
X123110000Y-110000000D02*
X123110000Y-110650000D01*
%TO.C,J15*%
X158250000Y-120200000D02*
X157250000Y-120200000D01*
X154700000Y-118700000D02*
X154700000Y-115750000D01*
X161560000Y-114990000D02*
X153940000Y-114990000D01*
X160600000Y-121250000D02*
X161850000Y-121250000D01*
X161550000Y-118700000D02*
X160800000Y-118700000D01*
X153950000Y-118700000D02*
X154700000Y-118700000D01*
X153940000Y-114990000D02*
X153940000Y-120960000D01*
X157250000Y-120950000D02*
X158250000Y-120950000D01*
X157250000Y-120200000D02*
X157250000Y-120950000D01*
X161850000Y-121250000D02*
X161850000Y-120000000D01*
X159750000Y-120200000D02*
X159750000Y-120950000D01*
X161560000Y-120960000D02*
X161560000Y-114990000D01*
X160800000Y-115750000D02*
X157750000Y-115750000D01*
X153950000Y-120200000D02*
X153950000Y-120950000D01*
X158250000Y-120950000D02*
X158250000Y-120200000D01*
X155750000Y-120950000D02*
X155750000Y-120200000D01*
X159750000Y-120950000D02*
X161550000Y-120950000D01*
X161550000Y-120950000D02*
X161550000Y-120200000D01*
X153940000Y-120960000D02*
X161560000Y-120960000D01*
X161550000Y-120200000D02*
X159750000Y-120200000D01*
X154700000Y-115750000D02*
X157750000Y-115750000D01*
X160800000Y-118700000D02*
X160800000Y-115750000D01*
X155750000Y-120200000D02*
X153950000Y-120200000D01*
X153950000Y-120950000D02*
X155750000Y-120950000D01*
%TO.C,R8*%
X122827064Y-80465000D02*
X122372936Y-80465000D01*
X122827064Y-81935000D02*
X122372936Y-81935000D01*
%TO.C,R2*%
X177161564Y-108685000D02*
X176707436Y-108685000D01*
X177161564Y-107215000D02*
X176707436Y-107215000D01*
%TO.C,D1*%
X181920000Y-118857500D02*
X183840000Y-118857500D01*
X181920000Y-116172500D02*
X181920000Y-118857500D01*
X183840000Y-118857500D02*
X183840000Y-116172500D01*
%TO.C,Q1*%
X182596000Y-108887500D02*
X182596000Y-107212500D01*
X182596000Y-108887500D02*
X182596000Y-109537500D01*
X179476000Y-108887500D02*
X179476000Y-108237500D01*
X179476000Y-108887500D02*
X179476000Y-109537500D01*
%TO.C,R3*%
X173304564Y-108685000D02*
X172850436Y-108685000D01*
X173304564Y-107215000D02*
X172850436Y-107215000D01*
%TO.C,R1*%
X183615000Y-113160436D02*
X183615000Y-113614564D01*
X182145000Y-113160436D02*
X182145000Y-113614564D01*
%TO.C,L1*%
X175842000Y-86166000D02*
X181342000Y-86166000D01*
X181342000Y-92886000D02*
X175842000Y-92886000D01*
X175232000Y-87626000D02*
X175232000Y-86776000D01*
X181952000Y-91426000D02*
X181952000Y-92276000D01*
X181952000Y-86776000D02*
X181952000Y-87626000D01*
X175232000Y-92276000D02*
X175232000Y-91426000D01*
X181952000Y-86776000D02*
G75*
G03*
X181342000Y-86166000I-610000J0D01*
G01*
X175232000Y-92276000D02*
G75*
G03*
X175842000Y-92886000I610000J0D01*
G01*
X181342000Y-92886000D02*
G75*
G03*
X181952000Y-92276000I0J610000D01*
G01*
X175842000Y-86166000D02*
G75*
G03*
X175232000Y-86776000I0J-610000D01*
G01*
%TO.C,C5*%
X166770000Y-95358000D02*
X169120000Y-95358000D01*
X167834437Y-88538000D02*
X169120000Y-88538000D01*
X173590000Y-89602437D02*
X173590000Y-95358000D01*
X173590000Y-95358000D02*
X171240000Y-95358000D01*
X172421250Y-87904250D02*
X171633750Y-87904250D01*
X166770000Y-89602437D02*
X166770000Y-95358000D01*
X172525563Y-88538000D02*
X171240000Y-88538000D01*
X167834437Y-88538000D02*
X166770000Y-89602437D01*
X172525563Y-88538000D02*
X173590000Y-89602437D01*
X172027500Y-87510500D02*
X172027500Y-88298000D01*
D10*
%TO.C,U1*%
X177335000Y-100295000D02*
X177335000Y-100440000D01*
X173185000Y-100295000D02*
X177335000Y-100295000D01*
X173185000Y-100345000D02*
X171785000Y-100345000D01*
X173185000Y-105445000D02*
X177335000Y-105445000D01*
X173185000Y-105445000D02*
X173185000Y-105300000D01*
X177335000Y-105445000D02*
X177335000Y-105300000D01*
X173185000Y-100295000D02*
X173185000Y-100345000D01*
D11*
%TO.C,C2*%
X181357748Y-103780000D02*
X182780252Y-103780000D01*
X181357748Y-101960000D02*
X182780252Y-101960000D01*
%TO.C,R13*%
X168682936Y-105945000D02*
X169137064Y-105945000D01*
X168682936Y-107415000D02*
X169137064Y-107415000D01*
%TO.C,R12*%
X169137064Y-102135000D02*
X168682936Y-102135000D01*
X169137064Y-103605000D02*
X168682936Y-103605000D01*
%TO.C,C3*%
X170786652Y-81507000D02*
X170264148Y-81507000D01*
X170786652Y-80037000D02*
X170264148Y-80037000D01*
%TO.C,C1*%
X170761252Y-77497000D02*
X170238748Y-77497000D01*
X170761252Y-78967000D02*
X170238748Y-78967000D01*
%TO.C,C4*%
X174678748Y-97055000D02*
X175201252Y-97055000D01*
X174678748Y-98525000D02*
X175201252Y-98525000D01*
%TO.C,R11*%
X168682936Y-100707500D02*
X169137064Y-100707500D01*
X168682936Y-99237500D02*
X169137064Y-99237500D01*
%TD*%
M02*
