M48
; DRILL file {KiCad (6.0.0)} date Mon Oct 17 11:18:09 2022
; FORMAT={-:-/ absolute / inch / decimal}
; #@! TF.CreationDate,2022-10-17T11:18:09+08:00
; #@! TF.GenerationSoftware,Kicad,Pcbnew,(6.0.0)
; #@! TF.FileFunction,Plated,1,2,PTH
FMAT,2
INCH
; #@! TA.AperFunction,Plated,PTH,ComponentDrill
T1C0.0118
; #@! TA.AperFunction,Plated,PTH,ViaDrill
T2C0.0157
; #@! TA.AperFunction,Plated,PTH,ComponentDrill
T3C0.0362
; #@! TA.AperFunction,Plated,PTH,ComponentDrill
T4C0.0374
; #@! TA.AperFunction,Plated,PTH,ComponentDrill
T5C0.0394
; #@! TA.AperFunction,Plated,PTH,ComponentDrill
T6C0.0472
; #@! TA.AperFunction,Plated,PTH,ComponentDrill
T7C0.0906
%
G90
G05
T1
X6.3141Y-3.6564
X6.3141Y-3.7036
X6.3574Y-3.6564
X6.3574Y-3.7036
X6.4086Y-3.6564
X6.4086Y-3.7036
X6.4559Y-3.6564
X6.4559Y-3.7036
T2
X3.7343Y-2.8937
X3.9972Y-4.0382
X4.1476Y-3.4547
X4.2303Y-4.0646
X4.2307Y-4.0965
X4.9941Y-4.2953
X5.3553Y-4.2963
X5.4833Y-3.2231
X5.5118Y-3.252
X5.5413Y-3.2224
X5.5627Y-2.7901
X5.5728Y-3.2539
X5.6919Y-4.2953
X6.01Y-2.63
X6.01Y-2.9
X6.011Y-2.7673
X6.064Y-3.128
X6.064Y-3.158
X6.094Y-3.128
X6.094Y-3.158
X6.124Y-3.128
X6.124Y-3.158
X6.154Y-3.128
X6.154Y-3.158
X6.184Y-3.128
X6.184Y-3.158
X6.2126Y-2.7335
X6.2126Y-2.8752
T3
X6.3191Y-2.6272
X6.3191Y-2.7256
X6.3191Y-2.8044
X6.3191Y-2.9028
X6.4223Y-2.6272
X6.4223Y-2.7256
X6.4223Y-2.8044
X6.4223Y-2.9028
T4
X3.6614Y-2.7953
X3.6614Y-2.8937
X3.6614Y-2.9921
X3.6614Y-3.0906
X3.6614Y-3.189
X3.6614Y-3.2874
T5
X3.61Y-3.83
X3.6106Y-3.98
X3.6106Y-4.13
X3.6604Y-3.5295
X3.6604Y-3.628
X3.71Y-3.83
X3.7106Y-3.98
X3.7106Y-4.13
X3.81Y-3.83
X3.8106Y-3.98
X3.8106Y-4.13
X3.9756Y-2.7075
X3.9756Y-2.8075
X3.9756Y-2.9075
X3.9756Y-3.0075
X3.9756Y-3.1075
X3.9756Y-3.2075
X3.9756Y-3.3075
X3.9756Y-3.4075
X3.9756Y-3.5075
X3.9756Y-3.6075
X3.9756Y-3.7075
X3.9756Y-3.8075
X3.9756Y-3.9075
X3.9816Y-4.44
X4.0756Y-2.7075
X4.0756Y-2.8075
X4.0756Y-2.9075
X4.0756Y-3.0075
X4.0756Y-3.1075
X4.0756Y-3.2075
X4.0756Y-3.3075
X4.0756Y-3.4075
X4.0756Y-3.5075
X4.0756Y-3.6075
X4.0756Y-3.7075
X4.0756Y-3.8075
X4.0756Y-3.9075
X4.08Y-4.44
X4.3408Y-4.4407
X4.4392Y-4.4407
X4.8416Y-4.4402
X4.94Y-4.4402
X5.1916Y-4.44
X5.29Y-4.44
X5.5416Y-4.44
X5.64Y-4.44
X5.6726Y-2.7073
X5.6726Y-2.8073
X5.6726Y-2.9073
X5.6726Y-2.9073
X5.6726Y-3.0073
X5.6726Y-3.1073
X5.6726Y-3.1073
X5.6726Y-3.2073
X5.6726Y-3.3073
X5.6726Y-3.4073
X5.6726Y-3.5073
X5.6726Y-3.6073
X5.6726Y-3.7073
X5.6726Y-3.8073
X5.6726Y-3.9073
X5.8671Y-3.2963
X5.8671Y-3.3963
X5.8671Y-3.4963
X5.8671Y-3.5963
X5.8671Y-3.6963
X5.8671Y-3.7963
X5.8671Y-3.8963
X5.8671Y-3.9963
T6
X6.2711Y-4.3701
X6.4089Y-4.3701
T7
X6.3054Y-2.5063
X6.3054Y-3.0237
X6.529Y-2.5063
X6.529Y-3.0237
T0
M30
