%TF.GenerationSoftware,KiCad,Pcbnew,(5.1.12)-1*%
%TF.CreationDate,2021-12-26T21:26:00+08:00*%
%TF.ProjectId,OrangePiZeroExtentionBoard,4f72616e-6765-4506-995a-65726f457874,rev?*%
%TF.SameCoordinates,Original*%
%TF.FileFunction,Soldermask,Bot*%
%TF.FilePolarity,Negative*%
%FSLAX46Y46*%
G04 Gerber Fmt 4.6, Leading zero omitted, Abs format (unit mm)*
G04 Created by KiCad (PCBNEW (5.1.12)-1) date 2021-12-26 21:26:00*
%MOMM*%
%LPD*%
G01*
G04 APERTURE LIST*
%ADD10C,1.500000*%
%ADD11C,3.000000*%
%ADD12R,1.500000X1.500000*%
%ADD13C,0.800000*%
%ADD14C,6.400000*%
%ADD15R,2.400000X2.400000*%
%ADD16C,2.400000*%
%ADD17O,1.950000X1.700000*%
%ADD18R,1.700000X1.700000*%
%ADD19O,1.700000X1.700000*%
%ADD20O,2.000000X1.700000*%
%ADD21O,1.700000X2.000000*%
%ADD22C,3.200000*%
G04 APERTURE END LIST*
D10*
%TO.C,USB1*%
X178620000Y-72500000D03*
X178620000Y-75000000D03*
X178620000Y-77000000D03*
X178620000Y-79500000D03*
D11*
X181330000Y-69430000D03*
X181330000Y-82570000D03*
D10*
X176000000Y-72500000D03*
X176000000Y-75000000D03*
X176000000Y-77000000D03*
D12*
X176000000Y-79500000D03*
D11*
X175650000Y-82570000D03*
X175650000Y-69430000D03*
%TD*%
D13*
%TO.C,*%
X110197056Y-116302944D03*
X108500000Y-115600000D03*
X106802944Y-116302944D03*
X106100000Y-118000000D03*
X106802944Y-119697056D03*
X108500000Y-120400000D03*
X110197056Y-119697056D03*
X110900000Y-118000000D03*
D14*
X108500000Y-118000000D03*
%TD*%
%TO.C,*%
X108500000Y-69000000D03*
D13*
X110900000Y-69000000D03*
X110197056Y-70697056D03*
X108500000Y-71400000D03*
X106802944Y-70697056D03*
X106100000Y-69000000D03*
X106802944Y-67302944D03*
X108500000Y-66600000D03*
X110197056Y-67302944D03*
%TD*%
%TO.C,*%
X168197056Y-67302944D03*
X166500000Y-66600000D03*
X164802944Y-67302944D03*
X164100000Y-69000000D03*
X164802944Y-70697056D03*
X166500000Y-71400000D03*
X168197056Y-70697056D03*
X168900000Y-69000000D03*
D14*
X166500000Y-69000000D03*
%TD*%
D13*
%TO.C,*%
X168197056Y-116302944D03*
X166500000Y-115600000D03*
X164802944Y-116302944D03*
X164100000Y-118000000D03*
X164802944Y-119697056D03*
X166500000Y-120400000D03*
X168197056Y-119697056D03*
X168900000Y-118000000D03*
D14*
X166500000Y-118000000D03*
%TD*%
D15*
%TO.C,J2*%
X175500000Y-116500000D03*
D16*
X179000000Y-116500000D03*
%TD*%
%TO.C,J3*%
G36*
G01*
X108725000Y-89850000D02*
X107275000Y-89850000D01*
G75*
G02*
X107025000Y-89600000I0J250000D01*
G01*
X107025000Y-88400000D01*
G75*
G02*
X107275000Y-88150000I250000J0D01*
G01*
X108725000Y-88150000D01*
G75*
G02*
X108975000Y-88400000I0J-250000D01*
G01*
X108975000Y-89600000D01*
G75*
G02*
X108725000Y-89850000I-250000J0D01*
G01*
G37*
D17*
X108000000Y-86500000D03*
X108000000Y-84000000D03*
X108000000Y-81500000D03*
X108000000Y-79000000D03*
X108000000Y-76500000D03*
%TD*%
D18*
%TO.C,J4*%
X115960000Y-104780000D03*
D19*
X118500000Y-104780000D03*
X115960000Y-102240000D03*
X118500000Y-102240000D03*
X115960000Y-99700000D03*
X118500000Y-99700000D03*
X115960000Y-97160000D03*
X118500000Y-97160000D03*
X115960000Y-94620000D03*
X118500000Y-94620000D03*
X115960000Y-92080000D03*
X118500000Y-92080000D03*
X115960000Y-89540000D03*
X118500000Y-89540000D03*
X115960000Y-87000000D03*
X118500000Y-87000000D03*
X115960000Y-84460000D03*
X118500000Y-84460000D03*
X115960000Y-81920000D03*
X118500000Y-81920000D03*
X115960000Y-79380000D03*
X118500000Y-79380000D03*
X115960000Y-76840000D03*
X118500000Y-76840000D03*
X115960000Y-74300000D03*
X118500000Y-74300000D03*
%TD*%
D18*
%TO.C,J7*%
X159000000Y-104780000D03*
D19*
X159000000Y-102240000D03*
X159000000Y-99700000D03*
X159000000Y-97160000D03*
X159000000Y-94620000D03*
X159000000Y-92080000D03*
X159000000Y-89540000D03*
X159000000Y-87000000D03*
X159000000Y-84460000D03*
X159000000Y-81920000D03*
X159000000Y-79380000D03*
X159000000Y-76840000D03*
X159000000Y-74300000D03*
%TD*%
%TO.C,J8*%
G36*
G01*
X108750000Y-110850000D02*
X107250000Y-110850000D01*
G75*
G02*
X107000000Y-110600000I0J250000D01*
G01*
X107000000Y-109400000D01*
G75*
G02*
X107250000Y-109150000I250000J0D01*
G01*
X108750000Y-109150000D01*
G75*
G02*
X109000000Y-109400000I0J-250000D01*
G01*
X109000000Y-110600000D01*
G75*
G02*
X108750000Y-110850000I-250000J0D01*
G01*
G37*
D20*
X108000000Y-107500000D03*
%TD*%
D21*
%TO.C,J9*%
X116000000Y-118500000D03*
G36*
G01*
X119350000Y-117750000D02*
X119350000Y-119250000D01*
G75*
G02*
X119100000Y-119500000I-250000J0D01*
G01*
X117900000Y-119500000D01*
G75*
G02*
X117650000Y-119250000I0J250000D01*
G01*
X117650000Y-117750000D01*
G75*
G02*
X117900000Y-117500000I250000J0D01*
G01*
X119100000Y-117500000D01*
G75*
G02*
X119350000Y-117750000I0J-250000D01*
G01*
G37*
%TD*%
%TO.C,J10*%
X136500000Y-118500000D03*
G36*
G01*
X139850000Y-117750000D02*
X139850000Y-119250000D01*
G75*
G02*
X139600000Y-119500000I-250000J0D01*
G01*
X138400000Y-119500000D01*
G75*
G02*
X138150000Y-119250000I0J250000D01*
G01*
X138150000Y-117750000D01*
G75*
G02*
X138400000Y-117500000I250000J0D01*
G01*
X139600000Y-117500000D01*
G75*
G02*
X139850000Y-117750000I0J-250000D01*
G01*
G37*
%TD*%
%TO.C,J11*%
G36*
G01*
X108750000Y-98850000D02*
X107250000Y-98850000D01*
G75*
G02*
X107000000Y-98600000I0J250000D01*
G01*
X107000000Y-97400000D01*
G75*
G02*
X107250000Y-97150000I250000J0D01*
G01*
X108750000Y-97150000D01*
G75*
G02*
X109000000Y-97400000I0J-250000D01*
G01*
X109000000Y-98600000D01*
G75*
G02*
X108750000Y-98850000I-250000J0D01*
G01*
G37*
D20*
X108000000Y-95500000D03*
%TD*%
%TO.C,J12*%
G36*
G01*
X151350000Y-117750000D02*
X151350000Y-119250000D01*
G75*
G02*
X151100000Y-119500000I-250000J0D01*
G01*
X149900000Y-119500000D01*
G75*
G02*
X149650000Y-119250000I0J250000D01*
G01*
X149650000Y-117750000D01*
G75*
G02*
X149900000Y-117500000I250000J0D01*
G01*
X151100000Y-117500000D01*
G75*
G02*
X151350000Y-117750000I0J-250000D01*
G01*
G37*
D21*
X148000000Y-118500000D03*
%TD*%
%TO.C,J13*%
X125000000Y-118500000D03*
G36*
G01*
X128350000Y-117750000D02*
X128350000Y-119250000D01*
G75*
G02*
X128100000Y-119500000I-250000J0D01*
G01*
X126900000Y-119500000D01*
G75*
G02*
X126650000Y-119250000I0J250000D01*
G01*
X126650000Y-117750000D01*
G75*
G02*
X126900000Y-117500000I250000J0D01*
G01*
X128100000Y-117500000D01*
G75*
G02*
X128350000Y-117750000I0J-250000D01*
G01*
G37*
%TD*%
%TO.C,J15*%
X156500000Y-118500000D03*
G36*
G01*
X159850000Y-117750000D02*
X159850000Y-119250000D01*
G75*
G02*
X159600000Y-119500000I-250000J0D01*
G01*
X158400000Y-119500000D01*
G75*
G02*
X158150000Y-119250000I0J250000D01*
G01*
X158150000Y-117750000D01*
G75*
G02*
X158400000Y-117500000I250000J0D01*
G01*
X159600000Y-117500000D01*
G75*
G02*
X159850000Y-117750000I0J-250000D01*
G01*
G37*
%TD*%
D18*
%TO.C,J5*%
X163910000Y-91750000D03*
D19*
X163910000Y-94290000D03*
X163910000Y-96830000D03*
X163910000Y-99370000D03*
X163910000Y-101910000D03*
X163910000Y-104450000D03*
%TD*%
D22*
%TO.C,*%
X129300000Y-85200000D03*
%TD*%
%TO.C,*%
X153600000Y-109500000D03*
%TD*%
%TO.C,*%
X153600000Y-85200000D03*
%TD*%
%TO.C,*%
X129300000Y-109500000D03*
%TD*%
%TO.C,*%
X186460000Y-87980000D03*
%TD*%
%TO.C,*%
X186550000Y-108290000D03*
%TD*%
M02*
