%TF.GenerationSoftware,KiCad,Pcbnew,(6.0.0)*%
%TF.CreationDate,2022-01-20T10:39:02+08:00*%
%TF.ProjectId,orange_juice_board,6f72616e-6765-45f6-9a75-6963655f626f,rev?*%
%TF.SameCoordinates,Original*%
%TF.FileFunction,Legend,Top*%
%TF.FilePolarity,Positive*%
%FSLAX46Y46*%
G04 Gerber Fmt 4.6, Leading zero omitted, Abs format (unit mm)*
G04 Created by KiCad (PCBNEW (6.0.0)) date 2022-01-20 10:39:02*
%MOMM*%
%LPD*%
G01*
G04 APERTURE LIST*
%ADD10C,0.150000*%
%ADD11C,0.120000*%
%ADD12C,0.127000*%
%ADD13C,0.200000*%
G04 APERTURE END LIST*
D10*
X97520000Y-83022857D02*
X97548571Y-82965714D01*
X97548571Y-82880000D01*
X97520000Y-82794285D01*
X97462857Y-82737142D01*
X97405714Y-82708571D01*
X97291428Y-82680000D01*
X97205714Y-82680000D01*
X97091428Y-82708571D01*
X97034285Y-82737142D01*
X96977142Y-82794285D01*
X96948571Y-82880000D01*
X96948571Y-82937142D01*
X96977142Y-83022857D01*
X97005714Y-83051428D01*
X97205714Y-83051428D01*
X97205714Y-82937142D01*
X96948571Y-83308571D02*
X97548571Y-83308571D01*
X96948571Y-83651428D01*
X97548571Y-83651428D01*
X96948571Y-83937142D02*
X97548571Y-83937142D01*
X97548571Y-84080000D01*
X97520000Y-84165714D01*
X97462857Y-84222857D01*
X97405714Y-84251428D01*
X97291428Y-84280000D01*
X97205714Y-84280000D01*
X97091428Y-84251428D01*
X97034285Y-84222857D01*
X96977142Y-84165714D01*
X96948571Y-84080000D01*
X96948571Y-83937142D01*
X146972857Y-96944285D02*
X147001428Y-96858571D01*
X147001428Y-96715714D01*
X146972857Y-96658571D01*
X146944285Y-96630000D01*
X146887142Y-96601428D01*
X146830000Y-96601428D01*
X146772857Y-96630000D01*
X146744285Y-96658571D01*
X146715714Y-96715714D01*
X146687142Y-96830000D01*
X146658571Y-96887142D01*
X146630000Y-96915714D01*
X146572857Y-96944285D01*
X146515714Y-96944285D01*
X146458571Y-96915714D01*
X146430000Y-96887142D01*
X146401428Y-96830000D01*
X146401428Y-96687142D01*
X146430000Y-96601428D01*
X147001428Y-96344285D02*
X146401428Y-96344285D01*
X146401428Y-96201428D01*
X146430000Y-96115714D01*
X146487142Y-96058571D01*
X146544285Y-96030000D01*
X146658571Y-96001428D01*
X146744285Y-96001428D01*
X146858571Y-96030000D01*
X146915714Y-96058571D01*
X146972857Y-96115714D01*
X147001428Y-96201428D01*
X147001428Y-96344285D01*
X147001428Y-95744285D02*
X146401428Y-95744285D01*
X96948571Y-72487142D02*
X97548571Y-72487142D01*
X97120000Y-72687142D01*
X97548571Y-72887142D01*
X96948571Y-72887142D01*
X97548571Y-73287142D02*
X97548571Y-73401428D01*
X97520000Y-73458571D01*
X97462857Y-73515714D01*
X97348571Y-73544285D01*
X97148571Y-73544285D01*
X97034285Y-73515714D01*
X96977142Y-73458571D01*
X96948571Y-73401428D01*
X96948571Y-73287142D01*
X96977142Y-73230000D01*
X97034285Y-73172857D01*
X97148571Y-73144285D01*
X97348571Y-73144285D01*
X97462857Y-73172857D01*
X97520000Y-73230000D01*
X97548571Y-73287142D01*
X96977142Y-73772857D02*
X96948571Y-73858571D01*
X96948571Y-74001428D01*
X96977142Y-74058571D01*
X97005714Y-74087142D01*
X97062857Y-74115714D01*
X97120000Y-74115714D01*
X97177142Y-74087142D01*
X97205714Y-74058571D01*
X97234285Y-74001428D01*
X97262857Y-73887142D01*
X97291428Y-73830000D01*
X97320000Y-73801428D01*
X97377142Y-73772857D01*
X97434285Y-73772857D01*
X97491428Y-73801428D01*
X97520000Y-73830000D01*
X97548571Y-73887142D01*
X97548571Y-74030000D01*
X97520000Y-74115714D01*
X96948571Y-74372857D02*
X97548571Y-74372857D01*
X146924285Y-91781427D02*
X146952857Y-91809999D01*
X146981428Y-91895713D01*
X146981428Y-91952856D01*
X146952857Y-92038570D01*
X146895714Y-92095713D01*
X146838571Y-92124285D01*
X146724285Y-92152856D01*
X146638571Y-92152856D01*
X146524285Y-92124285D01*
X146467142Y-92095713D01*
X146410000Y-92038570D01*
X146381428Y-91952856D01*
X146381428Y-91895713D01*
X146410000Y-91809999D01*
X146438571Y-91781427D01*
X146981428Y-91238570D02*
X146981428Y-91524285D01*
X146381428Y-91524285D01*
X146981428Y-91038570D02*
X146381428Y-91038570D01*
X146981428Y-90695713D02*
X146638571Y-90952856D01*
X146381428Y-90695713D02*
X146724285Y-91038570D01*
X111848095Y-105062380D02*
X111848095Y-104062380D01*
X112229047Y-104062380D01*
X112324285Y-104110000D01*
X112371904Y-104157619D01*
X112419523Y-104252857D01*
X112419523Y-104395714D01*
X112371904Y-104490952D01*
X112324285Y-104538571D01*
X112229047Y-104586190D01*
X111848095Y-104586190D01*
X112752857Y-104062380D02*
X112990952Y-105062380D01*
X113181428Y-104348095D01*
X113371904Y-105062380D01*
X113610000Y-104062380D01*
X113990952Y-105062380D02*
X113990952Y-104062380D01*
X114324285Y-104776666D01*
X114657619Y-104062380D01*
X114657619Y-105062380D01*
X116419523Y-105062380D02*
X115848095Y-105062380D01*
X116133809Y-105062380D02*
X116133809Y-104062380D01*
X116038571Y-104205238D01*
X115943333Y-104300476D01*
X115848095Y-104348095D01*
X97005714Y-78330000D02*
X96977142Y-78301428D01*
X96948571Y-78215714D01*
X96948571Y-78158571D01*
X96977142Y-78072857D01*
X97034285Y-78015714D01*
X97091428Y-77987142D01*
X97205714Y-77958571D01*
X97291428Y-77958571D01*
X97405714Y-77987142D01*
X97462857Y-78015714D01*
X97520000Y-78072857D01*
X97548571Y-78158571D01*
X97548571Y-78215714D01*
X97520000Y-78301428D01*
X97491428Y-78330000D01*
X96977142Y-78558571D02*
X96948571Y-78644285D01*
X96948571Y-78787142D01*
X96977142Y-78844285D01*
X97005714Y-78872857D01*
X97062857Y-78901428D01*
X97120000Y-78901428D01*
X97177142Y-78872857D01*
X97205714Y-78844285D01*
X97234285Y-78787142D01*
X97262857Y-78672857D01*
X97291428Y-78615714D01*
X97320000Y-78587142D01*
X97377142Y-78558571D01*
X97434285Y-78558571D01*
X97491428Y-78587142D01*
X97520000Y-78615714D01*
X97548571Y-78672857D01*
X97548571Y-78815714D01*
X97520000Y-78901428D01*
X100534761Y-108708571D02*
X100201428Y-108708571D01*
X100201428Y-109232380D02*
X100201428Y-108232380D01*
X100677619Y-108232380D01*
X101010952Y-108946666D02*
X101487142Y-108946666D01*
X100915714Y-109232380D02*
X101249047Y-108232380D01*
X101582380Y-109232380D01*
X101915714Y-109232380D02*
X101915714Y-108232380D01*
X102487142Y-109232380D01*
X102487142Y-108232380D01*
X104201428Y-108232380D02*
X103725238Y-108232380D01*
X103677619Y-108708571D01*
X103725238Y-108660952D01*
X103820476Y-108613333D01*
X104058571Y-108613333D01*
X104153809Y-108660952D01*
X104201428Y-108708571D01*
X104249047Y-108803809D01*
X104249047Y-109041904D01*
X104201428Y-109137142D01*
X104153809Y-109184761D01*
X104058571Y-109232380D01*
X103820476Y-109232380D01*
X103725238Y-109184761D01*
X103677619Y-109137142D01*
X104534761Y-108232380D02*
X104868095Y-109232380D01*
X105201428Y-108232380D01*
X96041428Y-108170952D02*
X96041428Y-107409047D01*
X96422380Y-107790000D02*
X95660476Y-107790000D01*
X96948571Y-75137142D02*
X97548571Y-75137142D01*
X97120000Y-75337142D01*
X97548571Y-75537142D01*
X96948571Y-75537142D01*
X96948571Y-75822857D02*
X97548571Y-75822857D01*
X96977142Y-76080000D02*
X96948571Y-76165714D01*
X96948571Y-76308571D01*
X96977142Y-76365714D01*
X97005714Y-76394285D01*
X97062857Y-76422857D01*
X97120000Y-76422857D01*
X97177142Y-76394285D01*
X97205714Y-76365714D01*
X97234285Y-76308571D01*
X97262857Y-76194285D01*
X97291428Y-76137142D01*
X97320000Y-76108571D01*
X97377142Y-76080000D01*
X97434285Y-76080000D01*
X97491428Y-76108571D01*
X97520000Y-76137142D01*
X97548571Y-76194285D01*
X97548571Y-76337142D01*
X97520000Y-76422857D01*
X97548571Y-76794285D02*
X97548571Y-76908571D01*
X97520000Y-76965714D01*
X97462857Y-77022857D01*
X97348571Y-77051428D01*
X97148571Y-77051428D01*
X97034285Y-77022857D01*
X96977142Y-76965714D01*
X96948571Y-76908571D01*
X96948571Y-76794285D01*
X96977142Y-76737142D01*
X97034285Y-76680000D01*
X97148571Y-76651428D01*
X97348571Y-76651428D01*
X97462857Y-76680000D01*
X97520000Y-76737142D01*
X97548571Y-76794285D01*
X106789047Y-109931428D02*
X107550952Y-109931428D01*
X107170000Y-110312380D02*
X107170000Y-109550476D01*
X158330000Y-107332380D02*
X158330000Y-106332380D01*
X158568095Y-106332380D01*
X158710952Y-106380000D01*
X158806190Y-106475238D01*
X158853809Y-106570476D01*
X158901428Y-106760952D01*
X158901428Y-106903809D01*
X158853809Y-107094285D01*
X158806190Y-107189523D01*
X158710952Y-107284761D01*
X158568095Y-107332380D01*
X158330000Y-107332380D01*
X159901428Y-107237142D02*
X159853809Y-107284761D01*
X159710952Y-107332380D01*
X159615714Y-107332380D01*
X159472857Y-107284761D01*
X159377619Y-107189523D01*
X159330000Y-107094285D01*
X159282380Y-106903809D01*
X159282380Y-106760952D01*
X159330000Y-106570476D01*
X159377619Y-106475238D01*
X159472857Y-106380000D01*
X159615714Y-106332380D01*
X159710952Y-106332380D01*
X159853809Y-106380000D01*
X159901428Y-106427619D01*
X161615714Y-107332380D02*
X161044285Y-107332380D01*
X161330000Y-107332380D02*
X161330000Y-106332380D01*
X161234761Y-106475238D01*
X161139523Y-106570476D01*
X161044285Y-106618095D01*
X161996666Y-106427619D02*
X162044285Y-106380000D01*
X162139523Y-106332380D01*
X162377619Y-106332380D01*
X162472857Y-106380000D01*
X162520476Y-106427619D01*
X162568095Y-106522857D01*
X162568095Y-106618095D01*
X162520476Y-106760952D01*
X161949047Y-107332380D01*
X162568095Y-107332380D01*
X163710952Y-106284761D02*
X162853809Y-107570476D01*
X163996666Y-106427619D02*
X164044285Y-106380000D01*
X164139523Y-106332380D01*
X164377619Y-106332380D01*
X164472857Y-106380000D01*
X164520476Y-106427619D01*
X164568095Y-106522857D01*
X164568095Y-106618095D01*
X164520476Y-106760952D01*
X163949047Y-107332380D01*
X164568095Y-107332380D01*
X165425238Y-106665714D02*
X165425238Y-107332380D01*
X165187142Y-106284761D02*
X164949047Y-106999047D01*
X165568095Y-106999047D01*
X165806190Y-106332380D02*
X166139523Y-107332380D01*
X166472857Y-106332380D01*
X146381428Y-89565714D02*
X146381428Y-89194285D01*
X146610000Y-89394285D01*
X146610000Y-89308571D01*
X146638571Y-89251428D01*
X146667142Y-89222857D01*
X146724285Y-89194285D01*
X146867142Y-89194285D01*
X146924285Y-89222857D01*
X146952857Y-89251428D01*
X146981428Y-89308571D01*
X146981428Y-89479999D01*
X146952857Y-89537142D01*
X146924285Y-89565714D01*
X146381428Y-89022857D02*
X146981428Y-88822857D01*
X146381428Y-88622857D01*
X146381428Y-88479999D02*
X146381428Y-88108571D01*
X146610000Y-88308571D01*
X146610000Y-88222857D01*
X146638571Y-88165714D01*
X146667142Y-88137142D01*
X146724285Y-88108571D01*
X146867142Y-88108571D01*
X146924285Y-88137142D01*
X146952857Y-88165714D01*
X146981428Y-88222857D01*
X146981428Y-88394285D01*
X146952857Y-88451428D01*
X146924285Y-88479999D01*
X96878571Y-91960000D02*
X97164285Y-91760000D01*
X96878571Y-91617142D02*
X97478571Y-91617142D01*
X97478571Y-91845714D01*
X97450000Y-91902857D01*
X97421428Y-91931428D01*
X97364285Y-91960000D01*
X97278571Y-91960000D01*
X97221428Y-91931428D01*
X97192857Y-91902857D01*
X97164285Y-91845714D01*
X97164285Y-91617142D01*
X97478571Y-92160000D02*
X96878571Y-92560000D01*
X97478571Y-92560000D02*
X96878571Y-92160000D01*
X146924285Y-99000000D02*
X146952857Y-99028571D01*
X146981428Y-99114285D01*
X146981428Y-99171428D01*
X146952857Y-99257142D01*
X146895714Y-99314285D01*
X146838571Y-99342857D01*
X146724285Y-99371428D01*
X146638571Y-99371428D01*
X146524285Y-99342857D01*
X146467142Y-99314285D01*
X146410000Y-99257142D01*
X146381428Y-99171428D01*
X146381428Y-99114285D01*
X146410000Y-99028571D01*
X146438571Y-99000000D01*
X146952857Y-98771428D02*
X146981428Y-98685714D01*
X146981428Y-98542857D01*
X146952857Y-98485714D01*
X146924285Y-98457142D01*
X146867142Y-98428571D01*
X146810000Y-98428571D01*
X146752857Y-98457142D01*
X146724285Y-98485714D01*
X146695714Y-98542857D01*
X146667142Y-98657142D01*
X146638571Y-98714285D01*
X146610000Y-98742857D01*
X146552857Y-98771428D01*
X146495714Y-98771428D01*
X146438571Y-98742857D01*
X146410000Y-98714285D01*
X146381428Y-98657142D01*
X146381428Y-98514285D01*
X146410000Y-98428571D01*
X147039047Y-109961428D02*
X147800952Y-109961428D01*
X147420000Y-110342380D02*
X147420000Y-109580476D01*
X129508095Y-105062380D02*
X129508095Y-104062380D01*
X129889047Y-104062380D01*
X129984285Y-104110000D01*
X130031904Y-104157619D01*
X130079523Y-104252857D01*
X130079523Y-104395714D01*
X130031904Y-104490952D01*
X129984285Y-104538571D01*
X129889047Y-104586190D01*
X129508095Y-104586190D01*
X130412857Y-104062380D02*
X130650952Y-105062380D01*
X130841428Y-104348095D01*
X131031904Y-105062380D01*
X131270000Y-104062380D01*
X131650952Y-105062380D02*
X131650952Y-104062380D01*
X131984285Y-104776666D01*
X132317619Y-104062380D01*
X132317619Y-105062380D01*
X133460476Y-104062380D02*
X134079523Y-104062380D01*
X133746190Y-104443333D01*
X133889047Y-104443333D01*
X133984285Y-104490952D01*
X134031904Y-104538571D01*
X134079523Y-104633809D01*
X134079523Y-104871904D01*
X134031904Y-104967142D01*
X133984285Y-105014761D01*
X133889047Y-105062380D01*
X133603333Y-105062380D01*
X133508095Y-105014761D01*
X133460476Y-104967142D01*
X99097619Y-89314761D02*
X98288095Y-89314761D01*
X98192857Y-89362380D01*
X98145238Y-89410000D01*
X98097619Y-89505238D01*
X98097619Y-89695714D01*
X98145238Y-89790952D01*
X98192857Y-89838571D01*
X98288095Y-89886190D01*
X99097619Y-89886190D01*
X98383333Y-90314761D02*
X98383333Y-90790952D01*
X98097619Y-90219523D02*
X99097619Y-90552857D01*
X98097619Y-90886190D01*
X98097619Y-91790952D02*
X98573809Y-91457619D01*
X98097619Y-91219523D02*
X99097619Y-91219523D01*
X99097619Y-91600476D01*
X99050000Y-91695714D01*
X99002380Y-91743333D01*
X98907142Y-91790952D01*
X98764285Y-91790952D01*
X98669047Y-91743333D01*
X98621428Y-91695714D01*
X98573809Y-91600476D01*
X98573809Y-91219523D01*
X99097619Y-92076666D02*
X99097619Y-92648095D01*
X98097619Y-92362380D02*
X99097619Y-92362380D01*
X135909047Y-109971428D02*
X136670952Y-109971428D01*
X136290000Y-110352380D02*
X136290000Y-109590476D01*
X97518571Y-89192857D02*
X97518571Y-89535714D01*
X96918571Y-89364285D02*
X97518571Y-89364285D01*
X97518571Y-89678571D02*
X96918571Y-90078571D01*
X97518571Y-90078571D02*
X96918571Y-89678571D01*
X120728095Y-105012380D02*
X120728095Y-104012380D01*
X121109047Y-104012380D01*
X121204285Y-104060000D01*
X121251904Y-104107619D01*
X121299523Y-104202857D01*
X121299523Y-104345714D01*
X121251904Y-104440952D01*
X121204285Y-104488571D01*
X121109047Y-104536190D01*
X120728095Y-104536190D01*
X121632857Y-104012380D02*
X121870952Y-105012380D01*
X122061428Y-104298095D01*
X122251904Y-105012380D01*
X122490000Y-104012380D01*
X122870952Y-105012380D02*
X122870952Y-104012380D01*
X123204285Y-104726666D01*
X123537619Y-104012380D01*
X123537619Y-105012380D01*
X124728095Y-104107619D02*
X124775714Y-104060000D01*
X124870952Y-104012380D01*
X125109047Y-104012380D01*
X125204285Y-104060000D01*
X125251904Y-104107619D01*
X125299523Y-104202857D01*
X125299523Y-104298095D01*
X125251904Y-104440952D01*
X124680476Y-105012380D01*
X125299523Y-105012380D01*
X98383333Y-74082380D02*
X98383333Y-74558571D01*
X98097619Y-73987142D02*
X99097619Y-74320476D01*
X98097619Y-74653809D01*
X98097619Y-74987142D02*
X99097619Y-74987142D01*
X99097619Y-75225238D01*
X99050000Y-75368095D01*
X98954761Y-75463333D01*
X98859523Y-75510952D01*
X98669047Y-75558571D01*
X98526190Y-75558571D01*
X98335714Y-75510952D01*
X98240476Y-75463333D01*
X98145238Y-75368095D01*
X98097619Y-75225238D01*
X98097619Y-74987142D01*
X99097619Y-75891904D02*
X98097619Y-76558571D01*
X99097619Y-76558571D02*
X98097619Y-75891904D01*
X98097619Y-77415714D02*
X98097619Y-76939523D01*
X99097619Y-76939523D01*
X99097619Y-77653809D02*
X99097619Y-78272857D01*
X98716666Y-77939523D01*
X98716666Y-78082380D01*
X98669047Y-78177619D01*
X98621428Y-78225238D01*
X98526190Y-78272857D01*
X98288095Y-78272857D01*
X98192857Y-78225238D01*
X98145238Y-78177619D01*
X98097619Y-78082380D01*
X98097619Y-77796666D01*
X98145238Y-77701428D01*
X98192857Y-77653809D01*
X98764285Y-79130000D02*
X98097619Y-79130000D01*
X99145238Y-78891904D02*
X98430952Y-78653809D01*
X98430952Y-79272857D01*
X99097619Y-80130000D02*
X99097619Y-79653809D01*
X98621428Y-79606190D01*
X98669047Y-79653809D01*
X98716666Y-79749047D01*
X98716666Y-79987142D01*
X98669047Y-80082380D01*
X98621428Y-80130000D01*
X98526190Y-80177619D01*
X98288095Y-80177619D01*
X98192857Y-80130000D01*
X98145238Y-80082380D01*
X98097619Y-79987142D01*
X98097619Y-79749047D01*
X98145238Y-79653809D01*
X98192857Y-79606190D01*
X97548571Y-80157142D02*
X97548571Y-80528571D01*
X97320000Y-80328571D01*
X97320000Y-80414285D01*
X97291428Y-80471428D01*
X97262857Y-80500000D01*
X97205714Y-80528571D01*
X97062857Y-80528571D01*
X97005714Y-80500000D01*
X96977142Y-80471428D01*
X96948571Y-80414285D01*
X96948571Y-80242857D01*
X96977142Y-80185714D01*
X97005714Y-80157142D01*
X97548571Y-80700000D02*
X96948571Y-80900000D01*
X97548571Y-81100000D01*
X97548571Y-81242857D02*
X97548571Y-81614285D01*
X97320000Y-81414285D01*
X97320000Y-81500000D01*
X97291428Y-81557142D01*
X97262857Y-81585714D01*
X97205714Y-81614285D01*
X97062857Y-81614285D01*
X97005714Y-81585714D01*
X96977142Y-81557142D01*
X96948571Y-81500000D01*
X96948571Y-81328571D01*
X96977142Y-81271428D01*
X97005714Y-81242857D01*
X146972857Y-94525714D02*
X147001428Y-94440000D01*
X147001428Y-94297142D01*
X146972857Y-94240000D01*
X146944285Y-94211428D01*
X146887142Y-94182857D01*
X146830000Y-94182857D01*
X146772857Y-94211428D01*
X146744285Y-94240000D01*
X146715714Y-94297142D01*
X146687142Y-94411428D01*
X146658571Y-94468571D01*
X146630000Y-94497142D01*
X146572857Y-94525714D01*
X146515714Y-94525714D01*
X146458571Y-94497142D01*
X146430000Y-94468571D01*
X146401428Y-94411428D01*
X146401428Y-94268571D01*
X146430000Y-94182857D01*
X147001428Y-93925714D02*
X146401428Y-93925714D01*
X146401428Y-93782857D01*
X146430000Y-93697142D01*
X146487142Y-93640000D01*
X146544285Y-93611428D01*
X146658571Y-93582857D01*
X146744285Y-93582857D01*
X146858571Y-93611428D01*
X146915714Y-93640000D01*
X146972857Y-93697142D01*
X147001428Y-93782857D01*
X147001428Y-93925714D01*
X146401428Y-93211428D02*
X146401428Y-93097142D01*
X146430000Y-93040000D01*
X146487142Y-92982857D01*
X146601428Y-92954285D01*
X146801428Y-92954285D01*
X146915714Y-92982857D01*
X146972857Y-93040000D01*
X147001428Y-93097142D01*
X147001428Y-93211428D01*
X146972857Y-93268571D01*
X146915714Y-93325714D01*
X146801428Y-93354285D01*
X146601428Y-93354285D01*
X146487142Y-93325714D01*
X146430000Y-93268571D01*
X146401428Y-93211428D01*
X138620000Y-107392380D02*
X138620000Y-106392380D01*
X138858095Y-106392380D01*
X139000952Y-106440000D01*
X139096190Y-106535238D01*
X139143809Y-106630476D01*
X139191428Y-106820952D01*
X139191428Y-106963809D01*
X139143809Y-107154285D01*
X139096190Y-107249523D01*
X139000952Y-107344761D01*
X138858095Y-107392380D01*
X138620000Y-107392380D01*
X140191428Y-107297142D02*
X140143809Y-107344761D01*
X140000952Y-107392380D01*
X139905714Y-107392380D01*
X139762857Y-107344761D01*
X139667619Y-107249523D01*
X139620000Y-107154285D01*
X139572380Y-106963809D01*
X139572380Y-106820952D01*
X139620000Y-106630476D01*
X139667619Y-106535238D01*
X139762857Y-106440000D01*
X139905714Y-106392380D01*
X140000952Y-106392380D01*
X140143809Y-106440000D01*
X140191428Y-106487619D01*
X141905714Y-107392380D02*
X141334285Y-107392380D01*
X141620000Y-107392380D02*
X141620000Y-106392380D01*
X141524761Y-106535238D01*
X141429523Y-106630476D01*
X141334285Y-106678095D01*
X142286666Y-106487619D02*
X142334285Y-106440000D01*
X142429523Y-106392380D01*
X142667619Y-106392380D01*
X142762857Y-106440000D01*
X142810476Y-106487619D01*
X142858095Y-106582857D01*
X142858095Y-106678095D01*
X142810476Y-106820952D01*
X142239047Y-107392380D01*
X142858095Y-107392380D01*
X144000952Y-106344761D02*
X143143809Y-107630476D01*
X144286666Y-106487619D02*
X144334285Y-106440000D01*
X144429523Y-106392380D01*
X144667619Y-106392380D01*
X144762857Y-106440000D01*
X144810476Y-106487619D01*
X144858095Y-106582857D01*
X144858095Y-106678095D01*
X144810476Y-106820952D01*
X144239047Y-107392380D01*
X144858095Y-107392380D01*
X145715238Y-106725714D02*
X145715238Y-107392380D01*
X145477142Y-106344761D02*
X145239047Y-107059047D01*
X145858095Y-107059047D01*
X146096190Y-106392380D02*
X146429523Y-107392380D01*
X146762857Y-106392380D01*
X97361428Y-101174761D02*
X97361428Y-100841428D01*
X96837619Y-100841428D02*
X97837619Y-100841428D01*
X97837619Y-101317619D01*
X97123333Y-101650952D02*
X97123333Y-102127142D01*
X96837619Y-101555714D02*
X97837619Y-101889047D01*
X96837619Y-102222380D01*
X96837619Y-102555714D02*
X97837619Y-102555714D01*
X96837619Y-103127142D01*
X97837619Y-103127142D01*
X97837619Y-104841428D02*
X97837619Y-104365238D01*
X97361428Y-104317619D01*
X97409047Y-104365238D01*
X97456666Y-104460476D01*
X97456666Y-104698571D01*
X97409047Y-104793809D01*
X97361428Y-104841428D01*
X97266190Y-104889047D01*
X97028095Y-104889047D01*
X96932857Y-104841428D01*
X96885238Y-104793809D01*
X96837619Y-104698571D01*
X96837619Y-104460476D01*
X96885238Y-104365238D01*
X96932857Y-104317619D01*
X97837619Y-105174761D02*
X96837619Y-105508095D01*
X97837619Y-105841428D01*
X157289047Y-108461428D02*
X158050952Y-108461428D01*
X157670000Y-108842380D02*
X157670000Y-108080476D01*
X149402380Y-108049047D02*
X148402380Y-108049047D01*
X149116666Y-107715714D01*
X148402380Y-107382380D01*
X149402380Y-107382380D01*
X149116666Y-106953809D02*
X149116666Y-106477619D01*
X149402380Y-107049047D02*
X148402380Y-106715714D01*
X149402380Y-106382380D01*
X148402380Y-106144285D02*
X149402380Y-105477619D01*
X148402380Y-105477619D02*
X149402380Y-106144285D01*
X148402380Y-105191904D02*
X148402380Y-104572857D01*
X148783333Y-104906190D01*
X148783333Y-104763333D01*
X148830952Y-104668095D01*
X148878571Y-104620476D01*
X148973809Y-104572857D01*
X149211904Y-104572857D01*
X149307142Y-104620476D01*
X149354761Y-104668095D01*
X149402380Y-104763333D01*
X149402380Y-105049047D01*
X149354761Y-105144285D01*
X149307142Y-105191904D01*
X149402380Y-103620476D02*
X149402380Y-104191904D01*
X149402380Y-103906190D02*
X148402380Y-103906190D01*
X148545238Y-104001428D01*
X148640476Y-104096666D01*
X148688095Y-104191904D01*
X148830952Y-103049047D02*
X148783333Y-103144285D01*
X148735714Y-103191904D01*
X148640476Y-103239523D01*
X148592857Y-103239523D01*
X148497619Y-103191904D01*
X148450000Y-103144285D01*
X148402380Y-103049047D01*
X148402380Y-102858571D01*
X148450000Y-102763333D01*
X148497619Y-102715714D01*
X148592857Y-102668095D01*
X148640476Y-102668095D01*
X148735714Y-102715714D01*
X148783333Y-102763333D01*
X148830952Y-102858571D01*
X148830952Y-103049047D01*
X148878571Y-103144285D01*
X148926190Y-103191904D01*
X149021428Y-103239523D01*
X149211904Y-103239523D01*
X149307142Y-103191904D01*
X149354761Y-103144285D01*
X149402380Y-103049047D01*
X149402380Y-102858571D01*
X149354761Y-102763333D01*
X149307142Y-102715714D01*
X149211904Y-102668095D01*
X149021428Y-102668095D01*
X148926190Y-102715714D01*
X148878571Y-102763333D01*
X148830952Y-102858571D01*
X148402380Y-101810952D02*
X148402380Y-102001428D01*
X148450000Y-102096666D01*
X148497619Y-102144285D01*
X148640476Y-102239523D01*
X148830952Y-102287142D01*
X149211904Y-102287142D01*
X149307142Y-102239523D01*
X149354761Y-102191904D01*
X149402380Y-102096666D01*
X149402380Y-101906190D01*
X149354761Y-101810952D01*
X149307142Y-101763333D01*
X149211904Y-101715714D01*
X148973809Y-101715714D01*
X148878571Y-101763333D01*
X148830952Y-101810952D01*
X148783333Y-101906190D01*
X148783333Y-102096666D01*
X148830952Y-102191904D01*
X148878571Y-102239523D01*
X148973809Y-102287142D01*
X148402380Y-100810952D02*
X148402380Y-101287142D01*
X148878571Y-101334761D01*
X148830952Y-101287142D01*
X148783333Y-101191904D01*
X148783333Y-100953809D01*
X148830952Y-100858571D01*
X148878571Y-100810952D01*
X148973809Y-100763333D01*
X149211904Y-100763333D01*
X149307142Y-100810952D01*
X149354761Y-100858571D01*
X149402380Y-100953809D01*
X149402380Y-101191904D01*
X149354761Y-101287142D01*
X149307142Y-101334761D01*
X146420000Y-86717142D02*
X146391428Y-86774285D01*
X146391428Y-86860000D01*
X146420000Y-86945714D01*
X146477142Y-87002857D01*
X146534285Y-87031428D01*
X146648571Y-87060000D01*
X146734285Y-87060000D01*
X146848571Y-87031428D01*
X146905714Y-87002857D01*
X146962857Y-86945714D01*
X146991428Y-86860000D01*
X146991428Y-86802857D01*
X146962857Y-86717142D01*
X146934285Y-86688571D01*
X146734285Y-86688571D01*
X146734285Y-86802857D01*
X146991428Y-86431428D02*
X146391428Y-86431428D01*
X146991428Y-86088571D01*
X146391428Y-86088571D01*
X146991428Y-85802857D02*
X146391428Y-85802857D01*
X146391428Y-85660000D01*
X146420000Y-85574285D01*
X146477142Y-85517142D01*
X146534285Y-85488571D01*
X146648571Y-85460000D01*
X146734285Y-85460000D01*
X146848571Y-85488571D01*
X146905714Y-85517142D01*
X146962857Y-85574285D01*
X146991428Y-85660000D01*
X146991428Y-85802857D01*
X97005714Y-70592857D02*
X96977142Y-70564285D01*
X96948571Y-70478571D01*
X96948571Y-70421428D01*
X96977142Y-70335714D01*
X97034285Y-70278571D01*
X97091428Y-70250000D01*
X97205714Y-70221428D01*
X97291428Y-70221428D01*
X97405714Y-70250000D01*
X97462857Y-70278571D01*
X97520000Y-70335714D01*
X97548571Y-70421428D01*
X97548571Y-70478571D01*
X97520000Y-70564285D01*
X97491428Y-70592857D01*
X96948571Y-71135714D02*
X96948571Y-70850000D01*
X97548571Y-70850000D01*
X96948571Y-71335714D02*
X97548571Y-71335714D01*
X96948571Y-71678571D02*
X97291428Y-71421428D01*
X97548571Y-71678571D02*
X97205714Y-71335714D01*
%TO.C,Q3*%
X103354761Y-103147619D02*
X103259523Y-103100000D01*
X103164285Y-103004761D01*
X103021428Y-102861904D01*
X102926190Y-102814285D01*
X102830952Y-102814285D01*
X102878571Y-103052380D02*
X102783333Y-103004761D01*
X102688095Y-102909523D01*
X102640476Y-102719047D01*
X102640476Y-102385714D01*
X102688095Y-102195238D01*
X102783333Y-102100000D01*
X102878571Y-102052380D01*
X103069047Y-102052380D01*
X103164285Y-102100000D01*
X103259523Y-102195238D01*
X103307142Y-102385714D01*
X103307142Y-102719047D01*
X103259523Y-102909523D01*
X103164285Y-103004761D01*
X103069047Y-103052380D01*
X102878571Y-103052380D01*
X103640476Y-102052380D02*
X104259523Y-102052380D01*
X103926190Y-102433333D01*
X104069047Y-102433333D01*
X104164285Y-102480952D01*
X104211904Y-102528571D01*
X104259523Y-102623809D01*
X104259523Y-102861904D01*
X104211904Y-102957142D01*
X104164285Y-103004761D01*
X104069047Y-103052380D01*
X103783333Y-103052380D01*
X103688095Y-103004761D01*
X103640476Y-102957142D01*
%TO.C,R7*%
X156551333Y-93924380D02*
X156218000Y-93448190D01*
X155979904Y-93924380D02*
X155979904Y-92924380D01*
X156360857Y-92924380D01*
X156456095Y-92972000D01*
X156503714Y-93019619D01*
X156551333Y-93114857D01*
X156551333Y-93257714D01*
X156503714Y-93352952D01*
X156456095Y-93400571D01*
X156360857Y-93448190D01*
X155979904Y-93448190D01*
X156884666Y-92924380D02*
X157551333Y-92924380D01*
X157122761Y-93924380D01*
%TO.C,R6*%
X150963333Y-93371380D02*
X150630000Y-92895190D01*
X150391904Y-93371380D02*
X150391904Y-92371380D01*
X150772857Y-92371380D01*
X150868095Y-92419000D01*
X150915714Y-92466619D01*
X150963333Y-92561857D01*
X150963333Y-92704714D01*
X150915714Y-92799952D01*
X150868095Y-92847571D01*
X150772857Y-92895190D01*
X150391904Y-92895190D01*
X151820476Y-92371380D02*
X151630000Y-92371380D01*
X151534761Y-92419000D01*
X151487142Y-92466619D01*
X151391904Y-92609476D01*
X151344285Y-92799952D01*
X151344285Y-93180904D01*
X151391904Y-93276142D01*
X151439523Y-93323761D01*
X151534761Y-93371380D01*
X151725238Y-93371380D01*
X151820476Y-93323761D01*
X151868095Y-93276142D01*
X151915714Y-93180904D01*
X151915714Y-92942809D01*
X151868095Y-92847571D01*
X151820476Y-92799952D01*
X151725238Y-92752333D01*
X151534761Y-92752333D01*
X151439523Y-92799952D01*
X151391904Y-92847571D01*
X151344285Y-92942809D01*
%TO.C,R8*%
X150963333Y-99512380D02*
X150630000Y-99036190D01*
X150391904Y-99512380D02*
X150391904Y-98512380D01*
X150772857Y-98512380D01*
X150868095Y-98560000D01*
X150915714Y-98607619D01*
X150963333Y-98702857D01*
X150963333Y-98845714D01*
X150915714Y-98940952D01*
X150868095Y-98988571D01*
X150772857Y-99036190D01*
X150391904Y-99036190D01*
X151534761Y-98940952D02*
X151439523Y-98893333D01*
X151391904Y-98845714D01*
X151344285Y-98750476D01*
X151344285Y-98702857D01*
X151391904Y-98607619D01*
X151439523Y-98560000D01*
X151534761Y-98512380D01*
X151725238Y-98512380D01*
X151820476Y-98560000D01*
X151868095Y-98607619D01*
X151915714Y-98702857D01*
X151915714Y-98750476D01*
X151868095Y-98845714D01*
X151820476Y-98893333D01*
X151725238Y-98940952D01*
X151534761Y-98940952D01*
X151439523Y-98988571D01*
X151391904Y-99036190D01*
X151344285Y-99131428D01*
X151344285Y-99321904D01*
X151391904Y-99417142D01*
X151439523Y-99464761D01*
X151534761Y-99512380D01*
X151725238Y-99512380D01*
X151820476Y-99464761D01*
X151868095Y-99417142D01*
X151915714Y-99321904D01*
X151915714Y-99131428D01*
X151868095Y-99036190D01*
X151820476Y-98988571D01*
X151725238Y-98940952D01*
%TO.C,Q2*%
X110235619Y-105378238D02*
X110188000Y-105473476D01*
X110092761Y-105568714D01*
X109949904Y-105711571D01*
X109902285Y-105806809D01*
X109902285Y-105902047D01*
X110140380Y-105854428D02*
X110092761Y-105949666D01*
X109997523Y-106044904D01*
X109807047Y-106092523D01*
X109473714Y-106092523D01*
X109283238Y-106044904D01*
X109188000Y-105949666D01*
X109140380Y-105854428D01*
X109140380Y-105663952D01*
X109188000Y-105568714D01*
X109283238Y-105473476D01*
X109473714Y-105425857D01*
X109807047Y-105425857D01*
X109997523Y-105473476D01*
X110092761Y-105568714D01*
X110140380Y-105663952D01*
X110140380Y-105854428D01*
X109235619Y-105044904D02*
X109188000Y-104997285D01*
X109140380Y-104902047D01*
X109140380Y-104663952D01*
X109188000Y-104568714D01*
X109235619Y-104521095D01*
X109330857Y-104473476D01*
X109426095Y-104473476D01*
X109568952Y-104521095D01*
X110140380Y-105092523D01*
X110140380Y-104473476D01*
%TO.C,J9*%
X95266666Y-95002380D02*
X95266666Y-95716666D01*
X95219047Y-95859523D01*
X95123809Y-95954761D01*
X94980952Y-96002380D01*
X94885714Y-96002380D01*
X95790476Y-96002380D02*
X95980952Y-96002380D01*
X96076190Y-95954761D01*
X96123809Y-95907142D01*
X96219047Y-95764285D01*
X96266666Y-95573809D01*
X96266666Y-95192857D01*
X96219047Y-95097619D01*
X96171428Y-95050000D01*
X96076190Y-95002380D01*
X95885714Y-95002380D01*
X95790476Y-95050000D01*
X95742857Y-95097619D01*
X95695238Y-95192857D01*
X95695238Y-95430952D01*
X95742857Y-95526190D01*
X95790476Y-95573809D01*
X95885714Y-95621428D01*
X96076190Y-95621428D01*
X96171428Y-95573809D01*
X96219047Y-95526190D01*
X96266666Y-95430952D01*
%TO.C,Q1*%
X165218619Y-102640238D02*
X165171000Y-102735476D01*
X165075761Y-102830714D01*
X164932904Y-102973571D01*
X164885285Y-103068809D01*
X164885285Y-103164047D01*
X165123380Y-103116428D02*
X165075761Y-103211666D01*
X164980523Y-103306904D01*
X164790047Y-103354523D01*
X164456714Y-103354523D01*
X164266238Y-103306904D01*
X164171000Y-103211666D01*
X164123380Y-103116428D01*
X164123380Y-102925952D01*
X164171000Y-102830714D01*
X164266238Y-102735476D01*
X164456714Y-102687857D01*
X164790047Y-102687857D01*
X164980523Y-102735476D01*
X165075761Y-102830714D01*
X165123380Y-102925952D01*
X165123380Y-103116428D01*
X165123380Y-101735476D02*
X165123380Y-102306904D01*
X165123380Y-102021190D02*
X164123380Y-102021190D01*
X164266238Y-102116428D01*
X164361476Y-102211666D01*
X164409095Y-102306904D01*
%TO.C,R12*%
X114894642Y-106752380D02*
X114561309Y-106276190D01*
X114323214Y-106752380D02*
X114323214Y-105752380D01*
X114704166Y-105752380D01*
X114799404Y-105800000D01*
X114847023Y-105847619D01*
X114894642Y-105942857D01*
X114894642Y-106085714D01*
X114847023Y-106180952D01*
X114799404Y-106228571D01*
X114704166Y-106276190D01*
X114323214Y-106276190D01*
X115847023Y-106752380D02*
X115275595Y-106752380D01*
X115561309Y-106752380D02*
X115561309Y-105752380D01*
X115466071Y-105895238D01*
X115370833Y-105990476D01*
X115275595Y-106038095D01*
X116227976Y-105847619D02*
X116275595Y-105800000D01*
X116370833Y-105752380D01*
X116608928Y-105752380D01*
X116704166Y-105800000D01*
X116751785Y-105847619D01*
X116799404Y-105942857D01*
X116799404Y-106038095D01*
X116751785Y-106180952D01*
X116180357Y-106752380D01*
X116799404Y-106752380D01*
%TO.C,R17*%
X110147142Y-69162380D02*
X109813809Y-68686190D01*
X109575714Y-69162380D02*
X109575714Y-68162380D01*
X109956666Y-68162380D01*
X110051904Y-68210000D01*
X110099523Y-68257619D01*
X110147142Y-68352857D01*
X110147142Y-68495714D01*
X110099523Y-68590952D01*
X110051904Y-68638571D01*
X109956666Y-68686190D01*
X109575714Y-68686190D01*
X111099523Y-69162380D02*
X110528095Y-69162380D01*
X110813809Y-69162380D02*
X110813809Y-68162380D01*
X110718571Y-68305238D01*
X110623333Y-68400476D01*
X110528095Y-68448095D01*
X111432857Y-68162380D02*
X112099523Y-68162380D01*
X111670952Y-69162380D01*
%TO.C,R2*%
X161885333Y-93924380D02*
X161552000Y-93448190D01*
X161313904Y-93924380D02*
X161313904Y-92924380D01*
X161694857Y-92924380D01*
X161790095Y-92972000D01*
X161837714Y-93019619D01*
X161885333Y-93114857D01*
X161885333Y-93257714D01*
X161837714Y-93352952D01*
X161790095Y-93400571D01*
X161694857Y-93448190D01*
X161313904Y-93448190D01*
X162266285Y-93019619D02*
X162313904Y-92972000D01*
X162409142Y-92924380D01*
X162647238Y-92924380D01*
X162742476Y-92972000D01*
X162790095Y-93019619D01*
X162837714Y-93114857D01*
X162837714Y-93210095D01*
X162790095Y-93352952D01*
X162218666Y-93924380D01*
X162837714Y-93924380D01*
%TO.C,C4*%
X165702585Y-86463142D02*
X165654966Y-86510761D01*
X165512109Y-86558380D01*
X165416871Y-86558380D01*
X165274013Y-86510761D01*
X165178775Y-86415523D01*
X165131156Y-86320285D01*
X165083537Y-86129809D01*
X165083537Y-85986952D01*
X165131156Y-85796476D01*
X165178775Y-85701238D01*
X165274013Y-85606000D01*
X165416871Y-85558380D01*
X165512109Y-85558380D01*
X165654966Y-85606000D01*
X165702585Y-85653619D01*
X166559728Y-85891714D02*
X166559728Y-86558380D01*
X166321632Y-85510761D02*
X166083537Y-86225047D01*
X166702585Y-86225047D01*
%TO.C,R13*%
X103957142Y-63202380D02*
X103623809Y-62726190D01*
X103385714Y-63202380D02*
X103385714Y-62202380D01*
X103766666Y-62202380D01*
X103861904Y-62250000D01*
X103909523Y-62297619D01*
X103957142Y-62392857D01*
X103957142Y-62535714D01*
X103909523Y-62630952D01*
X103861904Y-62678571D01*
X103766666Y-62726190D01*
X103385714Y-62726190D01*
X104909523Y-63202380D02*
X104338095Y-63202380D01*
X104623809Y-63202380D02*
X104623809Y-62202380D01*
X104528571Y-62345238D01*
X104433333Y-62440476D01*
X104338095Y-62488095D01*
X105242857Y-62202380D02*
X105861904Y-62202380D01*
X105528571Y-62583333D01*
X105671428Y-62583333D01*
X105766666Y-62630952D01*
X105814285Y-62678571D01*
X105861904Y-62773809D01*
X105861904Y-63011904D01*
X105814285Y-63107142D01*
X105766666Y-63154761D01*
X105671428Y-63202380D01*
X105385714Y-63202380D01*
X105290476Y-63154761D01*
X105242857Y-63107142D01*
%TO.C,C8*%
X155883333Y-70307142D02*
X155835714Y-70354761D01*
X155692857Y-70402380D01*
X155597619Y-70402380D01*
X155454761Y-70354761D01*
X155359523Y-70259523D01*
X155311904Y-70164285D01*
X155264285Y-69973809D01*
X155264285Y-69830952D01*
X155311904Y-69640476D01*
X155359523Y-69545238D01*
X155454761Y-69450000D01*
X155597619Y-69402380D01*
X155692857Y-69402380D01*
X155835714Y-69450000D01*
X155883333Y-69497619D01*
X156454761Y-69830952D02*
X156359523Y-69783333D01*
X156311904Y-69735714D01*
X156264285Y-69640476D01*
X156264285Y-69592857D01*
X156311904Y-69497619D01*
X156359523Y-69450000D01*
X156454761Y-69402380D01*
X156645238Y-69402380D01*
X156740476Y-69450000D01*
X156788095Y-69497619D01*
X156835714Y-69592857D01*
X156835714Y-69640476D01*
X156788095Y-69735714D01*
X156740476Y-69783333D01*
X156645238Y-69830952D01*
X156454761Y-69830952D01*
X156359523Y-69878571D01*
X156311904Y-69926190D01*
X156264285Y-70021428D01*
X156264285Y-70211904D01*
X156311904Y-70307142D01*
X156359523Y-70354761D01*
X156454761Y-70402380D01*
X156645238Y-70402380D01*
X156740476Y-70354761D01*
X156788095Y-70307142D01*
X156835714Y-70211904D01*
X156835714Y-70021428D01*
X156788095Y-69926190D01*
X156740476Y-69878571D01*
X156645238Y-69830952D01*
%TO.C,U1*%
X160938095Y-89652380D02*
X160938095Y-90461904D01*
X160985714Y-90557142D01*
X161033333Y-90604761D01*
X161128571Y-90652380D01*
X161319047Y-90652380D01*
X161414285Y-90604761D01*
X161461904Y-90557142D01*
X161509523Y-90461904D01*
X161509523Y-89652380D01*
X162509523Y-90652380D02*
X161938095Y-90652380D01*
X162223809Y-90652380D02*
X162223809Y-89652380D01*
X162128571Y-89795238D01*
X162033333Y-89890476D01*
X161938095Y-89938095D01*
%TO.C,D3*%
X120419904Y-106752380D02*
X120419904Y-105752380D01*
X120658000Y-105752380D01*
X120800857Y-105800000D01*
X120896095Y-105895238D01*
X120943714Y-105990476D01*
X120991333Y-106180952D01*
X120991333Y-106323809D01*
X120943714Y-106514285D01*
X120896095Y-106609523D01*
X120800857Y-106704761D01*
X120658000Y-106752380D01*
X120419904Y-106752380D01*
X121324666Y-105752380D02*
X121943714Y-105752380D01*
X121610380Y-106133333D01*
X121753238Y-106133333D01*
X121848476Y-106180952D01*
X121896095Y-106228571D01*
X121943714Y-106323809D01*
X121943714Y-106561904D01*
X121896095Y-106657142D01*
X121848476Y-106704761D01*
X121753238Y-106752380D01*
X121467523Y-106752380D01*
X121372285Y-106704761D01*
X121324666Y-106657142D01*
%TO.C,J2*%
X106066666Y-83152380D02*
X106066666Y-83866666D01*
X106019047Y-84009523D01*
X105923809Y-84104761D01*
X105780952Y-84152380D01*
X105685714Y-84152380D01*
X106495238Y-83247619D02*
X106542857Y-83200000D01*
X106638095Y-83152380D01*
X106876190Y-83152380D01*
X106971428Y-83200000D01*
X107019047Y-83247619D01*
X107066666Y-83342857D01*
X107066666Y-83438095D01*
X107019047Y-83580952D01*
X106447619Y-84152380D01*
X107066666Y-84152380D01*
%TO.C,J3*%
X143661666Y-101497380D02*
X143661666Y-102211666D01*
X143614047Y-102354523D01*
X143518809Y-102449761D01*
X143375952Y-102497380D01*
X143280714Y-102497380D01*
X144042619Y-101497380D02*
X144661666Y-101497380D01*
X144328333Y-101878333D01*
X144471190Y-101878333D01*
X144566428Y-101925952D01*
X144614047Y-101973571D01*
X144661666Y-102068809D01*
X144661666Y-102306904D01*
X144614047Y-102402142D01*
X144566428Y-102449761D01*
X144471190Y-102497380D01*
X144185476Y-102497380D01*
X144090238Y-102449761D01*
X144042619Y-102402142D01*
%TO.C,R18*%
X110147142Y-73112380D02*
X109813809Y-72636190D01*
X109575714Y-73112380D02*
X109575714Y-72112380D01*
X109956666Y-72112380D01*
X110051904Y-72160000D01*
X110099523Y-72207619D01*
X110147142Y-72302857D01*
X110147142Y-72445714D01*
X110099523Y-72540952D01*
X110051904Y-72588571D01*
X109956666Y-72636190D01*
X109575714Y-72636190D01*
X111099523Y-73112380D02*
X110528095Y-73112380D01*
X110813809Y-73112380D02*
X110813809Y-72112380D01*
X110718571Y-72255238D01*
X110623333Y-72350476D01*
X110528095Y-72398095D01*
X111670952Y-72540952D02*
X111575714Y-72493333D01*
X111528095Y-72445714D01*
X111480476Y-72350476D01*
X111480476Y-72302857D01*
X111528095Y-72207619D01*
X111575714Y-72160000D01*
X111670952Y-72112380D01*
X111861428Y-72112380D01*
X111956666Y-72160000D01*
X112004285Y-72207619D01*
X112051904Y-72302857D01*
X112051904Y-72350476D01*
X112004285Y-72445714D01*
X111956666Y-72493333D01*
X111861428Y-72540952D01*
X111670952Y-72540952D01*
X111575714Y-72588571D01*
X111528095Y-72636190D01*
X111480476Y-72731428D01*
X111480476Y-72921904D01*
X111528095Y-73017142D01*
X111575714Y-73064761D01*
X111670952Y-73112380D01*
X111861428Y-73112380D01*
X111956666Y-73064761D01*
X112004285Y-73017142D01*
X112051904Y-72921904D01*
X112051904Y-72731428D01*
X112004285Y-72636190D01*
X111956666Y-72588571D01*
X111861428Y-72540952D01*
%TO.C,J8*%
X97386666Y-112472380D02*
X97386666Y-113186666D01*
X97339047Y-113329523D01*
X97243809Y-113424761D01*
X97100952Y-113472380D01*
X97005714Y-113472380D01*
X98005714Y-112900952D02*
X97910476Y-112853333D01*
X97862857Y-112805714D01*
X97815238Y-112710476D01*
X97815238Y-112662857D01*
X97862857Y-112567619D01*
X97910476Y-112520000D01*
X98005714Y-112472380D01*
X98196190Y-112472380D01*
X98291428Y-112520000D01*
X98339047Y-112567619D01*
X98386666Y-112662857D01*
X98386666Y-112710476D01*
X98339047Y-112805714D01*
X98291428Y-112853333D01*
X98196190Y-112900952D01*
X98005714Y-112900952D01*
X97910476Y-112948571D01*
X97862857Y-112996190D01*
X97815238Y-113091428D01*
X97815238Y-113281904D01*
X97862857Y-113377142D01*
X97910476Y-113424761D01*
X98005714Y-113472380D01*
X98196190Y-113472380D01*
X98291428Y-113424761D01*
X98339047Y-113377142D01*
X98386666Y-113281904D01*
X98386666Y-113091428D01*
X98339047Y-112996190D01*
X98291428Y-112948571D01*
X98196190Y-112900952D01*
%TO.C,J6*%
X108546666Y-112472380D02*
X108546666Y-113186666D01*
X108499047Y-113329523D01*
X108403809Y-113424761D01*
X108260952Y-113472380D01*
X108165714Y-113472380D01*
X109451428Y-112472380D02*
X109260952Y-112472380D01*
X109165714Y-112520000D01*
X109118095Y-112567619D01*
X109022857Y-112710476D01*
X108975238Y-112900952D01*
X108975238Y-113281904D01*
X109022857Y-113377142D01*
X109070476Y-113424761D01*
X109165714Y-113472380D01*
X109356190Y-113472380D01*
X109451428Y-113424761D01*
X109499047Y-113377142D01*
X109546666Y-113281904D01*
X109546666Y-113043809D01*
X109499047Y-112948571D01*
X109451428Y-112900952D01*
X109356190Y-112853333D01*
X109165714Y-112853333D01*
X109070476Y-112900952D01*
X109022857Y-112948571D01*
X108975238Y-113043809D01*
%TO.C,C5*%
X165441333Y-80719142D02*
X165393714Y-80766761D01*
X165250857Y-80814380D01*
X165155619Y-80814380D01*
X165012761Y-80766761D01*
X164917523Y-80671523D01*
X164869904Y-80576285D01*
X164822285Y-80385809D01*
X164822285Y-80242952D01*
X164869904Y-80052476D01*
X164917523Y-79957238D01*
X165012761Y-79862000D01*
X165155619Y-79814380D01*
X165250857Y-79814380D01*
X165393714Y-79862000D01*
X165441333Y-79909619D01*
X166346095Y-79814380D02*
X165869904Y-79814380D01*
X165822285Y-80290571D01*
X165869904Y-80242952D01*
X165965142Y-80195333D01*
X166203238Y-80195333D01*
X166298476Y-80242952D01*
X166346095Y-80290571D01*
X166393714Y-80385809D01*
X166393714Y-80623904D01*
X166346095Y-80719142D01*
X166298476Y-80766761D01*
X166203238Y-80814380D01*
X165965142Y-80814380D01*
X165869904Y-80766761D01*
X165822285Y-80719142D01*
%TO.C,R15*%
X110147142Y-71137380D02*
X109813809Y-70661190D01*
X109575714Y-71137380D02*
X109575714Y-70137380D01*
X109956666Y-70137380D01*
X110051904Y-70185000D01*
X110099523Y-70232619D01*
X110147142Y-70327857D01*
X110147142Y-70470714D01*
X110099523Y-70565952D01*
X110051904Y-70613571D01*
X109956666Y-70661190D01*
X109575714Y-70661190D01*
X111099523Y-71137380D02*
X110528095Y-71137380D01*
X110813809Y-71137380D02*
X110813809Y-70137380D01*
X110718571Y-70280238D01*
X110623333Y-70375476D01*
X110528095Y-70423095D01*
X112004285Y-70137380D02*
X111528095Y-70137380D01*
X111480476Y-70613571D01*
X111528095Y-70565952D01*
X111623333Y-70518333D01*
X111861428Y-70518333D01*
X111956666Y-70565952D01*
X112004285Y-70613571D01*
X112051904Y-70708809D01*
X112051904Y-70946904D01*
X112004285Y-71042142D01*
X111956666Y-71089761D01*
X111861428Y-71137380D01*
X111623333Y-71137380D01*
X111528095Y-71089761D01*
X111480476Y-71042142D01*
%TO.C,C7*%
X150963333Y-97634142D02*
X150915714Y-97681761D01*
X150772857Y-97729380D01*
X150677619Y-97729380D01*
X150534761Y-97681761D01*
X150439523Y-97586523D01*
X150391904Y-97491285D01*
X150344285Y-97300809D01*
X150344285Y-97157952D01*
X150391904Y-96967476D01*
X150439523Y-96872238D01*
X150534761Y-96777000D01*
X150677619Y-96729380D01*
X150772857Y-96729380D01*
X150915714Y-96777000D01*
X150963333Y-96824619D01*
X151296666Y-96729380D02*
X151963333Y-96729380D01*
X151534761Y-97729380D01*
%TO.C,R16*%
X103957142Y-64977380D02*
X103623809Y-64501190D01*
X103385714Y-64977380D02*
X103385714Y-63977380D01*
X103766666Y-63977380D01*
X103861904Y-64025000D01*
X103909523Y-64072619D01*
X103957142Y-64167857D01*
X103957142Y-64310714D01*
X103909523Y-64405952D01*
X103861904Y-64453571D01*
X103766666Y-64501190D01*
X103385714Y-64501190D01*
X104909523Y-64977380D02*
X104338095Y-64977380D01*
X104623809Y-64977380D02*
X104623809Y-63977380D01*
X104528571Y-64120238D01*
X104433333Y-64215476D01*
X104338095Y-64263095D01*
X105766666Y-63977380D02*
X105576190Y-63977380D01*
X105480952Y-64025000D01*
X105433333Y-64072619D01*
X105338095Y-64215476D01*
X105290476Y-64405952D01*
X105290476Y-64786904D01*
X105338095Y-64882142D01*
X105385714Y-64929761D01*
X105480952Y-64977380D01*
X105671428Y-64977380D01*
X105766666Y-64929761D01*
X105814285Y-64882142D01*
X105861904Y-64786904D01*
X105861904Y-64548809D01*
X105814285Y-64453571D01*
X105766666Y-64405952D01*
X105671428Y-64358333D01*
X105480952Y-64358333D01*
X105385714Y-64405952D01*
X105338095Y-64453571D01*
X105290476Y-64548809D01*
%TO.C,J10*%
X141684476Y-107910380D02*
X141684476Y-108624666D01*
X141636857Y-108767523D01*
X141541619Y-108862761D01*
X141398761Y-108910380D01*
X141303523Y-108910380D01*
X142684476Y-108910380D02*
X142113047Y-108910380D01*
X142398761Y-108910380D02*
X142398761Y-107910380D01*
X142303523Y-108053238D01*
X142208285Y-108148476D01*
X142113047Y-108196095D01*
X143303523Y-107910380D02*
X143398761Y-107910380D01*
X143494000Y-107958000D01*
X143541619Y-108005619D01*
X143589238Y-108100857D01*
X143636857Y-108291333D01*
X143636857Y-108529428D01*
X143589238Y-108719904D01*
X143541619Y-108815142D01*
X143494000Y-108862761D01*
X143398761Y-108910380D01*
X143303523Y-108910380D01*
X143208285Y-108862761D01*
X143160666Y-108815142D01*
X143113047Y-108719904D01*
X143065428Y-108529428D01*
X143065428Y-108291333D01*
X143113047Y-108100857D01*
X143160666Y-108005619D01*
X143208285Y-107958000D01*
X143303523Y-107910380D01*
%TO.C,D2*%
X129035404Y-106752380D02*
X129035404Y-105752380D01*
X129273500Y-105752380D01*
X129416357Y-105800000D01*
X129511595Y-105895238D01*
X129559214Y-105990476D01*
X129606833Y-106180952D01*
X129606833Y-106323809D01*
X129559214Y-106514285D01*
X129511595Y-106609523D01*
X129416357Y-106704761D01*
X129273500Y-106752380D01*
X129035404Y-106752380D01*
X129987785Y-105847619D02*
X130035404Y-105800000D01*
X130130642Y-105752380D01*
X130368738Y-105752380D01*
X130463976Y-105800000D01*
X130511595Y-105847619D01*
X130559214Y-105942857D01*
X130559214Y-106038095D01*
X130511595Y-106180952D01*
X129940166Y-106752380D01*
X130559214Y-106752380D01*
%TO.C,D1*%
X157170380Y-106656095D02*
X156170380Y-106656095D01*
X156170380Y-106418000D01*
X156218000Y-106275142D01*
X156313238Y-106179904D01*
X156408476Y-106132285D01*
X156598952Y-106084666D01*
X156741809Y-106084666D01*
X156932285Y-106132285D01*
X157027523Y-106179904D01*
X157122761Y-106275142D01*
X157170380Y-106418000D01*
X157170380Y-106656095D01*
X157170380Y-105132285D02*
X157170380Y-105703714D01*
X157170380Y-105418000D02*
X156170380Y-105418000D01*
X156313238Y-105513238D01*
X156408476Y-105608476D01*
X156456095Y-105703714D01*
%TO.C,J5*%
X118030666Y-108164380D02*
X118030666Y-108878666D01*
X117983047Y-109021523D01*
X117887809Y-109116761D01*
X117744952Y-109164380D01*
X117649714Y-109164380D01*
X118983047Y-108164380D02*
X118506857Y-108164380D01*
X118459238Y-108640571D01*
X118506857Y-108592952D01*
X118602095Y-108545333D01*
X118840190Y-108545333D01*
X118935428Y-108592952D01*
X118983047Y-108640571D01*
X119030666Y-108735809D01*
X119030666Y-108973904D01*
X118983047Y-109069142D01*
X118935428Y-109116761D01*
X118840190Y-109164380D01*
X118602095Y-109164380D01*
X118506857Y-109116761D01*
X118459238Y-109069142D01*
%TO.C,R1*%
X162901333Y-97480380D02*
X162568000Y-97004190D01*
X162329904Y-97480380D02*
X162329904Y-96480380D01*
X162710857Y-96480380D01*
X162806095Y-96528000D01*
X162853714Y-96575619D01*
X162901333Y-96670857D01*
X162901333Y-96813714D01*
X162853714Y-96908952D01*
X162806095Y-96956571D01*
X162710857Y-97004190D01*
X162329904Y-97004190D01*
X163853714Y-97480380D02*
X163282285Y-97480380D01*
X163568000Y-97480380D02*
X163568000Y-96480380D01*
X163472761Y-96623238D01*
X163377523Y-96718476D01*
X163282285Y-96766095D01*
%TO.C,Q4*%
X99604761Y-103147619D02*
X99509523Y-103100000D01*
X99414285Y-103004761D01*
X99271428Y-102861904D01*
X99176190Y-102814285D01*
X99080952Y-102814285D01*
X99128571Y-103052380D02*
X99033333Y-103004761D01*
X98938095Y-102909523D01*
X98890476Y-102719047D01*
X98890476Y-102385714D01*
X98938095Y-102195238D01*
X99033333Y-102100000D01*
X99128571Y-102052380D01*
X99319047Y-102052380D01*
X99414285Y-102100000D01*
X99509523Y-102195238D01*
X99557142Y-102385714D01*
X99557142Y-102719047D01*
X99509523Y-102909523D01*
X99414285Y-103004761D01*
X99319047Y-103052380D01*
X99128571Y-103052380D01*
X100414285Y-102385714D02*
X100414285Y-103052380D01*
X100176190Y-102004761D02*
X99938095Y-102719047D01*
X100557142Y-102719047D01*
%TO.C,C3*%
X167727333Y-92305142D02*
X167679714Y-92352761D01*
X167536857Y-92400380D01*
X167441619Y-92400380D01*
X167298761Y-92352761D01*
X167203523Y-92257523D01*
X167155904Y-92162285D01*
X167108285Y-91971809D01*
X167108285Y-91828952D01*
X167155904Y-91638476D01*
X167203523Y-91543238D01*
X167298761Y-91448000D01*
X167441619Y-91400380D01*
X167536857Y-91400380D01*
X167679714Y-91448000D01*
X167727333Y-91495619D01*
X168060666Y-91400380D02*
X168679714Y-91400380D01*
X168346380Y-91781333D01*
X168489238Y-91781333D01*
X168584476Y-91828952D01*
X168632095Y-91876571D01*
X168679714Y-91971809D01*
X168679714Y-92209904D01*
X168632095Y-92305142D01*
X168584476Y-92352761D01*
X168489238Y-92400380D01*
X168203523Y-92400380D01*
X168108285Y-92352761D01*
X168060666Y-92305142D01*
%TO.C,R3*%
X150963333Y-91364380D02*
X150630000Y-90888190D01*
X150391904Y-91364380D02*
X150391904Y-90364380D01*
X150772857Y-90364380D01*
X150868095Y-90412000D01*
X150915714Y-90459619D01*
X150963333Y-90554857D01*
X150963333Y-90697714D01*
X150915714Y-90792952D01*
X150868095Y-90840571D01*
X150772857Y-90888190D01*
X150391904Y-90888190D01*
X151296666Y-90364380D02*
X151915714Y-90364380D01*
X151582380Y-90745333D01*
X151725238Y-90745333D01*
X151820476Y-90792952D01*
X151868095Y-90840571D01*
X151915714Y-90935809D01*
X151915714Y-91173904D01*
X151868095Y-91269142D01*
X151820476Y-91316761D01*
X151725238Y-91364380D01*
X151439523Y-91364380D01*
X151344285Y-91316761D01*
X151296666Y-91269142D01*
%TO.C,C6*%
X150963333Y-87225142D02*
X150915714Y-87272761D01*
X150772857Y-87320380D01*
X150677619Y-87320380D01*
X150534761Y-87272761D01*
X150439523Y-87177523D01*
X150391904Y-87082285D01*
X150344285Y-86891809D01*
X150344285Y-86748952D01*
X150391904Y-86558476D01*
X150439523Y-86463238D01*
X150534761Y-86368000D01*
X150677619Y-86320380D01*
X150772857Y-86320380D01*
X150915714Y-86368000D01*
X150963333Y-86415619D01*
X151820476Y-86320380D02*
X151630000Y-86320380D01*
X151534761Y-86368000D01*
X151487142Y-86415619D01*
X151391904Y-86558476D01*
X151344285Y-86748952D01*
X151344285Y-87129904D01*
X151391904Y-87225142D01*
X151439523Y-87272761D01*
X151534761Y-87320380D01*
X151725238Y-87320380D01*
X151820476Y-87272761D01*
X151868095Y-87225142D01*
X151915714Y-87129904D01*
X151915714Y-86891809D01*
X151868095Y-86796571D01*
X151820476Y-86748952D01*
X151725238Y-86701333D01*
X151534761Y-86701333D01*
X151439523Y-86748952D01*
X151391904Y-86796571D01*
X151344285Y-86891809D01*
%TO.C,J11*%
X94370476Y-66962380D02*
X94370476Y-67676666D01*
X94322857Y-67819523D01*
X94227619Y-67914761D01*
X94084761Y-67962380D01*
X93989523Y-67962380D01*
X95370476Y-67962380D02*
X94799047Y-67962380D01*
X95084761Y-67962380D02*
X95084761Y-66962380D01*
X94989523Y-67105238D01*
X94894285Y-67200476D01*
X94799047Y-67248095D01*
X96322857Y-67962380D02*
X95751428Y-67962380D01*
X96037142Y-67962380D02*
X96037142Y-66962380D01*
X95941904Y-67105238D01*
X95846666Y-67200476D01*
X95751428Y-67248095D01*
%TO.C,L1*%
X155968380Y-85002666D02*
X155968380Y-85478857D01*
X154968380Y-85478857D01*
X155968380Y-84145523D02*
X155968380Y-84716952D01*
X155968380Y-84431238D02*
X154968380Y-84431238D01*
X155111238Y-84526476D01*
X155206476Y-84621714D01*
X155254095Y-84716952D01*
%TO.C,R9*%
X156805333Y-99117522D02*
X156472000Y-98641332D01*
X156233904Y-99117522D02*
X156233904Y-98117522D01*
X156614857Y-98117522D01*
X156710095Y-98165142D01*
X156757714Y-98212761D01*
X156805333Y-98307999D01*
X156805333Y-98450856D01*
X156757714Y-98546094D01*
X156710095Y-98593713D01*
X156614857Y-98641332D01*
X156233904Y-98641332D01*
X157281523Y-99117522D02*
X157472000Y-99117522D01*
X157567238Y-99069903D01*
X157614857Y-99022284D01*
X157710095Y-98879427D01*
X157757714Y-98688951D01*
X157757714Y-98307999D01*
X157710095Y-98212761D01*
X157662476Y-98165142D01*
X157567238Y-98117522D01*
X157376761Y-98117522D01*
X157281523Y-98165142D01*
X157233904Y-98212761D01*
X157186285Y-98307999D01*
X157186285Y-98546094D01*
X157233904Y-98641332D01*
X157281523Y-98688951D01*
X157376761Y-98736570D01*
X157567238Y-98736570D01*
X157662476Y-98688951D01*
X157710095Y-98641332D01*
X157757714Y-98546094D01*
%TO.C,R14*%
X103957142Y-66752380D02*
X103623809Y-66276190D01*
X103385714Y-66752380D02*
X103385714Y-65752380D01*
X103766666Y-65752380D01*
X103861904Y-65800000D01*
X103909523Y-65847619D01*
X103957142Y-65942857D01*
X103957142Y-66085714D01*
X103909523Y-66180952D01*
X103861904Y-66228571D01*
X103766666Y-66276190D01*
X103385714Y-66276190D01*
X104909523Y-66752380D02*
X104338095Y-66752380D01*
X104623809Y-66752380D02*
X104623809Y-65752380D01*
X104528571Y-65895238D01*
X104433333Y-65990476D01*
X104338095Y-66038095D01*
X105766666Y-66085714D02*
X105766666Y-66752380D01*
X105528571Y-65704761D02*
X105290476Y-66419047D01*
X105909523Y-66419047D01*
%TO.C,D4*%
X111275904Y-106752380D02*
X111275904Y-105752380D01*
X111514000Y-105752380D01*
X111656857Y-105800000D01*
X111752095Y-105895238D01*
X111799714Y-105990476D01*
X111847333Y-106180952D01*
X111847333Y-106323809D01*
X111799714Y-106514285D01*
X111752095Y-106609523D01*
X111656857Y-106704761D01*
X111514000Y-106752380D01*
X111275904Y-106752380D01*
X112704476Y-106085714D02*
X112704476Y-106752380D01*
X112466380Y-105704761D02*
X112228285Y-106419047D01*
X112847333Y-106419047D01*
%TO.C,J1*%
X157246666Y-110472380D02*
X157246666Y-111186666D01*
X157199047Y-111329523D01*
X157103809Y-111424761D01*
X156960952Y-111472380D01*
X156865714Y-111472380D01*
X158246666Y-111472380D02*
X157675238Y-111472380D01*
X157960952Y-111472380D02*
X157960952Y-110472380D01*
X157865714Y-110615238D01*
X157770476Y-110710476D01*
X157675238Y-110758095D01*
%TO.C,R10*%
X132614642Y-106752380D02*
X132281309Y-106276190D01*
X132043214Y-106752380D02*
X132043214Y-105752380D01*
X132424166Y-105752380D01*
X132519404Y-105800000D01*
X132567023Y-105847619D01*
X132614642Y-105942857D01*
X132614642Y-106085714D01*
X132567023Y-106180952D01*
X132519404Y-106228571D01*
X132424166Y-106276190D01*
X132043214Y-106276190D01*
X133567023Y-106752380D02*
X132995595Y-106752380D01*
X133281309Y-106752380D02*
X133281309Y-105752380D01*
X133186071Y-105895238D01*
X133090833Y-105990476D01*
X132995595Y-106038095D01*
X134186071Y-105752380D02*
X134281309Y-105752380D01*
X134376547Y-105800000D01*
X134424166Y-105847619D01*
X134471785Y-105942857D01*
X134519404Y-106133333D01*
X134519404Y-106371428D01*
X134471785Y-106561904D01*
X134424166Y-106657142D01*
X134376547Y-106704761D01*
X134281309Y-106752380D01*
X134186071Y-106752380D01*
X134090833Y-106704761D01*
X134043214Y-106657142D01*
X133995595Y-106561904D01*
X133947976Y-106371428D01*
X133947976Y-106133333D01*
X133995595Y-105942857D01*
X134043214Y-105847619D01*
X134090833Y-105800000D01*
X134186071Y-105752380D01*
%TO.C,R19*%
X169852380Y-108315357D02*
X169376190Y-108648690D01*
X169852380Y-108886785D02*
X168852380Y-108886785D01*
X168852380Y-108505833D01*
X168900000Y-108410595D01*
X168947619Y-108362976D01*
X169042857Y-108315357D01*
X169185714Y-108315357D01*
X169280952Y-108362976D01*
X169328571Y-108410595D01*
X169376190Y-108505833D01*
X169376190Y-108886785D01*
X169852380Y-107362976D02*
X169852380Y-107934404D01*
X169852380Y-107648690D02*
X168852380Y-107648690D01*
X168995238Y-107743928D01*
X169090476Y-107839166D01*
X169138095Y-107934404D01*
X169852380Y-106886785D02*
X169852380Y-106696309D01*
X169804761Y-106601071D01*
X169757142Y-106553452D01*
X169614285Y-106458214D01*
X169423809Y-106410595D01*
X169042857Y-106410595D01*
X168947619Y-106458214D01*
X168900000Y-106505833D01*
X168852380Y-106601071D01*
X168852380Y-106791547D01*
X168900000Y-106886785D01*
X168947619Y-106934404D01*
X169042857Y-106982023D01*
X169280952Y-106982023D01*
X169376190Y-106934404D01*
X169423809Y-106886785D01*
X169471428Y-106791547D01*
X169471428Y-106601071D01*
X169423809Y-106505833D01*
X169376190Y-106458214D01*
X169280952Y-106410595D01*
%TO.C,J12*%
X148115476Y-80407380D02*
X148115476Y-81121666D01*
X148067857Y-81264523D01*
X147972619Y-81359761D01*
X147829761Y-81407380D01*
X147734523Y-81407380D01*
X149115476Y-81407380D02*
X148544047Y-81407380D01*
X148829761Y-81407380D02*
X148829761Y-80407380D01*
X148734523Y-80550238D01*
X148639285Y-80645476D01*
X148544047Y-80693095D01*
X149496428Y-80502619D02*
X149544047Y-80455000D01*
X149639285Y-80407380D01*
X149877380Y-80407380D01*
X149972619Y-80455000D01*
X150020238Y-80502619D01*
X150067857Y-80597857D01*
X150067857Y-80693095D01*
X150020238Y-80835952D01*
X149448809Y-81407380D01*
X150067857Y-81407380D01*
%TO.C,J7*%
X95306666Y-98152380D02*
X95306666Y-98866666D01*
X95259047Y-99009523D01*
X95163809Y-99104761D01*
X95020952Y-99152380D01*
X94925714Y-99152380D01*
X95687619Y-98152380D02*
X96354285Y-98152380D01*
X95925714Y-99152380D01*
%TO.C,R4*%
X150963333Y-89357380D02*
X150630000Y-88881190D01*
X150391904Y-89357380D02*
X150391904Y-88357380D01*
X150772857Y-88357380D01*
X150868095Y-88405000D01*
X150915714Y-88452619D01*
X150963333Y-88547857D01*
X150963333Y-88690714D01*
X150915714Y-88785952D01*
X150868095Y-88833571D01*
X150772857Y-88881190D01*
X150391904Y-88881190D01*
X151820476Y-88690714D02*
X151820476Y-89357380D01*
X151582380Y-88309761D02*
X151344285Y-89024047D01*
X151963333Y-89024047D01*
%TO.C,C1*%
X150933333Y-95207142D02*
X150885714Y-95254761D01*
X150742857Y-95302380D01*
X150647619Y-95302380D01*
X150504761Y-95254761D01*
X150409523Y-95159523D01*
X150361904Y-95064285D01*
X150314285Y-94873809D01*
X150314285Y-94730952D01*
X150361904Y-94540476D01*
X150409523Y-94445238D01*
X150504761Y-94350000D01*
X150647619Y-94302380D01*
X150742857Y-94302380D01*
X150885714Y-94350000D01*
X150933333Y-94397619D01*
X151885714Y-95302380D02*
X151314285Y-95302380D01*
X151600000Y-95302380D02*
X151600000Y-94302380D01*
X151504761Y-94445238D01*
X151409523Y-94540476D01*
X151314285Y-94588095D01*
%TO.C,C9*%
X155883333Y-75907142D02*
X155835714Y-75954761D01*
X155692857Y-76002380D01*
X155597619Y-76002380D01*
X155454761Y-75954761D01*
X155359523Y-75859523D01*
X155311904Y-75764285D01*
X155264285Y-75573809D01*
X155264285Y-75430952D01*
X155311904Y-75240476D01*
X155359523Y-75145238D01*
X155454761Y-75050000D01*
X155597619Y-75002380D01*
X155692857Y-75002380D01*
X155835714Y-75050000D01*
X155883333Y-75097619D01*
X156359523Y-76002380D02*
X156550000Y-76002380D01*
X156645238Y-75954761D01*
X156692857Y-75907142D01*
X156788095Y-75764285D01*
X156835714Y-75573809D01*
X156835714Y-75192857D01*
X156788095Y-75097619D01*
X156740476Y-75050000D01*
X156645238Y-75002380D01*
X156454761Y-75002380D01*
X156359523Y-75050000D01*
X156311904Y-75097619D01*
X156264285Y-75192857D01*
X156264285Y-75430952D01*
X156311904Y-75526190D01*
X156359523Y-75573809D01*
X156454761Y-75621428D01*
X156645238Y-75621428D01*
X156740476Y-75573809D01*
X156788095Y-75526190D01*
X156835714Y-75430952D01*
%TO.C,USB1*%
X157302380Y-68988095D02*
X158111904Y-68988095D01*
X158207142Y-68940476D01*
X158254761Y-68892857D01*
X158302380Y-68797619D01*
X158302380Y-68607142D01*
X158254761Y-68511904D01*
X158207142Y-68464285D01*
X158111904Y-68416666D01*
X157302380Y-68416666D01*
X158254761Y-67988095D02*
X158302380Y-67845238D01*
X158302380Y-67607142D01*
X158254761Y-67511904D01*
X158207142Y-67464285D01*
X158111904Y-67416666D01*
X158016666Y-67416666D01*
X157921428Y-67464285D01*
X157873809Y-67511904D01*
X157826190Y-67607142D01*
X157778571Y-67797619D01*
X157730952Y-67892857D01*
X157683333Y-67940476D01*
X157588095Y-67988095D01*
X157492857Y-67988095D01*
X157397619Y-67940476D01*
X157350000Y-67892857D01*
X157302380Y-67797619D01*
X157302380Y-67559523D01*
X157350000Y-67416666D01*
X157778571Y-66654761D02*
X157826190Y-66511904D01*
X157873809Y-66464285D01*
X157969047Y-66416666D01*
X158111904Y-66416666D01*
X158207142Y-66464285D01*
X158254761Y-66511904D01*
X158302380Y-66607142D01*
X158302380Y-66988095D01*
X157302380Y-66988095D01*
X157302380Y-66654761D01*
X157350000Y-66559523D01*
X157397619Y-66511904D01*
X157492857Y-66464285D01*
X157588095Y-66464285D01*
X157683333Y-66511904D01*
X157730952Y-66559523D01*
X157778571Y-66654761D01*
X157778571Y-66988095D01*
X158302380Y-65464285D02*
X158302380Y-66035714D01*
X158302380Y-65750000D02*
X157302380Y-65750000D01*
X157445238Y-65845238D01*
X157540476Y-65940476D01*
X157588095Y-66035714D01*
%TO.C,C2*%
X168743333Y-94591142D02*
X168695714Y-94638761D01*
X168552857Y-94686380D01*
X168457619Y-94686380D01*
X168314761Y-94638761D01*
X168219523Y-94543523D01*
X168171904Y-94448285D01*
X168124285Y-94257809D01*
X168124285Y-94114952D01*
X168171904Y-93924476D01*
X168219523Y-93829238D01*
X168314761Y-93734000D01*
X168457619Y-93686380D01*
X168552857Y-93686380D01*
X168695714Y-93734000D01*
X168743333Y-93781619D01*
X169124285Y-93781619D02*
X169171904Y-93734000D01*
X169267142Y-93686380D01*
X169505238Y-93686380D01*
X169600476Y-93734000D01*
X169648095Y-93781619D01*
X169695714Y-93876857D01*
X169695714Y-93972095D01*
X169648095Y-94114952D01*
X169076666Y-94686380D01*
X169695714Y-94686380D01*
%TO.C,D5*%
X166552380Y-111928095D02*
X165552380Y-111928095D01*
X165552380Y-111690000D01*
X165600000Y-111547142D01*
X165695238Y-111451904D01*
X165790476Y-111404285D01*
X165980952Y-111356666D01*
X166123809Y-111356666D01*
X166314285Y-111404285D01*
X166409523Y-111451904D01*
X166504761Y-111547142D01*
X166552380Y-111690000D01*
X166552380Y-111928095D01*
X165552380Y-110451904D02*
X165552380Y-110928095D01*
X166028571Y-110975714D01*
X165980952Y-110928095D01*
X165933333Y-110832857D01*
X165933333Y-110594761D01*
X165980952Y-110499523D01*
X166028571Y-110451904D01*
X166123809Y-110404285D01*
X166361904Y-110404285D01*
X166457142Y-110451904D01*
X166504761Y-110499523D01*
X166552380Y-110594761D01*
X166552380Y-110832857D01*
X166504761Y-110928095D01*
X166457142Y-110975714D01*
%TO.C,R11*%
X124071142Y-106752380D02*
X123737809Y-106276190D01*
X123499714Y-106752380D02*
X123499714Y-105752380D01*
X123880666Y-105752380D01*
X123975904Y-105800000D01*
X124023523Y-105847619D01*
X124071142Y-105942857D01*
X124071142Y-106085714D01*
X124023523Y-106180952D01*
X123975904Y-106228571D01*
X123880666Y-106276190D01*
X123499714Y-106276190D01*
X125023523Y-106752380D02*
X124452095Y-106752380D01*
X124737809Y-106752380D02*
X124737809Y-105752380D01*
X124642571Y-105895238D01*
X124547333Y-105990476D01*
X124452095Y-106038095D01*
X125975904Y-106752380D02*
X125404476Y-106752380D01*
X125690190Y-106752380D02*
X125690190Y-105752380D01*
X125594952Y-105895238D01*
X125499714Y-105990476D01*
X125404476Y-106038095D01*
%TO.C,R5*%
X154884380Y-105576666D02*
X154408190Y-105910000D01*
X154884380Y-106148095D02*
X153884380Y-106148095D01*
X153884380Y-105767142D01*
X153932000Y-105671904D01*
X153979619Y-105624285D01*
X154074857Y-105576666D01*
X154217714Y-105576666D01*
X154312952Y-105624285D01*
X154360571Y-105671904D01*
X154408190Y-105767142D01*
X154408190Y-106148095D01*
X153884380Y-104671904D02*
X153884380Y-105148095D01*
X154360571Y-105195714D01*
X154312952Y-105148095D01*
X154265333Y-105052857D01*
X154265333Y-104814761D01*
X154312952Y-104719523D01*
X154360571Y-104671904D01*
X154455809Y-104624285D01*
X154693904Y-104624285D01*
X154789142Y-104671904D01*
X154836761Y-104719523D01*
X154884380Y-104814761D01*
X154884380Y-105052857D01*
X154836761Y-105148095D01*
X154789142Y-105195714D01*
%TO.C,J4*%
X126920666Y-108164380D02*
X126920666Y-108878666D01*
X126873047Y-109021523D01*
X126777809Y-109116761D01*
X126634952Y-109164380D01*
X126539714Y-109164380D01*
X127825428Y-108497714D02*
X127825428Y-109164380D01*
X127587333Y-108116761D02*
X127349238Y-108831047D01*
X127968285Y-108831047D01*
D11*
%TO.C,Q3*%
X101890000Y-105350000D02*
X101890000Y-104700000D01*
X105010000Y-105350000D02*
X105010000Y-106000000D01*
X101890000Y-105350000D02*
X101890000Y-106000000D01*
X105010000Y-105350000D02*
X105010000Y-103675000D01*
%TO.C,R7*%
X157199064Y-95731000D02*
X156744936Y-95731000D01*
X157199064Y-94261000D02*
X156744936Y-94261000D01*
%TO.C,R6*%
X153643064Y-93654000D02*
X153188936Y-93654000D01*
X153643064Y-92184000D02*
X153188936Y-92184000D01*
%TO.C,R8*%
X153643064Y-99795000D02*
X153188936Y-99795000D01*
X153643064Y-98325000D02*
X153188936Y-98325000D01*
%TO.C,Q2*%
X108748000Y-105283000D02*
X108748000Y-103608000D01*
X105628000Y-105283000D02*
X105628000Y-104633000D01*
X108748000Y-105283000D02*
X108748000Y-105933000D01*
X105628000Y-105283000D02*
X105628000Y-105933000D01*
%TO.C,J9*%
X95725000Y-93950000D02*
X95725000Y-90900000D01*
X92775000Y-93950000D02*
X95725000Y-93950000D01*
X92775000Y-87100000D02*
X92775000Y-87850000D01*
X96485000Y-87090000D02*
X90515000Y-87090000D01*
X90525000Y-92900000D02*
X90525000Y-94700000D01*
X90525000Y-94700000D02*
X91275000Y-94700000D01*
X90225000Y-93750000D02*
X90225000Y-95000000D01*
X90515000Y-87090000D02*
X90515000Y-94710000D01*
X90525000Y-88900000D02*
X91275000Y-88900000D01*
X91275000Y-90400000D02*
X90525000Y-90400000D01*
X96485000Y-94710000D02*
X96485000Y-87090000D01*
X90225000Y-95000000D02*
X91475000Y-95000000D01*
X95725000Y-87850000D02*
X95725000Y-90900000D01*
X90515000Y-94710000D02*
X96485000Y-94710000D01*
X90525000Y-91400000D02*
X91275000Y-91400000D01*
X92775000Y-94700000D02*
X92775000Y-93950000D01*
X91275000Y-88900000D02*
X91275000Y-87100000D01*
X91275000Y-94700000D02*
X91275000Y-92900000D01*
X92775000Y-87850000D02*
X95725000Y-87850000D01*
X91275000Y-92900000D02*
X90525000Y-92900000D01*
X90525000Y-87100000D02*
X90525000Y-88900000D01*
X91275000Y-87100000D02*
X90525000Y-87100000D01*
X91275000Y-91400000D02*
X91275000Y-90400000D01*
X90525000Y-90400000D02*
X90525000Y-91400000D01*
D12*
%TO.C,Q1*%
X158517000Y-100870000D02*
X158517000Y-104870000D01*
X163555000Y-100870000D02*
X163555000Y-104870000D01*
D13*
X163041000Y-98870000D02*
G75*
G03*
X163041000Y-98870000I-100000J0D01*
G01*
D11*
%TO.C,R12*%
X115310436Y-107215000D02*
X115764564Y-107215000D01*
X115310436Y-108685000D02*
X115764564Y-108685000D01*
%TO.C,R17*%
X107923064Y-67946600D02*
X107468936Y-67946600D01*
X107923064Y-69416600D02*
X107468936Y-69416600D01*
%TO.C,R2*%
X160300936Y-97763000D02*
X160755064Y-97763000D01*
X160300936Y-96293000D02*
X160755064Y-96293000D01*
%TO.C,C4*%
X165346748Y-85063000D02*
X165869252Y-85063000D01*
X165346748Y-83593000D02*
X165869252Y-83593000D01*
%TO.C,R13*%
X107923064Y-63473000D02*
X107468936Y-63473000D01*
X107923064Y-62003000D02*
X107468936Y-62003000D01*
%TO.C,C8*%
X156311252Y-70879000D02*
X155788748Y-70879000D01*
X156311252Y-72349000D02*
X155788748Y-72349000D01*
%TO.C,U1*%
X158750000Y-93000000D02*
X160550000Y-93000000D01*
X158750000Y-93000000D02*
X157950000Y-93000000D01*
X158750000Y-89880000D02*
X157950000Y-89880000D01*
X158750000Y-89880000D02*
X159550000Y-89880000D01*
%TO.C,D3*%
X122158000Y-106990000D02*
X119473000Y-106990000D01*
X119473000Y-106990000D02*
X119473000Y-108910000D01*
X119473000Y-108910000D02*
X122158000Y-108910000D01*
%TO.C,J2*%
X104850000Y-100580000D02*
X104850000Y-67440000D01*
X102250000Y-97980000D02*
X99650000Y-97980000D01*
X99650000Y-100580000D02*
X99650000Y-99250000D01*
X102250000Y-100580000D02*
X102250000Y-97980000D01*
X100980000Y-100580000D02*
X99650000Y-100580000D01*
X104850000Y-67440000D02*
X99650000Y-67440000D01*
X104850000Y-100580000D02*
X102250000Y-100580000D01*
X99650000Y-97980000D02*
X99650000Y-67440000D01*
%TO.C,J3*%
X143995000Y-100605000D02*
X142665000Y-100605000D01*
X145325000Y-98005000D02*
X145325000Y-67465000D01*
X142665000Y-100605000D02*
X142665000Y-99275000D01*
X145325000Y-98005000D02*
X142665000Y-98005000D01*
X142665000Y-98005000D02*
X142665000Y-67465000D01*
X145325000Y-67465000D02*
X142665000Y-67465000D01*
%TO.C,R18*%
X107923064Y-73379000D02*
X107468936Y-73379000D01*
X107923064Y-71909000D02*
X107468936Y-71909000D01*
%TO.C,J8*%
X103000000Y-114725000D02*
X102000000Y-114725000D01*
X99450000Y-113225000D02*
X99450000Y-110275000D01*
X104500000Y-115475000D02*
X106300000Y-115475000D01*
X105550000Y-113225000D02*
X105550000Y-110275000D01*
X100500000Y-115475000D02*
X100500000Y-114725000D01*
X106300000Y-114725000D02*
X104500000Y-114725000D01*
X106300000Y-113225000D02*
X105550000Y-113225000D01*
X104500000Y-114725000D02*
X104500000Y-115475000D01*
X102000000Y-114725000D02*
X102000000Y-115475000D01*
X106310000Y-115485000D02*
X106310000Y-109515000D01*
X98700000Y-115475000D02*
X100500000Y-115475000D01*
X106600000Y-115775000D02*
X106600000Y-114525000D01*
X98700000Y-114725000D02*
X98700000Y-115475000D01*
X105350000Y-115775000D02*
X106600000Y-115775000D01*
X103000000Y-115475000D02*
X103000000Y-114725000D01*
X99450000Y-110275000D02*
X102500000Y-110275000D01*
X106300000Y-115475000D02*
X106300000Y-114725000D01*
X98690000Y-115485000D02*
X106310000Y-115485000D01*
X98700000Y-113225000D02*
X99450000Y-113225000D01*
X105550000Y-110275000D02*
X102500000Y-110275000D01*
X100500000Y-114725000D02*
X98700000Y-114725000D01*
X98690000Y-109515000D02*
X98690000Y-115485000D01*
X102000000Y-115475000D02*
X103000000Y-115475000D01*
X106310000Y-109515000D02*
X98690000Y-109515000D01*
%TO.C,J6*%
X113312000Y-114730000D02*
X113312000Y-115480000D01*
X111812000Y-114730000D02*
X110012000Y-114730000D01*
X110012000Y-115480000D02*
X111812000Y-115480000D01*
X117612000Y-115480000D02*
X117612000Y-114730000D01*
X117612000Y-114730000D02*
X115812000Y-114730000D01*
X117612000Y-113230000D02*
X116862000Y-113230000D01*
X115812000Y-115480000D02*
X117612000Y-115480000D01*
X111812000Y-115480000D02*
X111812000Y-114730000D01*
X110002000Y-115490000D02*
X117622000Y-115490000D01*
X115812000Y-114730000D02*
X115812000Y-115480000D01*
X114312000Y-115480000D02*
X114312000Y-114730000D01*
X114312000Y-114730000D02*
X113312000Y-114730000D01*
X110762000Y-113230000D02*
X110762000Y-110280000D01*
X110012000Y-114730000D02*
X110012000Y-115480000D01*
X110762000Y-110280000D02*
X113812000Y-110280000D01*
X113312000Y-115480000D02*
X114312000Y-115480000D01*
X117622000Y-109520000D02*
X110002000Y-109520000D01*
X110002000Y-109520000D02*
X110002000Y-115490000D01*
X117622000Y-115490000D02*
X117622000Y-109520000D01*
X116662000Y-115780000D02*
X117912000Y-115780000D01*
X116862000Y-113230000D02*
X116862000Y-110280000D01*
X110012000Y-113230000D02*
X110762000Y-113230000D01*
X117912000Y-115780000D02*
X117912000Y-114530000D01*
X116862000Y-110280000D02*
X113812000Y-110280000D01*
%TO.C,C5*%
X165346748Y-82777000D02*
X165869252Y-82777000D01*
X165346748Y-81307000D02*
X165869252Y-81307000D01*
%TO.C,R15*%
X107914564Y-69927800D02*
X107460436Y-69927800D01*
X107914564Y-71397800D02*
X107460436Y-71397800D01*
%TO.C,C7*%
X153677252Y-96288000D02*
X153154748Y-96288000D01*
X153677252Y-97758000D02*
X153154748Y-97758000D01*
%TO.C,R16*%
X107923064Y-63984200D02*
X107468936Y-63984200D01*
X107923064Y-65454200D02*
X107468936Y-65454200D01*
%TO.C,J10*%
X142250000Y-114700000D02*
X142250000Y-115450000D01*
X146850000Y-115750000D02*
X146850000Y-114500000D01*
X139700000Y-110250000D02*
X142750000Y-110250000D01*
X138950000Y-113200000D02*
X139700000Y-113200000D01*
X145600000Y-115750000D02*
X146850000Y-115750000D01*
X144750000Y-114700000D02*
X144750000Y-115450000D01*
X145800000Y-110250000D02*
X142750000Y-110250000D01*
X145800000Y-113200000D02*
X145800000Y-110250000D01*
X146550000Y-115450000D02*
X146550000Y-114700000D01*
X146550000Y-114700000D02*
X144750000Y-114700000D01*
X140750000Y-114700000D02*
X138950000Y-114700000D01*
X142250000Y-115450000D02*
X143250000Y-115450000D01*
X144750000Y-115450000D02*
X146550000Y-115450000D01*
X143250000Y-114700000D02*
X142250000Y-114700000D01*
X138950000Y-114700000D02*
X138950000Y-115450000D01*
X146550000Y-113200000D02*
X145800000Y-113200000D01*
X146560000Y-115460000D02*
X146560000Y-109490000D01*
X139700000Y-113200000D02*
X139700000Y-110250000D01*
X140750000Y-115450000D02*
X140750000Y-114700000D01*
X138940000Y-115460000D02*
X146560000Y-115460000D01*
X146560000Y-109490000D02*
X138940000Y-109490000D01*
X138940000Y-109490000D02*
X138940000Y-115460000D01*
X138950000Y-115450000D02*
X140750000Y-115450000D01*
X143250000Y-115450000D02*
X143250000Y-114700000D01*
%TO.C,D2*%
X130773500Y-106990000D02*
X128088500Y-106990000D01*
X128088500Y-108910000D02*
X130773500Y-108910000D01*
X128088500Y-106990000D02*
X128088500Y-108910000D01*
%TO.C,D1*%
X155718000Y-104866000D02*
X157718000Y-104866000D01*
X157718000Y-104866000D02*
X157718000Y-100966000D01*
X155718000Y-104866000D02*
X155718000Y-100966000D01*
%TO.C,J5*%
X120702000Y-114725000D02*
X118902000Y-114725000D01*
X126502000Y-115475000D02*
X126502000Y-114725000D01*
X118902000Y-113225000D02*
X119652000Y-113225000D01*
X125552000Y-115775000D02*
X126802000Y-115775000D01*
X119652000Y-113225000D02*
X119652000Y-110275000D01*
X126512000Y-115485000D02*
X126512000Y-109515000D01*
X125752000Y-113225000D02*
X125752000Y-110275000D01*
X120702000Y-115475000D02*
X120702000Y-114725000D01*
X122202000Y-114725000D02*
X122202000Y-115475000D01*
X118892000Y-109515000D02*
X118892000Y-115485000D01*
X118902000Y-114725000D02*
X118902000Y-115475000D01*
X126502000Y-114725000D02*
X124702000Y-114725000D01*
X123202000Y-115475000D02*
X123202000Y-114725000D01*
X126502000Y-113225000D02*
X125752000Y-113225000D01*
X126512000Y-109515000D02*
X118892000Y-109515000D01*
X119652000Y-110275000D02*
X122702000Y-110275000D01*
X124702000Y-115475000D02*
X126502000Y-115475000D01*
X124702000Y-114725000D02*
X124702000Y-115475000D01*
X123202000Y-114725000D02*
X122202000Y-114725000D01*
X118902000Y-115475000D02*
X120702000Y-115475000D01*
X118892000Y-115485000D02*
X126512000Y-115485000D01*
X126802000Y-115775000D02*
X126802000Y-114525000D01*
X125752000Y-110275000D02*
X122702000Y-110275000D01*
X122202000Y-115475000D02*
X123202000Y-115475000D01*
%TO.C,R1*%
X160755064Y-95731000D02*
X160300936Y-95731000D01*
X160755064Y-94261000D02*
X160300936Y-94261000D01*
%TO.C,Q4*%
X98140000Y-105350000D02*
X98140000Y-106000000D01*
X101260000Y-105350000D02*
X101260000Y-103675000D01*
X101260000Y-105350000D02*
X101260000Y-106000000D01*
X98140000Y-105350000D02*
X98140000Y-104700000D01*
%TO.C,C3*%
X164838748Y-92683000D02*
X165361252Y-92683000D01*
X164838748Y-91213000D02*
X165361252Y-91213000D01*
%TO.C,R3*%
X153188936Y-91647000D02*
X153643064Y-91647000D01*
X153188936Y-90177000D02*
X153643064Y-90177000D01*
%TO.C,C6*%
X153154748Y-87603000D02*
X153677252Y-87603000D01*
X153154748Y-86133000D02*
X153677252Y-86133000D01*
%TO.C,J11*%
X96510000Y-68440000D02*
X90540000Y-68440000D01*
X91300000Y-71750000D02*
X90550000Y-71750000D01*
X90550000Y-68450000D02*
X90550000Y-70250000D01*
X91300000Y-70250000D02*
X91300000Y-68450000D01*
X91300000Y-68450000D02*
X90550000Y-68450000D01*
X91300000Y-82750000D02*
X91300000Y-71750000D01*
X90550000Y-70250000D02*
X91300000Y-70250000D01*
X90550000Y-82750000D02*
X91300000Y-82750000D01*
X90540000Y-68440000D02*
X90540000Y-86060000D01*
X92800000Y-68450000D02*
X92800000Y-69200000D01*
X91300000Y-86050000D02*
X91300000Y-84250000D01*
X92800000Y-86050000D02*
X92800000Y-85300000D01*
X92800000Y-85300000D02*
X95750000Y-85300000D01*
X96510000Y-86060000D02*
X96510000Y-68440000D01*
X90250000Y-85100000D02*
X90250000Y-86350000D01*
X90550000Y-84250000D02*
X90550000Y-86050000D01*
X92800000Y-69200000D02*
X95750000Y-69200000D01*
X95750000Y-85300000D02*
X95750000Y-77250000D01*
X91300000Y-84250000D02*
X90550000Y-84250000D01*
X90550000Y-86050000D02*
X91300000Y-86050000D01*
X95750000Y-69200000D02*
X95750000Y-77250000D01*
X90250000Y-86350000D02*
X91500000Y-86350000D01*
X90540000Y-86060000D02*
X96510000Y-86060000D01*
X90550000Y-71750000D02*
X90550000Y-82750000D01*
%TO.C,L1*%
X163166000Y-88536000D02*
X161666000Y-88536000D01*
X156366000Y-81136000D02*
X156366000Y-88536000D01*
X156366000Y-88536000D02*
X157866000Y-88536000D01*
X163166000Y-88536000D02*
X163166000Y-81136000D01*
X163166000Y-81136000D02*
X161666000Y-81136000D01*
X156366000Y-81136000D02*
X157866000Y-81136000D01*
%TO.C,R9*%
X157199064Y-97750142D02*
X156744936Y-97750142D01*
X157199064Y-96280142D02*
X156744936Y-96280142D01*
%TO.C,R14*%
X107923064Y-67435400D02*
X107468936Y-67435400D01*
X107923064Y-65965400D02*
X107468936Y-65965400D01*
%TO.C,D4*%
X110329000Y-108910000D02*
X113014000Y-108910000D01*
X110329000Y-106990000D02*
X110329000Y-108910000D01*
X113014000Y-106990000D02*
X110329000Y-106990000D01*
%TO.C,J1*%
X162855000Y-111941000D02*
X162726000Y-112069000D01*
X165275000Y-109931000D02*
X165146000Y-110059000D01*
X158450000Y-115160000D02*
X158450000Y-115800000D01*
X158690000Y-107840000D02*
X158690000Y-115560000D01*
X158690000Y-114000000D02*
X165810000Y-114000000D01*
X158690000Y-107840000D02*
X165810000Y-107840000D01*
X158690000Y-115100000D02*
X165810000Y-115100000D01*
X165810000Y-107840000D02*
X165810000Y-115560000D01*
X163025000Y-112181000D02*
X162931000Y-112274000D01*
X158450000Y-115800000D02*
X158850000Y-115800000D01*
X165070000Y-109725000D02*
X164976000Y-109819000D01*
X158690000Y-115560000D02*
X165810000Y-115560000D01*
X161925000Y-111891000D02*
G75*
G03*
X161925504Y-110109807I-1425003J891000D01*
G01*
X159634000Y-112440000D02*
G75*
G03*
X160528674Y-112680099I866003J1440014D01*
G01*
X159059999Y-110134000D02*
G75*
G03*
X159074642Y-111889894I1439999J-866000D01*
G01*
X160500000Y-112680000D02*
G75*
G03*
X161390264Y-112424721I3J1679990D01*
G01*
X161366000Y-109559999D02*
G75*
G03*
X159610106Y-109574642I-866000J-1439999D01*
G01*
X165680000Y-111000000D02*
G75*
G03*
X165680000Y-111000000I-1680000J0D01*
G01*
%TO.C,R10*%
X133030436Y-108685000D02*
X133484564Y-108685000D01*
X133030436Y-107215000D02*
X133484564Y-107215000D01*
%TO.C,R19*%
X167015000Y-107445436D02*
X167015000Y-107899564D01*
X168485000Y-107445436D02*
X168485000Y-107899564D01*
%TO.C,J12*%
X148925000Y-82395000D02*
X150255000Y-82395000D01*
X150255000Y-82395000D02*
X150255000Y-83725000D01*
X150255000Y-84995000D02*
X150255000Y-102835000D01*
X147595000Y-84995000D02*
X147595000Y-102835000D01*
X147595000Y-102835000D02*
X150255000Y-102835000D01*
X147595000Y-84995000D02*
X150255000Y-84995000D01*
%TO.C,J7*%
X90540000Y-107060000D02*
X96510000Y-107060000D01*
X91300000Y-99450000D02*
X90550000Y-99450000D01*
X90550000Y-102750000D02*
X90550000Y-103750000D01*
X90550000Y-101250000D02*
X91300000Y-101250000D01*
X95750000Y-106300000D02*
X95750000Y-103250000D01*
X95750000Y-100200000D02*
X95750000Y-103250000D01*
X92800000Y-106300000D02*
X95750000Y-106300000D01*
X91300000Y-102750000D02*
X90550000Y-102750000D01*
X90250000Y-106100000D02*
X90250000Y-107350000D01*
X90550000Y-105250000D02*
X90550000Y-107050000D01*
X92800000Y-100200000D02*
X95750000Y-100200000D01*
X90250000Y-107350000D02*
X91500000Y-107350000D01*
X92800000Y-107050000D02*
X92800000Y-106300000D01*
X96510000Y-107060000D02*
X96510000Y-99440000D01*
X90550000Y-107050000D02*
X91300000Y-107050000D01*
X90550000Y-103750000D02*
X91300000Y-103750000D01*
X96510000Y-99440000D02*
X90540000Y-99440000D01*
X92800000Y-99450000D02*
X92800000Y-100200000D01*
X91300000Y-101250000D02*
X91300000Y-99450000D01*
X91300000Y-105250000D02*
X90550000Y-105250000D01*
X91300000Y-107050000D02*
X91300000Y-105250000D01*
X90540000Y-99440000D02*
X90540000Y-107060000D01*
X90550000Y-99450000D02*
X90550000Y-101250000D01*
X91300000Y-103750000D02*
X91300000Y-102750000D01*
%TO.C,R4*%
X153643064Y-88170000D02*
X153188936Y-88170000D01*
X153643064Y-89640000D02*
X153188936Y-89640000D01*
%TO.C,C1*%
X153661252Y-95691000D02*
X153138748Y-95691000D01*
X153661252Y-94221000D02*
X153138748Y-94221000D01*
%TO.C,C9*%
X156311252Y-73165000D02*
X155788748Y-73165000D01*
X156311252Y-74635000D02*
X155788748Y-74635000D01*
%TO.C,USB1*%
X176064000Y-64175000D02*
X176064000Y-63175000D01*
X176684000Y-77795000D02*
X176064000Y-77795000D01*
X176684000Y-63175000D02*
X176684000Y-77795000D01*
X176064000Y-63175000D02*
X176684000Y-63175000D01*
X164594000Y-76795000D02*
X162414000Y-76795000D01*
X159564000Y-75675000D02*
X159564000Y-65295000D01*
X176064000Y-76795000D02*
X168094000Y-76795000D01*
X164594000Y-64175000D02*
X162414000Y-64175000D01*
X176064000Y-77795000D02*
X176064000Y-76795000D01*
X168094000Y-64175000D02*
X176064000Y-64175000D01*
X159414000Y-73585000D02*
X159414000Y-74385000D01*
%TO.C,C2*%
X164896748Y-93324000D02*
X166319252Y-93324000D01*
X164896748Y-95144000D02*
X166319252Y-95144000D01*
%TO.C,D5*%
X168710000Y-112875000D02*
X168710000Y-110190000D01*
X166790000Y-112875000D02*
X168710000Y-112875000D01*
X166790000Y-110190000D02*
X166790000Y-112875000D01*
%TO.C,R11*%
X124486936Y-108685000D02*
X124941064Y-108685000D01*
X124486936Y-107215000D02*
X124941064Y-107215000D01*
%TO.C,R5*%
X153697000Y-102388936D02*
X153697000Y-102843064D01*
X155167000Y-102388936D02*
X155167000Y-102843064D01*
%TO.C,J4*%
X127782000Y-109515000D02*
X127782000Y-115485000D01*
X128542000Y-110275000D02*
X131592000Y-110275000D01*
X127792000Y-113225000D02*
X128542000Y-113225000D01*
X134642000Y-110275000D02*
X131592000Y-110275000D01*
X134642000Y-113225000D02*
X134642000Y-110275000D01*
X135402000Y-109515000D02*
X127782000Y-109515000D01*
X135392000Y-114725000D02*
X133592000Y-114725000D01*
X128542000Y-113225000D02*
X128542000Y-110275000D01*
X127792000Y-114725000D02*
X127792000Y-115475000D01*
X135692000Y-115775000D02*
X135692000Y-114525000D01*
X127782000Y-115485000D02*
X135402000Y-115485000D01*
X129592000Y-115475000D02*
X129592000Y-114725000D01*
X132092000Y-115475000D02*
X132092000Y-114725000D01*
X129592000Y-114725000D02*
X127792000Y-114725000D01*
X135392000Y-115475000D02*
X135392000Y-114725000D01*
X134442000Y-115775000D02*
X135692000Y-115775000D01*
X133592000Y-114725000D02*
X133592000Y-115475000D01*
X131092000Y-115475000D02*
X132092000Y-115475000D01*
X127792000Y-115475000D02*
X129592000Y-115475000D01*
X131092000Y-114725000D02*
X131092000Y-115475000D01*
X135402000Y-115485000D02*
X135402000Y-109515000D01*
X133592000Y-115475000D02*
X135392000Y-115475000D01*
X135392000Y-113225000D02*
X134642000Y-113225000D01*
X132092000Y-114725000D02*
X131092000Y-114725000D01*
%TD*%
M02*
