M48
; DRILL file {KiCad (5.1.12)-1} date 01/05/22 17:05:07
; FORMAT={-:-/ absolute / inch / decimal}
; #@! TF.CreationDate,2022-01-05T17:05:07+08:00
; #@! TF.GenerationSoftware,Kicad,Pcbnew,(5.1.12)-1
; #@! TF.FileFunction,Plated,1,4,PTH
FMAT,2
INCH
T1C0.0118
T2C0.0157
T3C0.0197
T4C0.0362
T5C0.0374
T6C0.0394
T7C0.0472
T8C0.0906
T9C0.1260
%
G90
G05
T1
X6.8189Y-4.1811
X6.8189Y-4.2283
X6.8661Y-4.1811
X6.8661Y-4.2283
X6.9173Y-4.1811
X6.9173Y-4.2283
X6.9606Y-4.1811
X6.9606Y-4.2283
T2
X4.3209Y-3.1102
X4.4949Y-4.2913
X4.5084Y-3.2288
X4.5276Y-4.2571
X4.7146Y-4.2913
X4.7815Y-4.2913
X4.8435Y-4.188
X4.8622Y-3.0453
X4.8642Y-2.7933
X4.8642Y-3.2894
X4.8927Y-3.5827
X4.8986Y-4.3711
X4.9498Y-3.5236
X5.2421Y-4.5118
X5.6496Y-4.4705
X6.3189Y-3.1693
X6.3386Y-3.0967
X6.3583Y-4.3248
X6.4213Y-4.3484
X6.4252Y-2.8701
X6.4252Y-2.9016
X6.437Y-3.3327
X6.437Y-3.3642
X6.4567Y-2.8701
X6.4567Y-2.9016
X6.4567Y-4.3819
X6.4685Y-3.3327
X6.4685Y-3.3642
X6.5669Y-4.0118
X6.5669Y-4.0453
X6.6004Y-4.0118
X6.6004Y-4.0453
X6.9173Y-3.8327
X6.9173Y-3.8642
X6.9488Y-3.8327
X6.9488Y-3.8642
X7.0276Y-3.8543
X7.0276Y-4.2913
X7.061Y-4.3681
X7.0748Y-3.9764
X7.1083Y-4.0118
X7.1417Y-3.9764
X7.1516Y-4.3681
X7.1654Y-4.5866
X7.1791Y-3.8799
X7.1791Y-3.9134
X7.2126Y-3.8799
X7.2126Y-3.9134
T3
X4.1772Y-2.7165
X4.1772Y-4.6457
X4.2048Y-2.6497
X4.2048Y-2.7833
X4.2048Y-4.5789
X4.2048Y-4.7125
X4.2717Y-2.622
X4.2717Y-2.811
X4.2717Y-4.5512
X4.2717Y-4.7402
X4.3385Y-2.6497
X4.3385Y-2.7833
X4.3385Y-4.5789
X4.3385Y-4.7125
X4.3661Y-2.7165
X4.3661Y-4.6457
X6.4606Y-2.7165
X6.4606Y-4.6457
X6.4883Y-2.6497
X6.4883Y-2.7833
X6.4883Y-4.5789
X6.4883Y-4.7125
X6.5551Y-2.622
X6.5551Y-2.811
X6.5551Y-4.5512
X6.5551Y-4.7402
X6.6219Y-2.6497
X6.6219Y-2.7833
X6.6219Y-4.5789
X6.6219Y-4.7125
X6.6496Y-2.7165
X6.6496Y-4.6457
T4
X6.9291Y-2.8543
X6.9291Y-2.9528
X6.9291Y-3.0315
X6.9291Y-3.1299
X7.0323Y-2.8543
X7.0323Y-2.9528
X7.0323Y-3.0315
X7.0323Y-3.1299
T5
X4.252Y-3.0118
X4.252Y-3.1102
X4.252Y-3.2087
X4.252Y-3.3071
X4.252Y-3.4055
X4.252Y-3.5039
T6
X4.252Y-3.7598
X4.252Y-3.8583
X4.252Y-4.2323
X4.252Y-4.3307
X4.5654Y-2.9252
X4.5654Y-3.0252
X4.5654Y-3.1252
X4.5654Y-3.2252
X4.5654Y-3.3252
X4.5654Y-3.4252
X4.5654Y-3.5252
X4.5654Y-3.6252
X4.5654Y-3.7252
X4.5654Y-3.8252
X4.5654Y-3.9252
X4.5654Y-4.0252
X4.5654Y-4.1252
X4.5669Y-4.6654
X4.6654Y-2.9252
X4.6654Y-3.0252
X4.6654Y-3.1252
X4.6654Y-3.2252
X4.6654Y-3.3252
X4.6654Y-3.4252
X4.6654Y-3.5252
X4.6654Y-3.6252
X4.6654Y-3.7252
X4.6654Y-3.8252
X4.6654Y-3.9252
X4.6654Y-4.0252
X4.6654Y-4.1252
X4.6654Y-4.6654
X4.9213Y-4.6654
X5.0197Y-4.6654
X5.374Y-4.6654
X5.4724Y-4.6654
X5.8268Y-4.6654
X5.9252Y-4.6654
X6.1614Y-4.6654
X6.2598Y-2.9252
X6.2598Y-3.0252
X6.2598Y-3.1252
X6.2598Y-3.2252
X6.2598Y-3.3252
X6.2598Y-3.4252
X6.2598Y-3.5252
X6.2598Y-3.6252
X6.2598Y-3.7252
X6.2598Y-3.8252
X6.2598Y-3.9252
X6.2598Y-4.0252
X6.2598Y-4.1252
X6.2598Y-4.6654
X6.4531Y-3.6122
X6.4531Y-3.7122
X6.4531Y-3.8122
X6.4531Y-3.9122
X6.4531Y-4.0122
X6.4531Y-4.1122
T7
X6.9094Y-4.5866
X7.0472Y-4.5866
T8
X6.9154Y-2.7335
X6.9154Y-3.2508
X7.139Y-2.7335
X7.139Y-3.2508
T9
X4.2717Y-2.7165
X4.2717Y-4.6457
X6.5551Y-2.7165
X6.5551Y-4.6457
T0
M30
