M48
; DRILL file {KiCad (6.0.0)} date Fri Feb  4 17:29:17 2022
; FORMAT={-:-/ absolute / inch / decimal}
; #@! TF.CreationDate,2022-02-04T17:29:17+08:00
; #@! TF.GenerationSoftware,Kicad,Pcbnew,(6.0.0)
; #@! TF.FileFunction,Plated,1,2,PTH
FMAT,2
INCH
; #@! TA.AperFunction,Plated,PTH,ViaDrill
T1C0.0157
; #@! TA.AperFunction,Plated,PTH,ComponentDrill
T2C0.0362
; #@! TA.AperFunction,Plated,PTH,ComponentDrill
T3C0.0374
; #@! TA.AperFunction,Plated,PTH,ComponentDrill
T4C0.0394
; #@! TA.AperFunction,Plated,PTH,ComponentDrill
T5C0.0472
; #@! TA.AperFunction,Plated,PTH,ComponentDrill
T6C0.0906
%
G90
G05
T1
X3.7343Y-2.8937
X3.8937Y-3.8189
X4.1476Y-3.4547
X4.155Y-4.085
X4.155Y-4.115
X4.21Y-4.085
X4.21Y-4.115
X5.4833Y-3.2231
X5.5118Y-3.252
X5.5413Y-3.2224
X5.5627Y-2.7901
X5.5728Y-3.2539
X5.9673Y-3.5858
X6.1102Y-3.0453
X6.1102Y-3.0768
X6.1417Y-3.0453
X6.1417Y-3.0768
X6.1732Y-3.0453
X6.1732Y-3.0768
X6.2047Y-3.0453
X6.2047Y-3.0768
X6.2343Y-3.8618
X6.255Y-2.66
X6.255Y-2.755
X6.2654Y-3.8622
X6.5079Y-3.7402
X6.5079Y-3.7717
X6.5079Y-3.8031
X6.5079Y-3.8346
X6.5079Y-3.8661
X6.5079Y-3.8976
X6.5079Y-3.9291
X6.5079Y-3.9606
X6.6043Y-4.1669
T2
X6.3391Y-2.6372
X6.3391Y-2.7356
X6.3391Y-2.8144
X6.3391Y-2.9128
X6.4423Y-2.6372
X6.4423Y-2.7356
X6.4423Y-2.8144
X6.4423Y-2.9128
T3
X3.6614Y-2.7953
X3.6614Y-2.8937
X3.6614Y-2.9921
X3.6614Y-3.0906
X3.6614Y-3.189
X3.6614Y-3.2874
T4
X3.6604Y-3.5295
X3.6604Y-3.628
X3.6614Y-4.0157
X3.6614Y-4.1142
X3.9756Y-2.7075
X3.9756Y-2.8075
X3.9756Y-2.9075
X3.9756Y-3.0075
X3.9756Y-3.1075
X3.9756Y-3.2075
X3.9756Y-3.3075
X3.9756Y-3.4075
X3.9756Y-3.5075
X3.9756Y-3.6075
X3.9756Y-3.7075
X3.9756Y-3.8075
X3.9756Y-3.9075
X3.9862Y-4.4498
X4.0756Y-2.7075
X4.0756Y-2.8075
X4.0756Y-2.9075
X4.0756Y-3.0075
X4.0756Y-3.1075
X4.0756Y-3.2075
X4.0756Y-3.3075
X4.0756Y-3.4075
X4.0756Y-3.5075
X4.0756Y-3.6075
X4.0756Y-3.7075
X4.0756Y-3.8075
X4.0756Y-3.9075
X4.0846Y-4.4498
X4.4316Y-4.45
X4.53Y-4.45
X4.7816Y-4.4498
X4.88Y-4.4498
X5.1316Y-4.4498
X5.23Y-4.4498
X5.5709Y-4.4488
X5.6693Y-4.4488
X5.6726Y-2.7073
X5.6726Y-2.8073
X5.6726Y-2.9073
X5.6726Y-2.9073
X5.6726Y-3.0073
X5.6726Y-3.1073
X5.6726Y-3.1073
X5.6726Y-3.2073
X5.6726Y-3.3073
X5.6726Y-3.4073
X5.6726Y-3.5073
X5.6726Y-3.6073
X5.6726Y-3.7073
X5.6726Y-3.8073
X5.6726Y-3.9073
X5.8632Y-3.2963
X5.8632Y-3.3963
X5.8632Y-3.4963
X5.8632Y-3.5963
X5.8632Y-3.6963
X5.8632Y-3.7963
X5.8632Y-3.8963
X5.8632Y-3.9963
T5
X6.3189Y-4.3701
X6.4567Y-4.3701
T6
X6.3254Y-2.5163
X6.3254Y-3.0337
X6.549Y-2.5163
X6.549Y-3.0337
T0
M30
