%TF.GenerationSoftware,KiCad,Pcbnew,(6.0.0)*%
%TF.CreationDate,2022-01-20T10:39:02+08:00*%
%TF.ProjectId,orange_juice_board,6f72616e-6765-45f6-9a75-6963655f626f,rev?*%
%TF.SameCoordinates,Original*%
%TF.FileFunction,Paste,Top*%
%TF.FilePolarity,Positive*%
%FSLAX46Y46*%
G04 Gerber Fmt 4.6, Leading zero omitted, Abs format (unit mm)*
G04 Created by KiCad (PCBNEW (6.0.0)) date 2022-01-20 10:39:02*
%MOMM*%
%LPD*%
G01*
G04 APERTURE LIST*
G04 Aperture macros list*
%AMRoundRect*
0 Rectangle with rounded corners*
0 $1 Rounding radius*
0 $2 $3 $4 $5 $6 $7 $8 $9 X,Y pos of 4 corners*
0 Add a 4 corners polygon primitive as box body*
4,1,4,$2,$3,$4,$5,$6,$7,$8,$9,$2,$3,0*
0 Add four circle primitives for the rounded corners*
1,1,$1+$1,$2,$3*
1,1,$1+$1,$4,$5*
1,1,$1+$1,$6,$7*
1,1,$1+$1,$8,$9*
0 Add four rect primitives between the rounded corners*
20,1,$1+$1,$2,$3,$4,$5,0*
20,1,$1+$1,$4,$5,$6,$7,0*
20,1,$1+$1,$6,$7,$8,$9,0*
20,1,$1+$1,$8,$9,$2,$3,0*%
G04 Aperture macros list end*
%ADD10RoundRect,0.150000X-0.150000X0.587500X-0.150000X-0.587500X0.150000X-0.587500X0.150000X0.587500X0*%
%ADD11RoundRect,0.250000X0.262500X0.450000X-0.262500X0.450000X-0.262500X-0.450000X0.262500X-0.450000X0*%
%ADD12RoundRect,0.042000X-0.258000X0.943000X-0.258000X-0.943000X0.258000X-0.943000X0.258000X0.943000X0*%
%ADD13RoundRect,0.250000X-0.262500X-0.450000X0.262500X-0.450000X0.262500X0.450000X-0.262500X0.450000X0*%
%ADD14RoundRect,0.250000X-0.250000X-0.475000X0.250000X-0.475000X0.250000X0.475000X-0.250000X0.475000X0*%
%ADD15RoundRect,0.250000X0.250000X0.475000X-0.250000X0.475000X-0.250000X-0.475000X0.250000X-0.475000X0*%
%ADD16RoundRect,0.125000X0.537500X0.125000X-0.537500X0.125000X-0.537500X-0.125000X0.537500X-0.125000X0*%
%ADD17RoundRect,0.243750X-0.243750X-0.456250X0.243750X-0.456250X0.243750X0.456250X-0.243750X0.456250X0*%
%ADD18R,1.200000X0.900000*%
%ADD19RoundRect,0.235000X1.465000X-0.940000X1.465000X0.940000X-1.465000X0.940000X-1.465000X-0.940000X0*%
%ADD20RoundRect,0.250000X-0.450000X0.262500X-0.450000X-0.262500X0.450000X-0.262500X0.450000X0.262500X0*%
%ADD21RoundRect,0.250000X-0.325000X-0.650000X0.325000X-0.650000X0.325000X0.650000X-0.325000X0.650000X0*%
%ADD22RoundRect,0.243750X0.456250X-0.243750X0.456250X0.243750X-0.456250X0.243750X-0.456250X-0.243750X0*%
G04 APERTURE END LIST*
D10*
%TO.C,Q3*%
X104400000Y-104412500D03*
X102500000Y-104412500D03*
X103450000Y-106287500D03*
%TD*%
D11*
%TO.C,R7*%
X157884500Y-94996000D03*
X156059500Y-94996000D03*
%TD*%
%TO.C,R6*%
X154328500Y-92919000D03*
X152503500Y-92919000D03*
%TD*%
%TO.C,R8*%
X154328500Y-99060000D03*
X152503500Y-99060000D03*
%TD*%
D10*
%TO.C,Q2*%
X108138000Y-104345500D03*
X106238000Y-104345500D03*
X107188000Y-106220500D03*
%TD*%
D12*
%TO.C,Q1*%
X162941000Y-100395000D03*
X161671000Y-100395000D03*
X160401000Y-100395000D03*
X159131000Y-100395000D03*
X159131000Y-105345000D03*
X162941000Y-105345000D03*
X160401000Y-105345000D03*
X161671000Y-105345000D03*
%TD*%
D13*
%TO.C,R12*%
X114625000Y-107950000D03*
X116450000Y-107950000D03*
%TD*%
D11*
%TO.C,R17*%
X108608500Y-68681600D03*
X106783500Y-68681600D03*
%TD*%
D13*
%TO.C,R2*%
X159615500Y-97028000D03*
X161440500Y-97028000D03*
%TD*%
D14*
%TO.C,C4*%
X164658000Y-84328000D03*
X166558000Y-84328000D03*
%TD*%
D11*
%TO.C,R13*%
X108608500Y-62738000D03*
X106783500Y-62738000D03*
%TD*%
D15*
%TO.C,C8*%
X157000000Y-71614000D03*
X155100000Y-71614000D03*
%TD*%
D16*
%TO.C,U1*%
X159887500Y-92415000D03*
X159887500Y-91765000D03*
X159887500Y-91115000D03*
X159887500Y-90465000D03*
X157612500Y-90465000D03*
X157612500Y-91115000D03*
X157612500Y-91765000D03*
X157612500Y-92415000D03*
%TD*%
D17*
%TO.C,D3*%
X120220500Y-107950000D03*
X122095500Y-107950000D03*
%TD*%
D11*
%TO.C,R18*%
X108608500Y-72644000D03*
X106783500Y-72644000D03*
%TD*%
D14*
%TO.C,C5*%
X164658000Y-82042000D03*
X166558000Y-82042000D03*
%TD*%
D11*
%TO.C,R15*%
X108600000Y-70662800D03*
X106775000Y-70662800D03*
%TD*%
D15*
%TO.C,C7*%
X154366000Y-97023000D03*
X152466000Y-97023000D03*
%TD*%
D11*
%TO.C,R16*%
X108608500Y-64719200D03*
X106783500Y-64719200D03*
%TD*%
D17*
%TO.C,D2*%
X128836000Y-107950000D03*
X130711000Y-107950000D03*
%TD*%
D18*
%TO.C,D1*%
X156718000Y-104266000D03*
X156718000Y-100966000D03*
%TD*%
D11*
%TO.C,R1*%
X161440500Y-94996000D03*
X159615500Y-94996000D03*
%TD*%
D10*
%TO.C,Q4*%
X100650000Y-104412500D03*
X98750000Y-104412500D03*
X99700000Y-106287500D03*
%TD*%
D14*
%TO.C,C3*%
X164150000Y-91948000D03*
X166050000Y-91948000D03*
%TD*%
D13*
%TO.C,R3*%
X152503500Y-90912000D03*
X154328500Y-90912000D03*
%TD*%
D14*
%TO.C,C6*%
X152466000Y-86868000D03*
X154366000Y-86868000D03*
%TD*%
D19*
%TO.C,L1*%
X159766000Y-87861000D03*
X159766000Y-81811000D03*
%TD*%
D11*
%TO.C,R9*%
X157884500Y-97015142D03*
X156059500Y-97015142D03*
%TD*%
%TO.C,R14*%
X108608500Y-66700400D03*
X106783500Y-66700400D03*
%TD*%
D17*
%TO.C,D4*%
X111076500Y-107950000D03*
X112951500Y-107950000D03*
%TD*%
D13*
%TO.C,R10*%
X132345000Y-107950000D03*
X134170000Y-107950000D03*
%TD*%
D20*
%TO.C,R19*%
X167750000Y-106760000D03*
X167750000Y-108585000D03*
%TD*%
D11*
%TO.C,R4*%
X154328500Y-88905000D03*
X152503500Y-88905000D03*
%TD*%
D15*
%TO.C,C1*%
X154350000Y-94956000D03*
X152450000Y-94956000D03*
%TD*%
%TO.C,C9*%
X157000000Y-73900000D03*
X155100000Y-73900000D03*
%TD*%
D21*
%TO.C,C2*%
X164133000Y-94234000D03*
X167083000Y-94234000D03*
%TD*%
D22*
%TO.C,D5*%
X167750000Y-112127500D03*
X167750000Y-110252500D03*
%TD*%
D13*
%TO.C,R11*%
X123801500Y-107950000D03*
X125626500Y-107950000D03*
%TD*%
D20*
%TO.C,R5*%
X154432000Y-101703500D03*
X154432000Y-103528500D03*
%TD*%
M02*
