%TF.GenerationSoftware,KiCad,Pcbnew,(5.1.12)-1*%
%TF.CreationDate,2021-12-26T21:26:00+08:00*%
%TF.ProjectId,OrangePiZeroExtentionBoard,4f72616e-6765-4506-995a-65726f457874,rev?*%
%TF.SameCoordinates,Original*%
%TF.FileFunction,Soldermask,Top*%
%TF.FilePolarity,Negative*%
%FSLAX46Y46*%
G04 Gerber Fmt 4.6, Leading zero omitted, Abs format (unit mm)*
G04 Created by KiCad (PCBNEW (5.1.12)-1) date 2021-12-26 21:26:00*
%MOMM*%
%LPD*%
G01*
G04 APERTURE LIST*
%ADD10R,0.600000X1.550000*%
%ADD11R,3.100000X2.600000*%
%ADD12C,1.500000*%
%ADD13C,3.000000*%
%ADD14R,1.500000X1.500000*%
%ADD15R,1.800000X2.500000*%
%ADD16C,0.800000*%
%ADD17C,6.400000*%
%ADD18R,2.400000X2.400000*%
%ADD19C,2.400000*%
%ADD20O,1.950000X1.700000*%
%ADD21R,1.700000X1.700000*%
%ADD22O,1.700000X1.700000*%
%ADD23O,2.000000X1.700000*%
%ADD24O,1.700000X2.000000*%
%ADD25R,3.400000X2.000000*%
%ADD26R,0.800000X0.900000*%
%ADD27R,0.900000X0.800000*%
%ADD28C,3.200000*%
G04 APERTURE END LIST*
%TO.C,C5*%
G36*
G01*
X166050000Y-76950000D02*
X164950000Y-76950000D01*
G75*
G02*
X164700000Y-76700000I0J250000D01*
G01*
X164700000Y-73700000D01*
G75*
G02*
X164950000Y-73450000I250000J0D01*
G01*
X166050000Y-73450000D01*
G75*
G02*
X166300000Y-73700000I0J-250000D01*
G01*
X166300000Y-76700000D01*
G75*
G02*
X166050000Y-76950000I-250000J0D01*
G01*
G37*
G36*
G01*
X166050000Y-82550000D02*
X164950000Y-82550000D01*
G75*
G02*
X164700000Y-82300000I0J250000D01*
G01*
X164700000Y-79300000D01*
G75*
G02*
X164950000Y-79050000I250000J0D01*
G01*
X166050000Y-79050000D01*
G75*
G02*
X166300000Y-79300000I0J-250000D01*
G01*
X166300000Y-82300000D01*
G75*
G02*
X166050000Y-82550000I-250000J0D01*
G01*
G37*
%TD*%
D10*
%TO.C,U1*%
X173095000Y-104100000D03*
X174365000Y-104100000D03*
X175635000Y-104100000D03*
X176905000Y-104100000D03*
X176905000Y-109500000D03*
X175635000Y-109500000D03*
X174365000Y-109500000D03*
X173095000Y-109500000D03*
D11*
X175000000Y-106800000D03*
%TD*%
D12*
%TO.C,USB1*%
X178620000Y-72500000D03*
X178620000Y-75000000D03*
X178620000Y-77000000D03*
X178620000Y-79500000D03*
D13*
X181330000Y-69430000D03*
X181330000Y-82570000D03*
D12*
X176000000Y-72500000D03*
X176000000Y-75000000D03*
X176000000Y-77000000D03*
D14*
X176000000Y-79500000D03*
D13*
X175650000Y-82570000D03*
X175650000Y-69430000D03*
%TD*%
%TO.C,C1*%
G36*
G01*
X172475000Y-71500000D02*
X171525000Y-71500000D01*
G75*
G02*
X171275000Y-71250000I0J250000D01*
G01*
X171275000Y-70750000D01*
G75*
G02*
X171525000Y-70500000I250000J0D01*
G01*
X172475000Y-70500000D01*
G75*
G02*
X172725000Y-70750000I0J-250000D01*
G01*
X172725000Y-71250000D01*
G75*
G02*
X172475000Y-71500000I-250000J0D01*
G01*
G37*
G36*
G01*
X172475000Y-73400000D02*
X171525000Y-73400000D01*
G75*
G02*
X171275000Y-73150000I0J250000D01*
G01*
X171275000Y-72650000D01*
G75*
G02*
X171525000Y-72400000I250000J0D01*
G01*
X172475000Y-72400000D01*
G75*
G02*
X172725000Y-72650000I0J-250000D01*
G01*
X172725000Y-73150000D01*
G75*
G02*
X172475000Y-73400000I-250000J0D01*
G01*
G37*
%TD*%
%TO.C,C2*%
G36*
G01*
X172475000Y-100150001D02*
X172475000Y-98849999D01*
G75*
G02*
X172724999Y-98600000I249999J0D01*
G01*
X173375001Y-98600000D01*
G75*
G02*
X173625000Y-98849999I0J-249999D01*
G01*
X173625000Y-100150001D01*
G75*
G02*
X173375001Y-100400000I-249999J0D01*
G01*
X172724999Y-100400000D01*
G75*
G02*
X172475000Y-100150001I0J249999D01*
G01*
G37*
G36*
G01*
X175425000Y-100150001D02*
X175425000Y-98849999D01*
G75*
G02*
X175674999Y-98600000I249999J0D01*
G01*
X176325001Y-98600000D01*
G75*
G02*
X176575000Y-98849999I0J-249999D01*
G01*
X176575000Y-100150001D01*
G75*
G02*
X176325001Y-100400000I-249999J0D01*
G01*
X175674999Y-100400000D01*
G75*
G02*
X175425000Y-100150001I0J249999D01*
G01*
G37*
%TD*%
%TO.C,C3*%
G36*
G01*
X172475000Y-77900000D02*
X171525000Y-77900000D01*
G75*
G02*
X171275000Y-77650000I0J250000D01*
G01*
X171275000Y-77150000D01*
G75*
G02*
X171525000Y-76900000I250000J0D01*
G01*
X172475000Y-76900000D01*
G75*
G02*
X172725000Y-77150000I0J-250000D01*
G01*
X172725000Y-77650000D01*
G75*
G02*
X172475000Y-77900000I-250000J0D01*
G01*
G37*
G36*
G01*
X172475000Y-76000000D02*
X171525000Y-76000000D01*
G75*
G02*
X171275000Y-75750000I0J250000D01*
G01*
X171275000Y-75250000D01*
G75*
G02*
X171525000Y-75000000I250000J0D01*
G01*
X172475000Y-75000000D01*
G75*
G02*
X172725000Y-75250000I0J-250000D01*
G01*
X172725000Y-75750000D01*
G75*
G02*
X172475000Y-76000000I-250000J0D01*
G01*
G37*
%TD*%
%TO.C,C4*%
G36*
G01*
X169475000Y-107950000D02*
X168525000Y-107950000D01*
G75*
G02*
X168275000Y-107700000I0J250000D01*
G01*
X168275000Y-107200000D01*
G75*
G02*
X168525000Y-106950000I250000J0D01*
G01*
X169475000Y-106950000D01*
G75*
G02*
X169725000Y-107200000I0J-250000D01*
G01*
X169725000Y-107700000D01*
G75*
G02*
X169475000Y-107950000I-250000J0D01*
G01*
G37*
G36*
G01*
X169475000Y-106050000D02*
X168525000Y-106050000D01*
G75*
G02*
X168275000Y-105800000I0J250000D01*
G01*
X168275000Y-105300000D01*
G75*
G02*
X168525000Y-105050000I250000J0D01*
G01*
X169475000Y-105050000D01*
G75*
G02*
X169725000Y-105300000I0J-250000D01*
G01*
X169725000Y-105800000D01*
G75*
G02*
X169475000Y-106050000I-250000J0D01*
G01*
G37*
%TD*%
%TO.C,D1*%
G36*
G01*
X184350000Y-116956250D02*
X184350000Y-116043750D01*
G75*
G02*
X184593750Y-115800000I243750J0D01*
G01*
X185081250Y-115800000D01*
G75*
G02*
X185325000Y-116043750I0J-243750D01*
G01*
X185325000Y-116956250D01*
G75*
G02*
X185081250Y-117200000I-243750J0D01*
G01*
X184593750Y-117200000D01*
G75*
G02*
X184350000Y-116956250I0J243750D01*
G01*
G37*
G36*
G01*
X182475000Y-116956250D02*
X182475000Y-116043750D01*
G75*
G02*
X182718750Y-115800000I243750J0D01*
G01*
X183206250Y-115800000D01*
G75*
G02*
X183450000Y-116043750I0J-243750D01*
G01*
X183450000Y-116956250D01*
G75*
G02*
X183206250Y-117200000I-243750J0D01*
G01*
X182718750Y-117200000D01*
G75*
G02*
X182475000Y-116956250I0J243750D01*
G01*
G37*
%TD*%
%TO.C,D2*%
G36*
G01*
X132456250Y-120487500D02*
X131543750Y-120487500D01*
G75*
G02*
X131300000Y-120243750I0J243750D01*
G01*
X131300000Y-119756250D01*
G75*
G02*
X131543750Y-119512500I243750J0D01*
G01*
X132456250Y-119512500D01*
G75*
G02*
X132700000Y-119756250I0J-243750D01*
G01*
X132700000Y-120243750D01*
G75*
G02*
X132456250Y-120487500I-243750J0D01*
G01*
G37*
G36*
G01*
X132456250Y-118612500D02*
X131543750Y-118612500D01*
G75*
G02*
X131300000Y-118368750I0J243750D01*
G01*
X131300000Y-117881250D01*
G75*
G02*
X131543750Y-117637500I243750J0D01*
G01*
X132456250Y-117637500D01*
G75*
G02*
X132700000Y-117881250I0J-243750D01*
G01*
X132700000Y-118368750D01*
G75*
G02*
X132456250Y-118612500I-243750J0D01*
G01*
G37*
%TD*%
%TO.C,D3*%
G36*
G01*
X143956250Y-118550000D02*
X143043750Y-118550000D01*
G75*
G02*
X142800000Y-118306250I0J243750D01*
G01*
X142800000Y-117818750D01*
G75*
G02*
X143043750Y-117575000I243750J0D01*
G01*
X143956250Y-117575000D01*
G75*
G02*
X144200000Y-117818750I0J-243750D01*
G01*
X144200000Y-118306250D01*
G75*
G02*
X143956250Y-118550000I-243750J0D01*
G01*
G37*
G36*
G01*
X143956250Y-120425000D02*
X143043750Y-120425000D01*
G75*
G02*
X142800000Y-120181250I0J243750D01*
G01*
X142800000Y-119693750D01*
G75*
G02*
X143043750Y-119450000I243750J0D01*
G01*
X143956250Y-119450000D01*
G75*
G02*
X144200000Y-119693750I0J-243750D01*
G01*
X144200000Y-120181250D01*
G75*
G02*
X143956250Y-120425000I-243750J0D01*
G01*
G37*
%TD*%
D15*
%TO.C,D4*%
X169000000Y-97900000D03*
X169000000Y-101900000D03*
%TD*%
%TO.C,D5*%
G36*
G01*
X161925000Y-113043750D02*
X161925000Y-113956250D01*
G75*
G02*
X161681250Y-114200000I-243750J0D01*
G01*
X161193750Y-114200000D01*
G75*
G02*
X160950000Y-113956250I0J243750D01*
G01*
X160950000Y-113043750D01*
G75*
G02*
X161193750Y-112800000I243750J0D01*
G01*
X161681250Y-112800000D01*
G75*
G02*
X161925000Y-113043750I0J-243750D01*
G01*
G37*
G36*
G01*
X160050000Y-113043750D02*
X160050000Y-113956250D01*
G75*
G02*
X159806250Y-114200000I-243750J0D01*
G01*
X159318750Y-114200000D01*
G75*
G02*
X159075000Y-113956250I0J243750D01*
G01*
X159075000Y-113043750D01*
G75*
G02*
X159318750Y-112800000I243750J0D01*
G01*
X159806250Y-112800000D01*
G75*
G02*
X160050000Y-113043750I0J-243750D01*
G01*
G37*
%TD*%
D16*
%TO.C,*%
X110197056Y-116302944D03*
X108500000Y-115600000D03*
X106802944Y-116302944D03*
X106100000Y-118000000D03*
X106802944Y-119697056D03*
X108500000Y-120400000D03*
X110197056Y-119697056D03*
X110900000Y-118000000D03*
D17*
X108500000Y-118000000D03*
%TD*%
%TO.C,*%
X108500000Y-69000000D03*
D16*
X110900000Y-69000000D03*
X110197056Y-70697056D03*
X108500000Y-71400000D03*
X106802944Y-70697056D03*
X106100000Y-69000000D03*
X106802944Y-67302944D03*
X108500000Y-66600000D03*
X110197056Y-67302944D03*
%TD*%
%TO.C,*%
X168197056Y-67302944D03*
X166500000Y-66600000D03*
X164802944Y-67302944D03*
X164100000Y-69000000D03*
X164802944Y-70697056D03*
X166500000Y-71400000D03*
X168197056Y-70697056D03*
X168900000Y-69000000D03*
D17*
X166500000Y-69000000D03*
%TD*%
D16*
%TO.C,*%
X168197056Y-116302944D03*
X166500000Y-115600000D03*
X164802944Y-116302944D03*
X164100000Y-118000000D03*
X164802944Y-119697056D03*
X166500000Y-120400000D03*
X168197056Y-119697056D03*
X168900000Y-118000000D03*
D17*
X166500000Y-118000000D03*
%TD*%
D18*
%TO.C,J2*%
X175500000Y-116500000D03*
D19*
X179000000Y-116500000D03*
%TD*%
%TO.C,J3*%
G36*
G01*
X108725000Y-89850000D02*
X107275000Y-89850000D01*
G75*
G02*
X107025000Y-89600000I0J250000D01*
G01*
X107025000Y-88400000D01*
G75*
G02*
X107275000Y-88150000I250000J0D01*
G01*
X108725000Y-88150000D01*
G75*
G02*
X108975000Y-88400000I0J-250000D01*
G01*
X108975000Y-89600000D01*
G75*
G02*
X108725000Y-89850000I-250000J0D01*
G01*
G37*
D20*
X108000000Y-86500000D03*
X108000000Y-84000000D03*
X108000000Y-81500000D03*
X108000000Y-79000000D03*
X108000000Y-76500000D03*
%TD*%
D21*
%TO.C,J4*%
X115960000Y-104780000D03*
D22*
X118500000Y-104780000D03*
X115960000Y-102240000D03*
X118500000Y-102240000D03*
X115960000Y-99700000D03*
X118500000Y-99700000D03*
X115960000Y-97160000D03*
X118500000Y-97160000D03*
X115960000Y-94620000D03*
X118500000Y-94620000D03*
X115960000Y-92080000D03*
X118500000Y-92080000D03*
X115960000Y-89540000D03*
X118500000Y-89540000D03*
X115960000Y-87000000D03*
X118500000Y-87000000D03*
X115960000Y-84460000D03*
X118500000Y-84460000D03*
X115960000Y-81920000D03*
X118500000Y-81920000D03*
X115960000Y-79380000D03*
X118500000Y-79380000D03*
X115960000Y-76840000D03*
X118500000Y-76840000D03*
X115960000Y-74300000D03*
X118500000Y-74300000D03*
%TD*%
D21*
%TO.C,J7*%
X159000000Y-104780000D03*
D22*
X159000000Y-102240000D03*
X159000000Y-99700000D03*
X159000000Y-97160000D03*
X159000000Y-94620000D03*
X159000000Y-92080000D03*
X159000000Y-89540000D03*
X159000000Y-87000000D03*
X159000000Y-84460000D03*
X159000000Y-81920000D03*
X159000000Y-79380000D03*
X159000000Y-76840000D03*
X159000000Y-74300000D03*
%TD*%
%TO.C,J8*%
G36*
G01*
X108750000Y-110850000D02*
X107250000Y-110850000D01*
G75*
G02*
X107000000Y-110600000I0J250000D01*
G01*
X107000000Y-109400000D01*
G75*
G02*
X107250000Y-109150000I250000J0D01*
G01*
X108750000Y-109150000D01*
G75*
G02*
X109000000Y-109400000I0J-250000D01*
G01*
X109000000Y-110600000D01*
G75*
G02*
X108750000Y-110850000I-250000J0D01*
G01*
G37*
D23*
X108000000Y-107500000D03*
%TD*%
D24*
%TO.C,J9*%
X116000000Y-118500000D03*
G36*
G01*
X119350000Y-117750000D02*
X119350000Y-119250000D01*
G75*
G02*
X119100000Y-119500000I-250000J0D01*
G01*
X117900000Y-119500000D01*
G75*
G02*
X117650000Y-119250000I0J250000D01*
G01*
X117650000Y-117750000D01*
G75*
G02*
X117900000Y-117500000I250000J0D01*
G01*
X119100000Y-117500000D01*
G75*
G02*
X119350000Y-117750000I0J-250000D01*
G01*
G37*
%TD*%
%TO.C,J10*%
X136500000Y-118500000D03*
G36*
G01*
X139850000Y-117750000D02*
X139850000Y-119250000D01*
G75*
G02*
X139600000Y-119500000I-250000J0D01*
G01*
X138400000Y-119500000D01*
G75*
G02*
X138150000Y-119250000I0J250000D01*
G01*
X138150000Y-117750000D01*
G75*
G02*
X138400000Y-117500000I250000J0D01*
G01*
X139600000Y-117500000D01*
G75*
G02*
X139850000Y-117750000I0J-250000D01*
G01*
G37*
%TD*%
%TO.C,J11*%
G36*
G01*
X108750000Y-98850000D02*
X107250000Y-98850000D01*
G75*
G02*
X107000000Y-98600000I0J250000D01*
G01*
X107000000Y-97400000D01*
G75*
G02*
X107250000Y-97150000I250000J0D01*
G01*
X108750000Y-97150000D01*
G75*
G02*
X109000000Y-97400000I0J-250000D01*
G01*
X109000000Y-98600000D01*
G75*
G02*
X108750000Y-98850000I-250000J0D01*
G01*
G37*
D23*
X108000000Y-95500000D03*
%TD*%
%TO.C,J12*%
G36*
G01*
X151350000Y-117750000D02*
X151350000Y-119250000D01*
G75*
G02*
X151100000Y-119500000I-250000J0D01*
G01*
X149900000Y-119500000D01*
G75*
G02*
X149650000Y-119250000I0J250000D01*
G01*
X149650000Y-117750000D01*
G75*
G02*
X149900000Y-117500000I250000J0D01*
G01*
X151100000Y-117500000D01*
G75*
G02*
X151350000Y-117750000I0J-250000D01*
G01*
G37*
D24*
X148000000Y-118500000D03*
%TD*%
%TO.C,J13*%
X125000000Y-118500000D03*
G36*
G01*
X128350000Y-117750000D02*
X128350000Y-119250000D01*
G75*
G02*
X128100000Y-119500000I-250000J0D01*
G01*
X126900000Y-119500000D01*
G75*
G02*
X126650000Y-119250000I0J250000D01*
G01*
X126650000Y-117750000D01*
G75*
G02*
X126900000Y-117500000I250000J0D01*
G01*
X128100000Y-117500000D01*
G75*
G02*
X128350000Y-117750000I0J-250000D01*
G01*
G37*
%TD*%
%TO.C,J15*%
X156500000Y-118500000D03*
G36*
G01*
X159850000Y-117750000D02*
X159850000Y-119250000D01*
G75*
G02*
X159600000Y-119500000I-250000J0D01*
G01*
X158400000Y-119500000D01*
G75*
G02*
X158150000Y-119250000I0J250000D01*
G01*
X158150000Y-117750000D01*
G75*
G02*
X158400000Y-117500000I250000J0D01*
G01*
X159600000Y-117500000D01*
G75*
G02*
X159850000Y-117750000I0J-250000D01*
G01*
G37*
%TD*%
D25*
%TO.C,L1*%
X170000000Y-90700000D03*
X170000000Y-85000000D03*
%TD*%
D26*
%TO.C,Q1*%
X181500000Y-99000000D03*
X179600000Y-99000000D03*
X180550000Y-101000000D03*
%TD*%
%TO.C,Q2*%
X116900000Y-109000000D03*
X115000000Y-109000000D03*
X115950000Y-111000000D03*
%TD*%
%TO.C,Q3*%
X121550000Y-111000000D03*
X120600000Y-109000000D03*
X122500000Y-109000000D03*
%TD*%
D27*
%TO.C,Q4*%
X166000000Y-109500000D03*
X164000000Y-110450000D03*
X164000000Y-108550000D03*
%TD*%
%TO.C,R1*%
G36*
G01*
X182462500Y-114550002D02*
X182462500Y-113649998D01*
G75*
G02*
X182712498Y-113400000I249998J0D01*
G01*
X183237502Y-113400000D01*
G75*
G02*
X183487500Y-113649998I0J-249998D01*
G01*
X183487500Y-114550002D01*
G75*
G02*
X183237502Y-114800000I-249998J0D01*
G01*
X182712498Y-114800000D01*
G75*
G02*
X182462500Y-114550002I0J249998D01*
G01*
G37*
G36*
G01*
X184287500Y-114550002D02*
X184287500Y-113649998D01*
G75*
G02*
X184537498Y-113400000I249998J0D01*
G01*
X185062502Y-113400000D01*
G75*
G02*
X185312500Y-113649998I0J-249998D01*
G01*
X185312500Y-114550002D01*
G75*
G02*
X185062502Y-114800000I-249998J0D01*
G01*
X184537498Y-114800000D01*
G75*
G02*
X184287500Y-114550002I0J249998D01*
G01*
G37*
%TD*%
%TO.C,R2*%
G36*
G01*
X180049998Y-103987500D02*
X180950002Y-103987500D01*
G75*
G02*
X181200000Y-104237498I0J-249998D01*
G01*
X181200000Y-104762502D01*
G75*
G02*
X180950002Y-105012500I-249998J0D01*
G01*
X180049998Y-105012500D01*
G75*
G02*
X179800000Y-104762502I0J249998D01*
G01*
X179800000Y-104237498D01*
G75*
G02*
X180049998Y-103987500I249998J0D01*
G01*
G37*
G36*
G01*
X180049998Y-105812500D02*
X180950002Y-105812500D01*
G75*
G02*
X181200000Y-106062498I0J-249998D01*
G01*
X181200000Y-106587502D01*
G75*
G02*
X180950002Y-106837500I-249998J0D01*
G01*
X180049998Y-106837500D01*
G75*
G02*
X179800000Y-106587502I0J249998D01*
G01*
X179800000Y-106062498D01*
G75*
G02*
X180049998Y-105812500I249998J0D01*
G01*
G37*
%TD*%
%TO.C,R3*%
G36*
G01*
X180049998Y-110387500D02*
X180950002Y-110387500D01*
G75*
G02*
X181200000Y-110637498I0J-249998D01*
G01*
X181200000Y-111162502D01*
G75*
G02*
X180950002Y-111412500I-249998J0D01*
G01*
X180049998Y-111412500D01*
G75*
G02*
X179800000Y-111162502I0J249998D01*
G01*
X179800000Y-110637498D01*
G75*
G02*
X180049998Y-110387500I249998J0D01*
G01*
G37*
G36*
G01*
X180049998Y-108562500D02*
X180950002Y-108562500D01*
G75*
G02*
X181200000Y-108812498I0J-249998D01*
G01*
X181200000Y-109337502D01*
G75*
G02*
X180950002Y-109587500I-249998J0D01*
G01*
X180049998Y-109587500D01*
G75*
G02*
X179800000Y-109337502I0J249998D01*
G01*
X179800000Y-108812498D01*
G75*
G02*
X180049998Y-108562500I249998J0D01*
G01*
G37*
%TD*%
%TO.C,R4*%
G36*
G01*
X132450002Y-115100000D02*
X131549998Y-115100000D01*
G75*
G02*
X131300000Y-114850002I0J249998D01*
G01*
X131300000Y-114324998D01*
G75*
G02*
X131549998Y-114075000I249998J0D01*
G01*
X132450002Y-114075000D01*
G75*
G02*
X132700000Y-114324998I0J-249998D01*
G01*
X132700000Y-114850002D01*
G75*
G02*
X132450002Y-115100000I-249998J0D01*
G01*
G37*
G36*
G01*
X132450002Y-116925000D02*
X131549998Y-116925000D01*
G75*
G02*
X131300000Y-116675002I0J249998D01*
G01*
X131300000Y-116149998D01*
G75*
G02*
X131549998Y-115900000I249998J0D01*
G01*
X132450002Y-115900000D01*
G75*
G02*
X132700000Y-116149998I0J-249998D01*
G01*
X132700000Y-116675002D01*
G75*
G02*
X132450002Y-116925000I-249998J0D01*
G01*
G37*
%TD*%
%TO.C,R5*%
G36*
G01*
X124037500Y-74649998D02*
X124037500Y-75550002D01*
G75*
G02*
X123787502Y-75800000I-249998J0D01*
G01*
X123262498Y-75800000D01*
G75*
G02*
X123012500Y-75550002I0J249998D01*
G01*
X123012500Y-74649998D01*
G75*
G02*
X123262498Y-74400000I249998J0D01*
G01*
X123787502Y-74400000D01*
G75*
G02*
X124037500Y-74649998I0J-249998D01*
G01*
G37*
G36*
G01*
X122212500Y-74649998D02*
X122212500Y-75550002D01*
G75*
G02*
X121962502Y-75800000I-249998J0D01*
G01*
X121437498Y-75800000D01*
G75*
G02*
X121187500Y-75550002I0J249998D01*
G01*
X121187500Y-74649998D01*
G75*
G02*
X121437498Y-74400000I249998J0D01*
G01*
X121962502Y-74400000D01*
G75*
G02*
X122212500Y-74649998I0J-249998D01*
G01*
G37*
%TD*%
%TO.C,R6*%
G36*
G01*
X122212500Y-71649998D02*
X122212500Y-72550002D01*
G75*
G02*
X121962502Y-72800000I-249998J0D01*
G01*
X121437498Y-72800000D01*
G75*
G02*
X121187500Y-72550002I0J249998D01*
G01*
X121187500Y-71649998D01*
G75*
G02*
X121437498Y-71400000I249998J0D01*
G01*
X121962502Y-71400000D01*
G75*
G02*
X122212500Y-71649998I0J-249998D01*
G01*
G37*
G36*
G01*
X124037500Y-71649998D02*
X124037500Y-72550002D01*
G75*
G02*
X123787502Y-72800000I-249998J0D01*
G01*
X123262498Y-72800000D01*
G75*
G02*
X123012500Y-72550002I0J249998D01*
G01*
X123012500Y-71649998D01*
G75*
G02*
X123262498Y-71400000I249998J0D01*
G01*
X123787502Y-71400000D01*
G75*
G02*
X124037500Y-71649998I0J-249998D01*
G01*
G37*
%TD*%
%TO.C,R7*%
G36*
G01*
X143950002Y-116837500D02*
X143049998Y-116837500D01*
G75*
G02*
X142800000Y-116587502I0J249998D01*
G01*
X142800000Y-116062498D01*
G75*
G02*
X143049998Y-115812500I249998J0D01*
G01*
X143950002Y-115812500D01*
G75*
G02*
X144200000Y-116062498I0J-249998D01*
G01*
X144200000Y-116587502D01*
G75*
G02*
X143950002Y-116837500I-249998J0D01*
G01*
G37*
G36*
G01*
X143950002Y-115012500D02*
X143049998Y-115012500D01*
G75*
G02*
X142800000Y-114762502I0J249998D01*
G01*
X142800000Y-114237498D01*
G75*
G02*
X143049998Y-113987500I249998J0D01*
G01*
X143950002Y-113987500D01*
G75*
G02*
X144200000Y-114237498I0J-249998D01*
G01*
X144200000Y-114762502D01*
G75*
G02*
X143950002Y-115012500I-249998J0D01*
G01*
G37*
%TD*%
%TO.C,R8*%
G36*
G01*
X124025000Y-80749998D02*
X124025000Y-81650002D01*
G75*
G02*
X123775002Y-81900000I-249998J0D01*
G01*
X123249998Y-81900000D01*
G75*
G02*
X123000000Y-81650002I0J249998D01*
G01*
X123000000Y-80749998D01*
G75*
G02*
X123249998Y-80500000I249998J0D01*
G01*
X123775002Y-80500000D01*
G75*
G02*
X124025000Y-80749998I0J-249998D01*
G01*
G37*
G36*
G01*
X122200000Y-80749998D02*
X122200000Y-81650002D01*
G75*
G02*
X121950002Y-81900000I-249998J0D01*
G01*
X121424998Y-81900000D01*
G75*
G02*
X121175000Y-81650002I0J249998D01*
G01*
X121175000Y-80749998D01*
G75*
G02*
X121424998Y-80500000I249998J0D01*
G01*
X121950002Y-80500000D01*
G75*
G02*
X122200000Y-80749998I0J-249998D01*
G01*
G37*
%TD*%
%TO.C,R9*%
G36*
G01*
X124012500Y-78049998D02*
X124012500Y-78950002D01*
G75*
G02*
X123762502Y-79200000I-249998J0D01*
G01*
X123237498Y-79200000D01*
G75*
G02*
X122987500Y-78950002I0J249998D01*
G01*
X122987500Y-78049998D01*
G75*
G02*
X123237498Y-77800000I249998J0D01*
G01*
X123762502Y-77800000D01*
G75*
G02*
X124012500Y-78049998I0J-249998D01*
G01*
G37*
G36*
G01*
X122187500Y-78049998D02*
X122187500Y-78950002D01*
G75*
G02*
X121937502Y-79200000I-249998J0D01*
G01*
X121412498Y-79200000D01*
G75*
G02*
X121162500Y-78950002I0J249998D01*
G01*
X121162500Y-78049998D01*
G75*
G02*
X121412498Y-77800000I249998J0D01*
G01*
X121937502Y-77800000D01*
G75*
G02*
X122187500Y-78049998I0J-249998D01*
G01*
G37*
%TD*%
%TO.C,R10*%
G36*
G01*
X160987500Y-111450002D02*
X160987500Y-110549998D01*
G75*
G02*
X161237498Y-110300000I249998J0D01*
G01*
X161762502Y-110300000D01*
G75*
G02*
X162012500Y-110549998I0J-249998D01*
G01*
X162012500Y-111450002D01*
G75*
G02*
X161762502Y-111700000I-249998J0D01*
G01*
X161237498Y-111700000D01*
G75*
G02*
X160987500Y-111450002I0J249998D01*
G01*
G37*
G36*
G01*
X159162500Y-111450002D02*
X159162500Y-110549998D01*
G75*
G02*
X159412498Y-110300000I249998J0D01*
G01*
X159937502Y-110300000D01*
G75*
G02*
X160187500Y-110549998I0J-249998D01*
G01*
X160187500Y-111450002D01*
G75*
G02*
X159937502Y-111700000I-249998J0D01*
G01*
X159412498Y-111700000D01*
G75*
G02*
X159162500Y-111450002I0J249998D01*
G01*
G37*
%TD*%
%TO.C,R11*%
G36*
G01*
X176987500Y-92950002D02*
X176987500Y-92049998D01*
G75*
G02*
X177237498Y-91800000I249998J0D01*
G01*
X177762502Y-91800000D01*
G75*
G02*
X178012500Y-92049998I0J-249998D01*
G01*
X178012500Y-92950002D01*
G75*
G02*
X177762502Y-93200000I-249998J0D01*
G01*
X177237498Y-93200000D01*
G75*
G02*
X176987500Y-92950002I0J249998D01*
G01*
G37*
G36*
G01*
X175162500Y-92950002D02*
X175162500Y-92049998D01*
G75*
G02*
X175412498Y-91800000I249998J0D01*
G01*
X175937502Y-91800000D01*
G75*
G02*
X176187500Y-92049998I0J-249998D01*
G01*
X176187500Y-92950002D01*
G75*
G02*
X175937502Y-93200000I-249998J0D01*
G01*
X175412498Y-93200000D01*
G75*
G02*
X175162500Y-92950002I0J249998D01*
G01*
G37*
%TD*%
%TO.C,R12*%
G36*
G01*
X178950002Y-97337500D02*
X178049998Y-97337500D01*
G75*
G02*
X177800000Y-97087502I0J249998D01*
G01*
X177800000Y-96562498D01*
G75*
G02*
X178049998Y-96312500I249998J0D01*
G01*
X178950002Y-96312500D01*
G75*
G02*
X179200000Y-96562498I0J-249998D01*
G01*
X179200000Y-97087502D01*
G75*
G02*
X178950002Y-97337500I-249998J0D01*
G01*
G37*
G36*
G01*
X178950002Y-95512500D02*
X178049998Y-95512500D01*
G75*
G02*
X177800000Y-95262502I0J249998D01*
G01*
X177800000Y-94737498D01*
G75*
G02*
X178049998Y-94487500I249998J0D01*
G01*
X178950002Y-94487500D01*
G75*
G02*
X179200000Y-94737498I0J-249998D01*
G01*
X179200000Y-95262502D01*
G75*
G02*
X178950002Y-95512500I-249998J0D01*
G01*
G37*
%TD*%
%TO.C,R13*%
G36*
G01*
X174049998Y-96312500D02*
X174950002Y-96312500D01*
G75*
G02*
X175200000Y-96562498I0J-249998D01*
G01*
X175200000Y-97087502D01*
G75*
G02*
X174950002Y-97337500I-249998J0D01*
G01*
X174049998Y-97337500D01*
G75*
G02*
X173800000Y-97087502I0J249998D01*
G01*
X173800000Y-96562498D01*
G75*
G02*
X174049998Y-96312500I249998J0D01*
G01*
G37*
G36*
G01*
X174049998Y-94487500D02*
X174950002Y-94487500D01*
G75*
G02*
X175200000Y-94737498I0J-249998D01*
G01*
X175200000Y-95262502D01*
G75*
G02*
X174950002Y-95512500I-249998J0D01*
G01*
X174049998Y-95512500D01*
G75*
G02*
X173800000Y-95262502I0J249998D01*
G01*
X173800000Y-94737498D01*
G75*
G02*
X174049998Y-94487500I249998J0D01*
G01*
G37*
%TD*%
%TO.C,R14*%
G36*
G01*
X124037500Y-86949998D02*
X124037500Y-87850002D01*
G75*
G02*
X123787502Y-88100000I-249998J0D01*
G01*
X123262498Y-88100000D01*
G75*
G02*
X123012500Y-87850002I0J249998D01*
G01*
X123012500Y-86949998D01*
G75*
G02*
X123262498Y-86700000I249998J0D01*
G01*
X123787502Y-86700000D01*
G75*
G02*
X124037500Y-86949998I0J-249998D01*
G01*
G37*
G36*
G01*
X122212500Y-86949998D02*
X122212500Y-87850002D01*
G75*
G02*
X121962502Y-88100000I-249998J0D01*
G01*
X121437498Y-88100000D01*
G75*
G02*
X121187500Y-87850002I0J249998D01*
G01*
X121187500Y-86949998D01*
G75*
G02*
X121437498Y-86700000I249998J0D01*
G01*
X121962502Y-86700000D01*
G75*
G02*
X122212500Y-86949998I0J-249998D01*
G01*
G37*
%TD*%
%TO.C,R15*%
G36*
G01*
X122212500Y-84249998D02*
X122212500Y-85150002D01*
G75*
G02*
X121962502Y-85400000I-249998J0D01*
G01*
X121437498Y-85400000D01*
G75*
G02*
X121187500Y-85150002I0J249998D01*
G01*
X121187500Y-84249998D01*
G75*
G02*
X121437498Y-84000000I249998J0D01*
G01*
X121962502Y-84000000D01*
G75*
G02*
X122212500Y-84249998I0J-249998D01*
G01*
G37*
G36*
G01*
X124037500Y-84249998D02*
X124037500Y-85150002D01*
G75*
G02*
X123787502Y-85400000I-249998J0D01*
G01*
X123262498Y-85400000D01*
G75*
G02*
X123012500Y-85150002I0J249998D01*
G01*
X123012500Y-84249998D01*
G75*
G02*
X123262498Y-84000000I249998J0D01*
G01*
X123787502Y-84000000D01*
G75*
G02*
X124037500Y-84249998I0J-249998D01*
G01*
G37*
%TD*%
D21*
%TO.C,J5*%
X163910000Y-91750000D03*
D22*
X163910000Y-94290000D03*
X163910000Y-96830000D03*
X163910000Y-99370000D03*
X163910000Y-101910000D03*
X163910000Y-104450000D03*
%TD*%
D28*
%TO.C,*%
X129300000Y-85200000D03*
%TD*%
%TO.C,*%
X153600000Y-109500000D03*
%TD*%
%TO.C,*%
X153600000Y-85200000D03*
%TD*%
%TO.C,*%
X129300000Y-109500000D03*
%TD*%
%TO.C,*%
X186460000Y-87980000D03*
%TD*%
%TO.C,*%
X186550000Y-108290000D03*
%TD*%
M02*
