%TF.GenerationSoftware,KiCad,Pcbnew,(6.0.8)*%
%TF.CreationDate,2022-10-09T17:43:42+08:00*%
%TF.ProjectId,orange_juice_board,6f72616e-6765-45f6-9a75-6963655f626f,rev?*%
%TF.SameCoordinates,Original*%
%TF.FileFunction,Soldermask,Top*%
%TF.FilePolarity,Negative*%
%FSLAX46Y46*%
G04 Gerber Fmt 4.6, Leading zero omitted, Abs format (unit mm)*
G04 Created by KiCad (PCBNEW (6.0.8)) date 2022-10-09 17:43:42*
%MOMM*%
%LPD*%
G01*
G04 APERTURE LIST*
G04 Aperture macros list*
%AMRoundRect*
0 Rectangle with rounded corners*
0 $1 Rounding radius*
0 $2 $3 $4 $5 $6 $7 $8 $9 X,Y pos of 4 corners*
0 Add a 4 corners polygon primitive as box body*
4,1,4,$2,$3,$4,$5,$6,$7,$8,$9,$2,$3,0*
0 Add four circle primitives for the rounded corners*
1,1,$1+$1,$2,$3*
1,1,$1+$1,$4,$5*
1,1,$1+$1,$6,$7*
1,1,$1+$1,$8,$9*
0 Add four rect primitives between the rounded corners*
20,1,$1+$1,$2,$3,$4,$5,0*
20,1,$1+$1,$4,$5,$6,$7,0*
20,1,$1+$1,$6,$7,$8,$9,0*
20,1,$1+$1,$8,$9,$2,$3,0*%
G04 Aperture macros list end*
%ADD10RoundRect,0.150000X-0.150000X0.587500X-0.150000X-0.587500X0.150000X-0.587500X0.150000X0.587500X0*%
%ADD11R,1.800000X2.500000*%
%ADD12RoundRect,0.250000X-0.450000X0.262500X-0.450000X-0.262500X0.450000X-0.262500X0.450000X0.262500X0*%
%ADD13RoundRect,0.250000X0.750000X-0.600000X0.750000X0.600000X-0.750000X0.600000X-0.750000X-0.600000X0*%
%ADD14O,2.000000X1.700000*%
%ADD15RoundRect,0.250000X-0.262500X-0.450000X0.262500X-0.450000X0.262500X0.450000X-0.262500X0.450000X0*%
%ADD16RoundRect,0.250000X0.262500X0.450000X-0.262500X0.450000X-0.262500X-0.450000X0.262500X-0.450000X0*%
%ADD17RoundRect,0.250000X-0.550000X1.412500X-0.550000X-1.412500X0.550000X-1.412500X0.550000X1.412500X0*%
%ADD18RoundRect,0.250000X0.250000X0.475000X-0.250000X0.475000X-0.250000X-0.475000X0.250000X-0.475000X0*%
%ADD19RoundRect,0.243750X-0.243750X-0.456250X0.243750X-0.456250X0.243750X0.456250X-0.243750X0.456250X0*%
%ADD20R,1.700000X1.700000*%
%ADD21O,1.700000X1.700000*%
%ADD22RoundRect,0.250000X0.600000X0.750000X-0.600000X0.750000X-0.600000X-0.750000X0.600000X-0.750000X0*%
%ADD23O,1.700000X2.000000*%
%ADD24RoundRect,0.243750X0.456250X-0.243750X0.456250X0.243750X-0.456250X0.243750X-0.456250X-0.243750X0*%
%ADD25C,3.200000*%
%ADD26R,2.500000X1.800000*%
%ADD27R,0.600000X1.550000*%
%ADD28R,3.100000X2.600000*%
%ADD29RoundRect,0.250000X0.725000X-0.600000X0.725000X0.600000X-0.725000X0.600000X-0.725000X-0.600000X0*%
%ADD30O,1.950000X1.700000*%
%ADD31RoundRect,0.150000X-0.512500X-0.150000X0.512500X-0.150000X0.512500X0.150000X-0.512500X0.150000X0*%
%ADD32RoundRect,0.235000X0.940000X1.465000X-0.940000X1.465000X-0.940000X-1.465000X0.940000X-1.465000X0*%
%ADD33C,2.500000*%
%ADD34R,2.400000X2.400000*%
%ADD35C,2.400000*%
%ADD36R,1.500000X1.500000*%
%ADD37C,1.500000*%
%ADD38C,3.000000*%
%ADD39RoundRect,0.250000X0.325000X0.650000X-0.325000X0.650000X-0.325000X-0.650000X0.325000X-0.650000X0*%
G04 APERTURE END LIST*
D10*
%TO.C,Q3*%
X105090000Y-103710500D03*
X103190000Y-103710500D03*
X104140000Y-105585500D03*
%TD*%
%TO.C,Q2*%
X108646000Y-103710500D03*
X106746000Y-103710500D03*
X107696000Y-105585500D03*
%TD*%
D11*
%TO.C,D5*%
X166878000Y-96742000D03*
X166878000Y-92742000D03*
%TD*%
D12*
%TO.C,R1*%
X167640000Y-108688500D03*
X167640000Y-110513500D03*
%TD*%
D13*
%TO.C,J9*%
X92975000Y-92150000D03*
D14*
X92975000Y-89650000D03*
%TD*%
D15*
%TO.C,R12*%
X125039000Y-107701000D03*
X126864000Y-107701000D03*
%TD*%
D16*
%TO.C,R17*%
X108608500Y-68681600D03*
X106783500Y-68681600D03*
%TD*%
D17*
%TO.C,C4*%
X154559000Y-82552500D03*
X154559000Y-87627500D03*
%TD*%
D16*
%TO.C,R13*%
X108608500Y-62738000D03*
X106783500Y-62738000D03*
%TD*%
D18*
%TO.C,C3*%
X167830000Y-89910000D03*
X165930000Y-89910000D03*
%TD*%
D19*
%TO.C,D3*%
X130634500Y-107701000D03*
X132509500Y-107701000D03*
%TD*%
D20*
%TO.C,J2*%
X100980000Y-99250000D03*
D21*
X103520000Y-99250000D03*
X100980000Y-96710000D03*
X103520000Y-96710000D03*
X100980000Y-94170000D03*
X103520000Y-94170000D03*
X100980000Y-91630000D03*
X103520000Y-91630000D03*
X100980000Y-89090000D03*
X103520000Y-89090000D03*
X100980000Y-86550000D03*
X103520000Y-86550000D03*
X100980000Y-84010000D03*
X103520000Y-84010000D03*
X100980000Y-81470000D03*
X103520000Y-81470000D03*
X100980000Y-78930000D03*
X103520000Y-78930000D03*
X100980000Y-76390000D03*
X103520000Y-76390000D03*
X100980000Y-73850000D03*
X103520000Y-73850000D03*
X100980000Y-71310000D03*
X103520000Y-71310000D03*
X100980000Y-68770000D03*
X103520000Y-68770000D03*
%TD*%
D20*
%TO.C,J3*%
X144085000Y-99245000D03*
D21*
X144085000Y-96705000D03*
X144085000Y-94165000D03*
X144085000Y-91625000D03*
X144085000Y-89085000D03*
X144085000Y-86545000D03*
X144085000Y-84005000D03*
X144085000Y-81465000D03*
X144085000Y-78925000D03*
X144085000Y-78925000D03*
X144085000Y-76385000D03*
X144085000Y-73845000D03*
X144085000Y-73845000D03*
X144085000Y-71305000D03*
X144085000Y-68765000D03*
%TD*%
D16*
%TO.C,R18*%
X108608500Y-72644000D03*
X106783500Y-72644000D03*
%TD*%
D22*
%TO.C,J8*%
X103632000Y-112776000D03*
D23*
X101132000Y-112776000D03*
%TD*%
D22*
%TO.C,J6*%
X125476000Y-112781000D03*
D23*
X122976000Y-112781000D03*
%TD*%
D16*
%TO.C,R15*%
X108608500Y-70662800D03*
X106783500Y-70662800D03*
%TD*%
D24*
%TO.C,D1*%
X167640000Y-114221500D03*
X167640000Y-112346500D03*
%TD*%
D16*
%TO.C,R16*%
X108608500Y-64719200D03*
X106783500Y-64719200D03*
%TD*%
D25*
%TO.C,H8*%
X113850000Y-101850000D03*
%TD*%
D19*
%TO.C,D2*%
X139250000Y-107701000D03*
X141125000Y-107701000D03*
%TD*%
D12*
%TO.C,R4*%
X158242000Y-89765500D03*
X158242000Y-91590500D03*
%TD*%
D25*
%TO.C,H5*%
X138150000Y-77550000D03*
%TD*%
D22*
%TO.C,J5*%
X134366000Y-112776000D03*
D23*
X131866000Y-112776000D03*
%TD*%
D26*
%TO.C,D6*%
X162782000Y-104902000D03*
X158782000Y-104902000D03*
%TD*%
D27*
%TO.C,U2*%
X164084000Y-90772000D03*
X162814000Y-90772000D03*
X161544000Y-90772000D03*
X160274000Y-90772000D03*
X160274000Y-96172000D03*
X161544000Y-96172000D03*
X162814000Y-96172000D03*
X164084000Y-96172000D03*
D28*
X162179000Y-93472000D03*
%TD*%
D16*
%TO.C,R2*%
X157528900Y-99695000D03*
X155703900Y-99695000D03*
%TD*%
D10*
%TO.C,Q4*%
X101534000Y-103710500D03*
X99634000Y-103710500D03*
X100584000Y-105585500D03*
%TD*%
D25*
%TO.C,H3*%
X171450000Y-82500000D03*
%TD*%
D29*
%TO.C,J11*%
X93000000Y-83500000D03*
D30*
X93000000Y-81000000D03*
X93000000Y-78500000D03*
X93000000Y-76000000D03*
X93000000Y-73500000D03*
X93000000Y-71000000D03*
%TD*%
D25*
%TO.C,H10*%
X138150000Y-101850000D03*
%TD*%
D31*
%TO.C,U1*%
X154462900Y-67528400D03*
X154462900Y-68478400D03*
X154462900Y-69428400D03*
X156737900Y-69428400D03*
X156737900Y-68478400D03*
X156737900Y-67528400D03*
%TD*%
D32*
%TO.C,L1*%
X165966000Y-84963000D03*
X159916000Y-84963000D03*
%TD*%
D33*
%TO.C,*%
X93500000Y-63500000D03*
%TD*%
%TO.C,*%
X151500000Y-63500000D03*
%TD*%
D16*
%TO.C,R14*%
X108608500Y-66700400D03*
X106783500Y-66700400D03*
%TD*%
%TO.C,R3*%
X157528900Y-97485200D03*
X155703900Y-97485200D03*
%TD*%
D19*
%TO.C,D4*%
X121490500Y-107701000D03*
X123365500Y-107701000D03*
%TD*%
D12*
%TO.C,R5*%
X158242000Y-93321500D03*
X158242000Y-95146500D03*
%TD*%
D34*
%TO.C,J1*%
X159286000Y-111000000D03*
D35*
X162786000Y-111000000D03*
%TD*%
D15*
%TO.C,R10*%
X142759000Y-107701000D03*
X144584000Y-107701000D03*
%TD*%
D20*
%TO.C,J12*%
X149025000Y-83725000D03*
D21*
X149025000Y-86265000D03*
X149025000Y-88805000D03*
X149025000Y-91345000D03*
X149025000Y-93885000D03*
X149025000Y-96425000D03*
X149025000Y-98965000D03*
X149025000Y-101505000D03*
%TD*%
D22*
%TO.C,J7*%
X112756000Y-112793000D03*
D23*
X110256000Y-112793000D03*
%TD*%
D25*
%TO.C,H6*%
X171450000Y-102800000D03*
%TD*%
D33*
%TO.C,*%
X93500000Y-112500000D03*
%TD*%
D36*
%TO.C,USB1*%
X160506000Y-73731000D03*
D37*
X160506000Y-71231000D03*
X160506000Y-69231000D03*
X160506000Y-66731000D03*
X163126000Y-73731000D03*
X163126000Y-71231000D03*
X163126000Y-69231000D03*
X163126000Y-66731000D03*
D38*
X165836000Y-76801000D03*
X160156000Y-63661000D03*
X165836000Y-63661000D03*
X160156000Y-76801000D03*
%TD*%
D33*
%TO.C,*%
X151500000Y-112500000D03*
%TD*%
D20*
%TO.C,J13*%
X91694000Y-97282000D03*
D21*
X94234000Y-97282000D03*
X96774000Y-97282000D03*
%TD*%
D39*
%TO.C,C2*%
X162765000Y-101219000D03*
X159815000Y-101219000D03*
%TD*%
D20*
%TO.C,J10*%
X91709000Y-104902000D03*
D21*
X94249000Y-104902000D03*
X96789000Y-104902000D03*
%TD*%
D20*
%TO.C,J14*%
X91709000Y-101092000D03*
D21*
X94249000Y-101092000D03*
X96789000Y-101092000D03*
%TD*%
D39*
%TO.C,C1*%
X162765000Y-98679000D03*
X159815000Y-98679000D03*
%TD*%
D15*
%TO.C,R11*%
X134215500Y-107701000D03*
X136040500Y-107701000D03*
%TD*%
D22*
%TO.C,J4*%
X143256000Y-112776000D03*
D23*
X140756000Y-112776000D03*
%TD*%
D25*
%TO.C,H2*%
X113850000Y-77550000D03*
%TD*%
D31*
%TO.C,U3*%
X154462900Y-71135200D03*
X154462900Y-72085200D03*
X154462900Y-73035200D03*
X156737900Y-73035200D03*
X156737900Y-72085200D03*
X156737900Y-71135200D03*
%TD*%
M02*
