%TF.GenerationSoftware,KiCad,Pcbnew,(6.0.0)*%
%TF.CreationDate,2022-02-05T18:47:58+08:00*%
%TF.ProjectId,orange_juice_board,6f72616e-6765-45f6-9a75-6963655f626f,rev?*%
%TF.SameCoordinates,Original*%
%TF.FileFunction,Legend,Bot*%
%TF.FilePolarity,Positive*%
%FSLAX46Y46*%
G04 Gerber Fmt 4.6, Leading zero omitted, Abs format (unit mm)*
G04 Created by KiCad (PCBNEW (6.0.0)) date 2022-02-05 18:47:58*
%MOMM*%
%LPD*%
G01*
G04 APERTURE LIST*
%ADD10C,0.150000*%
%ADD11C,0.120000*%
G04 APERTURE END LIST*
D10*
X132833080Y-64813571D02*
X132547366Y-64813571D01*
X132413437Y-64885000D01*
X132288437Y-65027857D01*
X132252723Y-65313571D01*
X132315223Y-65813571D01*
X132422366Y-66099285D01*
X132583080Y-66242142D01*
X132734866Y-66313571D01*
X133020580Y-66313571D01*
X133154508Y-66242142D01*
X133279508Y-66099285D01*
X133315223Y-65813571D01*
X133252723Y-65313571D01*
X133145580Y-65027857D01*
X132984866Y-64885000D01*
X132833080Y-64813571D01*
X131734866Y-66313571D02*
X131609866Y-65313571D01*
X131645580Y-65599285D02*
X131556294Y-65456428D01*
X131475937Y-65385000D01*
X131324151Y-65313571D01*
X131181294Y-65313571D01*
X130163437Y-66313571D02*
X130065223Y-65527857D01*
X130118794Y-65385000D01*
X130252723Y-65313571D01*
X130538437Y-65313571D01*
X130690223Y-65385000D01*
X130154508Y-66242142D02*
X130306294Y-66313571D01*
X130663437Y-66313571D01*
X130797366Y-66242142D01*
X130850937Y-66099285D01*
X130833080Y-65956428D01*
X130743794Y-65813571D01*
X130592008Y-65742142D01*
X130234866Y-65742142D01*
X130083080Y-65670714D01*
X129324151Y-65313571D02*
X129449151Y-66313571D01*
X129342008Y-65456428D02*
X129261651Y-65385000D01*
X129109866Y-65313571D01*
X128895580Y-65313571D01*
X128761651Y-65385000D01*
X128708080Y-65527857D01*
X128806294Y-66313571D01*
X127324151Y-65313571D02*
X127475937Y-66527857D01*
X127565223Y-66670714D01*
X127645580Y-66742142D01*
X127797366Y-66813571D01*
X128011651Y-66813571D01*
X128145580Y-66742142D01*
X127440223Y-66242142D02*
X127592008Y-66313571D01*
X127877723Y-66313571D01*
X128011651Y-66242142D01*
X128074151Y-66170714D01*
X128127723Y-66027857D01*
X128074151Y-65599285D01*
X127984866Y-65456428D01*
X127904508Y-65385000D01*
X127752723Y-65313571D01*
X127467008Y-65313571D01*
X127333080Y-65385000D01*
X126154508Y-66242142D02*
X126306294Y-66313571D01*
X126592008Y-66313571D01*
X126725937Y-66242142D01*
X126779508Y-66099285D01*
X126708080Y-65527857D01*
X126618794Y-65385000D01*
X126467008Y-65313571D01*
X126181294Y-65313571D01*
X126047366Y-65385000D01*
X125993794Y-65527857D01*
X126011651Y-65670714D01*
X126743794Y-65813571D01*
X123690223Y-64813571D02*
X123824151Y-65885000D01*
X123922366Y-66099285D01*
X124083080Y-66242142D01*
X124306294Y-66313571D01*
X124449151Y-66313571D01*
X122395580Y-65313571D02*
X122520580Y-66313571D01*
X123038437Y-65313571D02*
X123136651Y-66099285D01*
X123083080Y-66242142D01*
X122949151Y-66313571D01*
X122734866Y-66313571D01*
X122583080Y-66242142D01*
X122502723Y-66170714D01*
X121806294Y-66313571D02*
X121681294Y-65313571D01*
X121618794Y-64813571D02*
X121699151Y-64885000D01*
X121636651Y-64956428D01*
X121556294Y-64885000D01*
X121618794Y-64813571D01*
X121636651Y-64956428D01*
X120440223Y-66242142D02*
X120592008Y-66313571D01*
X120877723Y-66313571D01*
X121011651Y-66242142D01*
X121074151Y-66170714D01*
X121127723Y-66027857D01*
X121074151Y-65599285D01*
X120984866Y-65456428D01*
X120904508Y-65385000D01*
X120752723Y-65313571D01*
X120467008Y-65313571D01*
X120333080Y-65385000D01*
X119225937Y-66242142D02*
X119377723Y-66313571D01*
X119663437Y-66313571D01*
X119797366Y-66242142D01*
X119850937Y-66099285D01*
X119779508Y-65527857D01*
X119690223Y-65385000D01*
X119538437Y-65313571D01*
X119252723Y-65313571D01*
X119118794Y-65385000D01*
X119065223Y-65527857D01*
X119083080Y-65670714D01*
X119815223Y-65813571D01*
X117395580Y-65313571D02*
X117163437Y-66313571D01*
X116681294Y-65313571D01*
X115761651Y-64813571D02*
X115618794Y-64813571D01*
X115484866Y-64885000D01*
X115422366Y-64956428D01*
X115368794Y-65099285D01*
X115333080Y-65385000D01*
X115377723Y-65742142D01*
X115484866Y-66027857D01*
X115574151Y-66170714D01*
X115654508Y-66242142D01*
X115806294Y-66313571D01*
X115949151Y-66313571D01*
X116083080Y-66242142D01*
X116145580Y-66170714D01*
X116199151Y-66027857D01*
X116234866Y-65742142D01*
X116190223Y-65385000D01*
X116083080Y-65099285D01*
X115993794Y-64956428D01*
X115913437Y-64885000D01*
X115761651Y-64813571D01*
X114788437Y-66170714D02*
X114725937Y-66242142D01*
X114806294Y-66313571D01*
X114868794Y-66242142D01*
X114788437Y-66170714D01*
X114806294Y-66313571D01*
X114047366Y-64813571D02*
X113047366Y-64813571D01*
X113877723Y-66313571D01*
X138342008Y-68728571D02*
X138154508Y-67228571D01*
X137797366Y-67228571D01*
X137592008Y-67300000D01*
X137467008Y-67442857D01*
X137413437Y-67585714D01*
X137377723Y-67871428D01*
X137404508Y-68085714D01*
X137511651Y-68371428D01*
X137600937Y-68514285D01*
X137761651Y-68657142D01*
X137984866Y-68728571D01*
X138342008Y-68728571D01*
X136261651Y-68657142D02*
X136413437Y-68728571D01*
X136699151Y-68728571D01*
X136833080Y-68657142D01*
X136886651Y-68514285D01*
X136815223Y-67942857D01*
X136725937Y-67800000D01*
X136574151Y-67728571D01*
X136288437Y-67728571D01*
X136154508Y-67800000D01*
X136100937Y-67942857D01*
X136118794Y-68085714D01*
X136850937Y-68228571D01*
X135618794Y-68657142D02*
X135484866Y-68728571D01*
X135199151Y-68728571D01*
X135047366Y-68657142D01*
X134958080Y-68514285D01*
X134949151Y-68442857D01*
X135002723Y-68300000D01*
X135136651Y-68228571D01*
X135350937Y-68228571D01*
X135484866Y-68157142D01*
X135538437Y-68014285D01*
X135529508Y-67942857D01*
X135440223Y-67800000D01*
X135288437Y-67728571D01*
X135074151Y-67728571D01*
X134940223Y-67800000D01*
X134342008Y-68728571D02*
X134217008Y-67728571D01*
X134154508Y-67228571D02*
X134234866Y-67300000D01*
X134172366Y-67371428D01*
X134092008Y-67300000D01*
X134154508Y-67228571D01*
X134172366Y-67371428D01*
X132859866Y-67728571D02*
X133011651Y-68942857D01*
X133100937Y-69085714D01*
X133181294Y-69157142D01*
X133333080Y-69228571D01*
X133547366Y-69228571D01*
X133681294Y-69157142D01*
X132975937Y-68657142D02*
X133127723Y-68728571D01*
X133413437Y-68728571D01*
X133547366Y-68657142D01*
X133609866Y-68585714D01*
X133663437Y-68442857D01*
X133609866Y-68014285D01*
X133520580Y-67871428D01*
X133440223Y-67800000D01*
X133288437Y-67728571D01*
X133002723Y-67728571D01*
X132868794Y-67800000D01*
X132145580Y-67728571D02*
X132270580Y-68728571D01*
X132163437Y-67871428D02*
X132083080Y-67800000D01*
X131931294Y-67728571D01*
X131717008Y-67728571D01*
X131583080Y-67800000D01*
X131529508Y-67942857D01*
X131627723Y-68728571D01*
X129770580Y-68728571D02*
X129583080Y-67228571D01*
X129654508Y-67800000D02*
X129502723Y-67728571D01*
X129217008Y-67728571D01*
X129083080Y-67800000D01*
X129020580Y-67871428D01*
X128967008Y-68014285D01*
X129020580Y-68442857D01*
X129109866Y-68585714D01*
X129190223Y-68657142D01*
X129342008Y-68728571D01*
X129627723Y-68728571D01*
X129761651Y-68657142D01*
X128431294Y-67728571D02*
X128199151Y-68728571D01*
X127717008Y-67728571D02*
X128199151Y-68728571D01*
X128386651Y-69085714D01*
X128467008Y-69157142D01*
X128618794Y-69228571D01*
X125511651Y-67228571D02*
X125645580Y-68300000D01*
X125743794Y-68514285D01*
X125904508Y-68657142D01*
X126127723Y-68728571D01*
X126270580Y-68728571D01*
X124404508Y-68657142D02*
X124556294Y-68728571D01*
X124842008Y-68728571D01*
X124975937Y-68657142D01*
X125029508Y-68514285D01*
X124958080Y-67942857D01*
X124868794Y-67800000D01*
X124717008Y-67728571D01*
X124431294Y-67728571D01*
X124297366Y-67800000D01*
X124243794Y-67942857D01*
X124261651Y-68085714D01*
X124993794Y-68228571D01*
X123699151Y-68728571D02*
X123574151Y-67728571D01*
X123609866Y-68014285D02*
X123520580Y-67871428D01*
X123440223Y-67800000D01*
X123288437Y-67728571D01*
X123145580Y-67728571D01*
X122770580Y-68728571D02*
X122645580Y-67728571D01*
X122681294Y-68014285D02*
X122592008Y-67871428D01*
X122511651Y-67800000D01*
X122359866Y-67728571D01*
X122217008Y-67728571D01*
X121859866Y-67728571D02*
X121627723Y-68728571D01*
X121145580Y-67728571D02*
X121627723Y-68728571D01*
X121815223Y-69085714D01*
X121895580Y-69157142D01*
X122047366Y-69228571D01*
X119645580Y-67728571D02*
X119074151Y-67728571D01*
X119556294Y-68728571D02*
X119395580Y-67442857D01*
X119306294Y-67300000D01*
X119154508Y-67228571D01*
X119011651Y-67228571D01*
X118484866Y-68728571D02*
X118618794Y-68657142D01*
X118681294Y-68585714D01*
X118734866Y-68442857D01*
X118681294Y-68014285D01*
X118592008Y-67871428D01*
X118511651Y-67800000D01*
X118359866Y-67728571D01*
X118145580Y-67728571D01*
X118011651Y-67800000D01*
X117949151Y-67871428D01*
X117895580Y-68014285D01*
X117949151Y-68442857D01*
X118038437Y-68585714D01*
X118118794Y-68657142D01*
X118270580Y-68728571D01*
X118484866Y-68728571D01*
X117342008Y-68728571D02*
X117217008Y-67728571D01*
X117252723Y-68014285D02*
X117163437Y-67871428D01*
X117083080Y-67800000D01*
X116931294Y-67728571D01*
X116788437Y-67728571D01*
X115270580Y-68728571D02*
X115083080Y-67228571D01*
X115056294Y-68157142D02*
X114699151Y-68728571D01*
X114574151Y-67728571D02*
X115217008Y-68300000D01*
X113842008Y-68728571D02*
X113975937Y-68657142D01*
X114029508Y-68514285D01*
X113868794Y-67228571D01*
X113270580Y-68728571D02*
X113145580Y-67728571D01*
X113083080Y-67228571D02*
X113163437Y-67300000D01*
X113100937Y-67371428D01*
X113020580Y-67300000D01*
X113083080Y-67228571D01*
X113100937Y-67371428D01*
X112431294Y-67728571D02*
X112618794Y-69228571D01*
X112440223Y-67800000D02*
X112288437Y-67728571D01*
X112002723Y-67728571D01*
X111868794Y-67800000D01*
X111806294Y-67871428D01*
X111752723Y-68014285D01*
X111806294Y-68442857D01*
X111895580Y-68585714D01*
X111975937Y-68657142D01*
X112127723Y-68728571D01*
X112413437Y-68728571D01*
X112547366Y-68657142D01*
X111074151Y-67728571D02*
X111261651Y-69228571D01*
X111083080Y-67800000D02*
X110931294Y-67728571D01*
X110645580Y-67728571D01*
X110511651Y-67800000D01*
X110449151Y-67871428D01*
X110395580Y-68014285D01*
X110449151Y-68442857D01*
X110538437Y-68585714D01*
X110618794Y-68657142D01*
X110770580Y-68728571D01*
X111056294Y-68728571D01*
X111190223Y-68657142D01*
X109261651Y-68657142D02*
X109413437Y-68728571D01*
X109699151Y-68728571D01*
X109833080Y-68657142D01*
X109886651Y-68514285D01*
X109815223Y-67942857D01*
X109725937Y-67800000D01*
X109574151Y-67728571D01*
X109288437Y-67728571D01*
X109154508Y-67800000D01*
X109100937Y-67942857D01*
X109118794Y-68085714D01*
X109850937Y-68228571D01*
X108556294Y-68728571D02*
X108431294Y-67728571D01*
X108467008Y-68014285D02*
X108377723Y-67871428D01*
X108297366Y-67800000D01*
X108145580Y-67728571D01*
X108002723Y-67728571D01*
X131065223Y-70357857D02*
X130859866Y-70429285D01*
X130797366Y-70500714D01*
X130743794Y-70643571D01*
X130770580Y-70857857D01*
X130859866Y-71000714D01*
X130940223Y-71072142D01*
X131092008Y-71143571D01*
X131663437Y-71143571D01*
X131475937Y-69643571D01*
X130975937Y-69643571D01*
X130842008Y-69715000D01*
X130779508Y-69786428D01*
X130725937Y-69929285D01*
X130743794Y-70072142D01*
X130833080Y-70215000D01*
X130913437Y-70286428D01*
X131065223Y-70357857D01*
X131565223Y-70357857D01*
X130217008Y-69857857D02*
X129431294Y-69857857D01*
X128940223Y-69929285D02*
X128368794Y-69929285D01*
X129440223Y-71072142D02*
X128583080Y-71072142D01*
X129743794Y-69500714D02*
X129788437Y-69857857D01*
X129359866Y-70429285D02*
X129449151Y-71143571D01*
X128877723Y-69429285D02*
X129002723Y-70429285D01*
X129359866Y-70429285D02*
X128502723Y-70429285D01*
X128592008Y-71143571D01*
X129592008Y-70000714D02*
X129833080Y-70786428D01*
X129538437Y-70715000D02*
X130342008Y-70857857D01*
X130092008Y-70000714D02*
X130100937Y-70643571D01*
X127458080Y-70643571D02*
X127395580Y-70715000D01*
X127475937Y-70786428D01*
X127538437Y-70715000D01*
X127458080Y-70643571D01*
X127475937Y-70786428D01*
X127359866Y-69857857D02*
X127297366Y-69929285D01*
X127377723Y-70000714D01*
X127440223Y-69929285D01*
X127359866Y-69857857D01*
X127377723Y-70000714D01*
X126458080Y-70072142D02*
X124600937Y-70072142D01*
X125449151Y-69429285D02*
X125520580Y-70000714D01*
X125315223Y-70643571D01*
X125002723Y-71000714D01*
X124734866Y-71143571D01*
X125609866Y-70143571D02*
X125895580Y-70715000D01*
X126217008Y-71000714D01*
X126592008Y-71143571D01*
X125467008Y-69572142D02*
X125717008Y-70429285D01*
X124118794Y-69643571D02*
X122333080Y-69643571D01*
X123859866Y-71000714D02*
X122645580Y-71000714D01*
X123752723Y-70143571D02*
X123877723Y-71143571D01*
X123842008Y-70286428D02*
X122556294Y-70286428D01*
X122663437Y-71143571D01*
X123404508Y-69643571D02*
X123842008Y-70286428D01*
X124315223Y-70643571D01*
X122065223Y-70357857D02*
X120208080Y-70357857D01*
X121609866Y-69572142D02*
X121208080Y-69786428D01*
X121868794Y-69929285D02*
X121458080Y-70072142D01*
X121038437Y-70715000D02*
X120502723Y-71000714D01*
X121056294Y-70286428D02*
X121252723Y-70715000D01*
X121493794Y-70929285D01*
X122020580Y-71143571D01*
X120886651Y-69500714D02*
X120958080Y-70072142D01*
X121163437Y-70572142D01*
X119118794Y-69643571D02*
X119252723Y-70715000D01*
X119350937Y-70929285D01*
X119511651Y-71072142D01*
X119734866Y-71143571D01*
X119877723Y-71143571D01*
X118011651Y-71072142D02*
X118163437Y-71143571D01*
X118449151Y-71143571D01*
X118583080Y-71072142D01*
X118636651Y-70929285D01*
X118565223Y-70357857D01*
X118475937Y-70215000D01*
X118324151Y-70143571D01*
X118038437Y-70143571D01*
X117904508Y-70215000D01*
X117850937Y-70357857D01*
X117868794Y-70500714D01*
X118600937Y-70643571D01*
X117306294Y-71143571D02*
X117181294Y-70143571D01*
X117217008Y-70429285D02*
X117127723Y-70286428D01*
X117047366Y-70215000D01*
X116895580Y-70143571D01*
X116752723Y-70143571D01*
X116377723Y-71143571D02*
X116252723Y-70143571D01*
X116288437Y-70429285D02*
X116199151Y-70286428D01*
X116118794Y-70215000D01*
X115967008Y-70143571D01*
X115824151Y-70143571D01*
X115467008Y-70143571D02*
X115234866Y-71143571D01*
X114752723Y-70143571D02*
X115234866Y-71143571D01*
X115422366Y-71500714D01*
X115502723Y-71572142D01*
X115654508Y-71643571D01*
D11*
X98670000Y-102301428D02*
X98698571Y-102358571D01*
X98698571Y-102444285D01*
X98670000Y-102530000D01*
X98612857Y-102587142D01*
X98555714Y-102615714D01*
X98441428Y-102644285D01*
X98355714Y-102644285D01*
X98241428Y-102615714D01*
X98184285Y-102587142D01*
X98127142Y-102530000D01*
X98098571Y-102444285D01*
X98098571Y-102387142D01*
X98127142Y-102301428D01*
X98155714Y-102272857D01*
X98355714Y-102272857D01*
X98355714Y-102387142D01*
X98098571Y-102015714D02*
X98698571Y-102015714D01*
X98698571Y-101787142D01*
X98670000Y-101730000D01*
X98641428Y-101701428D01*
X98584285Y-101672857D01*
X98498571Y-101672857D01*
X98441428Y-101701428D01*
X98412857Y-101730000D01*
X98384285Y-101787142D01*
X98384285Y-102015714D01*
X98098571Y-101415714D02*
X98698571Y-101415714D01*
X98698571Y-101015714D02*
X98698571Y-100901428D01*
X98670000Y-100844285D01*
X98612857Y-100787142D01*
X98498571Y-100758571D01*
X98298571Y-100758571D01*
X98184285Y-100787142D01*
X98127142Y-100844285D01*
X98098571Y-100901428D01*
X98098571Y-101015714D01*
X98127142Y-101072857D01*
X98184285Y-101130000D01*
X98298571Y-101158571D01*
X98498571Y-101158571D01*
X98612857Y-101130000D01*
X98670000Y-101072857D01*
X98698571Y-101015714D01*
X98098571Y-100187142D02*
X98098571Y-100530000D01*
X98098571Y-100358571D02*
X98698571Y-100358571D01*
X98612857Y-100415714D01*
X98555714Y-100472857D01*
X98527142Y-100530000D01*
X98098571Y-99615714D02*
X98098571Y-99958571D01*
X98098571Y-99787142D02*
X98698571Y-99787142D01*
X98612857Y-99844285D01*
X98555714Y-99901428D01*
X98527142Y-99958571D01*
X98670000Y-98115714D02*
X98698571Y-98172857D01*
X98698571Y-98258571D01*
X98670000Y-98344285D01*
X98612857Y-98401428D01*
X98555714Y-98430000D01*
X98441428Y-98458571D01*
X98355714Y-98458571D01*
X98241428Y-98430000D01*
X98184285Y-98401428D01*
X98127142Y-98344285D01*
X98098571Y-98258571D01*
X98098571Y-98201428D01*
X98127142Y-98115714D01*
X98155714Y-98087142D01*
X98355714Y-98087142D01*
X98355714Y-98201428D01*
X98098571Y-97830000D02*
X98698571Y-97830000D01*
X98698571Y-97601428D01*
X98670000Y-97544285D01*
X98641428Y-97515714D01*
X98584285Y-97487142D01*
X98498571Y-97487142D01*
X98441428Y-97515714D01*
X98412857Y-97544285D01*
X98384285Y-97601428D01*
X98384285Y-97830000D01*
X98098571Y-97230000D02*
X98698571Y-97230000D01*
X98698571Y-96830000D02*
X98698571Y-96715714D01*
X98670000Y-96658571D01*
X98612857Y-96601428D01*
X98498571Y-96572857D01*
X98298571Y-96572857D01*
X98184285Y-96601428D01*
X98127142Y-96658571D01*
X98098571Y-96715714D01*
X98098571Y-96830000D01*
X98127142Y-96887142D01*
X98184285Y-96944285D01*
X98298571Y-96972857D01*
X98498571Y-96972857D01*
X98612857Y-96944285D01*
X98670000Y-96887142D01*
X98698571Y-96830000D01*
X98698571Y-96058571D02*
X98698571Y-96172857D01*
X98670000Y-96230000D01*
X98641428Y-96258571D01*
X98555714Y-96315714D01*
X98441428Y-96344285D01*
X98212857Y-96344285D01*
X98155714Y-96315714D01*
X98127142Y-96287142D01*
X98098571Y-96230000D01*
X98098571Y-96115714D01*
X98127142Y-96058571D01*
X98155714Y-96030000D01*
X98212857Y-96001428D01*
X98355714Y-96001428D01*
X98412857Y-96030000D01*
X98441428Y-96058571D01*
X98470000Y-96115714D01*
X98470000Y-96230000D01*
X98441428Y-96287142D01*
X98412857Y-96315714D01*
X98355714Y-96344285D01*
X98670000Y-106141428D02*
X98698571Y-106198571D01*
X98698571Y-106284285D01*
X98670000Y-106370000D01*
X98612857Y-106427142D01*
X98555714Y-106455714D01*
X98441428Y-106484285D01*
X98355714Y-106484285D01*
X98241428Y-106455714D01*
X98184285Y-106427142D01*
X98127142Y-106370000D01*
X98098571Y-106284285D01*
X98098571Y-106227142D01*
X98127142Y-106141428D01*
X98155714Y-106112857D01*
X98355714Y-106112857D01*
X98355714Y-106227142D01*
X98098571Y-105855714D02*
X98698571Y-105855714D01*
X98698571Y-105627142D01*
X98670000Y-105570000D01*
X98641428Y-105541428D01*
X98584285Y-105512857D01*
X98498571Y-105512857D01*
X98441428Y-105541428D01*
X98412857Y-105570000D01*
X98384285Y-105627142D01*
X98384285Y-105855714D01*
X98098571Y-105255714D02*
X98698571Y-105255714D01*
X98698571Y-104855714D02*
X98698571Y-104741428D01*
X98670000Y-104684285D01*
X98612857Y-104627142D01*
X98498571Y-104598571D01*
X98298571Y-104598571D01*
X98184285Y-104627142D01*
X98127142Y-104684285D01*
X98098571Y-104741428D01*
X98098571Y-104855714D01*
X98127142Y-104912857D01*
X98184285Y-104970000D01*
X98298571Y-104998571D01*
X98498571Y-104998571D01*
X98612857Y-104970000D01*
X98670000Y-104912857D01*
X98698571Y-104855714D01*
X98098571Y-104027142D02*
X98098571Y-104370000D01*
X98098571Y-104198571D02*
X98698571Y-104198571D01*
X98612857Y-104255714D01*
X98555714Y-104312857D01*
X98527142Y-104370000D01*
X98641428Y-103798571D02*
X98670000Y-103770000D01*
X98698571Y-103712857D01*
X98698571Y-103570000D01*
X98670000Y-103512857D01*
X98641428Y-103484285D01*
X98584285Y-103455714D01*
X98527142Y-103455714D01*
X98441428Y-103484285D01*
X98098571Y-103827142D01*
X98098571Y-103455714D01*
M02*
