%TF.GenerationSoftware,KiCad,Pcbnew,(5.1.12)-1*%
%TF.CreationDate,2021-12-26T21:26:00+08:00*%
%TF.ProjectId,OrangePiZeroExtentionBoard,4f72616e-6765-4506-995a-65726f457874,rev?*%
%TF.SameCoordinates,Original*%
%TF.FileFunction,Copper,L1,Top*%
%TF.FilePolarity,Positive*%
%FSLAX46Y46*%
G04 Gerber Fmt 4.6, Leading zero omitted, Abs format (unit mm)*
G04 Created by KiCad (PCBNEW (5.1.12)-1) date 2021-12-26 21:26:00*
%MOMM*%
%LPD*%
G01*
G04 APERTURE LIST*
%TA.AperFunction,ComponentPad*%
%ADD10C,0.600000*%
%TD*%
%TA.AperFunction,SMDPad,CuDef*%
%ADD11R,0.600000X1.550000*%
%TD*%
%TA.AperFunction,SMDPad,CuDef*%
%ADD12R,4.500000X2.950000*%
%TD*%
%TA.AperFunction,SMDPad,CuDef*%
%ADD13R,3.100000X2.600000*%
%TD*%
%TA.AperFunction,ComponentPad*%
%ADD14C,1.500000*%
%TD*%
%TA.AperFunction,ComponentPad*%
%ADD15C,3.000000*%
%TD*%
%TA.AperFunction,ComponentPad*%
%ADD16R,1.500000X1.500000*%
%TD*%
%TA.AperFunction,SMDPad,CuDef*%
%ADD17R,1.800000X2.500000*%
%TD*%
%TA.AperFunction,ComponentPad*%
%ADD18C,0.800000*%
%TD*%
%TA.AperFunction,ComponentPad*%
%ADD19C,6.400000*%
%TD*%
%TA.AperFunction,ComponentPad*%
%ADD20R,2.400000X2.400000*%
%TD*%
%TA.AperFunction,ComponentPad*%
%ADD21C,2.400000*%
%TD*%
%TA.AperFunction,ComponentPad*%
%ADD22O,1.950000X1.700000*%
%TD*%
%TA.AperFunction,ComponentPad*%
%ADD23R,1.700000X1.700000*%
%TD*%
%TA.AperFunction,ComponentPad*%
%ADD24O,1.700000X1.700000*%
%TD*%
%TA.AperFunction,ComponentPad*%
%ADD25O,2.000000X1.700000*%
%TD*%
%TA.AperFunction,ComponentPad*%
%ADD26O,1.700000X2.000000*%
%TD*%
%TA.AperFunction,SMDPad,CuDef*%
%ADD27R,3.400000X2.000000*%
%TD*%
%TA.AperFunction,SMDPad,CuDef*%
%ADD28R,0.800000X0.900000*%
%TD*%
%TA.AperFunction,SMDPad,CuDef*%
%ADD29R,0.900000X0.800000*%
%TD*%
%TA.AperFunction,ViaPad*%
%ADD30C,0.800000*%
%TD*%
%TA.AperFunction,Conductor*%
%ADD31C,0.250000*%
%TD*%
%TA.AperFunction,Conductor*%
%ADD32C,1.000000*%
%TD*%
%TA.AperFunction,Conductor*%
%ADD33C,0.500000*%
%TD*%
%TA.AperFunction,Conductor*%
%ADD34C,0.750000*%
%TD*%
%TA.AperFunction,Conductor*%
%ADD35C,1.500000*%
%TD*%
G04 APERTURE END LIST*
%TO.P,C5,2*%
%TO.N,GND*%
%TA.AperFunction,SMDPad,CuDef*%
G36*
G01*
X166050000Y-76950000D02*
X164950000Y-76950000D01*
G75*
G02*
X164700000Y-76700000I0J250000D01*
G01*
X164700000Y-73700000D01*
G75*
G02*
X164950000Y-73450000I250000J0D01*
G01*
X166050000Y-73450000D01*
G75*
G02*
X166300000Y-73700000I0J-250000D01*
G01*
X166300000Y-76700000D01*
G75*
G02*
X166050000Y-76950000I-250000J0D01*
G01*
G37*
%TD.AperFunction*%
%TO.P,C5,1*%
%TO.N,+5V*%
%TA.AperFunction,SMDPad,CuDef*%
G36*
G01*
X166050000Y-82550000D02*
X164950000Y-82550000D01*
G75*
G02*
X164700000Y-82300000I0J250000D01*
G01*
X164700000Y-79300000D01*
G75*
G02*
X164950000Y-79050000I250000J0D01*
G01*
X166050000Y-79050000D01*
G75*
G02*
X166300000Y-79300000I0J-250000D01*
G01*
X166300000Y-82300000D01*
G75*
G02*
X166050000Y-82550000I-250000J0D01*
G01*
G37*
%TD.AperFunction*%
%TD*%
D10*
%TO.P,U1,9*%
%TO.N,GND*%
X176800000Y-106200000D03*
X175700000Y-106200000D03*
X175700000Y-107400000D03*
X176800000Y-107400000D03*
X173200000Y-106200000D03*
X174400000Y-106200000D03*
X174400000Y-107400000D03*
X173200000Y-107400000D03*
D11*
%TO.P,U1,8*%
%TO.N,BUCK_PH*%
X173095000Y-104100000D03*
%TO.P,U1,7*%
%TO.N,BUCK_IN*%
X174365000Y-104100000D03*
%TO.P,U1,6*%
%TO.N,GND*%
X175635000Y-104100000D03*
%TO.P,U1,5*%
%TO.N,BUCK_EN*%
X176905000Y-104100000D03*
%TO.P,U1,4*%
%TO.N,BUCK_VSNS*%
X176905000Y-109500000D03*
%TO.P,U1,3*%
%TO.N,Net-(U1-Pad3)*%
X175635000Y-109500000D03*
%TO.P,U1,2*%
%TO.N,Net-(U1-Pad2)*%
X174365000Y-109500000D03*
%TO.P,U1,1*%
%TO.N,BUCK_BOOT*%
X173095000Y-109500000D03*
D12*
%TO.P,U1,9*%
%TO.N,GND*%
X175000000Y-106800000D03*
D13*
X175000000Y-106800000D03*
%TD*%
D14*
%TO.P,USB1,8*%
%TO.N,GND*%
X178620000Y-72500000D03*
%TO.P,USB1,7*%
%TO.N,USB_DP3*%
X178620000Y-75000000D03*
%TO.P,USB1,6*%
%TO.N,USB_DM3*%
X178620000Y-77000000D03*
%TO.P,USB1,5*%
%TO.N,+5V*%
X178620000Y-79500000D03*
D15*
%TO.P,USB1,9*%
%TO.N,Net-(USB1-Pad9)*%
X181330000Y-69430000D03*
X181330000Y-82570000D03*
D14*
%TO.P,USB1,4*%
%TO.N,GND*%
X176000000Y-72500000D03*
%TO.P,USB1,3*%
%TO.N,USB_DP2*%
X176000000Y-75000000D03*
%TO.P,USB1,2*%
%TO.N,USB_DM2*%
X176000000Y-77000000D03*
D16*
%TO.P,USB1,1*%
%TO.N,+5V*%
X176000000Y-79500000D03*
D15*
%TO.P,USB1,9*%
%TO.N,Net-(USB1-Pad9)*%
X175650000Y-82570000D03*
X175650000Y-69430000D03*
%TD*%
%TO.P,C1,2*%
%TO.N,GND*%
%TA.AperFunction,SMDPad,CuDef*%
G36*
G01*
X172475000Y-71500000D02*
X171525000Y-71500000D01*
G75*
G02*
X171275000Y-71250000I0J250000D01*
G01*
X171275000Y-70750000D01*
G75*
G02*
X171525000Y-70500000I250000J0D01*
G01*
X172475000Y-70500000D01*
G75*
G02*
X172725000Y-70750000I0J-250000D01*
G01*
X172725000Y-71250000D01*
G75*
G02*
X172475000Y-71500000I-250000J0D01*
G01*
G37*
%TD.AperFunction*%
%TO.P,C1,1*%
%TO.N,+5V*%
%TA.AperFunction,SMDPad,CuDef*%
G36*
G01*
X172475000Y-73400000D02*
X171525000Y-73400000D01*
G75*
G02*
X171275000Y-73150000I0J250000D01*
G01*
X171275000Y-72650000D01*
G75*
G02*
X171525000Y-72400000I250000J0D01*
G01*
X172475000Y-72400000D01*
G75*
G02*
X172725000Y-72650000I0J-250000D01*
G01*
X172725000Y-73150000D01*
G75*
G02*
X172475000Y-73400000I-250000J0D01*
G01*
G37*
%TD.AperFunction*%
%TD*%
%TO.P,C2,1*%
%TO.N,BUCK_IN*%
%TA.AperFunction,SMDPad,CuDef*%
G36*
G01*
X172475000Y-100150001D02*
X172475000Y-98849999D01*
G75*
G02*
X172724999Y-98600000I249999J0D01*
G01*
X173375001Y-98600000D01*
G75*
G02*
X173625000Y-98849999I0J-249999D01*
G01*
X173625000Y-100150001D01*
G75*
G02*
X173375001Y-100400000I-249999J0D01*
G01*
X172724999Y-100400000D01*
G75*
G02*
X172475000Y-100150001I0J249999D01*
G01*
G37*
%TD.AperFunction*%
%TO.P,C2,2*%
%TO.N,GND*%
%TA.AperFunction,SMDPad,CuDef*%
G36*
G01*
X175425000Y-100150001D02*
X175425000Y-98849999D01*
G75*
G02*
X175674999Y-98600000I249999J0D01*
G01*
X176325001Y-98600000D01*
G75*
G02*
X176575000Y-98849999I0J-249999D01*
G01*
X176575000Y-100150001D01*
G75*
G02*
X176325001Y-100400000I-249999J0D01*
G01*
X175674999Y-100400000D01*
G75*
G02*
X175425000Y-100150001I0J249999D01*
G01*
G37*
%TD.AperFunction*%
%TD*%
%TO.P,C3,1*%
%TO.N,+5V*%
%TA.AperFunction,SMDPad,CuDef*%
G36*
G01*
X172475000Y-77900000D02*
X171525000Y-77900000D01*
G75*
G02*
X171275000Y-77650000I0J250000D01*
G01*
X171275000Y-77150000D01*
G75*
G02*
X171525000Y-76900000I250000J0D01*
G01*
X172475000Y-76900000D01*
G75*
G02*
X172725000Y-77150000I0J-250000D01*
G01*
X172725000Y-77650000D01*
G75*
G02*
X172475000Y-77900000I-250000J0D01*
G01*
G37*
%TD.AperFunction*%
%TO.P,C3,2*%
%TO.N,GND*%
%TA.AperFunction,SMDPad,CuDef*%
G36*
G01*
X172475000Y-76000000D02*
X171525000Y-76000000D01*
G75*
G02*
X171275000Y-75750000I0J250000D01*
G01*
X171275000Y-75250000D01*
G75*
G02*
X171525000Y-75000000I250000J0D01*
G01*
X172475000Y-75000000D01*
G75*
G02*
X172725000Y-75250000I0J-250000D01*
G01*
X172725000Y-75750000D01*
G75*
G02*
X172475000Y-76000000I-250000J0D01*
G01*
G37*
%TD.AperFunction*%
%TD*%
%TO.P,C4,1*%
%TO.N,BUCK_BOOT*%
%TA.AperFunction,SMDPad,CuDef*%
G36*
G01*
X169475000Y-107950000D02*
X168525000Y-107950000D01*
G75*
G02*
X168275000Y-107700000I0J250000D01*
G01*
X168275000Y-107200000D01*
G75*
G02*
X168525000Y-106950000I250000J0D01*
G01*
X169475000Y-106950000D01*
G75*
G02*
X169725000Y-107200000I0J-250000D01*
G01*
X169725000Y-107700000D01*
G75*
G02*
X169475000Y-107950000I-250000J0D01*
G01*
G37*
%TD.AperFunction*%
%TO.P,C4,2*%
%TO.N,BUCK_PH*%
%TA.AperFunction,SMDPad,CuDef*%
G36*
G01*
X169475000Y-106050000D02*
X168525000Y-106050000D01*
G75*
G02*
X168275000Y-105800000I0J250000D01*
G01*
X168275000Y-105300000D01*
G75*
G02*
X168525000Y-105050000I250000J0D01*
G01*
X169475000Y-105050000D01*
G75*
G02*
X169725000Y-105300000I0J-250000D01*
G01*
X169725000Y-105800000D01*
G75*
G02*
X169475000Y-106050000I-250000J0D01*
G01*
G37*
%TD.AperFunction*%
%TD*%
%TO.P,D1,2*%
%TO.N,Net-(D1-Pad2)*%
%TA.AperFunction,SMDPad,CuDef*%
G36*
G01*
X184350000Y-116956250D02*
X184350000Y-116043750D01*
G75*
G02*
X184593750Y-115800000I243750J0D01*
G01*
X185081250Y-115800000D01*
G75*
G02*
X185325000Y-116043750I0J-243750D01*
G01*
X185325000Y-116956250D01*
G75*
G02*
X185081250Y-117200000I-243750J0D01*
G01*
X184593750Y-117200000D01*
G75*
G02*
X184350000Y-116956250I0J243750D01*
G01*
G37*
%TD.AperFunction*%
%TO.P,D1,1*%
%TO.N,GND*%
%TA.AperFunction,SMDPad,CuDef*%
G36*
G01*
X182475000Y-116956250D02*
X182475000Y-116043750D01*
G75*
G02*
X182718750Y-115800000I243750J0D01*
G01*
X183206250Y-115800000D01*
G75*
G02*
X183450000Y-116043750I0J-243750D01*
G01*
X183450000Y-116956250D01*
G75*
G02*
X183206250Y-117200000I-243750J0D01*
G01*
X182718750Y-117200000D01*
G75*
G02*
X182475000Y-116956250I0J243750D01*
G01*
G37*
%TD.AperFunction*%
%TD*%
%TO.P,D2,1*%
%TO.N,Net-(D2-Pad1)*%
%TA.AperFunction,SMDPad,CuDef*%
G36*
G01*
X132456250Y-120487500D02*
X131543750Y-120487500D01*
G75*
G02*
X131300000Y-120243750I0J243750D01*
G01*
X131300000Y-119756250D01*
G75*
G02*
X131543750Y-119512500I243750J0D01*
G01*
X132456250Y-119512500D01*
G75*
G02*
X132700000Y-119756250I0J-243750D01*
G01*
X132700000Y-120243750D01*
G75*
G02*
X132456250Y-120487500I-243750J0D01*
G01*
G37*
%TD.AperFunction*%
%TO.P,D2,2*%
%TO.N,Net-(D2-Pad2)*%
%TA.AperFunction,SMDPad,CuDef*%
G36*
G01*
X132456250Y-118612500D02*
X131543750Y-118612500D01*
G75*
G02*
X131300000Y-118368750I0J243750D01*
G01*
X131300000Y-117881250D01*
G75*
G02*
X131543750Y-117637500I243750J0D01*
G01*
X132456250Y-117637500D01*
G75*
G02*
X132700000Y-117881250I0J-243750D01*
G01*
X132700000Y-118368750D01*
G75*
G02*
X132456250Y-118612500I-243750J0D01*
G01*
G37*
%TD.AperFunction*%
%TD*%
%TO.P,D3,2*%
%TO.N,Net-(D3-Pad2)*%
%TA.AperFunction,SMDPad,CuDef*%
G36*
G01*
X143956250Y-118550000D02*
X143043750Y-118550000D01*
G75*
G02*
X142800000Y-118306250I0J243750D01*
G01*
X142800000Y-117818750D01*
G75*
G02*
X143043750Y-117575000I243750J0D01*
G01*
X143956250Y-117575000D01*
G75*
G02*
X144200000Y-117818750I0J-243750D01*
G01*
X144200000Y-118306250D01*
G75*
G02*
X143956250Y-118550000I-243750J0D01*
G01*
G37*
%TD.AperFunction*%
%TO.P,D3,1*%
%TO.N,Net-(D3-Pad1)*%
%TA.AperFunction,SMDPad,CuDef*%
G36*
G01*
X143956250Y-120425000D02*
X143043750Y-120425000D01*
G75*
G02*
X142800000Y-120181250I0J243750D01*
G01*
X142800000Y-119693750D01*
G75*
G02*
X143043750Y-119450000I243750J0D01*
G01*
X143956250Y-119450000D01*
G75*
G02*
X144200000Y-119693750I0J-243750D01*
G01*
X144200000Y-120181250D01*
G75*
G02*
X143956250Y-120425000I-243750J0D01*
G01*
G37*
%TD.AperFunction*%
%TD*%
D17*
%TO.P,D4,1*%
%TO.N,BUCK_PH*%
X169000000Y-97900000D03*
%TO.P,D4,2*%
%TO.N,GND*%
X169000000Y-101900000D03*
%TD*%
%TO.P,D5,1*%
%TO.N,Net-(D5-Pad1)*%
%TA.AperFunction,SMDPad,CuDef*%
G36*
G01*
X161925000Y-113043750D02*
X161925000Y-113956250D01*
G75*
G02*
X161681250Y-114200000I-243750J0D01*
G01*
X161193750Y-114200000D01*
G75*
G02*
X160950000Y-113956250I0J243750D01*
G01*
X160950000Y-113043750D01*
G75*
G02*
X161193750Y-112800000I243750J0D01*
G01*
X161681250Y-112800000D01*
G75*
G02*
X161925000Y-113043750I0J-243750D01*
G01*
G37*
%TD.AperFunction*%
%TO.P,D5,2*%
%TO.N,Net-(D5-Pad2)*%
%TA.AperFunction,SMDPad,CuDef*%
G36*
G01*
X160050000Y-113043750D02*
X160050000Y-113956250D01*
G75*
G02*
X159806250Y-114200000I-243750J0D01*
G01*
X159318750Y-114200000D01*
G75*
G02*
X159075000Y-113956250I0J243750D01*
G01*
X159075000Y-113043750D01*
G75*
G02*
X159318750Y-112800000I243750J0D01*
G01*
X159806250Y-112800000D01*
G75*
G02*
X160050000Y-113043750I0J-243750D01*
G01*
G37*
%TD.AperFunction*%
%TD*%
D18*
%TO.P,,1*%
%TO.N,N/C*%
X110197056Y-116302944D03*
X108500000Y-115600000D03*
X106802944Y-116302944D03*
X106100000Y-118000000D03*
X106802944Y-119697056D03*
X108500000Y-120400000D03*
X110197056Y-119697056D03*
X110900000Y-118000000D03*
D19*
X108500000Y-118000000D03*
%TD*%
%TO.P,,1*%
%TO.N,N/C*%
X108500000Y-69000000D03*
D18*
X110900000Y-69000000D03*
X110197056Y-70697056D03*
X108500000Y-71400000D03*
X106802944Y-70697056D03*
X106100000Y-69000000D03*
X106802944Y-67302944D03*
X108500000Y-66600000D03*
X110197056Y-67302944D03*
%TD*%
%TO.P,,1*%
%TO.N,N/C*%
X168197056Y-67302944D03*
X166500000Y-66600000D03*
X164802944Y-67302944D03*
X164100000Y-69000000D03*
X164802944Y-70697056D03*
X166500000Y-71400000D03*
X168197056Y-70697056D03*
X168900000Y-69000000D03*
D19*
X166500000Y-69000000D03*
%TD*%
D18*
%TO.P,,1*%
%TO.N,N/C*%
X168197056Y-116302944D03*
X166500000Y-115600000D03*
X164802944Y-116302944D03*
X164100000Y-118000000D03*
X164802944Y-119697056D03*
X166500000Y-120400000D03*
X168197056Y-119697056D03*
X168900000Y-118000000D03*
D19*
X166500000Y-118000000D03*
%TD*%
D20*
%TO.P,J2,1*%
%TO.N,DCIN*%
X175500000Y-116500000D03*
D21*
%TO.P,J2,2*%
%TO.N,GND*%
X179000000Y-116500000D03*
%TD*%
%TO.P,J3,1*%
%TO.N,GND*%
%TA.AperFunction,ComponentPad*%
G36*
G01*
X108725000Y-89850000D02*
X107275000Y-89850000D01*
G75*
G02*
X107025000Y-89600000I0J250000D01*
G01*
X107025000Y-88400000D01*
G75*
G02*
X107275000Y-88150000I250000J0D01*
G01*
X108725000Y-88150000D01*
G75*
G02*
X108975000Y-88400000I0J-250000D01*
G01*
X108975000Y-89600000D01*
G75*
G02*
X108725000Y-89850000I-250000J0D01*
G01*
G37*
%TD.AperFunction*%
D22*
%TO.P,J3,2*%
%TO.N,+3V3*%
X108000000Y-86500000D03*
%TO.P,J3,3*%
%TO.N,SPI1_CS*%
X108000000Y-84000000D03*
%TO.P,J3,4*%
%TO.N,SPI1_MISO*%
X108000000Y-81500000D03*
%TO.P,J3,5*%
%TO.N,SPI1_MOSI*%
X108000000Y-79000000D03*
%TO.P,J3,6*%
%TO.N,SPI1_CLK*%
X108000000Y-76500000D03*
%TD*%
D23*
%TO.P,J4,1*%
%TO.N,+3V3*%
X115960000Y-104780000D03*
D24*
%TO.P,J4,2*%
%TO.N,+5V*%
X118500000Y-104780000D03*
%TO.P,J4,3*%
%TO.N,Net-(J4-Pad3)*%
X115960000Y-102240000D03*
%TO.P,J4,4*%
%TO.N,+5V*%
X118500000Y-102240000D03*
%TO.P,J4,5*%
%TO.N,Net-(J4-Pad5)*%
X115960000Y-99700000D03*
%TO.P,J4,6*%
%TO.N,GND*%
X118500000Y-99700000D03*
%TO.P,J4,7*%
%TO.N,Net-(J4-Pad7)*%
X115960000Y-97160000D03*
%TO.P,J4,8*%
%TO.N,UART1_RX*%
X118500000Y-97160000D03*
%TO.P,J4,9*%
%TO.N,GND*%
X115960000Y-94620000D03*
%TO.P,J4,10*%
%TO.N,UART1_TX*%
X118500000Y-94620000D03*
%TO.P,J4,11*%
%TO.N,GPIO_1_CLK*%
X115960000Y-92080000D03*
%TO.P,J4,12*%
%TO.N,Net-(J4-Pad12)*%
X118500000Y-92080000D03*
%TO.P,J4,13*%
%TO.N,GPIO_0_SDO*%
X115960000Y-89540000D03*
%TO.P,J4,14*%
%TO.N,GND*%
X118500000Y-89540000D03*
%TO.P,J4,15*%
%TO.N,GPIO_3_SDI*%
X115960000Y-87000000D03*
%TO.P,J4,16*%
%TO.N,GPIO_19*%
X118500000Y-87000000D03*
%TO.P,J4,17*%
%TO.N,+3V3*%
X115960000Y-84460000D03*
%TO.P,J4,18*%
%TO.N,GPIO_18*%
X118500000Y-84460000D03*
%TO.P,J4,19*%
%TO.N,SPI1_MOSI*%
X115960000Y-81920000D03*
%TO.P,J4,20*%
%TO.N,GND*%
X118500000Y-81920000D03*
%TO.P,J4,21*%
%TO.N,SPI1_MISO*%
X115960000Y-79380000D03*
%TO.P,J4,22*%
%TO.N,GPIO_2_CS*%
X118500000Y-79380000D03*
%TO.P,J4,23*%
%TO.N,SPI1_CLK*%
X115960000Y-76840000D03*
%TO.P,J4,24*%
%TO.N,SPI1_CS*%
X118500000Y-76840000D03*
%TO.P,J4,25*%
%TO.N,GND*%
X115960000Y-74300000D03*
%TO.P,J4,26*%
%TO.N,GPIO_10*%
X118500000Y-74300000D03*
%TD*%
D23*
%TO.P,J7,1*%
%TO.N,Net-(J7-Pad1)*%
X159000000Y-104780000D03*
D24*
%TO.P,J7,2*%
%TO.N,Net-(J7-Pad2)*%
X159000000Y-102240000D03*
%TO.P,J7,3*%
%TO.N,Net-(J7-Pad3)*%
X159000000Y-99700000D03*
%TO.P,J7,4*%
%TO.N,Net-(J7-Pad4)*%
X159000000Y-97160000D03*
%TO.P,J7,5*%
%TO.N,Net-(J7-Pad5)*%
X159000000Y-94620000D03*
%TO.P,J7,6*%
%TO.N,Net-(J7-Pad6)*%
X159000000Y-92080000D03*
%TO.P,J7,7*%
%TO.N,Net-(J7-Pad7)*%
X159000000Y-89540000D03*
%TO.P,J7,8*%
%TO.N,USB_DP3*%
X159000000Y-87000000D03*
%TO.P,J7,9*%
%TO.N,USB_DM3*%
X159000000Y-84460000D03*
%TO.P,J7,10*%
%TO.N,USB_DP2*%
X159000000Y-81920000D03*
%TO.P,J7,11*%
%TO.N,USB_DM2*%
X159000000Y-79380000D03*
%TO.P,J7,12*%
%TO.N,GND*%
X159000000Y-76840000D03*
%TO.P,J7,13*%
%TO.N,+5V*%
X159000000Y-74300000D03*
%TD*%
%TO.P,J8,1*%
%TO.N,+5V*%
%TA.AperFunction,ComponentPad*%
G36*
G01*
X108750000Y-110850000D02*
X107250000Y-110850000D01*
G75*
G02*
X107000000Y-110600000I0J250000D01*
G01*
X107000000Y-109400000D01*
G75*
G02*
X107250000Y-109150000I250000J0D01*
G01*
X108750000Y-109150000D01*
G75*
G02*
X109000000Y-109400000I0J-250000D01*
G01*
X109000000Y-110600000D01*
G75*
G02*
X108750000Y-110850000I-250000J0D01*
G01*
G37*
%TD.AperFunction*%
D25*
%TO.P,J8,2*%
%TO.N,GND*%
X108000000Y-107500000D03*
%TD*%
D26*
%TO.P,J9,2*%
%TO.N,GND*%
X116000000Y-118500000D03*
%TO.P,J9,1*%
%TO.N,+5V*%
%TA.AperFunction,ComponentPad*%
G36*
G01*
X119350000Y-117750000D02*
X119350000Y-119250000D01*
G75*
G02*
X119100000Y-119500000I-250000J0D01*
G01*
X117900000Y-119500000D01*
G75*
G02*
X117650000Y-119250000I0J250000D01*
G01*
X117650000Y-117750000D01*
G75*
G02*
X117900000Y-117500000I250000J0D01*
G01*
X119100000Y-117500000D01*
G75*
G02*
X119350000Y-117750000I0J-250000D01*
G01*
G37*
%TD.AperFunction*%
%TD*%
%TO.P,J10,2*%
%TO.N,Net-(D2-Pad1)*%
X136500000Y-118500000D03*
%TO.P,J10,1*%
%TO.N,DCIN*%
%TA.AperFunction,ComponentPad*%
G36*
G01*
X139850000Y-117750000D02*
X139850000Y-119250000D01*
G75*
G02*
X139600000Y-119500000I-250000J0D01*
G01*
X138400000Y-119500000D01*
G75*
G02*
X138150000Y-119250000I0J250000D01*
G01*
X138150000Y-117750000D01*
G75*
G02*
X138400000Y-117500000I250000J0D01*
G01*
X139600000Y-117500000D01*
G75*
G02*
X139850000Y-117750000I0J-250000D01*
G01*
G37*
%TD.AperFunction*%
%TD*%
%TO.P,J11,1*%
%TO.N,UART1_RX*%
%TA.AperFunction,ComponentPad*%
G36*
G01*
X108750000Y-98850000D02*
X107250000Y-98850000D01*
G75*
G02*
X107000000Y-98600000I0J250000D01*
G01*
X107000000Y-97400000D01*
G75*
G02*
X107250000Y-97150000I250000J0D01*
G01*
X108750000Y-97150000D01*
G75*
G02*
X109000000Y-97400000I0J-250000D01*
G01*
X109000000Y-98600000D01*
G75*
G02*
X108750000Y-98850000I-250000J0D01*
G01*
G37*
%TD.AperFunction*%
D25*
%TO.P,J11,2*%
%TO.N,UART1_TX*%
X108000000Y-95500000D03*
%TD*%
%TO.P,J12,1*%
%TO.N,DCIN*%
%TA.AperFunction,ComponentPad*%
G36*
G01*
X151350000Y-117750000D02*
X151350000Y-119250000D01*
G75*
G02*
X151100000Y-119500000I-250000J0D01*
G01*
X149900000Y-119500000D01*
G75*
G02*
X149650000Y-119250000I0J250000D01*
G01*
X149650000Y-117750000D01*
G75*
G02*
X149900000Y-117500000I250000J0D01*
G01*
X151100000Y-117500000D01*
G75*
G02*
X151350000Y-117750000I0J-250000D01*
G01*
G37*
%TD.AperFunction*%
D26*
%TO.P,J12,2*%
%TO.N,Net-(D3-Pad1)*%
X148000000Y-118500000D03*
%TD*%
%TO.P,J13,2*%
%TO.N,GND*%
X125000000Y-118500000D03*
%TO.P,J13,1*%
%TO.N,DCIN*%
%TA.AperFunction,ComponentPad*%
G36*
G01*
X128350000Y-117750000D02*
X128350000Y-119250000D01*
G75*
G02*
X128100000Y-119500000I-250000J0D01*
G01*
X126900000Y-119500000D01*
G75*
G02*
X126650000Y-119250000I0J250000D01*
G01*
X126650000Y-117750000D01*
G75*
G02*
X126900000Y-117500000I250000J0D01*
G01*
X128100000Y-117500000D01*
G75*
G02*
X128350000Y-117750000I0J-250000D01*
G01*
G37*
%TD.AperFunction*%
%TD*%
%TO.P,J15,2*%
%TO.N,Net-(D5-Pad1)*%
X156500000Y-118500000D03*
%TO.P,J15,1*%
%TO.N,DCIN*%
%TA.AperFunction,ComponentPad*%
G36*
G01*
X159850000Y-117750000D02*
X159850000Y-119250000D01*
G75*
G02*
X159600000Y-119500000I-250000J0D01*
G01*
X158400000Y-119500000D01*
G75*
G02*
X158150000Y-119250000I0J250000D01*
G01*
X158150000Y-117750000D01*
G75*
G02*
X158400000Y-117500000I250000J0D01*
G01*
X159600000Y-117500000D01*
G75*
G02*
X159850000Y-117750000I0J-250000D01*
G01*
G37*
%TD.AperFunction*%
%TD*%
D27*
%TO.P,L1,1*%
%TO.N,BUCK_PH*%
X170000000Y-90700000D03*
%TO.P,L1,2*%
%TO.N,+5V*%
X170000000Y-85000000D03*
%TD*%
D28*
%TO.P,Q1,1*%
%TO.N,GND*%
X181500000Y-99000000D03*
%TO.P,Q1,2*%
%TO.N,BUCK_IN*%
X179600000Y-99000000D03*
%TO.P,Q1,3*%
%TO.N,DCIN*%
X180550000Y-101000000D03*
%TD*%
%TO.P,Q2,1*%
%TO.N,Net-(Q2-Pad1)*%
X116900000Y-109000000D03*
%TO.P,Q2,2*%
%TO.N,GND*%
X115000000Y-109000000D03*
%TO.P,Q2,3*%
%TO.N,Net-(D2-Pad1)*%
X115950000Y-111000000D03*
%TD*%
%TO.P,Q3,3*%
%TO.N,Net-(D3-Pad1)*%
X121550000Y-111000000D03*
%TO.P,Q3,2*%
%TO.N,GND*%
X120600000Y-109000000D03*
%TO.P,Q3,1*%
%TO.N,Net-(Q3-Pad1)*%
X122500000Y-109000000D03*
%TD*%
D29*
%TO.P,Q4,3*%
%TO.N,Net-(D5-Pad1)*%
X166000000Y-109500000D03*
%TO.P,Q4,2*%
%TO.N,GND*%
X164000000Y-110450000D03*
%TO.P,Q4,1*%
%TO.N,Net-(Q4-Pad1)*%
X164000000Y-108550000D03*
%TD*%
%TO.P,R1,1*%
%TO.N,BUCK_IN*%
%TA.AperFunction,SMDPad,CuDef*%
G36*
G01*
X182462500Y-114550002D02*
X182462500Y-113649998D01*
G75*
G02*
X182712498Y-113400000I249998J0D01*
G01*
X183237502Y-113400000D01*
G75*
G02*
X183487500Y-113649998I0J-249998D01*
G01*
X183487500Y-114550002D01*
G75*
G02*
X183237502Y-114800000I-249998J0D01*
G01*
X182712498Y-114800000D01*
G75*
G02*
X182462500Y-114550002I0J249998D01*
G01*
G37*
%TD.AperFunction*%
%TO.P,R1,2*%
%TO.N,Net-(D1-Pad2)*%
%TA.AperFunction,SMDPad,CuDef*%
G36*
G01*
X184287500Y-114550002D02*
X184287500Y-113649998D01*
G75*
G02*
X184537498Y-113400000I249998J0D01*
G01*
X185062502Y-113400000D01*
G75*
G02*
X185312500Y-113649998I0J-249998D01*
G01*
X185312500Y-114550002D01*
G75*
G02*
X185062502Y-114800000I-249998J0D01*
G01*
X184537498Y-114800000D01*
G75*
G02*
X184287500Y-114550002I0J249998D01*
G01*
G37*
%TD.AperFunction*%
%TD*%
%TO.P,R2,1*%
%TO.N,BUCK_IN*%
%TA.AperFunction,SMDPad,CuDef*%
G36*
G01*
X180049998Y-103987500D02*
X180950002Y-103987500D01*
G75*
G02*
X181200000Y-104237498I0J-249998D01*
G01*
X181200000Y-104762502D01*
G75*
G02*
X180950002Y-105012500I-249998J0D01*
G01*
X180049998Y-105012500D01*
G75*
G02*
X179800000Y-104762502I0J249998D01*
G01*
X179800000Y-104237498D01*
G75*
G02*
X180049998Y-103987500I249998J0D01*
G01*
G37*
%TD.AperFunction*%
%TO.P,R2,2*%
%TO.N,BUCK_EN*%
%TA.AperFunction,SMDPad,CuDef*%
G36*
G01*
X180049998Y-105812500D02*
X180950002Y-105812500D01*
G75*
G02*
X181200000Y-106062498I0J-249998D01*
G01*
X181200000Y-106587502D01*
G75*
G02*
X180950002Y-106837500I-249998J0D01*
G01*
X180049998Y-106837500D01*
G75*
G02*
X179800000Y-106587502I0J249998D01*
G01*
X179800000Y-106062498D01*
G75*
G02*
X180049998Y-105812500I249998J0D01*
G01*
G37*
%TD.AperFunction*%
%TD*%
%TO.P,R3,2*%
%TO.N,GND*%
%TA.AperFunction,SMDPad,CuDef*%
G36*
G01*
X180049998Y-110387500D02*
X180950002Y-110387500D01*
G75*
G02*
X181200000Y-110637498I0J-249998D01*
G01*
X181200000Y-111162502D01*
G75*
G02*
X180950002Y-111412500I-249998J0D01*
G01*
X180049998Y-111412500D01*
G75*
G02*
X179800000Y-111162502I0J249998D01*
G01*
X179800000Y-110637498D01*
G75*
G02*
X180049998Y-110387500I249998J0D01*
G01*
G37*
%TD.AperFunction*%
%TO.P,R3,1*%
%TO.N,BUCK_EN*%
%TA.AperFunction,SMDPad,CuDef*%
G36*
G01*
X180049998Y-108562500D02*
X180950002Y-108562500D01*
G75*
G02*
X181200000Y-108812498I0J-249998D01*
G01*
X181200000Y-109337502D01*
G75*
G02*
X180950002Y-109587500I-249998J0D01*
G01*
X180049998Y-109587500D01*
G75*
G02*
X179800000Y-109337502I0J249998D01*
G01*
X179800000Y-108812498D01*
G75*
G02*
X180049998Y-108562500I249998J0D01*
G01*
G37*
%TD.AperFunction*%
%TD*%
%TO.P,R4,2*%
%TO.N,DCIN*%
%TA.AperFunction,SMDPad,CuDef*%
G36*
G01*
X132450002Y-115100000D02*
X131549998Y-115100000D01*
G75*
G02*
X131300000Y-114850002I0J249998D01*
G01*
X131300000Y-114324998D01*
G75*
G02*
X131549998Y-114075000I249998J0D01*
G01*
X132450002Y-114075000D01*
G75*
G02*
X132700000Y-114324998I0J-249998D01*
G01*
X132700000Y-114850002D01*
G75*
G02*
X132450002Y-115100000I-249998J0D01*
G01*
G37*
%TD.AperFunction*%
%TO.P,R4,1*%
%TO.N,Net-(D2-Pad2)*%
%TA.AperFunction,SMDPad,CuDef*%
G36*
G01*
X132450002Y-116925000D02*
X131549998Y-116925000D01*
G75*
G02*
X131300000Y-116675002I0J249998D01*
G01*
X131300000Y-116149998D01*
G75*
G02*
X131549998Y-115900000I249998J0D01*
G01*
X132450002Y-115900000D01*
G75*
G02*
X132700000Y-116149998I0J-249998D01*
G01*
X132700000Y-116675002D01*
G75*
G02*
X132450002Y-116925000I-249998J0D01*
G01*
G37*
%TD.AperFunction*%
%TD*%
%TO.P,R5,1*%
%TO.N,Net-(Q2-Pad1)*%
%TA.AperFunction,SMDPad,CuDef*%
G36*
G01*
X124037500Y-74649998D02*
X124037500Y-75550002D01*
G75*
G02*
X123787502Y-75800000I-249998J0D01*
G01*
X123262498Y-75800000D01*
G75*
G02*
X123012500Y-75550002I0J249998D01*
G01*
X123012500Y-74649998D01*
G75*
G02*
X123262498Y-74400000I249998J0D01*
G01*
X123787502Y-74400000D01*
G75*
G02*
X124037500Y-74649998I0J-249998D01*
G01*
G37*
%TD.AperFunction*%
%TO.P,R5,2*%
%TO.N,GPIO_10*%
%TA.AperFunction,SMDPad,CuDef*%
G36*
G01*
X122212500Y-74649998D02*
X122212500Y-75550002D01*
G75*
G02*
X121962502Y-75800000I-249998J0D01*
G01*
X121437498Y-75800000D01*
G75*
G02*
X121187500Y-75550002I0J249998D01*
G01*
X121187500Y-74649998D01*
G75*
G02*
X121437498Y-74400000I249998J0D01*
G01*
X121962502Y-74400000D01*
G75*
G02*
X122212500Y-74649998I0J-249998D01*
G01*
G37*
%TD.AperFunction*%
%TD*%
%TO.P,R6,2*%
%TO.N,GPIO_10*%
%TA.AperFunction,SMDPad,CuDef*%
G36*
G01*
X122212500Y-71649998D02*
X122212500Y-72550002D01*
G75*
G02*
X121962502Y-72800000I-249998J0D01*
G01*
X121437498Y-72800000D01*
G75*
G02*
X121187500Y-72550002I0J249998D01*
G01*
X121187500Y-71649998D01*
G75*
G02*
X121437498Y-71400000I249998J0D01*
G01*
X121962502Y-71400000D01*
G75*
G02*
X122212500Y-71649998I0J-249998D01*
G01*
G37*
%TD.AperFunction*%
%TO.P,R6,1*%
%TO.N,GND*%
%TA.AperFunction,SMDPad,CuDef*%
G36*
G01*
X124037500Y-71649998D02*
X124037500Y-72550002D01*
G75*
G02*
X123787502Y-72800000I-249998J0D01*
G01*
X123262498Y-72800000D01*
G75*
G02*
X123012500Y-72550002I0J249998D01*
G01*
X123012500Y-71649998D01*
G75*
G02*
X123262498Y-71400000I249998J0D01*
G01*
X123787502Y-71400000D01*
G75*
G02*
X124037500Y-71649998I0J-249998D01*
G01*
G37*
%TD.AperFunction*%
%TD*%
%TO.P,R7,1*%
%TO.N,Net-(D3-Pad2)*%
%TA.AperFunction,SMDPad,CuDef*%
G36*
G01*
X143950002Y-116837500D02*
X143049998Y-116837500D01*
G75*
G02*
X142800000Y-116587502I0J249998D01*
G01*
X142800000Y-116062498D01*
G75*
G02*
X143049998Y-115812500I249998J0D01*
G01*
X143950002Y-115812500D01*
G75*
G02*
X144200000Y-116062498I0J-249998D01*
G01*
X144200000Y-116587502D01*
G75*
G02*
X143950002Y-116837500I-249998J0D01*
G01*
G37*
%TD.AperFunction*%
%TO.P,R7,2*%
%TO.N,DCIN*%
%TA.AperFunction,SMDPad,CuDef*%
G36*
G01*
X143950002Y-115012500D02*
X143049998Y-115012500D01*
G75*
G02*
X142800000Y-114762502I0J249998D01*
G01*
X142800000Y-114237498D01*
G75*
G02*
X143049998Y-113987500I249998J0D01*
G01*
X143950002Y-113987500D01*
G75*
G02*
X144200000Y-114237498I0J-249998D01*
G01*
X144200000Y-114762502D01*
G75*
G02*
X143950002Y-115012500I-249998J0D01*
G01*
G37*
%TD.AperFunction*%
%TD*%
%TO.P,R8,1*%
%TO.N,Net-(Q3-Pad1)*%
%TA.AperFunction,SMDPad,CuDef*%
G36*
G01*
X124025000Y-80749998D02*
X124025000Y-81650002D01*
G75*
G02*
X123775002Y-81900000I-249998J0D01*
G01*
X123249998Y-81900000D01*
G75*
G02*
X123000000Y-81650002I0J249998D01*
G01*
X123000000Y-80749998D01*
G75*
G02*
X123249998Y-80500000I249998J0D01*
G01*
X123775002Y-80500000D01*
G75*
G02*
X124025000Y-80749998I0J-249998D01*
G01*
G37*
%TD.AperFunction*%
%TO.P,R8,2*%
%TO.N,GPIO_18*%
%TA.AperFunction,SMDPad,CuDef*%
G36*
G01*
X122200000Y-80749998D02*
X122200000Y-81650002D01*
G75*
G02*
X121950002Y-81900000I-249998J0D01*
G01*
X121424998Y-81900000D01*
G75*
G02*
X121175000Y-81650002I0J249998D01*
G01*
X121175000Y-80749998D01*
G75*
G02*
X121424998Y-80500000I249998J0D01*
G01*
X121950002Y-80500000D01*
G75*
G02*
X122200000Y-80749998I0J-249998D01*
G01*
G37*
%TD.AperFunction*%
%TD*%
%TO.P,R9,1*%
%TO.N,GND*%
%TA.AperFunction,SMDPad,CuDef*%
G36*
G01*
X124012500Y-78049998D02*
X124012500Y-78950002D01*
G75*
G02*
X123762502Y-79200000I-249998J0D01*
G01*
X123237498Y-79200000D01*
G75*
G02*
X122987500Y-78950002I0J249998D01*
G01*
X122987500Y-78049998D01*
G75*
G02*
X123237498Y-77800000I249998J0D01*
G01*
X123762502Y-77800000D01*
G75*
G02*
X124012500Y-78049998I0J-249998D01*
G01*
G37*
%TD.AperFunction*%
%TO.P,R9,2*%
%TO.N,GPIO_18*%
%TA.AperFunction,SMDPad,CuDef*%
G36*
G01*
X122187500Y-78049998D02*
X122187500Y-78950002D01*
G75*
G02*
X121937502Y-79200000I-249998J0D01*
G01*
X121412498Y-79200000D01*
G75*
G02*
X121162500Y-78950002I0J249998D01*
G01*
X121162500Y-78049998D01*
G75*
G02*
X121412498Y-77800000I249998J0D01*
G01*
X121937502Y-77800000D01*
G75*
G02*
X122187500Y-78049998I0J-249998D01*
G01*
G37*
%TD.AperFunction*%
%TD*%
%TO.P,R10,2*%
%TO.N,DCIN*%
%TA.AperFunction,SMDPad,CuDef*%
G36*
G01*
X160987500Y-111450002D02*
X160987500Y-110549998D01*
G75*
G02*
X161237498Y-110300000I249998J0D01*
G01*
X161762502Y-110300000D01*
G75*
G02*
X162012500Y-110549998I0J-249998D01*
G01*
X162012500Y-111450002D01*
G75*
G02*
X161762502Y-111700000I-249998J0D01*
G01*
X161237498Y-111700000D01*
G75*
G02*
X160987500Y-111450002I0J249998D01*
G01*
G37*
%TD.AperFunction*%
%TO.P,R10,1*%
%TO.N,Net-(D5-Pad2)*%
%TA.AperFunction,SMDPad,CuDef*%
G36*
G01*
X159162500Y-111450002D02*
X159162500Y-110549998D01*
G75*
G02*
X159412498Y-110300000I249998J0D01*
G01*
X159937502Y-110300000D01*
G75*
G02*
X160187500Y-110549998I0J-249998D01*
G01*
X160187500Y-111450002D01*
G75*
G02*
X159937502Y-111700000I-249998J0D01*
G01*
X159412498Y-111700000D01*
G75*
G02*
X159162500Y-111450002I0J249998D01*
G01*
G37*
%TD.AperFunction*%
%TD*%
%TO.P,R11,2*%
%TO.N,BUCK_VSNS*%
%TA.AperFunction,SMDPad,CuDef*%
G36*
G01*
X176987500Y-92950002D02*
X176987500Y-92049998D01*
G75*
G02*
X177237498Y-91800000I249998J0D01*
G01*
X177762502Y-91800000D01*
G75*
G02*
X178012500Y-92049998I0J-249998D01*
G01*
X178012500Y-92950002D01*
G75*
G02*
X177762502Y-93200000I-249998J0D01*
G01*
X177237498Y-93200000D01*
G75*
G02*
X176987500Y-92950002I0J249998D01*
G01*
G37*
%TD.AperFunction*%
%TO.P,R11,1*%
%TO.N,+5V*%
%TA.AperFunction,SMDPad,CuDef*%
G36*
G01*
X175162500Y-92950002D02*
X175162500Y-92049998D01*
G75*
G02*
X175412498Y-91800000I249998J0D01*
G01*
X175937502Y-91800000D01*
G75*
G02*
X176187500Y-92049998I0J-249998D01*
G01*
X176187500Y-92950002D01*
G75*
G02*
X175937502Y-93200000I-249998J0D01*
G01*
X175412498Y-93200000D01*
G75*
G02*
X175162500Y-92950002I0J249998D01*
G01*
G37*
%TD.AperFunction*%
%TD*%
%TO.P,R12,1*%
%TO.N,BUCK_VSNS*%
%TA.AperFunction,SMDPad,CuDef*%
G36*
G01*
X178950002Y-97337500D02*
X178049998Y-97337500D01*
G75*
G02*
X177800000Y-97087502I0J249998D01*
G01*
X177800000Y-96562498D01*
G75*
G02*
X178049998Y-96312500I249998J0D01*
G01*
X178950002Y-96312500D01*
G75*
G02*
X179200000Y-96562498I0J-249998D01*
G01*
X179200000Y-97087502D01*
G75*
G02*
X178950002Y-97337500I-249998J0D01*
G01*
G37*
%TD.AperFunction*%
%TO.P,R12,2*%
%TO.N,Net-(R12-Pad2)*%
%TA.AperFunction,SMDPad,CuDef*%
G36*
G01*
X178950002Y-95512500D02*
X178049998Y-95512500D01*
G75*
G02*
X177800000Y-95262502I0J249998D01*
G01*
X177800000Y-94737498D01*
G75*
G02*
X178049998Y-94487500I249998J0D01*
G01*
X178950002Y-94487500D01*
G75*
G02*
X179200000Y-94737498I0J-249998D01*
G01*
X179200000Y-95262502D01*
G75*
G02*
X178950002Y-95512500I-249998J0D01*
G01*
G37*
%TD.AperFunction*%
%TD*%
%TO.P,R13,2*%
%TO.N,GND*%
%TA.AperFunction,SMDPad,CuDef*%
G36*
G01*
X174049998Y-96312500D02*
X174950002Y-96312500D01*
G75*
G02*
X175200000Y-96562498I0J-249998D01*
G01*
X175200000Y-97087502D01*
G75*
G02*
X174950002Y-97337500I-249998J0D01*
G01*
X174049998Y-97337500D01*
G75*
G02*
X173800000Y-97087502I0J249998D01*
G01*
X173800000Y-96562498D01*
G75*
G02*
X174049998Y-96312500I249998J0D01*
G01*
G37*
%TD.AperFunction*%
%TO.P,R13,1*%
%TO.N,Net-(R12-Pad2)*%
%TA.AperFunction,SMDPad,CuDef*%
G36*
G01*
X174049998Y-94487500D02*
X174950002Y-94487500D01*
G75*
G02*
X175200000Y-94737498I0J-249998D01*
G01*
X175200000Y-95262502D01*
G75*
G02*
X174950002Y-95512500I-249998J0D01*
G01*
X174049998Y-95512500D01*
G75*
G02*
X173800000Y-95262502I0J249998D01*
G01*
X173800000Y-94737498D01*
G75*
G02*
X174049998Y-94487500I249998J0D01*
G01*
G37*
%TD.AperFunction*%
%TD*%
%TO.P,R14,1*%
%TO.N,Net-(Q4-Pad1)*%
%TA.AperFunction,SMDPad,CuDef*%
G36*
G01*
X124037500Y-86949998D02*
X124037500Y-87850002D01*
G75*
G02*
X123787502Y-88100000I-249998J0D01*
G01*
X123262498Y-88100000D01*
G75*
G02*
X123012500Y-87850002I0J249998D01*
G01*
X123012500Y-86949998D01*
G75*
G02*
X123262498Y-86700000I249998J0D01*
G01*
X123787502Y-86700000D01*
G75*
G02*
X124037500Y-86949998I0J-249998D01*
G01*
G37*
%TD.AperFunction*%
%TO.P,R14,2*%
%TO.N,GPIO_19*%
%TA.AperFunction,SMDPad,CuDef*%
G36*
G01*
X122212500Y-86949998D02*
X122212500Y-87850002D01*
G75*
G02*
X121962502Y-88100000I-249998J0D01*
G01*
X121437498Y-88100000D01*
G75*
G02*
X121187500Y-87850002I0J249998D01*
G01*
X121187500Y-86949998D01*
G75*
G02*
X121437498Y-86700000I249998J0D01*
G01*
X121962502Y-86700000D01*
G75*
G02*
X122212500Y-86949998I0J-249998D01*
G01*
G37*
%TD.AperFunction*%
%TD*%
%TO.P,R15,2*%
%TO.N,GPIO_19*%
%TA.AperFunction,SMDPad,CuDef*%
G36*
G01*
X122212500Y-84249998D02*
X122212500Y-85150002D01*
G75*
G02*
X121962502Y-85400000I-249998J0D01*
G01*
X121437498Y-85400000D01*
G75*
G02*
X121187500Y-85150002I0J249998D01*
G01*
X121187500Y-84249998D01*
G75*
G02*
X121437498Y-84000000I249998J0D01*
G01*
X121962502Y-84000000D01*
G75*
G02*
X122212500Y-84249998I0J-249998D01*
G01*
G37*
%TD.AperFunction*%
%TO.P,R15,1*%
%TO.N,GND*%
%TA.AperFunction,SMDPad,CuDef*%
G36*
G01*
X124037500Y-84249998D02*
X124037500Y-85150002D01*
G75*
G02*
X123787502Y-85400000I-249998J0D01*
G01*
X123262498Y-85400000D01*
G75*
G02*
X123012500Y-85150002I0J249998D01*
G01*
X123012500Y-84249998D01*
G75*
G02*
X123262498Y-84000000I249998J0D01*
G01*
X123787502Y-84000000D01*
G75*
G02*
X124037500Y-84249998I0J-249998D01*
G01*
G37*
%TD.AperFunction*%
%TD*%
D23*
%TO.P,J5,1*%
%TO.N,GND*%
X163910000Y-91750000D03*
D24*
%TO.P,J5,2*%
%TO.N,+3V3*%
X163910000Y-94290000D03*
%TO.P,J5,3*%
%TO.N,GPIO_1_CLK*%
X163910000Y-96830000D03*
%TO.P,J5,4*%
%TO.N,GPIO_0_SDO*%
X163910000Y-99370000D03*
%TO.P,J5,5*%
%TO.N,GPIO_3_SDI*%
X163910000Y-101910000D03*
%TO.P,J5,6*%
%TO.N,GPIO_2_CS*%
X163910000Y-104450000D03*
%TD*%
D30*
%TO.N,GND*%
X182000000Y-116500000D03*
X163100000Y-110450000D03*
X164000000Y-111300000D03*
X181650000Y-110950000D03*
X179350000Y-110950000D03*
X182350000Y-98550000D03*
X182350000Y-99400000D03*
X183200000Y-98550000D03*
X183200000Y-99400000D03*
X175700000Y-97350000D03*
X175700000Y-98150000D03*
X176500000Y-97350000D03*
X176500000Y-98150000D03*
X167650000Y-102750000D03*
X167650000Y-101900000D03*
X166800000Y-101900000D03*
X166800000Y-102750000D03*
X164000000Y-73700000D03*
X164000000Y-72900000D03*
X163200000Y-72900000D03*
X163200000Y-73700000D03*
X114650000Y-74350000D03*
X123550000Y-70950000D03*
X123500000Y-77350000D03*
X119750000Y-109000000D03*
X121450000Y-109000000D03*
X123550000Y-83550000D03*
%TO.N,+5V*%
X164300000Y-84650000D03*
X164300000Y-85450000D03*
X163500000Y-85450000D03*
X163500000Y-84650000D03*
%TO.N,USB_DP2*%
X160500000Y-80500000D03*
X160500000Y-78655000D03*
%TO.N,DCIN*%
X143500000Y-113550000D03*
X161500000Y-109850000D03*
X180550000Y-101900000D03*
X179700000Y-101000000D03*
X181400000Y-101000000D03*
X133150000Y-114600000D03*
%TO.N,SPI1_CS*%
X113500000Y-83500000D03*
X113500000Y-81000000D03*
%TO.N,SPI1_MISO*%
X110500000Y-80000000D03*
X113500000Y-79500000D03*
%TO.N,GPIO_0_SDO*%
X121500000Y-90500000D03*
%TO.N,GPIO_3_SDI*%
X133000000Y-80000000D03*
X133500000Y-83000000D03*
%TO.N,GPIO_2_CS*%
X144987347Y-83500000D03*
X144000000Y-79000000D03*
%TO.N,Net-(Q2-Pad1)*%
X124275000Y-91000000D03*
X125725000Y-89500000D03*
%TO.N,Net-(Q4-Pad1)*%
X124425000Y-111025000D03*
X123025000Y-106375000D03*
%TO.N,BUCK_VSNS*%
X178500000Y-109000000D03*
X178500000Y-97900000D03*
%TD*%
D31*
%TO.N,GND*%
X172000000Y-75500000D02*
X173500000Y-75500000D01*
X173500000Y-75500000D02*
X174000000Y-75000000D01*
X174000000Y-75000000D02*
X174000000Y-73000000D01*
X174000000Y-73000000D02*
X174500000Y-72500000D01*
X174500000Y-72500000D02*
X176000000Y-72500000D01*
X177620000Y-71500000D02*
X178620000Y-72500000D01*
X174500000Y-71500000D02*
X177620000Y-71500000D01*
X174000000Y-71000000D02*
X174500000Y-71500000D01*
X172000000Y-71000000D02*
X174000000Y-71000000D01*
D32*
X175635000Y-104100000D02*
X175635000Y-105165002D01*
X175000000Y-105800002D02*
X175635000Y-105165002D01*
X175000000Y-106800000D02*
X175000000Y-105800002D01*
X175765002Y-105165002D02*
X175635000Y-105165002D01*
X176800000Y-106200000D02*
X175765002Y-105165002D01*
D33*
X115000000Y-109000000D02*
X113450000Y-109000000D01*
D34*
X119750000Y-109000000D02*
X121450000Y-109000000D01*
X121450000Y-109000000D02*
X121450000Y-109050000D01*
X180450000Y-110950000D02*
X180500000Y-110900000D01*
X179350000Y-110950000D02*
X180450000Y-110950000D01*
X181600000Y-110900000D02*
X181650000Y-110950000D01*
X180500000Y-110900000D02*
X181600000Y-110900000D01*
X182000000Y-116500000D02*
X182962500Y-116500000D01*
X182700000Y-99000000D02*
X181500000Y-99000000D01*
X181900000Y-99000000D02*
X182350000Y-98550000D01*
X181500000Y-99000000D02*
X181900000Y-99000000D01*
X181950000Y-99000000D02*
X182350000Y-99400000D01*
X181500000Y-99000000D02*
X181950000Y-99000000D01*
X176500000Y-97350000D02*
X176500000Y-98150000D01*
X176500000Y-99000000D02*
X176000000Y-99500000D01*
X176500000Y-98150000D02*
X176500000Y-99000000D01*
X175700000Y-99200000D02*
X176000000Y-99500000D01*
X175700000Y-98150000D02*
X175700000Y-99200000D01*
X175700000Y-97350000D02*
X176500000Y-97350000D01*
X176500000Y-98150000D02*
X175700000Y-98150000D01*
X176000000Y-99500000D02*
X176000000Y-97700000D01*
X175700000Y-97400000D02*
X175700000Y-98150000D01*
X176000000Y-97700000D02*
X175700000Y-97400000D01*
X175700000Y-97350000D02*
X175700000Y-97400000D01*
X163860000Y-91800000D02*
X163910000Y-91750000D01*
X162650000Y-91800000D02*
X163860000Y-91800000D01*
X163200000Y-72900000D02*
X164000000Y-72900000D01*
X163200000Y-72900000D02*
X163200000Y-73700000D01*
X163200000Y-73700000D02*
X164000000Y-73700000D01*
X164000000Y-73700000D02*
X164000000Y-72900000D01*
X164000000Y-72900000D02*
X165100000Y-72900000D01*
X164000000Y-73700000D02*
X164450000Y-73700000D01*
X165050000Y-73100000D02*
X165300000Y-73100000D01*
X164450000Y-73700000D02*
X165050000Y-73100000D01*
X165100000Y-72900000D02*
X165300000Y-73100000D01*
X165300000Y-75100000D02*
X165500000Y-75300000D01*
X165300000Y-73100000D02*
X165300000Y-75100000D01*
X163200000Y-72900000D02*
X164000000Y-73700000D01*
X163200000Y-73700000D02*
X163200000Y-73800000D01*
X163200000Y-73800000D02*
X163500000Y-74100000D01*
X163500000Y-74100000D02*
X164550000Y-74100000D01*
X165500000Y-75050000D02*
X165500000Y-75300000D01*
X164550000Y-74100000D02*
X165500000Y-75050000D01*
X163350000Y-72750000D02*
X165500000Y-72750000D01*
X163200000Y-72900000D02*
X163350000Y-72750000D01*
X165850000Y-73100000D02*
X165925000Y-73175000D01*
X165300000Y-73100000D02*
X165850000Y-73100000D01*
X165500000Y-72750000D02*
X165925000Y-73175000D01*
X165925000Y-74875000D02*
X165500000Y-75300000D01*
X165925000Y-73175000D02*
X165925000Y-74875000D01*
X176900000Y-73250000D02*
X177700000Y-73250000D01*
X177870000Y-73250000D02*
X178620000Y-72500000D01*
X177700000Y-73250000D02*
X177870000Y-73250000D01*
X176150000Y-72500000D02*
X176900000Y-73250000D01*
X176000000Y-72500000D02*
X176150000Y-72500000D01*
X176000000Y-72500000D02*
X178620000Y-72500000D01*
X176950000Y-72500000D02*
X177700000Y-73250000D01*
X176000000Y-72500000D02*
X176950000Y-72500000D01*
X159000000Y-76840000D02*
X158060000Y-76840000D01*
X158590000Y-77250000D02*
X159000000Y-76840000D01*
X157800000Y-77250000D02*
X158590000Y-77250000D01*
X158610000Y-76450000D02*
X159000000Y-76840000D01*
X157800000Y-76450000D02*
X158610000Y-76450000D01*
X157800000Y-76450000D02*
X157800000Y-77250000D01*
X115910000Y-74350000D02*
X115960000Y-74300000D01*
X114650000Y-74350000D02*
X115910000Y-74350000D01*
X118500000Y-99700000D02*
X119800000Y-99700000D01*
X163100000Y-110450000D02*
X164000000Y-110450000D01*
X164000000Y-111300000D02*
X164000000Y-110450000D01*
X163950000Y-111300000D02*
X163100000Y-110450000D01*
X164000000Y-111300000D02*
X163950000Y-111300000D01*
X166800000Y-101900000D02*
X169000000Y-101900000D01*
X166800000Y-102750000D02*
X168150000Y-102750000D01*
X166800000Y-101900000D02*
X166800000Y-102750000D01*
X167650000Y-101900000D02*
X167650000Y-102750000D01*
X166800000Y-102750000D02*
X167650000Y-101900000D01*
X168150000Y-102750000D02*
X169000000Y-101900000D01*
X167650000Y-102750000D02*
X168150000Y-102750000D01*
X168150000Y-102400000D02*
X168150000Y-102750000D01*
X167650000Y-101900000D02*
X168150000Y-102400000D01*
X166800000Y-101900000D02*
X167650000Y-101900000D01*
X123525000Y-70975000D02*
X123550000Y-70950000D01*
X123525000Y-72100000D02*
X123525000Y-70975000D01*
X123500000Y-78500000D02*
X123500000Y-77350000D01*
X123525000Y-83575000D02*
X123550000Y-83550000D01*
X123525000Y-84700000D02*
X123525000Y-83575000D01*
D33*
X111950000Y-107500000D02*
X113450000Y-109000000D01*
X108000000Y-107500000D02*
X111950000Y-107500000D01*
D32*
X182350000Y-98550000D02*
X182350000Y-99400000D01*
X182350000Y-98550000D02*
X183200000Y-98550000D01*
X183200000Y-98550000D02*
X183200000Y-99400000D01*
X183200000Y-99400000D02*
X182350000Y-99400000D01*
D31*
X175175000Y-96825000D02*
X175700000Y-97350000D01*
X174500000Y-96825000D02*
X175175000Y-96825000D01*
%TO.N,+5V*%
X172000000Y-77400000D02*
X173900000Y-77400000D01*
X177195001Y-78075001D02*
X178620000Y-79500000D01*
X174575001Y-78075001D02*
X177195001Y-78075001D01*
X173900000Y-77400000D02*
X174575001Y-78075001D01*
X172000000Y-72900000D02*
X170500000Y-74400000D01*
X170500000Y-74400000D02*
X170500000Y-78500000D01*
X171500000Y-79500000D02*
X176000000Y-79500000D01*
X170500000Y-78500000D02*
X171500000Y-79500000D01*
D35*
X165500000Y-80700000D02*
X165500000Y-80700000D01*
X165500000Y-84500000D02*
X166000000Y-85000000D01*
D33*
X175675000Y-85675000D02*
X175675000Y-92500000D01*
X175000000Y-85000000D02*
X175675000Y-85675000D01*
D34*
X119740000Y-102240000D02*
X119800000Y-102300000D01*
X118500000Y-102240000D02*
X119740000Y-102240000D01*
X119780000Y-104780000D02*
X119800000Y-104800000D01*
X118500000Y-104780000D02*
X119780000Y-104780000D01*
X169650000Y-84650000D02*
X170000000Y-85000000D01*
X167500000Y-84900000D02*
X167500000Y-85000000D01*
D35*
X170000000Y-85000000D02*
X169350000Y-85000000D01*
D33*
X170000000Y-85000000D02*
X175000000Y-85000000D01*
D35*
X169350000Y-85000000D02*
X167500000Y-85000000D01*
D32*
X163850000Y-85000000D02*
X163500000Y-84650000D01*
X166000000Y-85000000D02*
X163850000Y-85000000D01*
X165350000Y-84650000D02*
X165500000Y-84500000D01*
X163500000Y-84650000D02*
X165350000Y-84650000D01*
X165550000Y-85450000D02*
X166000000Y-85000000D01*
X163500000Y-85450000D02*
X165550000Y-85450000D01*
X163500000Y-84650000D02*
X163500000Y-85450000D01*
X165500000Y-83450000D02*
X165500000Y-83300000D01*
X164300000Y-84650000D02*
X165500000Y-83450000D01*
D35*
X165500000Y-83300000D02*
X165500000Y-84500000D01*
D32*
X163500000Y-84650000D02*
X164150000Y-84650000D01*
D35*
X167500000Y-85000000D02*
X166000000Y-85000000D01*
X165500000Y-80700000D02*
X165500000Y-83300000D01*
D32*
X164150000Y-84650000D02*
X165500000Y-83300000D01*
D31*
%TO.N,BUCK_IN*%
X180500000Y-104500000D02*
X180500000Y-103500000D01*
X180500000Y-103500000D02*
X180000000Y-103000000D01*
X180000000Y-103000000D02*
X178000000Y-103000000D01*
X178000000Y-103000000D02*
X177500000Y-102500000D01*
X182975000Y-113025000D02*
X182975000Y-114100000D01*
X183000000Y-113000000D02*
X182975000Y-113025000D01*
X182500000Y-112500000D02*
X183000000Y-113000000D01*
X182500000Y-105000000D02*
X182500000Y-112500000D01*
X182000000Y-104500000D02*
X182500000Y-105000000D01*
X180500000Y-104500000D02*
X182000000Y-104500000D01*
D32*
X174365000Y-104100000D02*
X174365000Y-102635000D01*
X175000000Y-102000000D02*
X177500000Y-102000000D01*
X177500000Y-102000000D02*
X178000000Y-101500000D01*
X178000000Y-101500000D02*
X178000000Y-99500000D01*
X178500000Y-99000000D02*
X179600000Y-99000000D01*
X178000000Y-99500000D02*
X178500000Y-99000000D01*
D33*
X173050000Y-99500000D02*
X173050000Y-100550000D01*
D32*
X174750000Y-102250000D02*
X175000000Y-102000000D01*
X174365000Y-102635000D02*
X174750000Y-102250000D01*
D33*
X173050000Y-99500000D02*
X173050000Y-101550000D01*
X174365000Y-102865000D02*
X174365000Y-104100000D01*
X173050000Y-101550000D02*
X174365000Y-102865000D01*
X173750000Y-102250000D02*
X173050000Y-101550000D01*
X174750000Y-102250000D02*
X173750000Y-102250000D01*
D31*
%TO.N,BUCK_BOOT*%
X171045000Y-107450000D02*
X173095000Y-109500000D01*
X169000000Y-107450000D02*
X171045000Y-107450000D01*
D32*
%TO.N,BUCK_PH*%
X169000000Y-97900000D02*
X169000000Y-98489998D01*
D31*
X171400000Y-104100000D02*
X171000000Y-104500000D01*
X173095000Y-104100000D02*
X171400000Y-104100000D01*
X171000000Y-104500000D02*
X169950000Y-105550000D01*
X169000000Y-105550000D02*
X169950000Y-105550000D01*
D32*
X169000000Y-94650000D02*
X170000000Y-93650000D01*
X169000000Y-97900000D02*
X169000000Y-94650000D01*
X170000000Y-90700000D02*
X170000000Y-93650000D01*
X173095000Y-103095000D02*
X173095000Y-104100000D01*
X171500000Y-101500000D02*
X173095000Y-103095000D01*
X171500000Y-98500000D02*
X171500000Y-101500000D01*
X170900000Y-97900000D02*
X171500000Y-98500000D01*
X169000000Y-97900000D02*
X170900000Y-97900000D01*
D31*
%TO.N,Net-(D1-Pad2)*%
X184800000Y-116462500D02*
X184837500Y-116500000D01*
X184800000Y-114100000D02*
X184800000Y-116462500D01*
D33*
%TO.N,Net-(D2-Pad1)*%
X115950000Y-112450000D02*
X117000000Y-113500000D01*
X115950000Y-111000000D02*
X115950000Y-112450000D01*
X135650000Y-113500000D02*
X135700000Y-113500000D01*
X117000000Y-113500000D02*
X135650000Y-113500000D01*
X136500000Y-114300000D02*
X136500000Y-118500000D01*
X135700000Y-113500000D02*
X136500000Y-114300000D01*
D31*
X135000000Y-120000000D02*
X136500000Y-118500000D01*
X132000000Y-120000000D02*
X135000000Y-120000000D01*
%TO.N,Net-(D2-Pad2)*%
X132000000Y-116412500D02*
X132000000Y-118125000D01*
%TO.N,Net-(D3-Pad2)*%
X143500000Y-116325000D02*
X143500000Y-118062500D01*
D33*
%TO.N,Net-(D3-Pad1)*%
X121550000Y-112050000D02*
X122000000Y-112500000D01*
X121550000Y-111000000D02*
X121550000Y-112050000D01*
X122000000Y-112500000D02*
X147300000Y-112500000D01*
X148000000Y-113200000D02*
X148000000Y-118500000D01*
X147300000Y-112500000D02*
X148000000Y-113200000D01*
D31*
X146562500Y-119937500D02*
X148000000Y-118500000D01*
X143500000Y-119937500D02*
X146562500Y-119937500D01*
D33*
%TO.N,Net-(D5-Pad1)*%
X166000000Y-112000000D02*
X166000000Y-109500000D01*
X162500000Y-115500000D02*
X166000000Y-112000000D01*
X156500000Y-118500000D02*
X156500000Y-116150000D01*
X156500000Y-116150000D02*
X157150000Y-115500000D01*
D31*
X161437500Y-115487500D02*
X161450000Y-115500000D01*
X161437500Y-113500000D02*
X161437500Y-115487500D01*
D33*
X161450000Y-115500000D02*
X162500000Y-115500000D01*
X157150000Y-115500000D02*
X161450000Y-115500000D01*
D31*
%TO.N,Net-(D5-Pad2)*%
X159675000Y-113387500D02*
X159562500Y-113500000D01*
X159675000Y-111000000D02*
X159675000Y-113387500D01*
%TO.N,USB_DP2*%
X160500000Y-80500000D02*
X160500000Y-79000000D01*
X160500000Y-79000000D02*
X160500000Y-78655000D01*
D33*
%TO.N,DCIN*%
X159500000Y-118500000D02*
X159000000Y-118500000D01*
D34*
X133137500Y-114587500D02*
X133150000Y-114600000D01*
X132000000Y-114587500D02*
X133137500Y-114587500D01*
X143500000Y-113550000D02*
X143500000Y-114500000D01*
X161500000Y-109850000D02*
X161500000Y-111000000D01*
X179700000Y-101000000D02*
X180550000Y-101000000D01*
X180550000Y-101000000D02*
X181400000Y-101000000D01*
X180550000Y-101900000D02*
X180550000Y-101000000D01*
D32*
X179700000Y-101050000D02*
X180550000Y-101900000D01*
X179700000Y-101000000D02*
X179700000Y-101050000D01*
X180550000Y-101850000D02*
X181400000Y-101000000D01*
X180550000Y-101900000D02*
X180550000Y-101850000D01*
X181400000Y-101000000D02*
X179700000Y-101000000D01*
D31*
%TO.N,+3V3*%
X114040000Y-84460000D02*
X115960000Y-84460000D01*
X113500000Y-85000000D02*
X114040000Y-84460000D01*
X113500000Y-86000000D02*
X113500000Y-85000000D01*
X113000000Y-86500000D02*
X113500000Y-86000000D01*
X108000000Y-86500000D02*
X113000000Y-86500000D01*
%TO.N,SPI1_CS*%
X108000000Y-84000000D02*
X113000000Y-84000000D01*
X113000000Y-84000000D02*
X113500000Y-83500000D01*
X117135001Y-79944001D02*
X117135001Y-77364999D01*
X116479001Y-80600001D02*
X117135001Y-79944001D01*
X113899999Y-80600001D02*
X116479001Y-80600001D01*
X113500000Y-81000000D02*
X113899999Y-80600001D01*
X117660000Y-76840000D02*
X118500000Y-76840000D01*
X117135001Y-77364999D02*
X117660000Y-76840000D01*
%TO.N,SPI1_MISO*%
X108000000Y-81500000D02*
X110000000Y-81500000D01*
X110000000Y-81500000D02*
X110500000Y-81000000D01*
X110500000Y-81000000D02*
X110500000Y-80000000D01*
X115840000Y-79500000D02*
X115960000Y-79380000D01*
X113500000Y-79500000D02*
X115840000Y-79500000D01*
%TO.N,SPI1_MOSI*%
X108000000Y-79000000D02*
X112000000Y-79000000D01*
X112000000Y-79000000D02*
X112500000Y-79500000D01*
X112500000Y-79500000D02*
X112500000Y-81500000D01*
X112500000Y-81500000D02*
X113000000Y-82000000D01*
X113080000Y-81920000D02*
X115960000Y-81920000D01*
X113000000Y-82000000D02*
X113080000Y-81920000D01*
%TO.N,SPI1_CLK*%
X115620000Y-76500000D02*
X115960000Y-76840000D01*
X108000000Y-76500000D02*
X115620000Y-76500000D01*
%TO.N,UART1_RX*%
X118500000Y-97160000D02*
X118500000Y-98000000D01*
X118500000Y-98000000D02*
X118000000Y-98500000D01*
X108500000Y-98500000D02*
X108000000Y-98000000D01*
X118000000Y-98500000D02*
X108500000Y-98500000D01*
%TO.N,UART1_TX*%
X108500000Y-96000000D02*
X108000000Y-95500000D01*
X118500000Y-95469998D02*
X117984999Y-95984999D01*
X118500000Y-94620000D02*
X118500000Y-95469998D01*
X108484999Y-95984999D02*
X108000000Y-95500000D01*
X117984999Y-95984999D02*
X108484999Y-95984999D01*
%TO.N,GPIO_0_SDO*%
X121284999Y-90715001D02*
X121500000Y-90500000D01*
X117135001Y-90715001D02*
X121284999Y-90715001D01*
X115960000Y-89540000D02*
X117135001Y-90715001D01*
%TO.N,GPIO_3_SDI*%
X133000000Y-80000000D02*
X133500000Y-80500000D01*
X133500000Y-80500000D02*
X133500000Y-83000000D01*
%TO.N,GPIO_19*%
X121300000Y-87000000D02*
X121700000Y-87400000D01*
X118500000Y-87000000D02*
X121300000Y-87000000D01*
X121700000Y-87400000D02*
X121700000Y-84700000D01*
%TO.N,GPIO_18*%
X121687500Y-81272500D02*
X121687500Y-81200000D01*
X121675000Y-81187500D02*
X121687500Y-81200000D01*
X121675000Y-78500000D02*
X121675000Y-81187500D01*
X118500000Y-84460000D02*
X119940000Y-84460000D01*
X119940000Y-84460000D02*
X120300000Y-84100000D01*
X120300000Y-84100000D02*
X120300000Y-81500000D01*
X120600000Y-81200000D02*
X121687500Y-81200000D01*
X120300000Y-81500000D02*
X120600000Y-81200000D01*
%TO.N,GPIO_2_CS*%
X144987347Y-83500000D02*
X144500000Y-83012653D01*
X144500000Y-83012653D02*
X144500000Y-79500000D01*
X144500000Y-79500000D02*
X144000000Y-79000000D01*
%TO.N,GPIO_10*%
X121700000Y-75100000D02*
X121700000Y-72100000D01*
X118500000Y-74300000D02*
X119400000Y-75200000D01*
X121600000Y-75200000D02*
X121700000Y-75100000D01*
X119400000Y-75200000D02*
X121600000Y-75200000D01*
%TO.N,Net-(Q2-Pad1)*%
X124500000Y-91000000D02*
X124275000Y-91000000D01*
X123925000Y-75500000D02*
X123525000Y-75100000D01*
X117500000Y-107500000D02*
X116900000Y-108100000D01*
X116900000Y-108100000D02*
X116900000Y-109000000D01*
X125000000Y-75500000D02*
X125725000Y-76225000D01*
X125725000Y-89500000D02*
X125725000Y-76225000D01*
X125000000Y-75500000D02*
X123925000Y-75500000D01*
X123500000Y-107500000D02*
X124275000Y-106725000D01*
X124275000Y-91000000D02*
X124275000Y-106725000D01*
X123500000Y-107500000D02*
X117500000Y-107500000D01*
%TO.N,Net-(Q3-Pad1)*%
X123512500Y-81200000D02*
X124700000Y-81200000D01*
X124700000Y-81200000D02*
X125000000Y-81500000D01*
X124000000Y-109000000D02*
X125000000Y-108000000D01*
X125000000Y-81500000D02*
X125000000Y-108000000D01*
X124000000Y-109000000D02*
X122500000Y-109000000D01*
%TO.N,Net-(Q4-Pad1)*%
X123525000Y-87400000D02*
X123525000Y-87975000D01*
X158000000Y-111000000D02*
X158000000Y-109000000D01*
X158000000Y-109000000D02*
X158450000Y-108550000D01*
X158450000Y-108550000D02*
X164000000Y-108550000D01*
X123025000Y-106175000D02*
X123025000Y-106375000D01*
X123525000Y-105675000D02*
X123025000Y-106175000D01*
X123525000Y-87400000D02*
X123525000Y-105675000D01*
X157225000Y-111775000D02*
X157612500Y-111387500D01*
X125175000Y-111775000D02*
X157225000Y-111775000D01*
X124425000Y-111025000D02*
X125175000Y-111775000D01*
X157612500Y-111387500D02*
X158000000Y-111000000D01*
X157500000Y-111500000D02*
X157612500Y-111387500D01*
%TO.N,BUCK_EN*%
X176905000Y-104100000D02*
X178100000Y-104100000D01*
X178100000Y-104100000D02*
X178500000Y-104500000D01*
X178500000Y-104500000D02*
X178500000Y-106000000D01*
X178825000Y-106325000D02*
X180500000Y-106325000D01*
X178500000Y-106000000D02*
X178825000Y-106325000D01*
X180500000Y-106325000D02*
X180500000Y-109075000D01*
%TO.N,BUCK_VSNS*%
X176905000Y-109500000D02*
X178000000Y-109500000D01*
X178000000Y-109500000D02*
X178500000Y-109000000D01*
X178500000Y-97900000D02*
X178500000Y-96825000D01*
X177500000Y-92500000D02*
X179500000Y-92500000D01*
X179500000Y-92500000D02*
X180000000Y-93000000D01*
X180000000Y-93000000D02*
X180000000Y-96000000D01*
X179175000Y-96825000D02*
X178500000Y-96825000D01*
X180000000Y-96000000D02*
X179175000Y-96825000D01*
%TO.N,Net-(R12-Pad2)*%
X174500000Y-95000000D02*
X178500000Y-95000000D01*
%TD*%
M02*
