%TF.GenerationSoftware,KiCad,Pcbnew,(5.1.12)-1*%
%TF.CreationDate,2022-01-05T17:05:18+08:00*%
%TF.ProjectId,orange_juice_board,6f72616e-6765-45f6-9a75-6963655f626f,rev?*%
%TF.SameCoordinates,Original*%
%TF.FileFunction,Legend,Bot*%
%TF.FilePolarity,Positive*%
%FSLAX46Y46*%
G04 Gerber Fmt 4.6, Leading zero omitted, Abs format (unit mm)*
G04 Created by KiCad (PCBNEW (5.1.12)-1) date 2022-01-05 17:05:18*
%MOMM*%
%LPD*%
G01*
G04 APERTURE LIST*
%ADD10C,0.300000*%
%ADD11C,0.150000*%
%ADD12C,0.125000*%
G04 APERTURE END LIST*
D10*
X151854732Y-69754761D02*
X151473779Y-69754761D01*
X151295208Y-69850000D01*
X151128541Y-70040476D01*
X151080922Y-70421428D01*
X151164255Y-71088095D01*
X151307113Y-71469047D01*
X151521398Y-71659523D01*
X151723779Y-71754761D01*
X152104732Y-71754761D01*
X152283303Y-71659523D01*
X152449970Y-71469047D01*
X152497589Y-71088095D01*
X152414255Y-70421428D01*
X152271398Y-70040476D01*
X152057113Y-69850000D01*
X151854732Y-69754761D01*
X150390446Y-71754761D02*
X150223779Y-70421428D01*
X150271398Y-70802380D02*
X150152351Y-70611904D01*
X150045208Y-70516666D01*
X149842827Y-70421428D01*
X149652351Y-70421428D01*
X148295208Y-71754761D02*
X148164255Y-70707142D01*
X148235684Y-70516666D01*
X148414255Y-70421428D01*
X148795208Y-70421428D01*
X148997589Y-70516666D01*
X148283303Y-71659523D02*
X148485684Y-71754761D01*
X148961875Y-71754761D01*
X149140446Y-71659523D01*
X149211875Y-71469047D01*
X149188065Y-71278571D01*
X149069017Y-71088095D01*
X148866636Y-70992857D01*
X148390446Y-70992857D01*
X148188065Y-70897619D01*
X147176160Y-70421428D02*
X147342827Y-71754761D01*
X147199970Y-70611904D02*
X147092827Y-70516666D01*
X146890446Y-70421428D01*
X146604732Y-70421428D01*
X146426160Y-70516666D01*
X146354732Y-70707142D01*
X146485684Y-71754761D01*
X144509494Y-70421428D02*
X144711875Y-72040476D01*
X144830922Y-72230952D01*
X144938065Y-72326190D01*
X145140446Y-72421428D01*
X145426160Y-72421428D01*
X145604732Y-72326190D01*
X144664255Y-71659523D02*
X144866636Y-71754761D01*
X145247589Y-71754761D01*
X145426160Y-71659523D01*
X145509494Y-71564285D01*
X145580922Y-71373809D01*
X145509494Y-70802380D01*
X145390446Y-70611904D01*
X145283303Y-70516666D01*
X145080922Y-70421428D01*
X144699970Y-70421428D01*
X144521398Y-70516666D01*
X142949970Y-71659523D02*
X143152351Y-71754761D01*
X143533303Y-71754761D01*
X143711875Y-71659523D01*
X143783303Y-71469047D01*
X143688065Y-70707142D01*
X143569017Y-70516666D01*
X143366636Y-70421428D01*
X142985684Y-70421428D01*
X142807113Y-70516666D01*
X142735684Y-70707142D01*
X142759494Y-70897619D01*
X143735684Y-71088095D01*
X139664255Y-69754761D02*
X139842827Y-71183333D01*
X139973779Y-71469047D01*
X140188065Y-71659523D01*
X140485684Y-71754761D01*
X140676160Y-71754761D01*
X137938065Y-70421428D02*
X138104732Y-71754761D01*
X138795208Y-70421428D02*
X138926160Y-71469047D01*
X138854732Y-71659523D01*
X138676160Y-71754761D01*
X138390446Y-71754761D01*
X138188065Y-71659523D01*
X138080922Y-71564285D01*
X137152351Y-71754761D02*
X136985684Y-70421428D01*
X136902351Y-69754761D02*
X137009494Y-69850000D01*
X136926160Y-69945238D01*
X136819017Y-69850000D01*
X136902351Y-69754761D01*
X136926160Y-69945238D01*
X135330922Y-71659523D02*
X135533303Y-71754761D01*
X135914255Y-71754761D01*
X136092827Y-71659523D01*
X136176160Y-71564285D01*
X136247589Y-71373809D01*
X136176160Y-70802380D01*
X136057113Y-70611904D01*
X135949970Y-70516666D01*
X135747589Y-70421428D01*
X135366636Y-70421428D01*
X135188065Y-70516666D01*
X133711875Y-71659523D02*
X133914255Y-71754761D01*
X134295208Y-71754761D01*
X134473779Y-71659523D01*
X134545208Y-71469047D01*
X134449970Y-70707142D01*
X134330922Y-70516666D01*
X134128541Y-70421428D01*
X133747589Y-70421428D01*
X133569017Y-70516666D01*
X133497589Y-70707142D01*
X133521398Y-70897619D01*
X134497589Y-71088095D01*
X131271398Y-70421428D02*
X130961875Y-71754761D01*
X130319017Y-70421428D01*
X129092827Y-69754761D02*
X128902351Y-69754761D01*
X128723779Y-69850000D01*
X128640446Y-69945238D01*
X128569017Y-70135714D01*
X128521398Y-70516666D01*
X128580922Y-70992857D01*
X128723779Y-71373809D01*
X128842827Y-71564285D01*
X128949970Y-71659523D01*
X129152351Y-71754761D01*
X129342827Y-71754761D01*
X129521398Y-71659523D01*
X129604732Y-71564285D01*
X129676160Y-71373809D01*
X129723779Y-70992857D01*
X129664255Y-70516666D01*
X129521398Y-70135714D01*
X129402351Y-69945238D01*
X129295208Y-69850000D01*
X129092827Y-69754761D01*
X127795208Y-71564285D02*
X127711875Y-71659523D01*
X127819017Y-71754761D01*
X127902351Y-71659523D01*
X127795208Y-71564285D01*
X127819017Y-71754761D01*
X126735684Y-69945238D02*
X126628541Y-69850000D01*
X126426160Y-69754761D01*
X125949970Y-69754761D01*
X125771398Y-69850000D01*
X125688065Y-69945238D01*
X125616636Y-70135714D01*
X125640446Y-70326190D01*
X125771398Y-70611904D01*
X127057113Y-71754761D01*
X125819017Y-71754761D01*
X150580922Y-75054761D02*
X150330922Y-73054761D01*
X149854732Y-73054761D01*
X149580922Y-73150000D01*
X149414255Y-73340476D01*
X149342827Y-73530952D01*
X149295208Y-73911904D01*
X149330922Y-74197619D01*
X149473779Y-74578571D01*
X149592827Y-74769047D01*
X149807113Y-74959523D01*
X150104732Y-75054761D01*
X150580922Y-75054761D01*
X147807113Y-74959523D02*
X148009494Y-75054761D01*
X148390446Y-75054761D01*
X148569017Y-74959523D01*
X148640446Y-74769047D01*
X148545208Y-74007142D01*
X148426160Y-73816666D01*
X148223779Y-73721428D01*
X147842827Y-73721428D01*
X147664255Y-73816666D01*
X147592827Y-74007142D01*
X147616636Y-74197619D01*
X148592827Y-74388095D01*
X146949970Y-74959523D02*
X146771398Y-75054761D01*
X146390446Y-75054761D01*
X146188065Y-74959523D01*
X146069017Y-74769047D01*
X146057113Y-74673809D01*
X146128541Y-74483333D01*
X146307113Y-74388095D01*
X146592827Y-74388095D01*
X146771398Y-74292857D01*
X146842827Y-74102380D01*
X146830922Y-74007142D01*
X146711875Y-73816666D01*
X146509494Y-73721428D01*
X146223779Y-73721428D01*
X146045208Y-73816666D01*
X145247589Y-75054761D02*
X145080922Y-73721428D01*
X144997589Y-73054761D02*
X145104732Y-73150000D01*
X145021398Y-73245238D01*
X144914255Y-73150000D01*
X144997589Y-73054761D01*
X145021398Y-73245238D01*
X143271398Y-73721428D02*
X143473779Y-75340476D01*
X143592827Y-75530952D01*
X143699970Y-75626190D01*
X143902351Y-75721428D01*
X144188065Y-75721428D01*
X144366636Y-75626190D01*
X143426160Y-74959523D02*
X143628541Y-75054761D01*
X144009494Y-75054761D01*
X144188065Y-74959523D01*
X144271398Y-74864285D01*
X144342827Y-74673809D01*
X144271398Y-74102380D01*
X144152351Y-73911904D01*
X144045208Y-73816666D01*
X143842827Y-73721428D01*
X143461875Y-73721428D01*
X143283303Y-73816666D01*
X142319017Y-73721428D02*
X142485684Y-75054761D01*
X142342827Y-73911904D02*
X142235684Y-73816666D01*
X142033303Y-73721428D01*
X141747589Y-73721428D01*
X141569017Y-73816666D01*
X141497589Y-74007142D01*
X141628541Y-75054761D01*
X138354732Y-74007142D02*
X138080922Y-74102380D01*
X137997589Y-74197619D01*
X137926160Y-74388095D01*
X137961875Y-74673809D01*
X138080922Y-74864285D01*
X138188065Y-74959523D01*
X138390446Y-75054761D01*
X139152351Y-75054761D01*
X138902351Y-73054761D01*
X138235684Y-73054761D01*
X138057113Y-73150000D01*
X137973779Y-73245238D01*
X137902351Y-73435714D01*
X137926160Y-73626190D01*
X138045208Y-73816666D01*
X138152351Y-73911904D01*
X138354732Y-74007142D01*
X139021398Y-74007142D01*
X137176160Y-73721428D02*
X136866636Y-75054761D01*
X136223779Y-73721428D02*
X136866636Y-75054761D01*
X137116636Y-75530952D01*
X137223779Y-75626190D01*
X137426160Y-75721428D01*
X133283303Y-73054761D02*
X133461875Y-74483333D01*
X133592827Y-74769047D01*
X133807113Y-74959523D01*
X134104732Y-75054761D01*
X134295208Y-75054761D01*
X131807113Y-74959523D02*
X132009494Y-75054761D01*
X132390446Y-75054761D01*
X132569017Y-74959523D01*
X132640446Y-74769047D01*
X132545208Y-74007142D01*
X132426160Y-73816666D01*
X132223779Y-73721428D01*
X131842827Y-73721428D01*
X131664255Y-73816666D01*
X131592827Y-74007142D01*
X131616636Y-74197619D01*
X132592827Y-74388095D01*
X130866636Y-75054761D02*
X130699970Y-73721428D01*
X130747589Y-74102380D02*
X130628541Y-73911904D01*
X130521398Y-73816666D01*
X130319017Y-73721428D01*
X130128541Y-73721428D01*
X129628541Y-75054761D02*
X129461875Y-73721428D01*
X129509494Y-74102380D02*
X129390446Y-73911904D01*
X129283303Y-73816666D01*
X129080922Y-73721428D01*
X128890446Y-73721428D01*
X128414255Y-73721428D02*
X128104732Y-75054761D01*
X127461875Y-73721428D02*
X128104732Y-75054761D01*
X128354732Y-75530952D01*
X128461875Y-75626190D01*
X128664255Y-75721428D01*
D11*
X179380952Y-119071428D02*
X178619047Y-119071428D01*
X175880952Y-119071428D02*
X175119047Y-119071428D01*
X175500000Y-119452380D02*
X175500000Y-118690476D01*
D12*
X156690476Y-116535714D02*
X156309523Y-116535714D01*
X148190476Y-116535714D02*
X147809523Y-116535714D01*
X136690476Y-116535714D02*
X136309523Y-116535714D01*
X158964285Y-116690476D02*
X158964285Y-116309523D01*
X158773809Y-116500000D02*
X159154761Y-116500000D01*
X150464285Y-116690476D02*
X150464285Y-116309523D01*
X150273809Y-116500000D02*
X150654761Y-116500000D01*
X138964285Y-116690476D02*
X138964285Y-116309523D01*
X138773809Y-116500000D02*
X139154761Y-116500000D01*
X136690476Y-116535714D02*
X136309523Y-116535714D01*
X125190476Y-116535714D02*
X124809523Y-116535714D01*
X127464285Y-116690476D02*
X127464285Y-116309523D01*
X127273809Y-116500000D02*
X127654761Y-116500000D01*
X116190476Y-116535714D02*
X115809523Y-116535714D01*
X118464285Y-116690476D02*
X118464285Y-116309523D01*
X118273809Y-116500000D02*
X118654761Y-116500000D01*
X109964285Y-107690476D02*
X109964285Y-107309523D01*
X109964285Y-110190476D02*
X109964285Y-109809523D01*
X109773809Y-110000000D02*
X110154761Y-110000000D01*
X109773809Y-98083333D02*
X110011904Y-98250000D01*
X109773809Y-98369047D02*
X110273809Y-98369047D01*
X110273809Y-98178571D01*
X110250000Y-98130952D01*
X110226190Y-98107142D01*
X110178571Y-98083333D01*
X110107142Y-98083333D01*
X110059523Y-98107142D01*
X110035714Y-98130952D01*
X110011904Y-98178571D01*
X110011904Y-98369047D01*
X110273809Y-97916666D02*
X109773809Y-97583333D01*
X110273809Y-97583333D02*
X109773809Y-97916666D01*
X110273809Y-95880952D02*
X110273809Y-95595238D01*
X109773809Y-95738095D02*
X110273809Y-95738095D01*
X110273809Y-95476190D02*
X109773809Y-95142857D01*
X110273809Y-95142857D02*
X109773809Y-95476190D01*
X110250000Y-89380952D02*
X110273809Y-89428571D01*
X110273809Y-89500000D01*
X110250000Y-89571428D01*
X110202380Y-89619047D01*
X110154761Y-89642857D01*
X110059523Y-89666666D01*
X109988095Y-89666666D01*
X109892857Y-89642857D01*
X109845238Y-89619047D01*
X109797619Y-89571428D01*
X109773809Y-89500000D01*
X109773809Y-89452380D01*
X109797619Y-89380952D01*
X109821428Y-89357142D01*
X109988095Y-89357142D01*
X109988095Y-89452380D01*
X109773809Y-89142857D02*
X110273809Y-89142857D01*
X109773809Y-88857142D01*
X110273809Y-88857142D01*
X109773809Y-88619047D02*
X110273809Y-88619047D01*
X110273809Y-88500000D01*
X110250000Y-88428571D01*
X110202380Y-88380952D01*
X110154761Y-88357142D01*
X110059523Y-88333333D01*
X109988095Y-88333333D01*
X109892857Y-88357142D01*
X109845238Y-88380952D01*
X109797619Y-88428571D01*
X109773809Y-88500000D01*
X109773809Y-88619047D01*
X110273809Y-87095238D02*
X110273809Y-86785714D01*
X110083333Y-86952380D01*
X110083333Y-86880952D01*
X110059523Y-86833333D01*
X110035714Y-86809523D01*
X109988095Y-86785714D01*
X109869047Y-86785714D01*
X109821428Y-86809523D01*
X109797619Y-86833333D01*
X109773809Y-86880952D01*
X109773809Y-87023809D01*
X109797619Y-87071428D01*
X109821428Y-87095238D01*
X110107142Y-86619047D02*
X109773809Y-86500000D01*
X110107142Y-86380952D01*
X110273809Y-86238095D02*
X110273809Y-85928571D01*
X110083333Y-86095238D01*
X110083333Y-86023809D01*
X110059523Y-85976190D01*
X110035714Y-85952380D01*
X109988095Y-85928571D01*
X109869047Y-85928571D01*
X109821428Y-85952380D01*
X109797619Y-85976190D01*
X109773809Y-86023809D01*
X109773809Y-86166666D01*
X109797619Y-86214285D01*
X109821428Y-86238095D01*
X109821428Y-84083333D02*
X109797619Y-84107142D01*
X109773809Y-84178571D01*
X109773809Y-84226190D01*
X109797619Y-84297619D01*
X109845238Y-84345238D01*
X109892857Y-84369047D01*
X109988095Y-84392857D01*
X110059523Y-84392857D01*
X110154761Y-84369047D01*
X110202380Y-84345238D01*
X110250000Y-84297619D01*
X110273809Y-84226190D01*
X110273809Y-84178571D01*
X110250000Y-84107142D01*
X110226190Y-84083333D01*
X109797619Y-83892857D02*
X109773809Y-83821428D01*
X109773809Y-83702380D01*
X109797619Y-83654761D01*
X109821428Y-83630952D01*
X109869047Y-83607142D01*
X109916666Y-83607142D01*
X109964285Y-83630952D01*
X109988095Y-83654761D01*
X110011904Y-83702380D01*
X110035714Y-83797619D01*
X110059523Y-83845238D01*
X110083333Y-83869047D01*
X110130952Y-83892857D01*
X110178571Y-83892857D01*
X110226190Y-83869047D01*
X110250000Y-83845238D01*
X110273809Y-83797619D01*
X110273809Y-83678571D01*
X110250000Y-83607142D01*
X109773809Y-82285714D02*
X110273809Y-82285714D01*
X109916666Y-82119047D01*
X110273809Y-81952380D01*
X109773809Y-81952380D01*
X109773809Y-81714285D02*
X110273809Y-81714285D01*
X109797619Y-81500000D02*
X109773809Y-81428571D01*
X109773809Y-81309523D01*
X109797619Y-81261904D01*
X109821428Y-81238095D01*
X109869047Y-81214285D01*
X109916666Y-81214285D01*
X109964285Y-81238095D01*
X109988095Y-81261904D01*
X110011904Y-81309523D01*
X110035714Y-81404761D01*
X110059523Y-81452380D01*
X110083333Y-81476190D01*
X110130952Y-81500000D01*
X110178571Y-81500000D01*
X110226190Y-81476190D01*
X110250000Y-81452380D01*
X110273809Y-81404761D01*
X110273809Y-81285714D01*
X110250000Y-81214285D01*
X110273809Y-80904761D02*
X110273809Y-80809523D01*
X110250000Y-80761904D01*
X110202380Y-80714285D01*
X110107142Y-80690476D01*
X109940476Y-80690476D01*
X109845238Y-80714285D01*
X109797619Y-80761904D01*
X109773809Y-80809523D01*
X109773809Y-80904761D01*
X109797619Y-80952380D01*
X109845238Y-81000000D01*
X109940476Y-81023809D01*
X110107142Y-81023809D01*
X110202380Y-81000000D01*
X110250000Y-80952380D01*
X110273809Y-80904761D01*
X109773809Y-79785714D02*
X110273809Y-79785714D01*
X109916666Y-79619047D01*
X110273809Y-79452380D01*
X109773809Y-79452380D01*
X110273809Y-79119047D02*
X110273809Y-79023809D01*
X110250000Y-78976190D01*
X110202380Y-78928571D01*
X110107142Y-78904761D01*
X109940476Y-78904761D01*
X109845238Y-78928571D01*
X109797619Y-78976190D01*
X109773809Y-79023809D01*
X109773809Y-79119047D01*
X109797619Y-79166666D01*
X109845238Y-79214285D01*
X109940476Y-79238095D01*
X110107142Y-79238095D01*
X110202380Y-79214285D01*
X110250000Y-79166666D01*
X110273809Y-79119047D01*
X109797619Y-78714285D02*
X109773809Y-78642857D01*
X109773809Y-78523809D01*
X109797619Y-78476190D01*
X109821428Y-78452380D01*
X109869047Y-78428571D01*
X109916666Y-78428571D01*
X109964285Y-78452380D01*
X109988095Y-78476190D01*
X110011904Y-78523809D01*
X110035714Y-78619047D01*
X110059523Y-78666666D01*
X110083333Y-78690476D01*
X110130952Y-78714285D01*
X110178571Y-78714285D01*
X110226190Y-78690476D01*
X110250000Y-78666666D01*
X110273809Y-78619047D01*
X110273809Y-78500000D01*
X110250000Y-78428571D01*
X109773809Y-78214285D02*
X110273809Y-78214285D01*
X109821428Y-76797619D02*
X109797619Y-76821428D01*
X109773809Y-76892857D01*
X109773809Y-76940476D01*
X109797619Y-77011904D01*
X109845238Y-77059523D01*
X109892857Y-77083333D01*
X109988095Y-77107142D01*
X110059523Y-77107142D01*
X110154761Y-77083333D01*
X110202380Y-77059523D01*
X110250000Y-77011904D01*
X110273809Y-76940476D01*
X110273809Y-76892857D01*
X110250000Y-76821428D01*
X110226190Y-76797619D01*
X109773809Y-76345238D02*
X109773809Y-76583333D01*
X110273809Y-76583333D01*
X109773809Y-76178571D02*
X110273809Y-76178571D01*
X109773809Y-75892857D02*
X110059523Y-76107142D01*
X110273809Y-75892857D02*
X109988095Y-76178571D01*
D11*
X186047619Y-81000000D02*
X185238095Y-81000000D01*
X185142857Y-80952380D01*
X185095238Y-80904761D01*
X185047619Y-80809523D01*
X185047619Y-80619047D01*
X185095238Y-80523809D01*
X185142857Y-80476190D01*
X185238095Y-80428571D01*
X186047619Y-80428571D01*
X185095238Y-80000000D02*
X185047619Y-79857142D01*
X185047619Y-79619047D01*
X185095238Y-79523809D01*
X185142857Y-79476190D01*
X185238095Y-79428571D01*
X185333333Y-79428571D01*
X185428571Y-79476190D01*
X185476190Y-79523809D01*
X185523809Y-79619047D01*
X185571428Y-79809523D01*
X185619047Y-79904761D01*
X185666666Y-79952380D01*
X185761904Y-80000000D01*
X185857142Y-80000000D01*
X185952380Y-79952380D01*
X186000000Y-79904761D01*
X186047619Y-79809523D01*
X186047619Y-79571428D01*
X186000000Y-79428571D01*
X185571428Y-78666666D02*
X185523809Y-78523809D01*
X185476190Y-78476190D01*
X185380952Y-78428571D01*
X185238095Y-78428571D01*
X185142857Y-78476190D01*
X185095238Y-78523809D01*
X185047619Y-78619047D01*
X185047619Y-79000000D01*
X186047619Y-79000000D01*
X186047619Y-78666666D01*
X186000000Y-78571428D01*
X185952380Y-78523809D01*
X185857142Y-78476190D01*
X185761904Y-78476190D01*
X185666666Y-78523809D01*
X185619047Y-78571428D01*
X185571428Y-78666666D01*
X185571428Y-79000000D01*
X184952380Y-78238095D02*
X184952380Y-77476190D01*
X185952380Y-77285714D02*
X186000000Y-77238095D01*
X186047619Y-77142857D01*
X186047619Y-76904761D01*
X186000000Y-76809523D01*
X185952380Y-76761904D01*
X185857142Y-76714285D01*
X185761904Y-76714285D01*
X185619047Y-76761904D01*
X185047619Y-77333333D01*
X185047619Y-76714285D01*
X186095238Y-75571428D02*
X184809523Y-76428571D01*
X186047619Y-75238095D02*
X185238095Y-75238095D01*
X185142857Y-75190476D01*
X185095238Y-75142857D01*
X185047619Y-75047619D01*
X185047619Y-74857142D01*
X185095238Y-74761904D01*
X185142857Y-74714285D01*
X185238095Y-74666666D01*
X186047619Y-74666666D01*
X185095238Y-74238095D02*
X185047619Y-74095238D01*
X185047619Y-73857142D01*
X185095238Y-73761904D01*
X185142857Y-73714285D01*
X185238095Y-73666666D01*
X185333333Y-73666666D01*
X185428571Y-73714285D01*
X185476190Y-73761904D01*
X185523809Y-73857142D01*
X185571428Y-74047619D01*
X185619047Y-74142857D01*
X185666666Y-74190476D01*
X185761904Y-74238095D01*
X185857142Y-74238095D01*
X185952380Y-74190476D01*
X186000000Y-74142857D01*
X186047619Y-74047619D01*
X186047619Y-73809523D01*
X186000000Y-73666666D01*
X185571428Y-72904761D02*
X185523809Y-72761904D01*
X185476190Y-72714285D01*
X185380952Y-72666666D01*
X185238095Y-72666666D01*
X185142857Y-72714285D01*
X185095238Y-72761904D01*
X185047619Y-72857142D01*
X185047619Y-73238095D01*
X186047619Y-73238095D01*
X186047619Y-72904761D01*
X186000000Y-72809523D01*
X185952380Y-72761904D01*
X185857142Y-72714285D01*
X185761904Y-72714285D01*
X185666666Y-72761904D01*
X185619047Y-72809523D01*
X185571428Y-72904761D01*
X185571428Y-73238095D01*
X184952380Y-72476190D02*
X184952380Y-71714285D01*
X186047619Y-71571428D02*
X186047619Y-70952380D01*
X185666666Y-71285714D01*
X185666666Y-71142857D01*
X185619047Y-71047619D01*
X185571428Y-71000000D01*
X185476190Y-70952380D01*
X185238095Y-70952380D01*
X185142857Y-71000000D01*
X185095238Y-71047619D01*
X185047619Y-71142857D01*
X185047619Y-71428571D01*
X185095238Y-71523809D01*
X185142857Y-71571428D01*
X155952380Y-82333333D02*
X155952380Y-82523809D01*
X156000000Y-82619047D01*
X156095238Y-82714285D01*
X156285714Y-82761904D01*
X156619047Y-82761904D01*
X156809523Y-82714285D01*
X156904761Y-82619047D01*
X156952380Y-82523809D01*
X156952380Y-82333333D01*
X156904761Y-82238095D01*
X156809523Y-82142857D01*
X156619047Y-82095238D01*
X156285714Y-82095238D01*
X156095238Y-82142857D01*
X156000000Y-82238095D01*
X155952380Y-82333333D01*
X156952380Y-83190476D02*
X156285714Y-83190476D01*
X156476190Y-83190476D02*
X156380952Y-83238095D01*
X156333333Y-83285714D01*
X156285714Y-83380952D01*
X156285714Y-83476190D01*
X156952380Y-84238095D02*
X156428571Y-84238095D01*
X156333333Y-84190476D01*
X156285714Y-84095238D01*
X156285714Y-83904761D01*
X156333333Y-83809523D01*
X156904761Y-84238095D02*
X156952380Y-84142857D01*
X156952380Y-83904761D01*
X156904761Y-83809523D01*
X156809523Y-83761904D01*
X156714285Y-83761904D01*
X156619047Y-83809523D01*
X156571428Y-83904761D01*
X156571428Y-84142857D01*
X156523809Y-84238095D01*
X156285714Y-84714285D02*
X156952380Y-84714285D01*
X156380952Y-84714285D02*
X156333333Y-84761904D01*
X156285714Y-84857142D01*
X156285714Y-85000000D01*
X156333333Y-85095238D01*
X156428571Y-85142857D01*
X156952380Y-85142857D01*
X156285714Y-86047619D02*
X157095238Y-86047619D01*
X157190476Y-86000000D01*
X157238095Y-85952380D01*
X157285714Y-85857142D01*
X157285714Y-85714285D01*
X157238095Y-85619047D01*
X156904761Y-86047619D02*
X156952380Y-85952380D01*
X156952380Y-85761904D01*
X156904761Y-85666666D01*
X156857142Y-85619047D01*
X156761904Y-85571428D01*
X156476190Y-85571428D01*
X156380952Y-85619047D01*
X156333333Y-85666666D01*
X156285714Y-85761904D01*
X156285714Y-85952380D01*
X156333333Y-86047619D01*
X156904761Y-86904761D02*
X156952380Y-86809523D01*
X156952380Y-86619047D01*
X156904761Y-86523809D01*
X156809523Y-86476190D01*
X156428571Y-86476190D01*
X156333333Y-86523809D01*
X156285714Y-86619047D01*
X156285714Y-86809523D01*
X156333333Y-86904761D01*
X156428571Y-86952380D01*
X156523809Y-86952380D01*
X156619047Y-86476190D01*
X156952380Y-87380952D02*
X155952380Y-87380952D01*
X155952380Y-87761904D01*
X156000000Y-87857142D01*
X156047619Y-87904761D01*
X156142857Y-87952380D01*
X156285714Y-87952380D01*
X156380952Y-87904761D01*
X156428571Y-87857142D01*
X156476190Y-87761904D01*
X156476190Y-87380952D01*
X156952380Y-88380952D02*
X156285714Y-88380952D01*
X155952380Y-88380952D02*
X156000000Y-88333333D01*
X156047619Y-88380952D01*
X156000000Y-88428571D01*
X155952380Y-88380952D01*
X156047619Y-88380952D01*
X155952380Y-89523809D02*
X155952380Y-90190476D01*
X156952380Y-89523809D01*
X156952380Y-90190476D01*
X156904761Y-90952380D02*
X156952380Y-90857142D01*
X156952380Y-90666666D01*
X156904761Y-90571428D01*
X156809523Y-90523809D01*
X156428571Y-90523809D01*
X156333333Y-90571428D01*
X156285714Y-90666666D01*
X156285714Y-90857142D01*
X156333333Y-90952380D01*
X156428571Y-91000000D01*
X156523809Y-91000000D01*
X156619047Y-90523809D01*
X156952380Y-91428571D02*
X156285714Y-91428571D01*
X156476190Y-91428571D02*
X156380952Y-91476190D01*
X156333333Y-91523809D01*
X156285714Y-91619047D01*
X156285714Y-91714285D01*
X156952380Y-92190476D02*
X156904761Y-92095238D01*
X156857142Y-92047619D01*
X156761904Y-92000000D01*
X156476190Y-92000000D01*
X156380952Y-92047619D01*
X156333333Y-92095238D01*
X156285714Y-92190476D01*
X156285714Y-92333333D01*
X156333333Y-92428571D01*
X156380952Y-92476190D01*
X156476190Y-92523809D01*
X156761904Y-92523809D01*
X156857142Y-92476190D01*
X156904761Y-92428571D01*
X156952380Y-92333333D01*
X156952380Y-92190476D01*
X156952380Y-93714285D02*
X155952380Y-93714285D01*
X156285714Y-94190476D02*
X156952380Y-94190476D01*
X156380952Y-94190476D02*
X156333333Y-94238095D01*
X156285714Y-94333333D01*
X156285714Y-94476190D01*
X156333333Y-94571428D01*
X156428571Y-94619047D01*
X156952380Y-94619047D01*
X156285714Y-94952380D02*
X156285714Y-95333333D01*
X155952380Y-95095238D02*
X156809523Y-95095238D01*
X156904761Y-95142857D01*
X156952380Y-95238095D01*
X156952380Y-95333333D01*
X156904761Y-96047619D02*
X156952380Y-95952380D01*
X156952380Y-95761904D01*
X156904761Y-95666666D01*
X156809523Y-95619047D01*
X156428571Y-95619047D01*
X156333333Y-95666666D01*
X156285714Y-95761904D01*
X156285714Y-95952380D01*
X156333333Y-96047619D01*
X156428571Y-96095238D01*
X156523809Y-96095238D01*
X156619047Y-95619047D01*
X156952380Y-96523809D02*
X156285714Y-96523809D01*
X156476190Y-96523809D02*
X156380952Y-96571428D01*
X156333333Y-96619047D01*
X156285714Y-96714285D01*
X156285714Y-96809523D01*
X156285714Y-97000000D02*
X156285714Y-97380952D01*
X156952380Y-97142857D02*
X156095238Y-97142857D01*
X156000000Y-97190476D01*
X155952380Y-97285714D01*
X155952380Y-97380952D01*
X156952380Y-98142857D02*
X156428571Y-98142857D01*
X156333333Y-98095238D01*
X156285714Y-98000000D01*
X156285714Y-97809523D01*
X156333333Y-97714285D01*
X156904761Y-98142857D02*
X156952380Y-98047619D01*
X156952380Y-97809523D01*
X156904761Y-97714285D01*
X156809523Y-97666666D01*
X156714285Y-97666666D01*
X156619047Y-97714285D01*
X156571428Y-97809523D01*
X156571428Y-98047619D01*
X156523809Y-98142857D01*
X156904761Y-99047619D02*
X156952380Y-98952380D01*
X156952380Y-98761904D01*
X156904761Y-98666666D01*
X156857142Y-98619047D01*
X156761904Y-98571428D01*
X156476190Y-98571428D01*
X156380952Y-98619047D01*
X156333333Y-98666666D01*
X156285714Y-98761904D01*
X156285714Y-98952380D01*
X156333333Y-99047619D01*
X156904761Y-99857142D02*
X156952380Y-99761904D01*
X156952380Y-99571428D01*
X156904761Y-99476190D01*
X156809523Y-99428571D01*
X156428571Y-99428571D01*
X156333333Y-99476190D01*
X156285714Y-99571428D01*
X156285714Y-99761904D01*
X156333333Y-99857142D01*
X156428571Y-99904761D01*
X156523809Y-99904761D01*
X156619047Y-99428571D01*
X120452380Y-84380952D02*
X120452380Y-84571428D01*
X120500000Y-84666666D01*
X120595238Y-84761904D01*
X120785714Y-84809523D01*
X121119047Y-84809523D01*
X121309523Y-84761904D01*
X121404761Y-84666666D01*
X121452380Y-84571428D01*
X121452380Y-84380952D01*
X121404761Y-84285714D01*
X121309523Y-84190476D01*
X121119047Y-84142857D01*
X120785714Y-84142857D01*
X120595238Y-84190476D01*
X120500000Y-84285714D01*
X120452380Y-84380952D01*
X121452380Y-85238095D02*
X120785714Y-85238095D01*
X120976190Y-85238095D02*
X120880952Y-85285714D01*
X120833333Y-85333333D01*
X120785714Y-85428571D01*
X120785714Y-85523809D01*
X121452380Y-86285714D02*
X120928571Y-86285714D01*
X120833333Y-86238095D01*
X120785714Y-86142857D01*
X120785714Y-85952380D01*
X120833333Y-85857142D01*
X121404761Y-86285714D02*
X121452380Y-86190476D01*
X121452380Y-85952380D01*
X121404761Y-85857142D01*
X121309523Y-85809523D01*
X121214285Y-85809523D01*
X121119047Y-85857142D01*
X121071428Y-85952380D01*
X121071428Y-86190476D01*
X121023809Y-86285714D01*
X120785714Y-86761904D02*
X121452380Y-86761904D01*
X120880952Y-86761904D02*
X120833333Y-86809523D01*
X120785714Y-86904761D01*
X120785714Y-87047619D01*
X120833333Y-87142857D01*
X120928571Y-87190476D01*
X121452380Y-87190476D01*
X120785714Y-88095238D02*
X121595238Y-88095238D01*
X121690476Y-88047619D01*
X121738095Y-88000000D01*
X121785714Y-87904761D01*
X121785714Y-87761904D01*
X121738095Y-87666666D01*
X121404761Y-88095238D02*
X121452380Y-88000000D01*
X121452380Y-87809523D01*
X121404761Y-87714285D01*
X121357142Y-87666666D01*
X121261904Y-87619047D01*
X120976190Y-87619047D01*
X120880952Y-87666666D01*
X120833333Y-87714285D01*
X120785714Y-87809523D01*
X120785714Y-88000000D01*
X120833333Y-88095238D01*
X121404761Y-88952380D02*
X121452380Y-88857142D01*
X121452380Y-88666666D01*
X121404761Y-88571428D01*
X121309523Y-88523809D01*
X120928571Y-88523809D01*
X120833333Y-88571428D01*
X120785714Y-88666666D01*
X120785714Y-88857142D01*
X120833333Y-88952380D01*
X120928571Y-89000000D01*
X121023809Y-89000000D01*
X121119047Y-88523809D01*
X121452380Y-89428571D02*
X120452380Y-89428571D01*
X120452380Y-89809523D01*
X120500000Y-89904761D01*
X120547619Y-89952380D01*
X120642857Y-90000000D01*
X120785714Y-90000000D01*
X120880952Y-89952380D01*
X120928571Y-89904761D01*
X120976190Y-89809523D01*
X120976190Y-89428571D01*
X121452380Y-90428571D02*
X120785714Y-90428571D01*
X120452380Y-90428571D02*
X120500000Y-90380952D01*
X120547619Y-90428571D01*
X120500000Y-90476190D01*
X120452380Y-90428571D01*
X120547619Y-90428571D01*
X120452380Y-91571428D02*
X120452380Y-92238095D01*
X121452380Y-91571428D01*
X121452380Y-92238095D01*
X121404761Y-93000000D02*
X121452380Y-92904761D01*
X121452380Y-92714285D01*
X121404761Y-92619047D01*
X121309523Y-92571428D01*
X120928571Y-92571428D01*
X120833333Y-92619047D01*
X120785714Y-92714285D01*
X120785714Y-92904761D01*
X120833333Y-93000000D01*
X120928571Y-93047619D01*
X121023809Y-93047619D01*
X121119047Y-92571428D01*
X121452380Y-93476190D02*
X120785714Y-93476190D01*
X120976190Y-93476190D02*
X120880952Y-93523809D01*
X120833333Y-93571428D01*
X120785714Y-93666666D01*
X120785714Y-93761904D01*
X121452380Y-94238095D02*
X121404761Y-94142857D01*
X121357142Y-94095238D01*
X121261904Y-94047619D01*
X120976190Y-94047619D01*
X120880952Y-94095238D01*
X120833333Y-94142857D01*
X120785714Y-94238095D01*
X120785714Y-94380952D01*
X120833333Y-94476190D01*
X120880952Y-94523809D01*
X120976190Y-94571428D01*
X121261904Y-94571428D01*
X121357142Y-94523809D01*
X121404761Y-94476190D01*
X121452380Y-94380952D01*
X121452380Y-94238095D01*
X120500000Y-96285714D02*
X120452380Y-96190476D01*
X120452380Y-96047619D01*
X120500000Y-95904761D01*
X120595238Y-95809523D01*
X120690476Y-95761904D01*
X120880952Y-95714285D01*
X121023809Y-95714285D01*
X121214285Y-95761904D01*
X121309523Y-95809523D01*
X121404761Y-95904761D01*
X121452380Y-96047619D01*
X121452380Y-96142857D01*
X121404761Y-96285714D01*
X121357142Y-96333333D01*
X121023809Y-96333333D01*
X121023809Y-96142857D01*
X121452380Y-96761904D02*
X120452380Y-96761904D01*
X120452380Y-97142857D01*
X120500000Y-97238095D01*
X120547619Y-97285714D01*
X120642857Y-97333333D01*
X120785714Y-97333333D01*
X120880952Y-97285714D01*
X120928571Y-97238095D01*
X120976190Y-97142857D01*
X120976190Y-96761904D01*
X121452380Y-97761904D02*
X120452380Y-97761904D01*
X120452380Y-98428571D02*
X120452380Y-98619047D01*
X120500000Y-98714285D01*
X120595238Y-98809523D01*
X120785714Y-98857142D01*
X121119047Y-98857142D01*
X121309523Y-98809523D01*
X121404761Y-98714285D01*
X121452380Y-98619047D01*
X121452380Y-98428571D01*
X121404761Y-98333333D01*
X121309523Y-98238095D01*
X121119047Y-98190476D01*
X120785714Y-98190476D01*
X120595238Y-98238095D01*
X120500000Y-98333333D01*
X120452380Y-98428571D01*
X166452380Y-94380952D02*
X165452380Y-94380952D01*
X166166666Y-94714285D01*
X165452380Y-95047619D01*
X166452380Y-95047619D01*
X166166666Y-95476190D02*
X166166666Y-95952380D01*
X166452380Y-95380952D02*
X165452380Y-95714285D01*
X166452380Y-96047619D01*
X165452380Y-96285714D02*
X166452380Y-96952380D01*
X165452380Y-96952380D02*
X166452380Y-96285714D01*
X165452380Y-97238095D02*
X165452380Y-97857142D01*
X165833333Y-97523809D01*
X165833333Y-97666666D01*
X165880952Y-97761904D01*
X165928571Y-97809523D01*
X166023809Y-97857142D01*
X166261904Y-97857142D01*
X166357142Y-97809523D01*
X166404761Y-97761904D01*
X166452380Y-97666666D01*
X166452380Y-97380952D01*
X166404761Y-97285714D01*
X166357142Y-97238095D01*
X166452380Y-98809523D02*
X166452380Y-98238095D01*
X166452380Y-98523809D02*
X165452380Y-98523809D01*
X165595238Y-98428571D01*
X165690476Y-98333333D01*
X165738095Y-98238095D01*
X165880952Y-99380952D02*
X165833333Y-99285714D01*
X165785714Y-99238095D01*
X165690476Y-99190476D01*
X165642857Y-99190476D01*
X165547619Y-99238095D01*
X165500000Y-99285714D01*
X165452380Y-99380952D01*
X165452380Y-99571428D01*
X165500000Y-99666666D01*
X165547619Y-99714285D01*
X165642857Y-99761904D01*
X165690476Y-99761904D01*
X165785714Y-99714285D01*
X165833333Y-99666666D01*
X165880952Y-99571428D01*
X165880952Y-99380952D01*
X165928571Y-99285714D01*
X165976190Y-99238095D01*
X166071428Y-99190476D01*
X166261904Y-99190476D01*
X166357142Y-99238095D01*
X166404761Y-99285714D01*
X166452380Y-99380952D01*
X166452380Y-99571428D01*
X166404761Y-99666666D01*
X166357142Y-99714285D01*
X166261904Y-99761904D01*
X166071428Y-99761904D01*
X165976190Y-99714285D01*
X165928571Y-99666666D01*
X165880952Y-99571428D01*
X165452380Y-100619047D02*
X165452380Y-100428571D01*
X165500000Y-100333333D01*
X165547619Y-100285714D01*
X165690476Y-100190476D01*
X165880952Y-100142857D01*
X166261904Y-100142857D01*
X166357142Y-100190476D01*
X166404761Y-100238095D01*
X166452380Y-100333333D01*
X166452380Y-100523809D01*
X166404761Y-100619047D01*
X166357142Y-100666666D01*
X166261904Y-100714285D01*
X166023809Y-100714285D01*
X165928571Y-100666666D01*
X165880952Y-100619047D01*
X165833333Y-100523809D01*
X165833333Y-100333333D01*
X165880952Y-100238095D01*
X165928571Y-100190476D01*
X166023809Y-100142857D01*
X165452380Y-101619047D02*
X165452380Y-101142857D01*
X165928571Y-101095238D01*
X165880952Y-101142857D01*
X165833333Y-101238095D01*
X165833333Y-101476190D01*
X165880952Y-101571428D01*
X165928571Y-101619047D01*
X166023809Y-101666666D01*
X166261904Y-101666666D01*
X166357142Y-101619047D01*
X166404761Y-101571428D01*
X166452380Y-101476190D01*
X166452380Y-101238095D01*
X166404761Y-101142857D01*
X166357142Y-101095238D01*
X179285714Y-113127380D02*
X179285714Y-112127380D01*
X179047619Y-112127380D01*
X178904761Y-112175000D01*
X178809523Y-112270238D01*
X178761904Y-112365476D01*
X178714285Y-112555952D01*
X178714285Y-112698809D01*
X178761904Y-112889285D01*
X178809523Y-112984523D01*
X178904761Y-113079761D01*
X179047619Y-113127380D01*
X179285714Y-113127380D01*
X177714285Y-113032142D02*
X177761904Y-113079761D01*
X177904761Y-113127380D01*
X178000000Y-113127380D01*
X178142857Y-113079761D01*
X178238095Y-112984523D01*
X178285714Y-112889285D01*
X178333333Y-112698809D01*
X178333333Y-112555952D01*
X178285714Y-112365476D01*
X178238095Y-112270238D01*
X178142857Y-112175000D01*
X178000000Y-112127380D01*
X177904761Y-112127380D01*
X177761904Y-112175000D01*
X177714285Y-112222619D01*
X177523809Y-113222619D02*
X176761904Y-113222619D01*
X176523809Y-113127380D02*
X176523809Y-112127380D01*
X176047619Y-113127380D02*
X176047619Y-112127380D01*
X175476190Y-113127380D01*
X175476190Y-112127380D01*
X179095238Y-114777380D02*
X179666666Y-114777380D01*
X179380952Y-114777380D02*
X179380952Y-113777380D01*
X179476190Y-113920238D01*
X179571428Y-114015476D01*
X179666666Y-114063095D01*
X178714285Y-113872619D02*
X178666666Y-113825000D01*
X178571428Y-113777380D01*
X178333333Y-113777380D01*
X178238095Y-113825000D01*
X178190476Y-113872619D01*
X178142857Y-113967857D01*
X178142857Y-114063095D01*
X178190476Y-114205952D01*
X178761904Y-114777380D01*
X178142857Y-114777380D01*
X177000000Y-113729761D02*
X177857142Y-115015476D01*
X176714285Y-113872619D02*
X176666666Y-113825000D01*
X176571428Y-113777380D01*
X176333333Y-113777380D01*
X176238095Y-113825000D01*
X176190476Y-113872619D01*
X176142857Y-113967857D01*
X176142857Y-114063095D01*
X176190476Y-114205952D01*
X176761904Y-114777380D01*
X176142857Y-114777380D01*
X175285714Y-114110714D02*
X175285714Y-114777380D01*
X175523809Y-113729761D02*
X175761904Y-114444047D01*
X175142857Y-114444047D01*
X174904761Y-113777380D02*
X174571428Y-114777380D01*
X174238095Y-113777380D01*
X159880952Y-114452380D02*
X159880952Y-113452380D01*
X159500000Y-113452380D01*
X159404761Y-113500000D01*
X159357142Y-113547619D01*
X159309523Y-113642857D01*
X159309523Y-113785714D01*
X159357142Y-113880952D01*
X159404761Y-113928571D01*
X159500000Y-113976190D01*
X159880952Y-113976190D01*
X158976190Y-113452380D02*
X158738095Y-114452380D01*
X158547619Y-113738095D01*
X158357142Y-114452380D01*
X158119047Y-113452380D01*
X157738095Y-114452380D02*
X157738095Y-113452380D01*
X157404761Y-114166666D01*
X157071428Y-113452380D01*
X157071428Y-114452380D01*
X156690476Y-113452380D02*
X156071428Y-113452380D01*
X156404761Y-113833333D01*
X156261904Y-113833333D01*
X156166666Y-113880952D01*
X156119047Y-113928571D01*
X156071428Y-114023809D01*
X156071428Y-114261904D01*
X156119047Y-114357142D01*
X156166666Y-114404761D01*
X156261904Y-114452380D01*
X156547619Y-114452380D01*
X156642857Y-114404761D01*
X156690476Y-114357142D01*
X151380952Y-114452380D02*
X151380952Y-113452380D01*
X151000000Y-113452380D01*
X150904761Y-113500000D01*
X150857142Y-113547619D01*
X150809523Y-113642857D01*
X150809523Y-113785714D01*
X150857142Y-113880952D01*
X150904761Y-113928571D01*
X151000000Y-113976190D01*
X151380952Y-113976190D01*
X150476190Y-113452380D02*
X150238095Y-114452380D01*
X150047619Y-113738095D01*
X149857142Y-114452380D01*
X149619047Y-113452380D01*
X149238095Y-114452380D02*
X149238095Y-113452380D01*
X148904761Y-114166666D01*
X148571428Y-113452380D01*
X148571428Y-114452380D01*
X148142857Y-113547619D02*
X148095238Y-113500000D01*
X148000000Y-113452380D01*
X147761904Y-113452380D01*
X147666666Y-113500000D01*
X147619047Y-113547619D01*
X147571428Y-113642857D01*
X147571428Y-113738095D01*
X147619047Y-113880952D01*
X148190476Y-114452380D01*
X147571428Y-114452380D01*
X139880952Y-114452380D02*
X139880952Y-113452380D01*
X139500000Y-113452380D01*
X139404761Y-113500000D01*
X139357142Y-113547619D01*
X139309523Y-113642857D01*
X139309523Y-113785714D01*
X139357142Y-113880952D01*
X139404761Y-113928571D01*
X139500000Y-113976190D01*
X139880952Y-113976190D01*
X138976190Y-113452380D02*
X138738095Y-114452380D01*
X138547619Y-113738095D01*
X138357142Y-114452380D01*
X138119047Y-113452380D01*
X137738095Y-114452380D02*
X137738095Y-113452380D01*
X137404761Y-114166666D01*
X137071428Y-113452380D01*
X137071428Y-114452380D01*
X136071428Y-114452380D02*
X136642857Y-114452380D01*
X136357142Y-114452380D02*
X136357142Y-113452380D01*
X136452380Y-113595238D01*
X136547619Y-113690476D01*
X136642857Y-113738095D01*
X130547619Y-113928571D02*
X130880952Y-113928571D01*
X130880952Y-114452380D02*
X130880952Y-113452380D01*
X130404761Y-113452380D01*
X130071428Y-114166666D02*
X129595238Y-114166666D01*
X130166666Y-114452380D02*
X129833333Y-113452380D01*
X129500000Y-114452380D01*
X129166666Y-114452380D02*
X129166666Y-113452380D01*
X128595238Y-114452380D01*
X128595238Y-113452380D01*
X128357142Y-114547619D02*
X127595238Y-114547619D01*
X126833333Y-114452380D02*
X127404761Y-114452380D01*
X127119047Y-114452380D02*
X127119047Y-113452380D01*
X127214285Y-113595238D01*
X127309523Y-113690476D01*
X127404761Y-113738095D01*
X126452380Y-113547619D02*
X126404761Y-113500000D01*
X126309523Y-113452380D01*
X126071428Y-113452380D01*
X125976190Y-113500000D01*
X125928571Y-113547619D01*
X125880952Y-113642857D01*
X125880952Y-113738095D01*
X125928571Y-113880952D01*
X126500000Y-114452380D01*
X125880952Y-114452380D01*
X124738095Y-113404761D02*
X125595238Y-114690476D01*
X124452380Y-113547619D02*
X124404761Y-113500000D01*
X124309523Y-113452380D01*
X124071428Y-113452380D01*
X123976190Y-113500000D01*
X123928571Y-113547619D01*
X123880952Y-113642857D01*
X123880952Y-113738095D01*
X123928571Y-113880952D01*
X124500000Y-114452380D01*
X123880952Y-114452380D01*
X123023809Y-113785714D02*
X123023809Y-114452380D01*
X123261904Y-113404761D02*
X123500000Y-114119047D01*
X122880952Y-114119047D01*
X122642857Y-113452380D02*
X122309523Y-114452380D01*
X121976190Y-113452380D01*
X119595238Y-113928571D02*
X119928571Y-113928571D01*
X119928571Y-114452380D02*
X119928571Y-113452380D01*
X119452380Y-113452380D01*
X119119047Y-114166666D02*
X118642857Y-114166666D01*
X119214285Y-114452380D02*
X118880952Y-113452380D01*
X118547619Y-114452380D01*
X118214285Y-114452380D02*
X118214285Y-113452380D01*
X117642857Y-114452380D01*
X117642857Y-113452380D01*
X117404761Y-114547619D02*
X116642857Y-114547619D01*
X115928571Y-113452380D02*
X116404761Y-113452380D01*
X116452380Y-113928571D01*
X116404761Y-113880952D01*
X116309523Y-113833333D01*
X116071428Y-113833333D01*
X115976190Y-113880952D01*
X115928571Y-113928571D01*
X115880952Y-114023809D01*
X115880952Y-114261904D01*
X115928571Y-114357142D01*
X115976190Y-114404761D01*
X116071428Y-114452380D01*
X116309523Y-114452380D01*
X116404761Y-114404761D01*
X116452380Y-114357142D01*
X115595238Y-113452380D02*
X115261904Y-114452380D01*
X114928571Y-113452380D01*
X112571428Y-110595238D02*
X112571428Y-110928571D01*
X112047619Y-110928571D02*
X113047619Y-110928571D01*
X113047619Y-110452380D01*
X112333333Y-110119047D02*
X112333333Y-109642857D01*
X112047619Y-110214285D02*
X113047619Y-109880952D01*
X112047619Y-109547619D01*
X112047619Y-109214285D02*
X113047619Y-109214285D01*
X112047619Y-108642857D01*
X113047619Y-108642857D01*
X111952380Y-108404761D02*
X111952380Y-107642857D01*
X113047619Y-106928571D02*
X113047619Y-107404761D01*
X112571428Y-107452380D01*
X112619047Y-107404761D01*
X112666666Y-107309523D01*
X112666666Y-107071428D01*
X112619047Y-106976190D01*
X112571428Y-106928571D01*
X112476190Y-106880952D01*
X112238095Y-106880952D01*
X112142857Y-106928571D01*
X112095238Y-106976190D01*
X112047619Y-107071428D01*
X112047619Y-107309523D01*
X112095238Y-107404761D01*
X112142857Y-107452380D01*
X113047619Y-106595238D02*
X112047619Y-106261904D01*
X113047619Y-105928571D01*
X113047619Y-98095238D02*
X112238095Y-98095238D01*
X112142857Y-98047619D01*
X112095238Y-98000000D01*
X112047619Y-97904761D01*
X112047619Y-97714285D01*
X112095238Y-97619047D01*
X112142857Y-97571428D01*
X112238095Y-97523809D01*
X113047619Y-97523809D01*
X112333333Y-97095238D02*
X112333333Y-96619047D01*
X112047619Y-97190476D02*
X113047619Y-96857142D01*
X112047619Y-96523809D01*
X112047619Y-95619047D02*
X112523809Y-95952380D01*
X112047619Y-96190476D02*
X113047619Y-96190476D01*
X113047619Y-95809523D01*
X113000000Y-95714285D01*
X112952380Y-95666666D01*
X112857142Y-95619047D01*
X112714285Y-95619047D01*
X112619047Y-95666666D01*
X112571428Y-95714285D01*
X112523809Y-95809523D01*
X112523809Y-96190476D01*
X113047619Y-95333333D02*
X113047619Y-94761904D01*
X112047619Y-95047619D02*
X113047619Y-95047619D01*
X112333333Y-86047619D02*
X112333333Y-85571428D01*
X112047619Y-86142857D02*
X113047619Y-85809523D01*
X112047619Y-85476190D01*
X112047619Y-85142857D02*
X113047619Y-85142857D01*
X113047619Y-84904761D01*
X113000000Y-84761904D01*
X112904761Y-84666666D01*
X112809523Y-84619047D01*
X112619047Y-84571428D01*
X112476190Y-84571428D01*
X112285714Y-84619047D01*
X112190476Y-84666666D01*
X112095238Y-84761904D01*
X112047619Y-84904761D01*
X112047619Y-85142857D01*
X113047619Y-84238095D02*
X112047619Y-83571428D01*
X113047619Y-83571428D02*
X112047619Y-84238095D01*
X112047619Y-82714285D02*
X112047619Y-83190476D01*
X113047619Y-83190476D01*
X113047619Y-82476190D02*
X113047619Y-81857142D01*
X112666666Y-82190476D01*
X112666666Y-82047619D01*
X112619047Y-81952380D01*
X112571428Y-81904761D01*
X112476190Y-81857142D01*
X112238095Y-81857142D01*
X112142857Y-81904761D01*
X112095238Y-81952380D01*
X112047619Y-82047619D01*
X112047619Y-82333333D01*
X112095238Y-82428571D01*
X112142857Y-82476190D01*
X112714285Y-81000000D02*
X112047619Y-81000000D01*
X113095238Y-81238095D02*
X112380952Y-81476190D01*
X112380952Y-80857142D01*
X113047619Y-80000000D02*
X113047619Y-80476190D01*
X112571428Y-80523809D01*
X112619047Y-80476190D01*
X112666666Y-80380952D01*
X112666666Y-80142857D01*
X112619047Y-80047619D01*
X112571428Y-80000000D01*
X112476190Y-79952380D01*
X112238095Y-79952380D01*
X112142857Y-80000000D01*
X112095238Y-80047619D01*
X112047619Y-80142857D01*
X112047619Y-80380952D01*
X112095238Y-80476190D01*
X112142857Y-80523809D01*
M02*
