M48
; DRILL file {KiCad (6.0.0)} date Sun Jan  9 15:34:00 2022
; FORMAT={-:-/ absolute / inch / decimal}
; #@! TF.CreationDate,2022-01-09T15:34:00+08:00
; #@! TF.GenerationSoftware,Kicad,Pcbnew,(6.0.0)
; #@! TF.FileFunction,Plated,1,4,PTH
FMAT,2
INCH
; #@! TA.AperFunction,Plated,PTH,ComponentDrill
T1C0.0118
; #@! TA.AperFunction,Plated,PTH,ViaDrill
T2C0.0157
; #@! TA.AperFunction,Plated,PTH,ComponentDrill
T3C0.0197
; #@! TA.AperFunction,Plated,PTH,ComponentDrill
T4C0.0362
; #@! TA.AperFunction,Plated,PTH,ComponentDrill
T5C0.0374
; #@! TA.AperFunction,Plated,PTH,ComponentDrill
T6C0.0394
; #@! TA.AperFunction,Plated,PTH,ComponentDrill
T7C0.0472
; #@! TA.AperFunction,Plated,PTH,ComponentDrill
T8C0.0906
; #@! TA.AperFunction,Plated,PTH,ComponentDrill
T9C0.1260
%
G90
G05
T1
X6.8764Y-3.9791
X6.8764Y-4.0264
X6.8764Y-4.0776
X6.8764Y-4.1209
X6.9236Y-3.9791
X6.9236Y-4.0264
X6.9236Y-4.0776
X6.9236Y-4.1209
T2
X4.3209Y-3.1102
X4.5084Y-3.2288
X4.7103Y-4.2766
X4.7103Y-4.312
X4.8435Y-4.188
X4.8927Y-3.5827
X4.8986Y-4.3711
X4.9498Y-3.5236
X5.25Y-4.5118
X5.7Y-4.51
X6.36Y-4.32
X6.57Y-3.94
X6.765Y-3.39
X6.765Y-3.425
X6.8Y-2.9713
X6.8Y-3.39
X6.8Y-3.425
X6.835Y-3.39
X6.835Y-3.425
X6.87Y-3.39
X6.87Y-3.425
X7.0528Y-4.2727
X7.14Y-4.43
T3
X4.1772Y-2.7165
X4.1772Y-4.6457
X4.2048Y-2.6497
X4.2048Y-2.7833
X4.2048Y-4.5789
X4.2048Y-4.7125
X4.2717Y-2.622
X4.2717Y-2.811
X4.2717Y-4.5512
X4.2717Y-4.7402
X4.3385Y-2.6497
X4.3385Y-2.7833
X4.3385Y-4.5789
X4.3385Y-4.7125
X4.3661Y-2.7165
X4.3661Y-4.6457
X6.4606Y-2.7165
X6.4606Y-4.6457
X6.4883Y-2.6497
X6.4883Y-2.7833
X6.4883Y-4.5789
X6.4883Y-4.7125
X6.5551Y-2.622
X6.5551Y-2.811
X6.5551Y-4.5512
X6.5551Y-4.7402
X6.6219Y-2.6497
X6.6219Y-2.7833
X6.6219Y-4.5789
X6.6219Y-4.7125
X6.6496Y-2.7165
X6.6496Y-4.6457
T4
X6.8922Y-2.8543
X6.8922Y-2.9528
X6.8922Y-3.0315
X6.8922Y-3.1299
X6.9954Y-2.8543
X6.9954Y-2.9528
X6.9954Y-3.0315
X6.9954Y-3.1299
T5
X4.252Y-3.0118
X4.252Y-3.1102
X4.252Y-3.2087
X4.252Y-3.3071
X4.252Y-3.4055
X4.252Y-3.5039
T6
X4.252Y-3.7598
X4.252Y-3.8583
X4.252Y-4.2323
X4.252Y-4.3307
X4.5654Y-2.9252
X4.5654Y-3.0252
X4.5654Y-3.1252
X4.5654Y-3.2252
X4.5654Y-3.3252
X4.5654Y-3.4252
X4.5654Y-3.5252
X4.5654Y-3.6252
X4.5654Y-3.7252
X4.5654Y-3.8252
X4.5654Y-3.9252
X4.5654Y-4.0252
X4.5654Y-4.1252
X4.5669Y-4.6654
X4.6654Y-2.9252
X4.6654Y-3.0252
X4.6654Y-3.1252
X4.6654Y-3.2252
X4.6654Y-3.3252
X4.6654Y-3.4252
X4.6654Y-3.5252
X4.6654Y-3.6252
X4.6654Y-3.7252
X4.6654Y-3.8252
X4.6654Y-3.9252
X4.6654Y-4.0252
X4.6654Y-4.1252
X4.6654Y-4.6654
X4.9213Y-4.6654
X5.0197Y-4.6654
X5.374Y-4.6654
X5.4724Y-4.6654
X5.8268Y-4.6654
X5.9252Y-4.6654
X6.1614Y-4.6654
X6.2598Y-2.9252
X6.2598Y-3.0252
X6.2598Y-3.1252
X6.2598Y-3.2252
X6.2598Y-3.3252
X6.2598Y-3.4252
X6.2598Y-3.5252
X6.2598Y-3.6252
X6.2598Y-3.7252
X6.2598Y-3.8252
X6.2598Y-3.9252
X6.2598Y-4.0252
X6.2598Y-4.1252
X6.2598Y-4.6654
X6.4531Y-3.6122
X6.4531Y-3.7122
X6.4531Y-3.8122
X6.4531Y-3.9122
X6.4531Y-4.0122
X6.4531Y-4.1122
T7
X6.9094Y-4.5866
X7.0472Y-4.5866
T8
X6.8784Y-2.7335
X6.8784Y-3.2508
X7.102Y-2.7335
X7.102Y-3.2508
T9
X4.2717Y-2.7165
X4.2717Y-4.6457
X6.5551Y-2.7165
X6.5551Y-4.6457
T0
M30
