%TF.GenerationSoftware,KiCad,Pcbnew,(6.0.0)*%
%TF.CreationDate,2022-01-09T15:33:56+08:00*%
%TF.ProjectId,orange_juice_board,6f72616e-6765-45f6-9a75-6963655f626f,rev?*%
%TF.SameCoordinates,Original*%
%TF.FileFunction,Paste,Top*%
%TF.FilePolarity,Positive*%
%FSLAX46Y46*%
G04 Gerber Fmt 4.6, Leading zero omitted, Abs format (unit mm)*
G04 Created by KiCad (PCBNEW (6.0.0)) date 2022-01-09 15:33:56*
%MOMM*%
%LPD*%
G01*
G04 APERTURE LIST*
G04 Aperture macros list*
%AMRoundRect*
0 Rectangle with rounded corners*
0 $1 Rounding radius*
0 $2 $3 $4 $5 $6 $7 $8 $9 X,Y pos of 4 corners*
0 Add a 4 corners polygon primitive as box body*
4,1,4,$2,$3,$4,$5,$6,$7,$8,$9,$2,$3,0*
0 Add four circle primitives for the rounded corners*
1,1,$1+$1,$2,$3*
1,1,$1+$1,$4,$5*
1,1,$1+$1,$6,$7*
1,1,$1+$1,$8,$9*
0 Add four rect primitives between the rounded corners*
20,1,$1+$1,$2,$3,$4,$5,0*
20,1,$1+$1,$4,$5,$6,$7,0*
20,1,$1+$1,$6,$7,$8,$9,0*
20,1,$1+$1,$8,$9,$2,$3,0*%
G04 Aperture macros list end*
%ADD10R,2.500000X1.800000*%
%ADD11RoundRect,0.243750X0.243750X0.456250X-0.243750X0.456250X-0.243750X-0.456250X0.243750X-0.456250X0*%
%ADD12RoundRect,0.243750X0.456250X-0.243750X0.456250X0.243750X-0.456250X0.243750X-0.456250X-0.243750X0*%
%ADD13RoundRect,0.250000X0.262500X0.450000X-0.262500X0.450000X-0.262500X-0.450000X0.262500X-0.450000X0*%
%ADD14RoundRect,0.150000X-0.150000X0.587500X-0.150000X-0.587500X0.150000X-0.587500X0.150000X0.587500X0*%
%ADD15RoundRect,0.250000X-0.262500X-0.450000X0.262500X-0.450000X0.262500X0.450000X-0.262500X0.450000X0*%
%ADD16RoundRect,0.150000X-0.587500X-0.150000X0.587500X-0.150000X0.587500X0.150000X-0.587500X0.150000X0*%
%ADD17RoundRect,0.250000X0.450000X-0.262500X0.450000X0.262500X-0.450000X0.262500X-0.450000X-0.262500X0*%
%ADD18RoundRect,0.250000X-0.450000X0.262500X-0.450000X-0.262500X0.450000X-0.262500X0.450000X0.262500X0*%
%ADD19R,2.000000X3.400000*%
%ADD20RoundRect,0.250000X-0.550000X1.500000X-0.550000X-1.500000X0.550000X-1.500000X0.550000X1.500000X0*%
%ADD21R,1.550000X0.600000*%
%ADD22R,2.600000X3.100000*%
%ADD23RoundRect,0.250000X-0.325000X-0.650000X0.325000X-0.650000X0.325000X0.650000X-0.325000X0.650000X0*%
%ADD24RoundRect,0.250000X0.250000X0.475000X-0.250000X0.475000X-0.250000X-0.475000X0.250000X-0.475000X0*%
%ADD25RoundRect,0.250000X-0.250000X-0.475000X0.250000X-0.475000X0.250000X0.475000X-0.250000X0.475000X0*%
G04 APERTURE END LIST*
D10*
%TO.C,D5*%
X179542000Y-98026000D03*
X183542000Y-98026000D03*
%TD*%
D11*
%TO.C,D4*%
X159542000Y-113226000D03*
X161417000Y-113226000D03*
%TD*%
D12*
%TO.C,D3*%
X143500000Y-118062500D03*
X143500000Y-119937500D03*
%TD*%
D13*
%TO.C,R5*%
X123525000Y-75100000D03*
X121700000Y-75100000D03*
%TD*%
D14*
%TO.C,Q2*%
X116900000Y-109062500D03*
X115000000Y-109062500D03*
X115950000Y-110937500D03*
%TD*%
D15*
%TO.C,R10*%
X159675000Y-111000000D03*
X161500000Y-111000000D03*
%TD*%
D16*
%TO.C,Q4*%
X165937500Y-109500000D03*
X164062500Y-110450000D03*
X164062500Y-108550000D03*
%TD*%
D13*
%TO.C,R6*%
X123525000Y-72390000D03*
X121700000Y-72390000D03*
%TD*%
%TO.C,R15*%
X123525000Y-84700000D03*
X121700000Y-84700000D03*
%TD*%
D17*
%TO.C,R7*%
X143500000Y-116325000D03*
X143500000Y-114500000D03*
%TD*%
D13*
%TO.C,R14*%
X123525000Y-87400000D03*
X121700000Y-87400000D03*
%TD*%
%TO.C,R9*%
X123500000Y-78500000D03*
X121675000Y-78500000D03*
%TD*%
D17*
%TO.C,R4*%
X132000000Y-114587500D03*
X132000000Y-116412500D03*
%TD*%
D12*
%TO.C,D2*%
X132000000Y-118125000D03*
X132000000Y-120000000D03*
%TD*%
D14*
%TO.C,Q3*%
X121550000Y-110937500D03*
X120600000Y-109062500D03*
X122500000Y-109062500D03*
%TD*%
D13*
%TO.C,R8*%
X123512500Y-81200000D03*
X121687500Y-81200000D03*
%TD*%
%TO.C,R2*%
X177847000Y-107950000D03*
X176022000Y-107950000D03*
%TD*%
D12*
%TO.C,D1*%
X182880000Y-118110000D03*
X182880000Y-116235000D03*
%TD*%
D14*
%TO.C,Q1*%
X181036000Y-109825000D03*
X180086000Y-107950000D03*
X181986000Y-107950000D03*
%TD*%
D13*
%TO.C,R3*%
X173990000Y-107950000D03*
X172165000Y-107950000D03*
%TD*%
D18*
%TO.C,R1*%
X182880000Y-112475000D03*
X182880000Y-114300000D03*
%TD*%
D19*
%TO.C,L1*%
X181442000Y-89526000D03*
X175742000Y-89526000D03*
%TD*%
D20*
%TO.C,C5*%
X170180000Y-89148000D03*
X170180000Y-94748000D03*
%TD*%
D21*
%TO.C,U1*%
X172560000Y-100965000D03*
X172560000Y-102235000D03*
X172560000Y-103505000D03*
X172560000Y-104775000D03*
X177960000Y-104775000D03*
X177960000Y-103505000D03*
X177960000Y-102235000D03*
X177960000Y-100965000D03*
D22*
X175260000Y-102870000D03*
%TD*%
D23*
%TO.C,C2*%
X180594000Y-102870000D03*
X183544000Y-102870000D03*
%TD*%
D15*
%TO.C,R13*%
X167997500Y-106680000D03*
X169822500Y-106680000D03*
%TD*%
D13*
%TO.C,R12*%
X169822500Y-102870000D03*
X167997500Y-102870000D03*
%TD*%
D24*
%TO.C,C3*%
X169575400Y-80772000D03*
X171475400Y-80772000D03*
%TD*%
%TO.C,C1*%
X169550000Y-78232000D03*
X171450000Y-78232000D03*
%TD*%
D25*
%TO.C,C4*%
X173990000Y-97790000D03*
X175890000Y-97790000D03*
%TD*%
D15*
%TO.C,R11*%
X167997500Y-99972500D03*
X169822500Y-99972500D03*
%TD*%
M02*
