%TF.GenerationSoftware,KiCad,Pcbnew,(5.1.12)-1*%
%TF.CreationDate,2022-01-05T17:05:18+08:00*%
%TF.ProjectId,orange_juice_board,6f72616e-6765-45f6-9a75-6963655f626f,rev?*%
%TF.SameCoordinates,Original*%
%TF.FileFunction,Copper,L3,Inr*%
%TF.FilePolarity,Positive*%
%FSLAX46Y46*%
G04 Gerber Fmt 4.6, Leading zero omitted, Abs format (unit mm)*
G04 Created by KiCad (PCBNEW (5.1.12)-1) date 2022-01-05 17:05:18*
%MOMM*%
%LPD*%
G01*
G04 APERTURE LIST*
%TA.AperFunction,ComponentPad*%
%ADD10O,1.950000X1.700000*%
%TD*%
%TA.AperFunction,ComponentPad*%
%ADD11O,1.700000X1.700000*%
%TD*%
%TA.AperFunction,ComponentPad*%
%ADD12R,1.700000X1.700000*%
%TD*%
%TA.AperFunction,ComponentPad*%
%ADD13C,0.600000*%
%TD*%
%TA.AperFunction,ComponentPad*%
%ADD14C,3.000000*%
%TD*%
%TA.AperFunction,ComponentPad*%
%ADD15R,1.500000X1.500000*%
%TD*%
%TA.AperFunction,ComponentPad*%
%ADD16C,1.500000*%
%TD*%
%TA.AperFunction,ComponentPad*%
%ADD17C,2.400000*%
%TD*%
%TA.AperFunction,ComponentPad*%
%ADD18R,2.400000X2.400000*%
%TD*%
%TA.AperFunction,ComponentPad*%
%ADD19O,2.000000X1.700000*%
%TD*%
%TA.AperFunction,ComponentPad*%
%ADD20O,1.700000X2.000000*%
%TD*%
%TA.AperFunction,ComponentPad*%
%ADD21C,0.800000*%
%TD*%
%TA.AperFunction,ComponentPad*%
%ADD22C,6.400000*%
%TD*%
%TA.AperFunction,ViaPad*%
%ADD23C,0.800000*%
%TD*%
%TA.AperFunction,Conductor*%
%ADD24C,0.254000*%
%TD*%
%TA.AperFunction,Conductor*%
%ADD25C,0.100000*%
%TD*%
G04 APERTURE END LIST*
D10*
%TO.N,SPI1_CLK*%
%TO.C,J3*%
X108000000Y-76500000D03*
%TO.N,SPI1_MOSI*%
X108000000Y-79000000D03*
%TO.N,SPI1_MISO*%
X108000000Y-81500000D03*
%TO.N,SPI1_CS*%
X108000000Y-84000000D03*
%TO.N,+3V3*%
X108000000Y-86500000D03*
%TO.N,GND*%
%TA.AperFunction,ComponentPad*%
G36*
G01*
X108725000Y-89850000D02*
X107275000Y-89850000D01*
G75*
G02*
X107025000Y-89600000I0J250000D01*
G01*
X107025000Y-88400000D01*
G75*
G02*
X107275000Y-88150000I250000J0D01*
G01*
X108725000Y-88150000D01*
G75*
G02*
X108975000Y-88400000I0J-250000D01*
G01*
X108975000Y-89600000D01*
G75*
G02*
X108725000Y-89850000I-250000J0D01*
G01*
G37*
%TD.AperFunction*%
%TD*%
D11*
%TO.N,GPIO_10*%
%TO.C,J4*%
X118500000Y-74300000D03*
%TO.N,GND*%
X115960000Y-74300000D03*
%TO.N,SPI1_CS*%
X118500000Y-76840000D03*
%TO.N,SPI1_CLK*%
X115960000Y-76840000D03*
%TO.N,GPIO_2_CLK*%
X118500000Y-79380000D03*
%TO.N,SPI1_MISO*%
X115960000Y-79380000D03*
%TO.N,GND*%
X118500000Y-81920000D03*
%TO.N,SPI1_MOSI*%
X115960000Y-81920000D03*
%TO.N,GPIO_18*%
X118500000Y-84460000D03*
%TO.N,+3V3*%
X115960000Y-84460000D03*
%TO.N,GPIO_19*%
X118500000Y-87000000D03*
%TO.N,GPIO_3_SDO*%
X115960000Y-87000000D03*
%TO.N,GND*%
X118500000Y-89540000D03*
%TO.N,GPIO_0_SDI*%
X115960000Y-89540000D03*
%TO.N,N/C*%
X118500000Y-92080000D03*
%TO.N,GPIO_1_CS*%
X115960000Y-92080000D03*
%TO.N,UART1_TX*%
X118500000Y-94620000D03*
%TO.N,GND*%
X115960000Y-94620000D03*
%TO.N,UART1_RX*%
X118500000Y-97160000D03*
%TO.N,N/C*%
X115960000Y-97160000D03*
%TO.N,GND*%
X118500000Y-99700000D03*
%TO.N,N/C*%
X115960000Y-99700000D03*
%TO.N,+5V*%
X118500000Y-102240000D03*
%TO.N,N/C*%
X115960000Y-102240000D03*
%TO.N,+5V*%
X118500000Y-104780000D03*
D12*
%TO.N,N/C*%
X115960000Y-104780000D03*
%TD*%
D13*
%TO.N,GND*%
%TO.C,U1*%
X176800000Y-106200000D03*
X175700000Y-106200000D03*
X175700000Y-107400000D03*
X176800000Y-107400000D03*
X173200000Y-106200000D03*
X174400000Y-106200000D03*
X174400000Y-107400000D03*
X173200000Y-107400000D03*
%TD*%
D14*
%TO.N,Net-(USB1-Pad9)*%
%TO.C,USB1*%
X175650000Y-69430000D03*
X175650000Y-82570000D03*
D15*
%TO.N,+5V*%
X176000000Y-79500000D03*
D16*
%TO.N,USB_DM2*%
X176000000Y-77000000D03*
%TO.N,USB_DP2*%
X176000000Y-75000000D03*
%TO.N,GND*%
X176000000Y-72500000D03*
D14*
%TO.N,Net-(USB1-Pad9)*%
X181330000Y-82570000D03*
X181330000Y-69430000D03*
D16*
%TO.N,+5V*%
X178620000Y-79500000D03*
%TO.N,USB_DM3*%
X178620000Y-77000000D03*
%TO.N,USB_DP3*%
X178620000Y-75000000D03*
%TO.N,GND*%
X178620000Y-72500000D03*
%TD*%
D17*
%TO.N,GND*%
%TO.C,J2*%
X179000000Y-116500000D03*
D18*
%TO.N,DCIN*%
X175500000Y-116500000D03*
%TD*%
D11*
%TO.N,+5V*%
%TO.C,J7*%
X159000000Y-74300000D03*
%TO.N,GND*%
X159000000Y-76840000D03*
%TO.N,USB_DM2*%
X159000000Y-79380000D03*
%TO.N,USB_DP2*%
X159000000Y-81920000D03*
%TO.N,USB_DM3*%
X159000000Y-84460000D03*
%TO.N,USB_DP3*%
X159000000Y-87000000D03*
%TO.N,N/C*%
X159000000Y-89540000D03*
X159000000Y-92080000D03*
X159000000Y-94620000D03*
X159000000Y-97160000D03*
X159000000Y-99700000D03*
X159000000Y-102240000D03*
D12*
X159000000Y-104780000D03*
%TD*%
D19*
%TO.N,GND*%
%TO.C,J8*%
X108000000Y-107500000D03*
%TO.N,+5V*%
%TA.AperFunction,ComponentPad*%
G36*
G01*
X108750000Y-110850000D02*
X107250000Y-110850000D01*
G75*
G02*
X107000000Y-110600000I0J250000D01*
G01*
X107000000Y-109400000D01*
G75*
G02*
X107250000Y-109150000I250000J0D01*
G01*
X108750000Y-109150000D01*
G75*
G02*
X109000000Y-109400000I0J-250000D01*
G01*
X109000000Y-110600000D01*
G75*
G02*
X108750000Y-110850000I-250000J0D01*
G01*
G37*
%TD.AperFunction*%
%TD*%
D20*
%TO.N,GND*%
%TO.C,J9*%
X116000000Y-118500000D03*
%TO.N,+5V*%
%TA.AperFunction,ComponentPad*%
G36*
G01*
X119350000Y-117750000D02*
X119350000Y-119250000D01*
G75*
G02*
X119100000Y-119500000I-250000J0D01*
G01*
X117900000Y-119500000D01*
G75*
G02*
X117650000Y-119250000I0J250000D01*
G01*
X117650000Y-117750000D01*
G75*
G02*
X117900000Y-117500000I250000J0D01*
G01*
X119100000Y-117500000D01*
G75*
G02*
X119350000Y-117750000I0J-250000D01*
G01*
G37*
%TD.AperFunction*%
%TD*%
%TO.N,Net-(D2-Pad1)*%
%TO.C,J10*%
X136500000Y-118500000D03*
%TO.N,DCIN*%
%TA.AperFunction,ComponentPad*%
G36*
G01*
X139850000Y-117750000D02*
X139850000Y-119250000D01*
G75*
G02*
X139600000Y-119500000I-250000J0D01*
G01*
X138400000Y-119500000D01*
G75*
G02*
X138150000Y-119250000I0J250000D01*
G01*
X138150000Y-117750000D01*
G75*
G02*
X138400000Y-117500000I250000J0D01*
G01*
X139600000Y-117500000D01*
G75*
G02*
X139850000Y-117750000I0J-250000D01*
G01*
G37*
%TD.AperFunction*%
%TD*%
D19*
%TO.N,UART1_TX*%
%TO.C,J11*%
X108000000Y-95500000D03*
%TO.N,UART1_RX*%
%TA.AperFunction,ComponentPad*%
G36*
G01*
X108750000Y-98850000D02*
X107250000Y-98850000D01*
G75*
G02*
X107000000Y-98600000I0J250000D01*
G01*
X107000000Y-97400000D01*
G75*
G02*
X107250000Y-97150000I250000J0D01*
G01*
X108750000Y-97150000D01*
G75*
G02*
X109000000Y-97400000I0J-250000D01*
G01*
X109000000Y-98600000D01*
G75*
G02*
X108750000Y-98850000I-250000J0D01*
G01*
G37*
%TD.AperFunction*%
%TD*%
D20*
%TO.N,Net-(D3-Pad1)*%
%TO.C,J12*%
X148000000Y-118500000D03*
%TO.N,DCIN*%
%TA.AperFunction,ComponentPad*%
G36*
G01*
X151350000Y-117750000D02*
X151350000Y-119250000D01*
G75*
G02*
X151100000Y-119500000I-250000J0D01*
G01*
X149900000Y-119500000D01*
G75*
G02*
X149650000Y-119250000I0J250000D01*
G01*
X149650000Y-117750000D01*
G75*
G02*
X149900000Y-117500000I250000J0D01*
G01*
X151100000Y-117500000D01*
G75*
G02*
X151350000Y-117750000I0J-250000D01*
G01*
G37*
%TD.AperFunction*%
%TD*%
%TO.N,GND*%
%TO.C,J13*%
X125000000Y-118500000D03*
%TO.N,DCIN*%
%TA.AperFunction,ComponentPad*%
G36*
G01*
X128350000Y-117750000D02*
X128350000Y-119250000D01*
G75*
G02*
X128100000Y-119500000I-250000J0D01*
G01*
X126900000Y-119500000D01*
G75*
G02*
X126650000Y-119250000I0J250000D01*
G01*
X126650000Y-117750000D01*
G75*
G02*
X126900000Y-117500000I250000J0D01*
G01*
X128100000Y-117500000D01*
G75*
G02*
X128350000Y-117750000I0J-250000D01*
G01*
G37*
%TD.AperFunction*%
%TD*%
%TO.N,Net-(D5-Pad1)*%
%TO.C,J15*%
X156500000Y-118500000D03*
%TO.N,DCIN*%
%TA.AperFunction,ComponentPad*%
G36*
G01*
X159850000Y-117750000D02*
X159850000Y-119250000D01*
G75*
G02*
X159600000Y-119500000I-250000J0D01*
G01*
X158400000Y-119500000D01*
G75*
G02*
X158150000Y-119250000I0J250000D01*
G01*
X158150000Y-117750000D01*
G75*
G02*
X158400000Y-117500000I250000J0D01*
G01*
X159600000Y-117500000D01*
G75*
G02*
X159850000Y-117750000I0J-250000D01*
G01*
G37*
%TD.AperFunction*%
%TD*%
D11*
%TO.N,GPIO_1_CS*%
%TO.C,J5*%
X163910000Y-104450000D03*
%TO.N,GPIO_0_SDI*%
X163910000Y-101910000D03*
%TO.N,GPIO_3_SDO*%
X163910000Y-99370000D03*
%TO.N,GPIO_2_CLK*%
X163910000Y-96830000D03*
%TO.N,+3V3*%
X163910000Y-94290000D03*
D12*
%TO.N,GND*%
X163910000Y-91750000D03*
%TD*%
D21*
%TO.N,N/C*%
%TO.C,H1*%
X110197056Y-67302944D03*
X108500000Y-66600000D03*
X106802944Y-67302944D03*
X106100000Y-69000000D03*
X106802944Y-70697056D03*
X108500000Y-71400000D03*
X110197056Y-70697056D03*
X110900000Y-69000000D03*
D22*
X108500000Y-69000000D03*
%TD*%
D21*
%TO.N,N/C*%
%TO.C,H2*%
X110197056Y-116302944D03*
X108500000Y-115600000D03*
X106802944Y-116302944D03*
X106100000Y-118000000D03*
X106802944Y-119697056D03*
X108500000Y-120400000D03*
X110197056Y-119697056D03*
X110900000Y-118000000D03*
D22*
X108500000Y-118000000D03*
%TD*%
D21*
%TO.N,N/C*%
%TO.C,H3*%
X168197056Y-116302944D03*
X166500000Y-115600000D03*
X164802944Y-116302944D03*
X164100000Y-118000000D03*
X164802944Y-119697056D03*
X166500000Y-120400000D03*
X168197056Y-119697056D03*
X168900000Y-118000000D03*
D22*
X166500000Y-118000000D03*
%TD*%
D21*
%TO.N,N/C*%
%TO.C,H4*%
X168197056Y-67302944D03*
X166500000Y-66600000D03*
X164802944Y-67302944D03*
X164100000Y-69000000D03*
X164802944Y-70697056D03*
X166500000Y-71400000D03*
X168197056Y-70697056D03*
X168900000Y-69000000D03*
D22*
X166500000Y-69000000D03*
%TD*%
D23*
%TO.N,GND*%
X182000000Y-116500000D03*
X163100000Y-110450000D03*
X164000000Y-111300000D03*
X181650000Y-110950000D03*
X179350000Y-110950000D03*
X182350000Y-98550000D03*
X182350000Y-99400000D03*
X183200000Y-98550000D03*
X183200000Y-99400000D03*
X175700000Y-97350000D03*
X175700000Y-98150000D03*
X176500000Y-97350000D03*
X176500000Y-98150000D03*
X167650000Y-102750000D03*
X167650000Y-101900000D03*
X166800000Y-101900000D03*
X166800000Y-102750000D03*
X164000000Y-73700000D03*
X164000000Y-72900000D03*
X163200000Y-72900000D03*
X163200000Y-73700000D03*
X123550000Y-70950000D03*
X123500000Y-77350000D03*
X119750000Y-109000000D03*
X121450000Y-109000000D03*
X123550000Y-83550000D03*
X115000000Y-108130000D03*
X114170000Y-109000000D03*
%TO.N,+5V*%
X164300000Y-84650000D03*
X164300000Y-85450000D03*
X163500000Y-85450000D03*
X163500000Y-84650000D03*
%TO.N,USB_DP2*%
X160500000Y-80500000D03*
X161000000Y-78655000D03*
%TO.N,DCIN*%
X143500000Y-113550000D03*
X161500000Y-109850000D03*
X180550000Y-101900000D03*
X179700000Y-101000000D03*
X181400000Y-101000000D03*
X133150000Y-114600000D03*
%TO.N,SPI1_MOSI*%
X109750000Y-79000000D03*
X114512653Y-82012653D03*
%TO.N,Net-(Q2-Pad1)*%
X125725000Y-89500000D03*
X124275000Y-91000000D03*
%TO.N,Net-(Q4-Pad1)*%
X124425000Y-111025000D03*
X123025000Y-106375000D03*
%TO.N,BUCK_VSNS*%
X178500000Y-109000000D03*
X178500000Y-97900000D03*
%TD*%
D24*
%TO.N,DCIN*%
X184320890Y-88641925D02*
X184489369Y-89048669D01*
X184733962Y-89414729D01*
X185045271Y-89726038D01*
X185411331Y-89970631D01*
X185818075Y-90139110D01*
X186249872Y-90225000D01*
X186690128Y-90225000D01*
X187121925Y-90139110D01*
X187528669Y-89970631D01*
X187894729Y-89726038D01*
X188206038Y-89414729D01*
X188450631Y-89048669D01*
X188619110Y-88641925D01*
X188622079Y-88627000D01*
X189340000Y-88627000D01*
X189340001Y-117967711D01*
X189282808Y-118551010D01*
X189122783Y-119081036D01*
X188862860Y-119569880D01*
X188512935Y-119998931D01*
X188086335Y-120351845D01*
X187599320Y-120615173D01*
X187070422Y-120778894D01*
X186489040Y-120840000D01*
X169083509Y-120840000D01*
X169478839Y-120444670D01*
X169898533Y-119816554D01*
X170187623Y-119118628D01*
X170335000Y-118377715D01*
X170335000Y-117700000D01*
X173661928Y-117700000D01*
X173674188Y-117824482D01*
X173710498Y-117944180D01*
X173769463Y-118054494D01*
X173848815Y-118151185D01*
X173945506Y-118230537D01*
X174055820Y-118289502D01*
X174175518Y-118325812D01*
X174300000Y-118338072D01*
X174968250Y-118335000D01*
X175127000Y-118176250D01*
X175127000Y-116873000D01*
X173823750Y-116873000D01*
X173665000Y-117031750D01*
X173661928Y-117700000D01*
X170335000Y-117700000D01*
X170335000Y-117622285D01*
X170187623Y-116881372D01*
X169898533Y-116183446D01*
X169478839Y-115555330D01*
X169223509Y-115300000D01*
X173661928Y-115300000D01*
X173665000Y-115968250D01*
X173823750Y-116127000D01*
X175127000Y-116127000D01*
X175127000Y-114823750D01*
X175873000Y-114823750D01*
X175873000Y-116127000D01*
X175893000Y-116127000D01*
X175893000Y-116873000D01*
X175873000Y-116873000D01*
X175873000Y-118176250D01*
X176031750Y-118335000D01*
X176700000Y-118338072D01*
X176824482Y-118325812D01*
X176944180Y-118289502D01*
X177054494Y-118230537D01*
X177151185Y-118151185D01*
X177230537Y-118054494D01*
X177289502Y-117944180D01*
X177325812Y-117824482D01*
X177338072Y-117700000D01*
X177336133Y-117278156D01*
X177373844Y-117369199D01*
X177574662Y-117669744D01*
X177830256Y-117925338D01*
X178130801Y-118126156D01*
X178464750Y-118264482D01*
X178819268Y-118335000D01*
X179180732Y-118335000D01*
X179535250Y-118264482D01*
X179869199Y-118126156D01*
X180169744Y-117925338D01*
X180425338Y-117669744D01*
X180626156Y-117369199D01*
X180764482Y-117035250D01*
X180835000Y-116680732D01*
X180835000Y-116398061D01*
X180965000Y-116398061D01*
X180965000Y-116601939D01*
X181004774Y-116801898D01*
X181082795Y-116990256D01*
X181196063Y-117159774D01*
X181340226Y-117303937D01*
X181509744Y-117417205D01*
X181698102Y-117495226D01*
X181898061Y-117535000D01*
X182101939Y-117535000D01*
X182301898Y-117495226D01*
X182490256Y-117417205D01*
X182659774Y-117303937D01*
X182803937Y-117159774D01*
X182917205Y-116990256D01*
X182995226Y-116801898D01*
X183035000Y-116601939D01*
X183035000Y-116398061D01*
X182995226Y-116198102D01*
X182917205Y-116009744D01*
X182803937Y-115840226D01*
X182659774Y-115696063D01*
X182490256Y-115582795D01*
X182301898Y-115504774D01*
X182101939Y-115465000D01*
X181898061Y-115465000D01*
X181698102Y-115504774D01*
X181509744Y-115582795D01*
X181340226Y-115696063D01*
X181196063Y-115840226D01*
X181082795Y-116009744D01*
X181004774Y-116198102D01*
X180965000Y-116398061D01*
X180835000Y-116398061D01*
X180835000Y-116319268D01*
X180764482Y-115964750D01*
X180626156Y-115630801D01*
X180425338Y-115330256D01*
X180169744Y-115074662D01*
X179869199Y-114873844D01*
X179535250Y-114735518D01*
X179180732Y-114665000D01*
X178819268Y-114665000D01*
X178464750Y-114735518D01*
X178130801Y-114873844D01*
X177830256Y-115074662D01*
X177574662Y-115330256D01*
X177373844Y-115630801D01*
X177336133Y-115721844D01*
X177338072Y-115300000D01*
X177325812Y-115175518D01*
X177289502Y-115055820D01*
X177230537Y-114945506D01*
X177151185Y-114848815D01*
X177054494Y-114769463D01*
X176944180Y-114710498D01*
X176824482Y-114674188D01*
X176700000Y-114661928D01*
X176031750Y-114665000D01*
X175873000Y-114823750D01*
X175127000Y-114823750D01*
X174968250Y-114665000D01*
X174300000Y-114661928D01*
X174175518Y-114674188D01*
X174055820Y-114710498D01*
X173945506Y-114769463D01*
X173848815Y-114848815D01*
X173769463Y-114945506D01*
X173710498Y-115055820D01*
X173674188Y-115175518D01*
X173661928Y-115300000D01*
X169223509Y-115300000D01*
X168944670Y-115021161D01*
X168316554Y-114601467D01*
X167618628Y-114312377D01*
X166877715Y-114165000D01*
X166122285Y-114165000D01*
X165381372Y-114312377D01*
X164683446Y-114601467D01*
X164055330Y-115021161D01*
X163521161Y-115555330D01*
X163101467Y-116183446D01*
X162812377Y-116881372D01*
X162665000Y-117622285D01*
X162665000Y-118377715D01*
X162812377Y-119118628D01*
X163101467Y-119816554D01*
X163521161Y-120444670D01*
X163916491Y-120840000D01*
X122627000Y-120840000D01*
X122627000Y-118277050D01*
X123515000Y-118277050D01*
X123515000Y-118722949D01*
X123536487Y-118941110D01*
X123621401Y-119221033D01*
X123759294Y-119479013D01*
X123944866Y-119705134D01*
X124170986Y-119890706D01*
X124428966Y-120028599D01*
X124708889Y-120113513D01*
X125000000Y-120142185D01*
X125291110Y-120113513D01*
X125571033Y-120028599D01*
X125829013Y-119890706D01*
X126049945Y-119709392D01*
X126060498Y-119744180D01*
X126119463Y-119854494D01*
X126198815Y-119951185D01*
X126295506Y-120030537D01*
X126405820Y-120089502D01*
X126525518Y-120125812D01*
X126650000Y-120138072D01*
X126968250Y-120135000D01*
X127127000Y-119976250D01*
X127127000Y-118873000D01*
X127873000Y-118873000D01*
X127873000Y-119976250D01*
X128031750Y-120135000D01*
X128350000Y-120138072D01*
X128474482Y-120125812D01*
X128594180Y-120089502D01*
X128704494Y-120030537D01*
X128801185Y-119951185D01*
X128880537Y-119854494D01*
X128939502Y-119744180D01*
X128975812Y-119624482D01*
X128988072Y-119500000D01*
X128985000Y-119031750D01*
X128826250Y-118873000D01*
X127873000Y-118873000D01*
X127127000Y-118873000D01*
X127107000Y-118873000D01*
X127107000Y-118277050D01*
X135015000Y-118277050D01*
X135015000Y-118722949D01*
X135036487Y-118941110D01*
X135121401Y-119221033D01*
X135259294Y-119479013D01*
X135444866Y-119705134D01*
X135670986Y-119890706D01*
X135928966Y-120028599D01*
X136208889Y-120113513D01*
X136500000Y-120142185D01*
X136791110Y-120113513D01*
X137071033Y-120028599D01*
X137329013Y-119890706D01*
X137549945Y-119709392D01*
X137560498Y-119744180D01*
X137619463Y-119854494D01*
X137698815Y-119951185D01*
X137795506Y-120030537D01*
X137905820Y-120089502D01*
X138025518Y-120125812D01*
X138150000Y-120138072D01*
X138468250Y-120135000D01*
X138627000Y-119976250D01*
X138627000Y-118873000D01*
X139373000Y-118873000D01*
X139373000Y-119976250D01*
X139531750Y-120135000D01*
X139850000Y-120138072D01*
X139974482Y-120125812D01*
X140094180Y-120089502D01*
X140204494Y-120030537D01*
X140301185Y-119951185D01*
X140380537Y-119854494D01*
X140439502Y-119744180D01*
X140475812Y-119624482D01*
X140488072Y-119500000D01*
X140485000Y-119031750D01*
X140326250Y-118873000D01*
X139373000Y-118873000D01*
X138627000Y-118873000D01*
X138607000Y-118873000D01*
X138607000Y-118277050D01*
X146515000Y-118277050D01*
X146515000Y-118722949D01*
X146536487Y-118941110D01*
X146621401Y-119221033D01*
X146759294Y-119479013D01*
X146944866Y-119705134D01*
X147170986Y-119890706D01*
X147428966Y-120028599D01*
X147708889Y-120113513D01*
X148000000Y-120142185D01*
X148291110Y-120113513D01*
X148571033Y-120028599D01*
X148829013Y-119890706D01*
X149049945Y-119709392D01*
X149060498Y-119744180D01*
X149119463Y-119854494D01*
X149198815Y-119951185D01*
X149295506Y-120030537D01*
X149405820Y-120089502D01*
X149525518Y-120125812D01*
X149650000Y-120138072D01*
X149968250Y-120135000D01*
X150127000Y-119976250D01*
X150127000Y-118873000D01*
X150873000Y-118873000D01*
X150873000Y-119976250D01*
X151031750Y-120135000D01*
X151350000Y-120138072D01*
X151474482Y-120125812D01*
X151594180Y-120089502D01*
X151704494Y-120030537D01*
X151801185Y-119951185D01*
X151880537Y-119854494D01*
X151939502Y-119744180D01*
X151975812Y-119624482D01*
X151988072Y-119500000D01*
X151985000Y-119031750D01*
X151826250Y-118873000D01*
X150873000Y-118873000D01*
X150127000Y-118873000D01*
X150107000Y-118873000D01*
X150107000Y-118277050D01*
X155015000Y-118277050D01*
X155015000Y-118722949D01*
X155036487Y-118941110D01*
X155121401Y-119221033D01*
X155259294Y-119479013D01*
X155444866Y-119705134D01*
X155670986Y-119890706D01*
X155928966Y-120028599D01*
X156208889Y-120113513D01*
X156500000Y-120142185D01*
X156791110Y-120113513D01*
X157071033Y-120028599D01*
X157329013Y-119890706D01*
X157549945Y-119709392D01*
X157560498Y-119744180D01*
X157619463Y-119854494D01*
X157698815Y-119951185D01*
X157795506Y-120030537D01*
X157905820Y-120089502D01*
X158025518Y-120125812D01*
X158150000Y-120138072D01*
X158468250Y-120135000D01*
X158627000Y-119976250D01*
X158627000Y-118873000D01*
X159373000Y-118873000D01*
X159373000Y-119976250D01*
X159531750Y-120135000D01*
X159850000Y-120138072D01*
X159974482Y-120125812D01*
X160094180Y-120089502D01*
X160204494Y-120030537D01*
X160301185Y-119951185D01*
X160380537Y-119854494D01*
X160439502Y-119744180D01*
X160475812Y-119624482D01*
X160488072Y-119500000D01*
X160485000Y-119031750D01*
X160326250Y-118873000D01*
X159373000Y-118873000D01*
X158627000Y-118873000D01*
X158607000Y-118873000D01*
X158607000Y-118127000D01*
X158627000Y-118127000D01*
X158627000Y-117023750D01*
X159373000Y-117023750D01*
X159373000Y-118127000D01*
X160326250Y-118127000D01*
X160485000Y-117968250D01*
X160488072Y-117500000D01*
X160475812Y-117375518D01*
X160439502Y-117255820D01*
X160380537Y-117145506D01*
X160301185Y-117048815D01*
X160204494Y-116969463D01*
X160094180Y-116910498D01*
X159974482Y-116874188D01*
X159850000Y-116861928D01*
X159531750Y-116865000D01*
X159373000Y-117023750D01*
X158627000Y-117023750D01*
X158468250Y-116865000D01*
X158150000Y-116861928D01*
X158025518Y-116874188D01*
X157905820Y-116910498D01*
X157795506Y-116969463D01*
X157698815Y-117048815D01*
X157619463Y-117145506D01*
X157560498Y-117255820D01*
X157549945Y-117290608D01*
X157329014Y-117109294D01*
X157071034Y-116971401D01*
X156791111Y-116886487D01*
X156500000Y-116857815D01*
X156208890Y-116886487D01*
X155928967Y-116971401D01*
X155670987Y-117109294D01*
X155444866Y-117294866D01*
X155259294Y-117520986D01*
X155121401Y-117778966D01*
X155036487Y-118058889D01*
X155015000Y-118277050D01*
X150107000Y-118277050D01*
X150107000Y-118127000D01*
X150127000Y-118127000D01*
X150127000Y-117023750D01*
X150873000Y-117023750D01*
X150873000Y-118127000D01*
X151826250Y-118127000D01*
X151985000Y-117968250D01*
X151988072Y-117500000D01*
X151975812Y-117375518D01*
X151939502Y-117255820D01*
X151880537Y-117145506D01*
X151801185Y-117048815D01*
X151704494Y-116969463D01*
X151594180Y-116910498D01*
X151474482Y-116874188D01*
X151350000Y-116861928D01*
X151031750Y-116865000D01*
X150873000Y-117023750D01*
X150127000Y-117023750D01*
X149968250Y-116865000D01*
X149650000Y-116861928D01*
X149525518Y-116874188D01*
X149405820Y-116910498D01*
X149295506Y-116969463D01*
X149198815Y-117048815D01*
X149119463Y-117145506D01*
X149060498Y-117255820D01*
X149049945Y-117290608D01*
X148829014Y-117109294D01*
X148571034Y-116971401D01*
X148291111Y-116886487D01*
X148000000Y-116857815D01*
X147708890Y-116886487D01*
X147428967Y-116971401D01*
X147170987Y-117109294D01*
X146944866Y-117294866D01*
X146759294Y-117520986D01*
X146621401Y-117778966D01*
X146536487Y-118058889D01*
X146515000Y-118277050D01*
X138607000Y-118277050D01*
X138607000Y-118127000D01*
X138627000Y-118127000D01*
X138627000Y-117023750D01*
X139373000Y-117023750D01*
X139373000Y-118127000D01*
X140326250Y-118127000D01*
X140485000Y-117968250D01*
X140488072Y-117500000D01*
X140475812Y-117375518D01*
X140439502Y-117255820D01*
X140380537Y-117145506D01*
X140301185Y-117048815D01*
X140204494Y-116969463D01*
X140094180Y-116910498D01*
X139974482Y-116874188D01*
X139850000Y-116861928D01*
X139531750Y-116865000D01*
X139373000Y-117023750D01*
X138627000Y-117023750D01*
X138468250Y-116865000D01*
X138150000Y-116861928D01*
X138025518Y-116874188D01*
X137905820Y-116910498D01*
X137795506Y-116969463D01*
X137698815Y-117048815D01*
X137619463Y-117145506D01*
X137560498Y-117255820D01*
X137549945Y-117290608D01*
X137329014Y-117109294D01*
X137071034Y-116971401D01*
X136791111Y-116886487D01*
X136500000Y-116857815D01*
X136208890Y-116886487D01*
X135928967Y-116971401D01*
X135670987Y-117109294D01*
X135444866Y-117294866D01*
X135259294Y-117520986D01*
X135121401Y-117778966D01*
X135036487Y-118058889D01*
X135015000Y-118277050D01*
X127107000Y-118277050D01*
X127107000Y-118127000D01*
X127127000Y-118127000D01*
X127127000Y-117023750D01*
X127873000Y-117023750D01*
X127873000Y-118127000D01*
X128826250Y-118127000D01*
X128985000Y-117968250D01*
X128988072Y-117500000D01*
X128975812Y-117375518D01*
X128939502Y-117255820D01*
X128880537Y-117145506D01*
X128801185Y-117048815D01*
X128704494Y-116969463D01*
X128594180Y-116910498D01*
X128474482Y-116874188D01*
X128350000Y-116861928D01*
X128031750Y-116865000D01*
X127873000Y-117023750D01*
X127127000Y-117023750D01*
X126968250Y-116865000D01*
X126650000Y-116861928D01*
X126525518Y-116874188D01*
X126405820Y-116910498D01*
X126295506Y-116969463D01*
X126198815Y-117048815D01*
X126119463Y-117145506D01*
X126060498Y-117255820D01*
X126049945Y-117290608D01*
X125829014Y-117109294D01*
X125571034Y-116971401D01*
X125291111Y-116886487D01*
X125000000Y-116857815D01*
X124708890Y-116886487D01*
X124428967Y-116971401D01*
X124170987Y-117109294D01*
X123944866Y-117294866D01*
X123759294Y-117520986D01*
X123621401Y-117778966D01*
X123536487Y-118058889D01*
X123515000Y-118277050D01*
X122627000Y-118277050D01*
X122627000Y-112052606D01*
X123416988Y-111262618D01*
X123429774Y-111326898D01*
X123507795Y-111515256D01*
X123621063Y-111684774D01*
X123765226Y-111828937D01*
X123934744Y-111942205D01*
X124123102Y-112020226D01*
X124323061Y-112060000D01*
X124526939Y-112060000D01*
X124726898Y-112020226D01*
X124915256Y-111942205D01*
X125084774Y-111828937D01*
X125228937Y-111684774D01*
X125342205Y-111515256D01*
X125420226Y-111326898D01*
X125460000Y-111126939D01*
X125460000Y-110923061D01*
X125420226Y-110723102D01*
X125342205Y-110534744D01*
X125228937Y-110365226D01*
X125084774Y-110221063D01*
X124915256Y-110107795D01*
X124726898Y-110029774D01*
X124662618Y-110016988D01*
X125052606Y-109627000D01*
X126666095Y-109627000D01*
X126700890Y-109801925D01*
X126869369Y-110208669D01*
X127113962Y-110574729D01*
X127425271Y-110886038D01*
X127791331Y-111130631D01*
X128198075Y-111299110D01*
X128629872Y-111385000D01*
X129070128Y-111385000D01*
X129501925Y-111299110D01*
X129908669Y-111130631D01*
X130274729Y-110886038D01*
X130586038Y-110574729D01*
X130830631Y-110208669D01*
X130999110Y-109801925D01*
X131033905Y-109627000D01*
X134727224Y-109627000D01*
X135073253Y-109810453D01*
X136493050Y-110376152D01*
X137965686Y-110785027D01*
X139473897Y-111032286D01*
X141000000Y-111115029D01*
X142526103Y-111032286D01*
X144034314Y-110785027D01*
X145506950Y-110376152D01*
X146926747Y-109810453D01*
X147272776Y-109627000D01*
X150966095Y-109627000D01*
X151000890Y-109801925D01*
X151169369Y-110208669D01*
X151413962Y-110574729D01*
X151725271Y-110886038D01*
X152091331Y-111130631D01*
X152498075Y-111299110D01*
X152929872Y-111385000D01*
X153370128Y-111385000D01*
X153801925Y-111299110D01*
X154208669Y-111130631D01*
X154574729Y-110886038D01*
X154886038Y-110574729D01*
X155037492Y-110348061D01*
X162065000Y-110348061D01*
X162065000Y-110551939D01*
X162104774Y-110751898D01*
X162182795Y-110940256D01*
X162296063Y-111109774D01*
X162440226Y-111253937D01*
X162609744Y-111367205D01*
X162798102Y-111445226D01*
X162980840Y-111481575D01*
X163004774Y-111601898D01*
X163082795Y-111790256D01*
X163196063Y-111959774D01*
X163340226Y-112103937D01*
X163509744Y-112217205D01*
X163698102Y-112295226D01*
X163898061Y-112335000D01*
X164101939Y-112335000D01*
X164301898Y-112295226D01*
X164490256Y-112217205D01*
X164659774Y-112103937D01*
X164803937Y-111959774D01*
X164917205Y-111790256D01*
X164995226Y-111601898D01*
X165035000Y-111401939D01*
X165035000Y-111198061D01*
X164995226Y-110998102D01*
X164933077Y-110848061D01*
X178315000Y-110848061D01*
X178315000Y-111051939D01*
X178354774Y-111251898D01*
X178432795Y-111440256D01*
X178546063Y-111609774D01*
X178690226Y-111753937D01*
X178859744Y-111867205D01*
X179048102Y-111945226D01*
X179248061Y-111985000D01*
X179451939Y-111985000D01*
X179651898Y-111945226D01*
X179840256Y-111867205D01*
X180009774Y-111753937D01*
X180153937Y-111609774D01*
X180267205Y-111440256D01*
X180345226Y-111251898D01*
X180385000Y-111051939D01*
X180385000Y-110848061D01*
X180615000Y-110848061D01*
X180615000Y-111051939D01*
X180654774Y-111251898D01*
X180732795Y-111440256D01*
X180846063Y-111609774D01*
X180990226Y-111753937D01*
X181159744Y-111867205D01*
X181348102Y-111945226D01*
X181548061Y-111985000D01*
X181751939Y-111985000D01*
X181951898Y-111945226D01*
X182140256Y-111867205D01*
X182309774Y-111753937D01*
X182453937Y-111609774D01*
X182567205Y-111440256D01*
X182645226Y-111251898D01*
X182685000Y-111051939D01*
X182685000Y-110848061D01*
X182645226Y-110648102D01*
X182567205Y-110459744D01*
X182453937Y-110290226D01*
X182309774Y-110146063D01*
X182140256Y-110032795D01*
X181951898Y-109954774D01*
X181751939Y-109915000D01*
X181548061Y-109915000D01*
X181348102Y-109954774D01*
X181159744Y-110032795D01*
X180990226Y-110146063D01*
X180846063Y-110290226D01*
X180732795Y-110459744D01*
X180654774Y-110648102D01*
X180615000Y-110848061D01*
X180385000Y-110848061D01*
X180345226Y-110648102D01*
X180267205Y-110459744D01*
X180153937Y-110290226D01*
X180009774Y-110146063D01*
X179840256Y-110032795D01*
X179651898Y-109954774D01*
X179451939Y-109915000D01*
X179248061Y-109915000D01*
X179048102Y-109954774D01*
X178859744Y-110032795D01*
X178690226Y-110146063D01*
X178546063Y-110290226D01*
X178432795Y-110459744D01*
X178354774Y-110648102D01*
X178315000Y-110848061D01*
X164933077Y-110848061D01*
X164917205Y-110809744D01*
X164803937Y-110640226D01*
X164659774Y-110496063D01*
X164490256Y-110382795D01*
X164301898Y-110304774D01*
X164119160Y-110268425D01*
X164095226Y-110148102D01*
X164017205Y-109959744D01*
X163903937Y-109790226D01*
X163759774Y-109646063D01*
X163590256Y-109532795D01*
X163401898Y-109454774D01*
X163201939Y-109415000D01*
X162998061Y-109415000D01*
X162798102Y-109454774D01*
X162609744Y-109532795D01*
X162440226Y-109646063D01*
X162296063Y-109790226D01*
X162182795Y-109959744D01*
X162104774Y-110148102D01*
X162065000Y-110348061D01*
X155037492Y-110348061D01*
X155130631Y-110208669D01*
X155299110Y-109801925D01*
X155333905Y-109627000D01*
X161500000Y-109627000D01*
X161524776Y-109624560D01*
X161548601Y-109617333D01*
X161570557Y-109605597D01*
X161589803Y-109589803D01*
X162281545Y-108898061D01*
X177465000Y-108898061D01*
X177465000Y-109101939D01*
X177504774Y-109301898D01*
X177582795Y-109490256D01*
X177696063Y-109659774D01*
X177840226Y-109803937D01*
X178009744Y-109917205D01*
X178198102Y-109995226D01*
X178398061Y-110035000D01*
X178601939Y-110035000D01*
X178801898Y-109995226D01*
X178990256Y-109917205D01*
X179159774Y-109803937D01*
X179303937Y-109659774D01*
X179417205Y-109490256D01*
X179495226Y-109301898D01*
X179535000Y-109101939D01*
X179535000Y-108898061D01*
X179495226Y-108698102D01*
X179417205Y-108509744D01*
X179303937Y-108340226D01*
X179159774Y-108196063D01*
X179015814Y-108099872D01*
X184225000Y-108099872D01*
X184225000Y-108540128D01*
X184310890Y-108971925D01*
X184479369Y-109378669D01*
X184723962Y-109744729D01*
X185035271Y-110056038D01*
X185401331Y-110300631D01*
X185808075Y-110469110D01*
X186239872Y-110555000D01*
X186680128Y-110555000D01*
X187111925Y-110469110D01*
X187518669Y-110300631D01*
X187884729Y-110056038D01*
X188196038Y-109744729D01*
X188440631Y-109378669D01*
X188609110Y-108971925D01*
X188695000Y-108540128D01*
X188695000Y-108099872D01*
X188609110Y-107668075D01*
X188440631Y-107261331D01*
X188196038Y-106895271D01*
X187884729Y-106583962D01*
X187518669Y-106339369D01*
X187111925Y-106170890D01*
X186680128Y-106085000D01*
X186239872Y-106085000D01*
X185808075Y-106170890D01*
X185401331Y-106339369D01*
X185035271Y-106583962D01*
X184723962Y-106895271D01*
X184479369Y-107261331D01*
X184310890Y-107668075D01*
X184225000Y-108099872D01*
X179015814Y-108099872D01*
X178990256Y-108082795D01*
X178801898Y-108004774D01*
X178601939Y-107965000D01*
X178398061Y-107965000D01*
X178198102Y-108004774D01*
X178009744Y-108082795D01*
X177840226Y-108196063D01*
X177696063Y-108340226D01*
X177582795Y-108509744D01*
X177504774Y-108698102D01*
X177465000Y-108898061D01*
X162281545Y-108898061D01*
X164089803Y-107089803D01*
X164105597Y-107070557D01*
X164117333Y-107048601D01*
X164124560Y-107024776D01*
X164127000Y-107000000D01*
X164127000Y-106107911D01*
X172265000Y-106107911D01*
X172265000Y-106292089D01*
X172300932Y-106472729D01*
X172371414Y-106642889D01*
X172473738Y-106796028D01*
X172477710Y-106800000D01*
X172473738Y-106803972D01*
X172371414Y-106957111D01*
X172300932Y-107127271D01*
X172265000Y-107307911D01*
X172265000Y-107492089D01*
X172300932Y-107672729D01*
X172371414Y-107842889D01*
X172473738Y-107996028D01*
X172603972Y-108126262D01*
X172757111Y-108228586D01*
X172927271Y-108299068D01*
X173107911Y-108335000D01*
X173292089Y-108335000D01*
X173472729Y-108299068D01*
X173642889Y-108228586D01*
X173796028Y-108126262D01*
X173800000Y-108122290D01*
X173803972Y-108126262D01*
X173957111Y-108228586D01*
X174127271Y-108299068D01*
X174307911Y-108335000D01*
X174492089Y-108335000D01*
X174672729Y-108299068D01*
X174842889Y-108228586D01*
X174996028Y-108126262D01*
X175050000Y-108072290D01*
X175103972Y-108126262D01*
X175257111Y-108228586D01*
X175427271Y-108299068D01*
X175607911Y-108335000D01*
X175792089Y-108335000D01*
X175972729Y-108299068D01*
X176142889Y-108228586D01*
X176250000Y-108157017D01*
X176357111Y-108228586D01*
X176527271Y-108299068D01*
X176707911Y-108335000D01*
X176892089Y-108335000D01*
X177072729Y-108299068D01*
X177242889Y-108228586D01*
X177396028Y-108126262D01*
X177526262Y-107996028D01*
X177628586Y-107842889D01*
X177699068Y-107672729D01*
X177735000Y-107492089D01*
X177735000Y-107307911D01*
X177699068Y-107127271D01*
X177628586Y-106957111D01*
X177526262Y-106803972D01*
X177522290Y-106800000D01*
X177526262Y-106796028D01*
X177628586Y-106642889D01*
X177699068Y-106472729D01*
X177735000Y-106292089D01*
X177735000Y-106107911D01*
X177699068Y-105927271D01*
X177628586Y-105757111D01*
X177526262Y-105603972D01*
X177396028Y-105473738D01*
X177242889Y-105371414D01*
X177072729Y-105300932D01*
X176892089Y-105265000D01*
X176707911Y-105265000D01*
X176527271Y-105300932D01*
X176357111Y-105371414D01*
X176250000Y-105442983D01*
X176142889Y-105371414D01*
X175972729Y-105300932D01*
X175792089Y-105265000D01*
X175607911Y-105265000D01*
X175427271Y-105300932D01*
X175257111Y-105371414D01*
X175103972Y-105473738D01*
X175050000Y-105527710D01*
X174996028Y-105473738D01*
X174842889Y-105371414D01*
X174672729Y-105300932D01*
X174492089Y-105265000D01*
X174307911Y-105265000D01*
X174127271Y-105300932D01*
X173957111Y-105371414D01*
X173803972Y-105473738D01*
X173800000Y-105477710D01*
X173796028Y-105473738D01*
X173642889Y-105371414D01*
X173472729Y-105300932D01*
X173292089Y-105265000D01*
X173107911Y-105265000D01*
X172927271Y-105300932D01*
X172757111Y-105371414D01*
X172603972Y-105473738D01*
X172473738Y-105603972D01*
X172371414Y-105757111D01*
X172300932Y-105927271D01*
X172265000Y-106107911D01*
X164127000Y-106107911D01*
X164127000Y-105920929D01*
X164343158Y-105877932D01*
X164613411Y-105765990D01*
X164856632Y-105603475D01*
X165063475Y-105396632D01*
X165225990Y-105153411D01*
X165337932Y-104883158D01*
X165395000Y-104596260D01*
X165395000Y-104303740D01*
X165337932Y-104016842D01*
X165225990Y-103746589D01*
X165063475Y-103503368D01*
X164856632Y-103296525D01*
X164682240Y-103180000D01*
X164856632Y-103063475D01*
X165063475Y-102856632D01*
X165225990Y-102613411D01*
X165337932Y-102343158D01*
X165395000Y-102056260D01*
X165395000Y-101798061D01*
X165765000Y-101798061D01*
X165765000Y-102001939D01*
X165804774Y-102201898D01*
X165855765Y-102325000D01*
X165804774Y-102448102D01*
X165765000Y-102648061D01*
X165765000Y-102851939D01*
X165804774Y-103051898D01*
X165882795Y-103240256D01*
X165996063Y-103409774D01*
X166140226Y-103553937D01*
X166309744Y-103667205D01*
X166498102Y-103745226D01*
X166698061Y-103785000D01*
X166901939Y-103785000D01*
X167101898Y-103745226D01*
X167225000Y-103694235D01*
X167348102Y-103745226D01*
X167548061Y-103785000D01*
X167751939Y-103785000D01*
X167951898Y-103745226D01*
X168140256Y-103667205D01*
X168309774Y-103553937D01*
X168453937Y-103409774D01*
X168567205Y-103240256D01*
X168645226Y-103051898D01*
X168685000Y-102851939D01*
X168685000Y-102648061D01*
X168645226Y-102448102D01*
X168594235Y-102325000D01*
X168645226Y-102201898D01*
X168685000Y-102001939D01*
X168685000Y-101798061D01*
X168645226Y-101598102D01*
X168567205Y-101409744D01*
X168453937Y-101240226D01*
X168309774Y-101096063D01*
X168140256Y-100982795D01*
X167951898Y-100904774D01*
X167751939Y-100865000D01*
X167548061Y-100865000D01*
X167348102Y-100904774D01*
X167225000Y-100955765D01*
X167101898Y-100904774D01*
X166901939Y-100865000D01*
X166698061Y-100865000D01*
X166498102Y-100904774D01*
X166309744Y-100982795D01*
X166140226Y-101096063D01*
X165996063Y-101240226D01*
X165882795Y-101409744D01*
X165804774Y-101598102D01*
X165765000Y-101798061D01*
X165395000Y-101798061D01*
X165395000Y-101763740D01*
X165337932Y-101476842D01*
X165225990Y-101206589D01*
X165063475Y-100963368D01*
X164856632Y-100756525D01*
X164682240Y-100640000D01*
X164856632Y-100523475D01*
X165063475Y-100316632D01*
X165225990Y-100073411D01*
X165337932Y-99803158D01*
X165395000Y-99516260D01*
X165395000Y-99223740D01*
X165337932Y-98936842D01*
X165225990Y-98666589D01*
X165063475Y-98423368D01*
X164856632Y-98216525D01*
X164682240Y-98100000D01*
X164856632Y-97983475D01*
X165063475Y-97776632D01*
X165225990Y-97533411D01*
X165337932Y-97263158D01*
X165340935Y-97248061D01*
X174665000Y-97248061D01*
X174665000Y-97451939D01*
X174704774Y-97651898D01*
X174745409Y-97750000D01*
X174704774Y-97848102D01*
X174665000Y-98048061D01*
X174665000Y-98251939D01*
X174704774Y-98451898D01*
X174782795Y-98640256D01*
X174896063Y-98809774D01*
X175040226Y-98953937D01*
X175209744Y-99067205D01*
X175398102Y-99145226D01*
X175598061Y-99185000D01*
X175801939Y-99185000D01*
X176001898Y-99145226D01*
X176100000Y-99104591D01*
X176198102Y-99145226D01*
X176398061Y-99185000D01*
X176601939Y-99185000D01*
X176801898Y-99145226D01*
X176990256Y-99067205D01*
X177159774Y-98953937D01*
X177303937Y-98809774D01*
X177417205Y-98640256D01*
X177495226Y-98451898D01*
X177531919Y-98267430D01*
X177582795Y-98390256D01*
X177696063Y-98559774D01*
X177840226Y-98703937D01*
X178009744Y-98817205D01*
X178198102Y-98895226D01*
X178398061Y-98935000D01*
X178601939Y-98935000D01*
X178801898Y-98895226D01*
X178990256Y-98817205D01*
X179159774Y-98703937D01*
X179303937Y-98559774D01*
X179378581Y-98448061D01*
X181315000Y-98448061D01*
X181315000Y-98651939D01*
X181354774Y-98851898D01*
X181405765Y-98975000D01*
X181354774Y-99098102D01*
X181315000Y-99298061D01*
X181315000Y-99501939D01*
X181354774Y-99701898D01*
X181432795Y-99890256D01*
X181546063Y-100059774D01*
X181690226Y-100203937D01*
X181859744Y-100317205D01*
X182048102Y-100395226D01*
X182248061Y-100435000D01*
X182451939Y-100435000D01*
X182651898Y-100395226D01*
X182775000Y-100344235D01*
X182898102Y-100395226D01*
X183098061Y-100435000D01*
X183301939Y-100435000D01*
X183501898Y-100395226D01*
X183690256Y-100317205D01*
X183859774Y-100203937D01*
X184003937Y-100059774D01*
X184117205Y-99890256D01*
X184195226Y-99701898D01*
X184235000Y-99501939D01*
X184235000Y-99298061D01*
X184195226Y-99098102D01*
X184144235Y-98975000D01*
X184195226Y-98851898D01*
X184235000Y-98651939D01*
X184235000Y-98448061D01*
X184195226Y-98248102D01*
X184117205Y-98059744D01*
X184003937Y-97890226D01*
X183859774Y-97746063D01*
X183690256Y-97632795D01*
X183501898Y-97554774D01*
X183301939Y-97515000D01*
X183098061Y-97515000D01*
X182898102Y-97554774D01*
X182775000Y-97605765D01*
X182651898Y-97554774D01*
X182451939Y-97515000D01*
X182248061Y-97515000D01*
X182048102Y-97554774D01*
X181859744Y-97632795D01*
X181690226Y-97746063D01*
X181546063Y-97890226D01*
X181432795Y-98059744D01*
X181354774Y-98248102D01*
X181315000Y-98448061D01*
X179378581Y-98448061D01*
X179417205Y-98390256D01*
X179495226Y-98201898D01*
X179535000Y-98001939D01*
X179535000Y-97798061D01*
X179495226Y-97598102D01*
X179417205Y-97409744D01*
X179303937Y-97240226D01*
X179159774Y-97096063D01*
X178990256Y-96982795D01*
X178801898Y-96904774D01*
X178601939Y-96865000D01*
X178398061Y-96865000D01*
X178198102Y-96904774D01*
X178009744Y-96982795D01*
X177840226Y-97096063D01*
X177696063Y-97240226D01*
X177582795Y-97409744D01*
X177506991Y-97592749D01*
X177535000Y-97451939D01*
X177535000Y-97248061D01*
X177495226Y-97048102D01*
X177417205Y-96859744D01*
X177303937Y-96690226D01*
X177159774Y-96546063D01*
X176990256Y-96432795D01*
X176801898Y-96354774D01*
X176601939Y-96315000D01*
X176398061Y-96315000D01*
X176198102Y-96354774D01*
X176100000Y-96395409D01*
X176001898Y-96354774D01*
X175801939Y-96315000D01*
X175598061Y-96315000D01*
X175398102Y-96354774D01*
X175209744Y-96432795D01*
X175040226Y-96546063D01*
X174896063Y-96690226D01*
X174782795Y-96859744D01*
X174704774Y-97048102D01*
X174665000Y-97248061D01*
X165340935Y-97248061D01*
X165395000Y-96976260D01*
X165395000Y-96683740D01*
X165337932Y-96396842D01*
X165225990Y-96126589D01*
X165063475Y-95883368D01*
X164856632Y-95676525D01*
X164682240Y-95560000D01*
X164856632Y-95443475D01*
X165063475Y-95236632D01*
X165225990Y-94993411D01*
X165337932Y-94723158D01*
X165395000Y-94436260D01*
X165395000Y-94143740D01*
X165337932Y-93856842D01*
X165225990Y-93586589D01*
X165063475Y-93343368D01*
X164931620Y-93211513D01*
X165004180Y-93189502D01*
X165114494Y-93130537D01*
X165211185Y-93051185D01*
X165290537Y-92954494D01*
X165349502Y-92844180D01*
X165385812Y-92724482D01*
X165398072Y-92600000D01*
X165398072Y-90900000D01*
X165385812Y-90775518D01*
X165349502Y-90655820D01*
X165290537Y-90545506D01*
X165211185Y-90448815D01*
X165114494Y-90369463D01*
X165004180Y-90310498D01*
X164884482Y-90274188D01*
X164760000Y-90261928D01*
X164127000Y-90261928D01*
X164127000Y-90063500D01*
X166042333Y-88627000D01*
X184317921Y-88627000D01*
X184320890Y-88641925D01*
%TA.AperFunction,Conductor*%
D25*
G36*
X184320890Y-88641925D02*
G01*
X184489369Y-89048669D01*
X184733962Y-89414729D01*
X185045271Y-89726038D01*
X185411331Y-89970631D01*
X185818075Y-90139110D01*
X186249872Y-90225000D01*
X186690128Y-90225000D01*
X187121925Y-90139110D01*
X187528669Y-89970631D01*
X187894729Y-89726038D01*
X188206038Y-89414729D01*
X188450631Y-89048669D01*
X188619110Y-88641925D01*
X188622079Y-88627000D01*
X189340000Y-88627000D01*
X189340001Y-117967711D01*
X189282808Y-118551010D01*
X189122783Y-119081036D01*
X188862860Y-119569880D01*
X188512935Y-119998931D01*
X188086335Y-120351845D01*
X187599320Y-120615173D01*
X187070422Y-120778894D01*
X186489040Y-120840000D01*
X169083509Y-120840000D01*
X169478839Y-120444670D01*
X169898533Y-119816554D01*
X170187623Y-119118628D01*
X170335000Y-118377715D01*
X170335000Y-117700000D01*
X173661928Y-117700000D01*
X173674188Y-117824482D01*
X173710498Y-117944180D01*
X173769463Y-118054494D01*
X173848815Y-118151185D01*
X173945506Y-118230537D01*
X174055820Y-118289502D01*
X174175518Y-118325812D01*
X174300000Y-118338072D01*
X174968250Y-118335000D01*
X175127000Y-118176250D01*
X175127000Y-116873000D01*
X173823750Y-116873000D01*
X173665000Y-117031750D01*
X173661928Y-117700000D01*
X170335000Y-117700000D01*
X170335000Y-117622285D01*
X170187623Y-116881372D01*
X169898533Y-116183446D01*
X169478839Y-115555330D01*
X169223509Y-115300000D01*
X173661928Y-115300000D01*
X173665000Y-115968250D01*
X173823750Y-116127000D01*
X175127000Y-116127000D01*
X175127000Y-114823750D01*
X175873000Y-114823750D01*
X175873000Y-116127000D01*
X175893000Y-116127000D01*
X175893000Y-116873000D01*
X175873000Y-116873000D01*
X175873000Y-118176250D01*
X176031750Y-118335000D01*
X176700000Y-118338072D01*
X176824482Y-118325812D01*
X176944180Y-118289502D01*
X177054494Y-118230537D01*
X177151185Y-118151185D01*
X177230537Y-118054494D01*
X177289502Y-117944180D01*
X177325812Y-117824482D01*
X177338072Y-117700000D01*
X177336133Y-117278156D01*
X177373844Y-117369199D01*
X177574662Y-117669744D01*
X177830256Y-117925338D01*
X178130801Y-118126156D01*
X178464750Y-118264482D01*
X178819268Y-118335000D01*
X179180732Y-118335000D01*
X179535250Y-118264482D01*
X179869199Y-118126156D01*
X180169744Y-117925338D01*
X180425338Y-117669744D01*
X180626156Y-117369199D01*
X180764482Y-117035250D01*
X180835000Y-116680732D01*
X180835000Y-116398061D01*
X180965000Y-116398061D01*
X180965000Y-116601939D01*
X181004774Y-116801898D01*
X181082795Y-116990256D01*
X181196063Y-117159774D01*
X181340226Y-117303937D01*
X181509744Y-117417205D01*
X181698102Y-117495226D01*
X181898061Y-117535000D01*
X182101939Y-117535000D01*
X182301898Y-117495226D01*
X182490256Y-117417205D01*
X182659774Y-117303937D01*
X182803937Y-117159774D01*
X182917205Y-116990256D01*
X182995226Y-116801898D01*
X183035000Y-116601939D01*
X183035000Y-116398061D01*
X182995226Y-116198102D01*
X182917205Y-116009744D01*
X182803937Y-115840226D01*
X182659774Y-115696063D01*
X182490256Y-115582795D01*
X182301898Y-115504774D01*
X182101939Y-115465000D01*
X181898061Y-115465000D01*
X181698102Y-115504774D01*
X181509744Y-115582795D01*
X181340226Y-115696063D01*
X181196063Y-115840226D01*
X181082795Y-116009744D01*
X181004774Y-116198102D01*
X180965000Y-116398061D01*
X180835000Y-116398061D01*
X180835000Y-116319268D01*
X180764482Y-115964750D01*
X180626156Y-115630801D01*
X180425338Y-115330256D01*
X180169744Y-115074662D01*
X179869199Y-114873844D01*
X179535250Y-114735518D01*
X179180732Y-114665000D01*
X178819268Y-114665000D01*
X178464750Y-114735518D01*
X178130801Y-114873844D01*
X177830256Y-115074662D01*
X177574662Y-115330256D01*
X177373844Y-115630801D01*
X177336133Y-115721844D01*
X177338072Y-115300000D01*
X177325812Y-115175518D01*
X177289502Y-115055820D01*
X177230537Y-114945506D01*
X177151185Y-114848815D01*
X177054494Y-114769463D01*
X176944180Y-114710498D01*
X176824482Y-114674188D01*
X176700000Y-114661928D01*
X176031750Y-114665000D01*
X175873000Y-114823750D01*
X175127000Y-114823750D01*
X174968250Y-114665000D01*
X174300000Y-114661928D01*
X174175518Y-114674188D01*
X174055820Y-114710498D01*
X173945506Y-114769463D01*
X173848815Y-114848815D01*
X173769463Y-114945506D01*
X173710498Y-115055820D01*
X173674188Y-115175518D01*
X173661928Y-115300000D01*
X169223509Y-115300000D01*
X168944670Y-115021161D01*
X168316554Y-114601467D01*
X167618628Y-114312377D01*
X166877715Y-114165000D01*
X166122285Y-114165000D01*
X165381372Y-114312377D01*
X164683446Y-114601467D01*
X164055330Y-115021161D01*
X163521161Y-115555330D01*
X163101467Y-116183446D01*
X162812377Y-116881372D01*
X162665000Y-117622285D01*
X162665000Y-118377715D01*
X162812377Y-119118628D01*
X163101467Y-119816554D01*
X163521161Y-120444670D01*
X163916491Y-120840000D01*
X122627000Y-120840000D01*
X122627000Y-118277050D01*
X123515000Y-118277050D01*
X123515000Y-118722949D01*
X123536487Y-118941110D01*
X123621401Y-119221033D01*
X123759294Y-119479013D01*
X123944866Y-119705134D01*
X124170986Y-119890706D01*
X124428966Y-120028599D01*
X124708889Y-120113513D01*
X125000000Y-120142185D01*
X125291110Y-120113513D01*
X125571033Y-120028599D01*
X125829013Y-119890706D01*
X126049945Y-119709392D01*
X126060498Y-119744180D01*
X126119463Y-119854494D01*
X126198815Y-119951185D01*
X126295506Y-120030537D01*
X126405820Y-120089502D01*
X126525518Y-120125812D01*
X126650000Y-120138072D01*
X126968250Y-120135000D01*
X127127000Y-119976250D01*
X127127000Y-118873000D01*
X127873000Y-118873000D01*
X127873000Y-119976250D01*
X128031750Y-120135000D01*
X128350000Y-120138072D01*
X128474482Y-120125812D01*
X128594180Y-120089502D01*
X128704494Y-120030537D01*
X128801185Y-119951185D01*
X128880537Y-119854494D01*
X128939502Y-119744180D01*
X128975812Y-119624482D01*
X128988072Y-119500000D01*
X128985000Y-119031750D01*
X128826250Y-118873000D01*
X127873000Y-118873000D01*
X127127000Y-118873000D01*
X127107000Y-118873000D01*
X127107000Y-118277050D01*
X135015000Y-118277050D01*
X135015000Y-118722949D01*
X135036487Y-118941110D01*
X135121401Y-119221033D01*
X135259294Y-119479013D01*
X135444866Y-119705134D01*
X135670986Y-119890706D01*
X135928966Y-120028599D01*
X136208889Y-120113513D01*
X136500000Y-120142185D01*
X136791110Y-120113513D01*
X137071033Y-120028599D01*
X137329013Y-119890706D01*
X137549945Y-119709392D01*
X137560498Y-119744180D01*
X137619463Y-119854494D01*
X137698815Y-119951185D01*
X137795506Y-120030537D01*
X137905820Y-120089502D01*
X138025518Y-120125812D01*
X138150000Y-120138072D01*
X138468250Y-120135000D01*
X138627000Y-119976250D01*
X138627000Y-118873000D01*
X139373000Y-118873000D01*
X139373000Y-119976250D01*
X139531750Y-120135000D01*
X139850000Y-120138072D01*
X139974482Y-120125812D01*
X140094180Y-120089502D01*
X140204494Y-120030537D01*
X140301185Y-119951185D01*
X140380537Y-119854494D01*
X140439502Y-119744180D01*
X140475812Y-119624482D01*
X140488072Y-119500000D01*
X140485000Y-119031750D01*
X140326250Y-118873000D01*
X139373000Y-118873000D01*
X138627000Y-118873000D01*
X138607000Y-118873000D01*
X138607000Y-118277050D01*
X146515000Y-118277050D01*
X146515000Y-118722949D01*
X146536487Y-118941110D01*
X146621401Y-119221033D01*
X146759294Y-119479013D01*
X146944866Y-119705134D01*
X147170986Y-119890706D01*
X147428966Y-120028599D01*
X147708889Y-120113513D01*
X148000000Y-120142185D01*
X148291110Y-120113513D01*
X148571033Y-120028599D01*
X148829013Y-119890706D01*
X149049945Y-119709392D01*
X149060498Y-119744180D01*
X149119463Y-119854494D01*
X149198815Y-119951185D01*
X149295506Y-120030537D01*
X149405820Y-120089502D01*
X149525518Y-120125812D01*
X149650000Y-120138072D01*
X149968250Y-120135000D01*
X150127000Y-119976250D01*
X150127000Y-118873000D01*
X150873000Y-118873000D01*
X150873000Y-119976250D01*
X151031750Y-120135000D01*
X151350000Y-120138072D01*
X151474482Y-120125812D01*
X151594180Y-120089502D01*
X151704494Y-120030537D01*
X151801185Y-119951185D01*
X151880537Y-119854494D01*
X151939502Y-119744180D01*
X151975812Y-119624482D01*
X151988072Y-119500000D01*
X151985000Y-119031750D01*
X151826250Y-118873000D01*
X150873000Y-118873000D01*
X150127000Y-118873000D01*
X150107000Y-118873000D01*
X150107000Y-118277050D01*
X155015000Y-118277050D01*
X155015000Y-118722949D01*
X155036487Y-118941110D01*
X155121401Y-119221033D01*
X155259294Y-119479013D01*
X155444866Y-119705134D01*
X155670986Y-119890706D01*
X155928966Y-120028599D01*
X156208889Y-120113513D01*
X156500000Y-120142185D01*
X156791110Y-120113513D01*
X157071033Y-120028599D01*
X157329013Y-119890706D01*
X157549945Y-119709392D01*
X157560498Y-119744180D01*
X157619463Y-119854494D01*
X157698815Y-119951185D01*
X157795506Y-120030537D01*
X157905820Y-120089502D01*
X158025518Y-120125812D01*
X158150000Y-120138072D01*
X158468250Y-120135000D01*
X158627000Y-119976250D01*
X158627000Y-118873000D01*
X159373000Y-118873000D01*
X159373000Y-119976250D01*
X159531750Y-120135000D01*
X159850000Y-120138072D01*
X159974482Y-120125812D01*
X160094180Y-120089502D01*
X160204494Y-120030537D01*
X160301185Y-119951185D01*
X160380537Y-119854494D01*
X160439502Y-119744180D01*
X160475812Y-119624482D01*
X160488072Y-119500000D01*
X160485000Y-119031750D01*
X160326250Y-118873000D01*
X159373000Y-118873000D01*
X158627000Y-118873000D01*
X158607000Y-118873000D01*
X158607000Y-118127000D01*
X158627000Y-118127000D01*
X158627000Y-117023750D01*
X159373000Y-117023750D01*
X159373000Y-118127000D01*
X160326250Y-118127000D01*
X160485000Y-117968250D01*
X160488072Y-117500000D01*
X160475812Y-117375518D01*
X160439502Y-117255820D01*
X160380537Y-117145506D01*
X160301185Y-117048815D01*
X160204494Y-116969463D01*
X160094180Y-116910498D01*
X159974482Y-116874188D01*
X159850000Y-116861928D01*
X159531750Y-116865000D01*
X159373000Y-117023750D01*
X158627000Y-117023750D01*
X158468250Y-116865000D01*
X158150000Y-116861928D01*
X158025518Y-116874188D01*
X157905820Y-116910498D01*
X157795506Y-116969463D01*
X157698815Y-117048815D01*
X157619463Y-117145506D01*
X157560498Y-117255820D01*
X157549945Y-117290608D01*
X157329014Y-117109294D01*
X157071034Y-116971401D01*
X156791111Y-116886487D01*
X156500000Y-116857815D01*
X156208890Y-116886487D01*
X155928967Y-116971401D01*
X155670987Y-117109294D01*
X155444866Y-117294866D01*
X155259294Y-117520986D01*
X155121401Y-117778966D01*
X155036487Y-118058889D01*
X155015000Y-118277050D01*
X150107000Y-118277050D01*
X150107000Y-118127000D01*
X150127000Y-118127000D01*
X150127000Y-117023750D01*
X150873000Y-117023750D01*
X150873000Y-118127000D01*
X151826250Y-118127000D01*
X151985000Y-117968250D01*
X151988072Y-117500000D01*
X151975812Y-117375518D01*
X151939502Y-117255820D01*
X151880537Y-117145506D01*
X151801185Y-117048815D01*
X151704494Y-116969463D01*
X151594180Y-116910498D01*
X151474482Y-116874188D01*
X151350000Y-116861928D01*
X151031750Y-116865000D01*
X150873000Y-117023750D01*
X150127000Y-117023750D01*
X149968250Y-116865000D01*
X149650000Y-116861928D01*
X149525518Y-116874188D01*
X149405820Y-116910498D01*
X149295506Y-116969463D01*
X149198815Y-117048815D01*
X149119463Y-117145506D01*
X149060498Y-117255820D01*
X149049945Y-117290608D01*
X148829014Y-117109294D01*
X148571034Y-116971401D01*
X148291111Y-116886487D01*
X148000000Y-116857815D01*
X147708890Y-116886487D01*
X147428967Y-116971401D01*
X147170987Y-117109294D01*
X146944866Y-117294866D01*
X146759294Y-117520986D01*
X146621401Y-117778966D01*
X146536487Y-118058889D01*
X146515000Y-118277050D01*
X138607000Y-118277050D01*
X138607000Y-118127000D01*
X138627000Y-118127000D01*
X138627000Y-117023750D01*
X139373000Y-117023750D01*
X139373000Y-118127000D01*
X140326250Y-118127000D01*
X140485000Y-117968250D01*
X140488072Y-117500000D01*
X140475812Y-117375518D01*
X140439502Y-117255820D01*
X140380537Y-117145506D01*
X140301185Y-117048815D01*
X140204494Y-116969463D01*
X140094180Y-116910498D01*
X139974482Y-116874188D01*
X139850000Y-116861928D01*
X139531750Y-116865000D01*
X139373000Y-117023750D01*
X138627000Y-117023750D01*
X138468250Y-116865000D01*
X138150000Y-116861928D01*
X138025518Y-116874188D01*
X137905820Y-116910498D01*
X137795506Y-116969463D01*
X137698815Y-117048815D01*
X137619463Y-117145506D01*
X137560498Y-117255820D01*
X137549945Y-117290608D01*
X137329014Y-117109294D01*
X137071034Y-116971401D01*
X136791111Y-116886487D01*
X136500000Y-116857815D01*
X136208890Y-116886487D01*
X135928967Y-116971401D01*
X135670987Y-117109294D01*
X135444866Y-117294866D01*
X135259294Y-117520986D01*
X135121401Y-117778966D01*
X135036487Y-118058889D01*
X135015000Y-118277050D01*
X127107000Y-118277050D01*
X127107000Y-118127000D01*
X127127000Y-118127000D01*
X127127000Y-117023750D01*
X127873000Y-117023750D01*
X127873000Y-118127000D01*
X128826250Y-118127000D01*
X128985000Y-117968250D01*
X128988072Y-117500000D01*
X128975812Y-117375518D01*
X128939502Y-117255820D01*
X128880537Y-117145506D01*
X128801185Y-117048815D01*
X128704494Y-116969463D01*
X128594180Y-116910498D01*
X128474482Y-116874188D01*
X128350000Y-116861928D01*
X128031750Y-116865000D01*
X127873000Y-117023750D01*
X127127000Y-117023750D01*
X126968250Y-116865000D01*
X126650000Y-116861928D01*
X126525518Y-116874188D01*
X126405820Y-116910498D01*
X126295506Y-116969463D01*
X126198815Y-117048815D01*
X126119463Y-117145506D01*
X126060498Y-117255820D01*
X126049945Y-117290608D01*
X125829014Y-117109294D01*
X125571034Y-116971401D01*
X125291111Y-116886487D01*
X125000000Y-116857815D01*
X124708890Y-116886487D01*
X124428967Y-116971401D01*
X124170987Y-117109294D01*
X123944866Y-117294866D01*
X123759294Y-117520986D01*
X123621401Y-117778966D01*
X123536487Y-118058889D01*
X123515000Y-118277050D01*
X122627000Y-118277050D01*
X122627000Y-112052606D01*
X123416988Y-111262618D01*
X123429774Y-111326898D01*
X123507795Y-111515256D01*
X123621063Y-111684774D01*
X123765226Y-111828937D01*
X123934744Y-111942205D01*
X124123102Y-112020226D01*
X124323061Y-112060000D01*
X124526939Y-112060000D01*
X124726898Y-112020226D01*
X124915256Y-111942205D01*
X125084774Y-111828937D01*
X125228937Y-111684774D01*
X125342205Y-111515256D01*
X125420226Y-111326898D01*
X125460000Y-111126939D01*
X125460000Y-110923061D01*
X125420226Y-110723102D01*
X125342205Y-110534744D01*
X125228937Y-110365226D01*
X125084774Y-110221063D01*
X124915256Y-110107795D01*
X124726898Y-110029774D01*
X124662618Y-110016988D01*
X125052606Y-109627000D01*
X126666095Y-109627000D01*
X126700890Y-109801925D01*
X126869369Y-110208669D01*
X127113962Y-110574729D01*
X127425271Y-110886038D01*
X127791331Y-111130631D01*
X128198075Y-111299110D01*
X128629872Y-111385000D01*
X129070128Y-111385000D01*
X129501925Y-111299110D01*
X129908669Y-111130631D01*
X130274729Y-110886038D01*
X130586038Y-110574729D01*
X130830631Y-110208669D01*
X130999110Y-109801925D01*
X131033905Y-109627000D01*
X134727224Y-109627000D01*
X135073253Y-109810453D01*
X136493050Y-110376152D01*
X137965686Y-110785027D01*
X139473897Y-111032286D01*
X141000000Y-111115029D01*
X142526103Y-111032286D01*
X144034314Y-110785027D01*
X145506950Y-110376152D01*
X146926747Y-109810453D01*
X147272776Y-109627000D01*
X150966095Y-109627000D01*
X151000890Y-109801925D01*
X151169369Y-110208669D01*
X151413962Y-110574729D01*
X151725271Y-110886038D01*
X152091331Y-111130631D01*
X152498075Y-111299110D01*
X152929872Y-111385000D01*
X153370128Y-111385000D01*
X153801925Y-111299110D01*
X154208669Y-111130631D01*
X154574729Y-110886038D01*
X154886038Y-110574729D01*
X155037492Y-110348061D01*
X162065000Y-110348061D01*
X162065000Y-110551939D01*
X162104774Y-110751898D01*
X162182795Y-110940256D01*
X162296063Y-111109774D01*
X162440226Y-111253937D01*
X162609744Y-111367205D01*
X162798102Y-111445226D01*
X162980840Y-111481575D01*
X163004774Y-111601898D01*
X163082795Y-111790256D01*
X163196063Y-111959774D01*
X163340226Y-112103937D01*
X163509744Y-112217205D01*
X163698102Y-112295226D01*
X163898061Y-112335000D01*
X164101939Y-112335000D01*
X164301898Y-112295226D01*
X164490256Y-112217205D01*
X164659774Y-112103937D01*
X164803937Y-111959774D01*
X164917205Y-111790256D01*
X164995226Y-111601898D01*
X165035000Y-111401939D01*
X165035000Y-111198061D01*
X164995226Y-110998102D01*
X164933077Y-110848061D01*
X178315000Y-110848061D01*
X178315000Y-111051939D01*
X178354774Y-111251898D01*
X178432795Y-111440256D01*
X178546063Y-111609774D01*
X178690226Y-111753937D01*
X178859744Y-111867205D01*
X179048102Y-111945226D01*
X179248061Y-111985000D01*
X179451939Y-111985000D01*
X179651898Y-111945226D01*
X179840256Y-111867205D01*
X180009774Y-111753937D01*
X180153937Y-111609774D01*
X180267205Y-111440256D01*
X180345226Y-111251898D01*
X180385000Y-111051939D01*
X180385000Y-110848061D01*
X180615000Y-110848061D01*
X180615000Y-111051939D01*
X180654774Y-111251898D01*
X180732795Y-111440256D01*
X180846063Y-111609774D01*
X180990226Y-111753937D01*
X181159744Y-111867205D01*
X181348102Y-111945226D01*
X181548061Y-111985000D01*
X181751939Y-111985000D01*
X181951898Y-111945226D01*
X182140256Y-111867205D01*
X182309774Y-111753937D01*
X182453937Y-111609774D01*
X182567205Y-111440256D01*
X182645226Y-111251898D01*
X182685000Y-111051939D01*
X182685000Y-110848061D01*
X182645226Y-110648102D01*
X182567205Y-110459744D01*
X182453937Y-110290226D01*
X182309774Y-110146063D01*
X182140256Y-110032795D01*
X181951898Y-109954774D01*
X181751939Y-109915000D01*
X181548061Y-109915000D01*
X181348102Y-109954774D01*
X181159744Y-110032795D01*
X180990226Y-110146063D01*
X180846063Y-110290226D01*
X180732795Y-110459744D01*
X180654774Y-110648102D01*
X180615000Y-110848061D01*
X180385000Y-110848061D01*
X180345226Y-110648102D01*
X180267205Y-110459744D01*
X180153937Y-110290226D01*
X180009774Y-110146063D01*
X179840256Y-110032795D01*
X179651898Y-109954774D01*
X179451939Y-109915000D01*
X179248061Y-109915000D01*
X179048102Y-109954774D01*
X178859744Y-110032795D01*
X178690226Y-110146063D01*
X178546063Y-110290226D01*
X178432795Y-110459744D01*
X178354774Y-110648102D01*
X178315000Y-110848061D01*
X164933077Y-110848061D01*
X164917205Y-110809744D01*
X164803937Y-110640226D01*
X164659774Y-110496063D01*
X164490256Y-110382795D01*
X164301898Y-110304774D01*
X164119160Y-110268425D01*
X164095226Y-110148102D01*
X164017205Y-109959744D01*
X163903937Y-109790226D01*
X163759774Y-109646063D01*
X163590256Y-109532795D01*
X163401898Y-109454774D01*
X163201939Y-109415000D01*
X162998061Y-109415000D01*
X162798102Y-109454774D01*
X162609744Y-109532795D01*
X162440226Y-109646063D01*
X162296063Y-109790226D01*
X162182795Y-109959744D01*
X162104774Y-110148102D01*
X162065000Y-110348061D01*
X155037492Y-110348061D01*
X155130631Y-110208669D01*
X155299110Y-109801925D01*
X155333905Y-109627000D01*
X161500000Y-109627000D01*
X161524776Y-109624560D01*
X161548601Y-109617333D01*
X161570557Y-109605597D01*
X161589803Y-109589803D01*
X162281545Y-108898061D01*
X177465000Y-108898061D01*
X177465000Y-109101939D01*
X177504774Y-109301898D01*
X177582795Y-109490256D01*
X177696063Y-109659774D01*
X177840226Y-109803937D01*
X178009744Y-109917205D01*
X178198102Y-109995226D01*
X178398061Y-110035000D01*
X178601939Y-110035000D01*
X178801898Y-109995226D01*
X178990256Y-109917205D01*
X179159774Y-109803937D01*
X179303937Y-109659774D01*
X179417205Y-109490256D01*
X179495226Y-109301898D01*
X179535000Y-109101939D01*
X179535000Y-108898061D01*
X179495226Y-108698102D01*
X179417205Y-108509744D01*
X179303937Y-108340226D01*
X179159774Y-108196063D01*
X179015814Y-108099872D01*
X184225000Y-108099872D01*
X184225000Y-108540128D01*
X184310890Y-108971925D01*
X184479369Y-109378669D01*
X184723962Y-109744729D01*
X185035271Y-110056038D01*
X185401331Y-110300631D01*
X185808075Y-110469110D01*
X186239872Y-110555000D01*
X186680128Y-110555000D01*
X187111925Y-110469110D01*
X187518669Y-110300631D01*
X187884729Y-110056038D01*
X188196038Y-109744729D01*
X188440631Y-109378669D01*
X188609110Y-108971925D01*
X188695000Y-108540128D01*
X188695000Y-108099872D01*
X188609110Y-107668075D01*
X188440631Y-107261331D01*
X188196038Y-106895271D01*
X187884729Y-106583962D01*
X187518669Y-106339369D01*
X187111925Y-106170890D01*
X186680128Y-106085000D01*
X186239872Y-106085000D01*
X185808075Y-106170890D01*
X185401331Y-106339369D01*
X185035271Y-106583962D01*
X184723962Y-106895271D01*
X184479369Y-107261331D01*
X184310890Y-107668075D01*
X184225000Y-108099872D01*
X179015814Y-108099872D01*
X178990256Y-108082795D01*
X178801898Y-108004774D01*
X178601939Y-107965000D01*
X178398061Y-107965000D01*
X178198102Y-108004774D01*
X178009744Y-108082795D01*
X177840226Y-108196063D01*
X177696063Y-108340226D01*
X177582795Y-108509744D01*
X177504774Y-108698102D01*
X177465000Y-108898061D01*
X162281545Y-108898061D01*
X164089803Y-107089803D01*
X164105597Y-107070557D01*
X164117333Y-107048601D01*
X164124560Y-107024776D01*
X164127000Y-107000000D01*
X164127000Y-106107911D01*
X172265000Y-106107911D01*
X172265000Y-106292089D01*
X172300932Y-106472729D01*
X172371414Y-106642889D01*
X172473738Y-106796028D01*
X172477710Y-106800000D01*
X172473738Y-106803972D01*
X172371414Y-106957111D01*
X172300932Y-107127271D01*
X172265000Y-107307911D01*
X172265000Y-107492089D01*
X172300932Y-107672729D01*
X172371414Y-107842889D01*
X172473738Y-107996028D01*
X172603972Y-108126262D01*
X172757111Y-108228586D01*
X172927271Y-108299068D01*
X173107911Y-108335000D01*
X173292089Y-108335000D01*
X173472729Y-108299068D01*
X173642889Y-108228586D01*
X173796028Y-108126262D01*
X173800000Y-108122290D01*
X173803972Y-108126262D01*
X173957111Y-108228586D01*
X174127271Y-108299068D01*
X174307911Y-108335000D01*
X174492089Y-108335000D01*
X174672729Y-108299068D01*
X174842889Y-108228586D01*
X174996028Y-108126262D01*
X175050000Y-108072290D01*
X175103972Y-108126262D01*
X175257111Y-108228586D01*
X175427271Y-108299068D01*
X175607911Y-108335000D01*
X175792089Y-108335000D01*
X175972729Y-108299068D01*
X176142889Y-108228586D01*
X176250000Y-108157017D01*
X176357111Y-108228586D01*
X176527271Y-108299068D01*
X176707911Y-108335000D01*
X176892089Y-108335000D01*
X177072729Y-108299068D01*
X177242889Y-108228586D01*
X177396028Y-108126262D01*
X177526262Y-107996028D01*
X177628586Y-107842889D01*
X177699068Y-107672729D01*
X177735000Y-107492089D01*
X177735000Y-107307911D01*
X177699068Y-107127271D01*
X177628586Y-106957111D01*
X177526262Y-106803972D01*
X177522290Y-106800000D01*
X177526262Y-106796028D01*
X177628586Y-106642889D01*
X177699068Y-106472729D01*
X177735000Y-106292089D01*
X177735000Y-106107911D01*
X177699068Y-105927271D01*
X177628586Y-105757111D01*
X177526262Y-105603972D01*
X177396028Y-105473738D01*
X177242889Y-105371414D01*
X177072729Y-105300932D01*
X176892089Y-105265000D01*
X176707911Y-105265000D01*
X176527271Y-105300932D01*
X176357111Y-105371414D01*
X176250000Y-105442983D01*
X176142889Y-105371414D01*
X175972729Y-105300932D01*
X175792089Y-105265000D01*
X175607911Y-105265000D01*
X175427271Y-105300932D01*
X175257111Y-105371414D01*
X175103972Y-105473738D01*
X175050000Y-105527710D01*
X174996028Y-105473738D01*
X174842889Y-105371414D01*
X174672729Y-105300932D01*
X174492089Y-105265000D01*
X174307911Y-105265000D01*
X174127271Y-105300932D01*
X173957111Y-105371414D01*
X173803972Y-105473738D01*
X173800000Y-105477710D01*
X173796028Y-105473738D01*
X173642889Y-105371414D01*
X173472729Y-105300932D01*
X173292089Y-105265000D01*
X173107911Y-105265000D01*
X172927271Y-105300932D01*
X172757111Y-105371414D01*
X172603972Y-105473738D01*
X172473738Y-105603972D01*
X172371414Y-105757111D01*
X172300932Y-105927271D01*
X172265000Y-106107911D01*
X164127000Y-106107911D01*
X164127000Y-105920929D01*
X164343158Y-105877932D01*
X164613411Y-105765990D01*
X164856632Y-105603475D01*
X165063475Y-105396632D01*
X165225990Y-105153411D01*
X165337932Y-104883158D01*
X165395000Y-104596260D01*
X165395000Y-104303740D01*
X165337932Y-104016842D01*
X165225990Y-103746589D01*
X165063475Y-103503368D01*
X164856632Y-103296525D01*
X164682240Y-103180000D01*
X164856632Y-103063475D01*
X165063475Y-102856632D01*
X165225990Y-102613411D01*
X165337932Y-102343158D01*
X165395000Y-102056260D01*
X165395000Y-101798061D01*
X165765000Y-101798061D01*
X165765000Y-102001939D01*
X165804774Y-102201898D01*
X165855765Y-102325000D01*
X165804774Y-102448102D01*
X165765000Y-102648061D01*
X165765000Y-102851939D01*
X165804774Y-103051898D01*
X165882795Y-103240256D01*
X165996063Y-103409774D01*
X166140226Y-103553937D01*
X166309744Y-103667205D01*
X166498102Y-103745226D01*
X166698061Y-103785000D01*
X166901939Y-103785000D01*
X167101898Y-103745226D01*
X167225000Y-103694235D01*
X167348102Y-103745226D01*
X167548061Y-103785000D01*
X167751939Y-103785000D01*
X167951898Y-103745226D01*
X168140256Y-103667205D01*
X168309774Y-103553937D01*
X168453937Y-103409774D01*
X168567205Y-103240256D01*
X168645226Y-103051898D01*
X168685000Y-102851939D01*
X168685000Y-102648061D01*
X168645226Y-102448102D01*
X168594235Y-102325000D01*
X168645226Y-102201898D01*
X168685000Y-102001939D01*
X168685000Y-101798061D01*
X168645226Y-101598102D01*
X168567205Y-101409744D01*
X168453937Y-101240226D01*
X168309774Y-101096063D01*
X168140256Y-100982795D01*
X167951898Y-100904774D01*
X167751939Y-100865000D01*
X167548061Y-100865000D01*
X167348102Y-100904774D01*
X167225000Y-100955765D01*
X167101898Y-100904774D01*
X166901939Y-100865000D01*
X166698061Y-100865000D01*
X166498102Y-100904774D01*
X166309744Y-100982795D01*
X166140226Y-101096063D01*
X165996063Y-101240226D01*
X165882795Y-101409744D01*
X165804774Y-101598102D01*
X165765000Y-101798061D01*
X165395000Y-101798061D01*
X165395000Y-101763740D01*
X165337932Y-101476842D01*
X165225990Y-101206589D01*
X165063475Y-100963368D01*
X164856632Y-100756525D01*
X164682240Y-100640000D01*
X164856632Y-100523475D01*
X165063475Y-100316632D01*
X165225990Y-100073411D01*
X165337932Y-99803158D01*
X165395000Y-99516260D01*
X165395000Y-99223740D01*
X165337932Y-98936842D01*
X165225990Y-98666589D01*
X165063475Y-98423368D01*
X164856632Y-98216525D01*
X164682240Y-98100000D01*
X164856632Y-97983475D01*
X165063475Y-97776632D01*
X165225990Y-97533411D01*
X165337932Y-97263158D01*
X165340935Y-97248061D01*
X174665000Y-97248061D01*
X174665000Y-97451939D01*
X174704774Y-97651898D01*
X174745409Y-97750000D01*
X174704774Y-97848102D01*
X174665000Y-98048061D01*
X174665000Y-98251939D01*
X174704774Y-98451898D01*
X174782795Y-98640256D01*
X174896063Y-98809774D01*
X175040226Y-98953937D01*
X175209744Y-99067205D01*
X175398102Y-99145226D01*
X175598061Y-99185000D01*
X175801939Y-99185000D01*
X176001898Y-99145226D01*
X176100000Y-99104591D01*
X176198102Y-99145226D01*
X176398061Y-99185000D01*
X176601939Y-99185000D01*
X176801898Y-99145226D01*
X176990256Y-99067205D01*
X177159774Y-98953937D01*
X177303937Y-98809774D01*
X177417205Y-98640256D01*
X177495226Y-98451898D01*
X177531919Y-98267430D01*
X177582795Y-98390256D01*
X177696063Y-98559774D01*
X177840226Y-98703937D01*
X178009744Y-98817205D01*
X178198102Y-98895226D01*
X178398061Y-98935000D01*
X178601939Y-98935000D01*
X178801898Y-98895226D01*
X178990256Y-98817205D01*
X179159774Y-98703937D01*
X179303937Y-98559774D01*
X179378581Y-98448061D01*
X181315000Y-98448061D01*
X181315000Y-98651939D01*
X181354774Y-98851898D01*
X181405765Y-98975000D01*
X181354774Y-99098102D01*
X181315000Y-99298061D01*
X181315000Y-99501939D01*
X181354774Y-99701898D01*
X181432795Y-99890256D01*
X181546063Y-100059774D01*
X181690226Y-100203937D01*
X181859744Y-100317205D01*
X182048102Y-100395226D01*
X182248061Y-100435000D01*
X182451939Y-100435000D01*
X182651898Y-100395226D01*
X182775000Y-100344235D01*
X182898102Y-100395226D01*
X183098061Y-100435000D01*
X183301939Y-100435000D01*
X183501898Y-100395226D01*
X183690256Y-100317205D01*
X183859774Y-100203937D01*
X184003937Y-100059774D01*
X184117205Y-99890256D01*
X184195226Y-99701898D01*
X184235000Y-99501939D01*
X184235000Y-99298061D01*
X184195226Y-99098102D01*
X184144235Y-98975000D01*
X184195226Y-98851898D01*
X184235000Y-98651939D01*
X184235000Y-98448061D01*
X184195226Y-98248102D01*
X184117205Y-98059744D01*
X184003937Y-97890226D01*
X183859774Y-97746063D01*
X183690256Y-97632795D01*
X183501898Y-97554774D01*
X183301939Y-97515000D01*
X183098061Y-97515000D01*
X182898102Y-97554774D01*
X182775000Y-97605765D01*
X182651898Y-97554774D01*
X182451939Y-97515000D01*
X182248061Y-97515000D01*
X182048102Y-97554774D01*
X181859744Y-97632795D01*
X181690226Y-97746063D01*
X181546063Y-97890226D01*
X181432795Y-98059744D01*
X181354774Y-98248102D01*
X181315000Y-98448061D01*
X179378581Y-98448061D01*
X179417205Y-98390256D01*
X179495226Y-98201898D01*
X179535000Y-98001939D01*
X179535000Y-97798061D01*
X179495226Y-97598102D01*
X179417205Y-97409744D01*
X179303937Y-97240226D01*
X179159774Y-97096063D01*
X178990256Y-96982795D01*
X178801898Y-96904774D01*
X178601939Y-96865000D01*
X178398061Y-96865000D01*
X178198102Y-96904774D01*
X178009744Y-96982795D01*
X177840226Y-97096063D01*
X177696063Y-97240226D01*
X177582795Y-97409744D01*
X177506991Y-97592749D01*
X177535000Y-97451939D01*
X177535000Y-97248061D01*
X177495226Y-97048102D01*
X177417205Y-96859744D01*
X177303937Y-96690226D01*
X177159774Y-96546063D01*
X176990256Y-96432795D01*
X176801898Y-96354774D01*
X176601939Y-96315000D01*
X176398061Y-96315000D01*
X176198102Y-96354774D01*
X176100000Y-96395409D01*
X176001898Y-96354774D01*
X175801939Y-96315000D01*
X175598061Y-96315000D01*
X175398102Y-96354774D01*
X175209744Y-96432795D01*
X175040226Y-96546063D01*
X174896063Y-96690226D01*
X174782795Y-96859744D01*
X174704774Y-97048102D01*
X174665000Y-97248061D01*
X165340935Y-97248061D01*
X165395000Y-96976260D01*
X165395000Y-96683740D01*
X165337932Y-96396842D01*
X165225990Y-96126589D01*
X165063475Y-95883368D01*
X164856632Y-95676525D01*
X164682240Y-95560000D01*
X164856632Y-95443475D01*
X165063475Y-95236632D01*
X165225990Y-94993411D01*
X165337932Y-94723158D01*
X165395000Y-94436260D01*
X165395000Y-94143740D01*
X165337932Y-93856842D01*
X165225990Y-93586589D01*
X165063475Y-93343368D01*
X164931620Y-93211513D01*
X165004180Y-93189502D01*
X165114494Y-93130537D01*
X165211185Y-93051185D01*
X165290537Y-92954494D01*
X165349502Y-92844180D01*
X165385812Y-92724482D01*
X165398072Y-92600000D01*
X165398072Y-90900000D01*
X165385812Y-90775518D01*
X165349502Y-90655820D01*
X165290537Y-90545506D01*
X165211185Y-90448815D01*
X165114494Y-90369463D01*
X165004180Y-90310498D01*
X164884482Y-90274188D01*
X164760000Y-90261928D01*
X164127000Y-90261928D01*
X164127000Y-90063500D01*
X166042333Y-88627000D01*
X184317921Y-88627000D01*
X184320890Y-88641925D01*
G37*
%TD.AperFunction*%
%TD*%
D24*
%TO.N,+5V*%
X163521161Y-66555330D02*
X163101467Y-67183446D01*
X162812377Y-67881372D01*
X162665000Y-68622285D01*
X162665000Y-69377715D01*
X162812377Y-70118628D01*
X163101467Y-70816554D01*
X163521161Y-71444670D01*
X163941491Y-71865000D01*
X163898061Y-71865000D01*
X163698102Y-71904774D01*
X163600000Y-71945409D01*
X163501898Y-71904774D01*
X163301939Y-71865000D01*
X163098061Y-71865000D01*
X162898102Y-71904774D01*
X162709744Y-71982795D01*
X162540226Y-72096063D01*
X162396063Y-72240226D01*
X162282795Y-72409744D01*
X162204774Y-72598102D01*
X162165000Y-72798061D01*
X162165000Y-73001939D01*
X162204774Y-73201898D01*
X162245409Y-73300000D01*
X162204774Y-73398102D01*
X162165000Y-73598061D01*
X162165000Y-73801939D01*
X162204774Y-74001898D01*
X162282795Y-74190256D01*
X162396063Y-74359774D01*
X162540226Y-74503937D01*
X162709744Y-74617205D01*
X162898102Y-74695226D01*
X163098061Y-74735000D01*
X163301939Y-74735000D01*
X163501898Y-74695226D01*
X163600000Y-74654591D01*
X163698102Y-74695226D01*
X163898061Y-74735000D01*
X164101939Y-74735000D01*
X164301898Y-74695226D01*
X164490256Y-74617205D01*
X164659774Y-74503937D01*
X164803937Y-74359774D01*
X164917205Y-74190256D01*
X164995226Y-74001898D01*
X165035000Y-73801939D01*
X165035000Y-73598061D01*
X164995226Y-73398102D01*
X164954591Y-73300000D01*
X164995226Y-73201898D01*
X165035000Y-73001939D01*
X165035000Y-72798061D01*
X164995226Y-72598102D01*
X164960013Y-72513091D01*
X165381372Y-72687623D01*
X166122285Y-72835000D01*
X166877715Y-72835000D01*
X167618628Y-72687623D01*
X168316554Y-72398533D01*
X168944670Y-71978839D01*
X169478839Y-71444670D01*
X169898533Y-70816554D01*
X170187623Y-70118628D01*
X170335000Y-69377715D01*
X170335000Y-69219721D01*
X173515000Y-69219721D01*
X173515000Y-69640279D01*
X173597047Y-70052756D01*
X173757988Y-70441302D01*
X173991637Y-70790983D01*
X174289017Y-71088363D01*
X174638698Y-71322012D01*
X175027244Y-71482953D01*
X175053199Y-71488116D01*
X174924201Y-71617114D01*
X174772629Y-71843957D01*
X174668225Y-72096011D01*
X174615000Y-72363589D01*
X174615000Y-72636411D01*
X174668225Y-72903989D01*
X174772629Y-73156043D01*
X174924201Y-73382886D01*
X175117114Y-73575799D01*
X175343957Y-73727371D01*
X175398588Y-73750000D01*
X175343957Y-73772629D01*
X175117114Y-73924201D01*
X174924201Y-74117114D01*
X174772629Y-74343957D01*
X174668225Y-74596011D01*
X174615000Y-74863589D01*
X174615000Y-75136411D01*
X174668225Y-75403989D01*
X174772629Y-75656043D01*
X174924201Y-75882886D01*
X175041315Y-76000000D01*
X174924201Y-76117114D01*
X174772629Y-76343957D01*
X174668225Y-76596011D01*
X174615000Y-76863589D01*
X174615000Y-77136411D01*
X174668225Y-77403989D01*
X174772629Y-77656043D01*
X174924201Y-77882886D01*
X175117114Y-78075799D01*
X175181310Y-78118693D01*
X175125518Y-78124188D01*
X175005820Y-78160498D01*
X174895506Y-78219463D01*
X174798815Y-78298815D01*
X174719463Y-78395506D01*
X174660498Y-78505820D01*
X174624188Y-78625518D01*
X174611928Y-78750000D01*
X174615000Y-79093250D01*
X174773750Y-79252000D01*
X175752000Y-79252000D01*
X175752000Y-79232000D01*
X176248000Y-79232000D01*
X176248000Y-79252000D01*
X176268000Y-79252000D01*
X176268000Y-79748000D01*
X176248000Y-79748000D01*
X176248000Y-79768000D01*
X175752000Y-79768000D01*
X175752000Y-79748000D01*
X174773750Y-79748000D01*
X174615000Y-79906750D01*
X174611928Y-80250000D01*
X174624188Y-80374482D01*
X174660498Y-80494180D01*
X174719463Y-80604494D01*
X174743987Y-80634376D01*
X174638698Y-80677988D01*
X174289017Y-80911637D01*
X173991637Y-81209017D01*
X173757988Y-81558698D01*
X173597047Y-81947244D01*
X173515000Y-82359721D01*
X173515000Y-82780279D01*
X173597047Y-83192756D01*
X173757988Y-83581302D01*
X173991637Y-83930983D01*
X174289017Y-84228363D01*
X174638698Y-84462012D01*
X175027244Y-84622953D01*
X175439721Y-84705000D01*
X175860279Y-84705000D01*
X176272756Y-84622953D01*
X176661302Y-84462012D01*
X177010983Y-84228363D01*
X177308363Y-83930983D01*
X177542012Y-83581302D01*
X177702953Y-83192756D01*
X177785000Y-82780279D01*
X177785000Y-82359721D01*
X179195000Y-82359721D01*
X179195000Y-82780279D01*
X179277047Y-83192756D01*
X179437988Y-83581302D01*
X179671637Y-83930983D01*
X179969017Y-84228363D01*
X180318698Y-84462012D01*
X180707244Y-84622953D01*
X181119721Y-84705000D01*
X181540279Y-84705000D01*
X181952756Y-84622953D01*
X182341302Y-84462012D01*
X182690983Y-84228363D01*
X182988363Y-83930983D01*
X183222012Y-83581302D01*
X183382953Y-83192756D01*
X183465000Y-82780279D01*
X183465000Y-82359721D01*
X183382953Y-81947244D01*
X183222012Y-81558698D01*
X182988363Y-81209017D01*
X182690983Y-80911637D01*
X182341302Y-80677988D01*
X181952756Y-80517047D01*
X181540279Y-80435000D01*
X181119721Y-80435000D01*
X180707244Y-80517047D01*
X180318698Y-80677988D01*
X179969017Y-80911637D01*
X179671637Y-81209017D01*
X179437988Y-81558698D01*
X179277047Y-81947244D01*
X179195000Y-82359721D01*
X177785000Y-82359721D01*
X177702953Y-81947244D01*
X177542012Y-81558698D01*
X177308363Y-81209017D01*
X177010983Y-80911637D01*
X176931487Y-80858520D01*
X176994180Y-80839502D01*
X177104494Y-80780537D01*
X177201185Y-80701185D01*
X177280537Y-80604494D01*
X177320691Y-80529372D01*
X177941353Y-80529372D01*
X178015708Y-80753659D01*
X178271896Y-80847462D01*
X178541462Y-80889483D01*
X178814046Y-80878106D01*
X179079172Y-80813770D01*
X179224292Y-80753659D01*
X179298647Y-80529372D01*
X178620000Y-79850725D01*
X177941353Y-80529372D01*
X177320691Y-80529372D01*
X177339502Y-80494180D01*
X177375812Y-80374482D01*
X177388072Y-80250000D01*
X177386829Y-80111084D01*
X177590628Y-80178647D01*
X178269275Y-79500000D01*
X178970725Y-79500000D01*
X179649372Y-80178647D01*
X179873659Y-80104292D01*
X179967462Y-79848104D01*
X180009483Y-79578538D01*
X179998106Y-79305954D01*
X179933770Y-79040828D01*
X179873659Y-78895708D01*
X179649372Y-78821353D01*
X178970725Y-79500000D01*
X178269275Y-79500000D01*
X177590628Y-78821353D01*
X177386829Y-78888916D01*
X177388072Y-78750000D01*
X177375812Y-78625518D01*
X177339502Y-78505820D01*
X177280537Y-78395506D01*
X177201185Y-78298815D01*
X177104494Y-78219463D01*
X176994180Y-78160498D01*
X176874482Y-78124188D01*
X176818690Y-78118693D01*
X176882886Y-78075799D01*
X177075799Y-77882886D01*
X177227371Y-77656043D01*
X177310000Y-77456559D01*
X177392629Y-77656043D01*
X177544201Y-77882886D01*
X177737114Y-78075799D01*
X177963957Y-78227371D01*
X178014989Y-78248509D01*
X177941353Y-78470628D01*
X178620000Y-79149275D01*
X179298647Y-78470628D01*
X179225011Y-78248509D01*
X179276043Y-78227371D01*
X179502886Y-78075799D01*
X179695799Y-77882886D01*
X179847371Y-77656043D01*
X179951775Y-77403989D01*
X180005000Y-77136411D01*
X180005000Y-76863589D01*
X179951775Y-76596011D01*
X179847371Y-76343957D01*
X179695799Y-76117114D01*
X179578685Y-76000000D01*
X179695799Y-75882886D01*
X179847371Y-75656043D01*
X179951775Y-75403989D01*
X180005000Y-75136411D01*
X180005000Y-74863589D01*
X179951775Y-74596011D01*
X179847371Y-74343957D01*
X179695799Y-74117114D01*
X179502886Y-73924201D01*
X179276043Y-73772629D01*
X179221412Y-73750000D01*
X179276043Y-73727371D01*
X179502886Y-73575799D01*
X179695799Y-73382886D01*
X179847371Y-73156043D01*
X179951775Y-72903989D01*
X180005000Y-72636411D01*
X180005000Y-72363589D01*
X179951775Y-72096011D01*
X179847371Y-71843957D01*
X179695799Y-71617114D01*
X179502886Y-71424201D01*
X179276043Y-71272629D01*
X179023989Y-71168225D01*
X178756411Y-71115000D01*
X178483589Y-71115000D01*
X178216011Y-71168225D01*
X177963957Y-71272629D01*
X177737114Y-71424201D01*
X177544201Y-71617114D01*
X177392629Y-71843957D01*
X177310000Y-72043441D01*
X177227371Y-71843957D01*
X177075799Y-71617114D01*
X176882886Y-71424201D01*
X176695626Y-71299078D01*
X177010983Y-71088363D01*
X177308363Y-70790983D01*
X177542012Y-70441302D01*
X177702953Y-70052756D01*
X177785000Y-69640279D01*
X177785000Y-69219721D01*
X179195000Y-69219721D01*
X179195000Y-69640279D01*
X179277047Y-70052756D01*
X179437988Y-70441302D01*
X179671637Y-70790983D01*
X179969017Y-71088363D01*
X180318698Y-71322012D01*
X180707244Y-71482953D01*
X181119721Y-71565000D01*
X181540279Y-71565000D01*
X181952756Y-71482953D01*
X182341302Y-71322012D01*
X182690983Y-71088363D01*
X182988363Y-70790983D01*
X183222012Y-70441302D01*
X183382953Y-70052756D01*
X183465000Y-69640279D01*
X183465000Y-69219721D01*
X183382953Y-68807244D01*
X183222012Y-68418698D01*
X182988363Y-68069017D01*
X182690983Y-67771637D01*
X182341302Y-67537988D01*
X181952756Y-67377047D01*
X181540279Y-67295000D01*
X181119721Y-67295000D01*
X180707244Y-67377047D01*
X180318698Y-67537988D01*
X179969017Y-67771637D01*
X179671637Y-68069017D01*
X179437988Y-68418698D01*
X179277047Y-68807244D01*
X179195000Y-69219721D01*
X177785000Y-69219721D01*
X177702953Y-68807244D01*
X177542012Y-68418698D01*
X177308363Y-68069017D01*
X177010983Y-67771637D01*
X176661302Y-67537988D01*
X176272756Y-67377047D01*
X175860279Y-67295000D01*
X175439721Y-67295000D01*
X175027244Y-67377047D01*
X174638698Y-67537988D01*
X174289017Y-67771637D01*
X173991637Y-68069017D01*
X173757988Y-68418698D01*
X173597047Y-68807244D01*
X173515000Y-69219721D01*
X170335000Y-69219721D01*
X170335000Y-68622285D01*
X170187623Y-67881372D01*
X169898533Y-67183446D01*
X169478839Y-66555330D01*
X169083509Y-66160000D01*
X186467721Y-66160000D01*
X187051010Y-66217192D01*
X187581036Y-66377216D01*
X188069879Y-66637140D01*
X188498931Y-66987065D01*
X188851844Y-67413664D01*
X189115173Y-67900681D01*
X189278894Y-68429578D01*
X189340000Y-69010960D01*
X189340000Y-87373000D01*
X188626057Y-87373000D01*
X188619110Y-87338075D01*
X188450631Y-86931331D01*
X188206038Y-86565271D01*
X187894729Y-86253962D01*
X187528669Y-86009369D01*
X187121925Y-85840890D01*
X186690128Y-85755000D01*
X186249872Y-85755000D01*
X185818075Y-85840890D01*
X185411331Y-86009369D01*
X185045271Y-86253962D01*
X184733962Y-86565271D01*
X184489369Y-86931331D01*
X184320890Y-87338075D01*
X184313943Y-87373000D01*
X165000000Y-87373000D01*
X164975224Y-87375440D01*
X164951399Y-87382667D01*
X164926183Y-87396656D01*
X161426183Y-89896656D01*
X161407440Y-89913043D01*
X161392254Y-89932771D01*
X161381208Y-89955083D01*
X161374728Y-89979121D01*
X161373000Y-90000000D01*
X161373000Y-105447394D01*
X159947394Y-106873000D01*
X151061593Y-106873000D01*
X151757940Y-106137876D01*
X152682854Y-104921172D01*
X153279222Y-103930000D01*
X157511928Y-103930000D01*
X157511928Y-105630000D01*
X157524188Y-105754482D01*
X157560498Y-105874180D01*
X157619463Y-105984494D01*
X157698815Y-106081185D01*
X157795506Y-106160537D01*
X157905820Y-106219502D01*
X158025518Y-106255812D01*
X158150000Y-106268072D01*
X159850000Y-106268072D01*
X159974482Y-106255812D01*
X160094180Y-106219502D01*
X160204494Y-106160537D01*
X160301185Y-106081185D01*
X160380537Y-105984494D01*
X160439502Y-105874180D01*
X160475812Y-105754482D01*
X160488072Y-105630000D01*
X160488072Y-103930000D01*
X160475812Y-103805518D01*
X160439502Y-103685820D01*
X160380537Y-103575506D01*
X160301185Y-103478815D01*
X160204494Y-103399463D01*
X160094180Y-103340498D01*
X160021620Y-103318487D01*
X160153475Y-103186632D01*
X160315990Y-102943411D01*
X160427932Y-102673158D01*
X160485000Y-102386260D01*
X160485000Y-102093740D01*
X160427932Y-101806842D01*
X160315990Y-101536589D01*
X160153475Y-101293368D01*
X159946632Y-101086525D01*
X159772240Y-100970000D01*
X159946632Y-100853475D01*
X160153475Y-100646632D01*
X160315990Y-100403411D01*
X160427932Y-100133158D01*
X160485000Y-99846260D01*
X160485000Y-99553740D01*
X160427932Y-99266842D01*
X160315990Y-98996589D01*
X160153475Y-98753368D01*
X159946632Y-98546525D01*
X159772240Y-98430000D01*
X159946632Y-98313475D01*
X160153475Y-98106632D01*
X160315990Y-97863411D01*
X160427932Y-97593158D01*
X160485000Y-97306260D01*
X160485000Y-97013740D01*
X160427932Y-96726842D01*
X160315990Y-96456589D01*
X160153475Y-96213368D01*
X159946632Y-96006525D01*
X159772240Y-95890000D01*
X159946632Y-95773475D01*
X160153475Y-95566632D01*
X160315990Y-95323411D01*
X160427932Y-95053158D01*
X160485000Y-94766260D01*
X160485000Y-94473740D01*
X160427932Y-94186842D01*
X160315990Y-93916589D01*
X160153475Y-93673368D01*
X159946632Y-93466525D01*
X159772240Y-93350000D01*
X159946632Y-93233475D01*
X160153475Y-93026632D01*
X160315990Y-92783411D01*
X160427932Y-92513158D01*
X160485000Y-92226260D01*
X160485000Y-91933740D01*
X160427932Y-91646842D01*
X160315990Y-91376589D01*
X160153475Y-91133368D01*
X159946632Y-90926525D01*
X159772240Y-90810000D01*
X159946632Y-90693475D01*
X160153475Y-90486632D01*
X160315990Y-90243411D01*
X160427932Y-89973158D01*
X160485000Y-89686260D01*
X160485000Y-89393740D01*
X160427932Y-89106842D01*
X160315990Y-88836589D01*
X160153475Y-88593368D01*
X159946632Y-88386525D01*
X159772240Y-88270000D01*
X159946632Y-88153475D01*
X160153475Y-87946632D01*
X160315990Y-87703411D01*
X160427932Y-87433158D01*
X160485000Y-87146260D01*
X160485000Y-86853740D01*
X160427932Y-86566842D01*
X160315990Y-86296589D01*
X160153475Y-86053368D01*
X159946632Y-85846525D01*
X159772240Y-85730000D01*
X159946632Y-85613475D01*
X160153475Y-85406632D01*
X160315990Y-85163411D01*
X160427932Y-84893158D01*
X160485000Y-84606260D01*
X160485000Y-84313740D01*
X160427932Y-84026842D01*
X160315990Y-83756589D01*
X160153475Y-83513368D01*
X159946632Y-83306525D01*
X159772240Y-83190000D01*
X159946632Y-83073475D01*
X160153475Y-82866632D01*
X160315990Y-82623411D01*
X160427932Y-82353158D01*
X160485000Y-82066260D01*
X160485000Y-81773740D01*
X160437511Y-81535000D01*
X160601939Y-81535000D01*
X160801898Y-81495226D01*
X160990256Y-81417205D01*
X161159774Y-81303937D01*
X161303937Y-81159774D01*
X161417205Y-80990256D01*
X161495226Y-80801898D01*
X161535000Y-80601939D01*
X161535000Y-80398061D01*
X161495226Y-80198102D01*
X161417205Y-80009744D01*
X161303937Y-79840226D01*
X161159774Y-79696063D01*
X161139514Y-79682526D01*
X161301898Y-79650226D01*
X161490256Y-79572205D01*
X161659774Y-79458937D01*
X161803937Y-79314774D01*
X161917205Y-79145256D01*
X161995226Y-78956898D01*
X162035000Y-78756939D01*
X162035000Y-78553061D01*
X161995226Y-78353102D01*
X161917205Y-78164744D01*
X161803937Y-77995226D01*
X161659774Y-77851063D01*
X161490256Y-77737795D01*
X161301898Y-77659774D01*
X161101939Y-77620000D01*
X160898061Y-77620000D01*
X160698102Y-77659774D01*
X160509744Y-77737795D01*
X160340226Y-77851063D01*
X160196063Y-77995226D01*
X160082795Y-78164744D01*
X160024818Y-78304711D01*
X159946632Y-78226525D01*
X159772240Y-78110000D01*
X159946632Y-77993475D01*
X160153475Y-77786632D01*
X160315990Y-77543411D01*
X160427932Y-77273158D01*
X160485000Y-76986260D01*
X160485000Y-76693740D01*
X160427932Y-76406842D01*
X160315990Y-76136589D01*
X160153475Y-75893368D01*
X159946632Y-75686525D01*
X159768210Y-75567307D01*
X159976473Y-75418817D01*
X160175981Y-75206819D01*
X160330296Y-74959972D01*
X160407323Y-74773989D01*
X160302857Y-74548000D01*
X159248000Y-74548000D01*
X159248000Y-74568000D01*
X158752000Y-74568000D01*
X158752000Y-74548000D01*
X157697143Y-74548000D01*
X157592677Y-74773989D01*
X157669704Y-74959972D01*
X157824019Y-75206819D01*
X158023527Y-75418817D01*
X158231790Y-75567307D01*
X158053368Y-75686525D01*
X157846525Y-75893368D01*
X157684010Y-76136589D01*
X157572068Y-76406842D01*
X157515000Y-76693740D01*
X157515000Y-76986260D01*
X157572068Y-77273158D01*
X157684010Y-77543411D01*
X157846525Y-77786632D01*
X158053368Y-77993475D01*
X158227760Y-78110000D01*
X158053368Y-78226525D01*
X157846525Y-78433368D01*
X157684010Y-78676589D01*
X157572068Y-78946842D01*
X157515000Y-79233740D01*
X157515000Y-79526260D01*
X157572068Y-79813158D01*
X157684010Y-80083411D01*
X157846525Y-80326632D01*
X158053368Y-80533475D01*
X158227760Y-80650000D01*
X158053368Y-80766525D01*
X157846525Y-80973368D01*
X157684010Y-81216589D01*
X157572068Y-81486842D01*
X157515000Y-81773740D01*
X157515000Y-82066260D01*
X157572068Y-82353158D01*
X157684010Y-82623411D01*
X157846525Y-82866632D01*
X158053368Y-83073475D01*
X158227760Y-83190000D01*
X158053368Y-83306525D01*
X157846525Y-83513368D01*
X157684010Y-83756589D01*
X157572068Y-84026842D01*
X157515000Y-84313740D01*
X157515000Y-84606260D01*
X157572068Y-84893158D01*
X157684010Y-85163411D01*
X157846525Y-85406632D01*
X158053368Y-85613475D01*
X158227760Y-85730000D01*
X158053368Y-85846525D01*
X157846525Y-86053368D01*
X157684010Y-86296589D01*
X157572068Y-86566842D01*
X157515000Y-86853740D01*
X157515000Y-87146260D01*
X157572068Y-87433158D01*
X157684010Y-87703411D01*
X157846525Y-87946632D01*
X158053368Y-88153475D01*
X158227760Y-88270000D01*
X158053368Y-88386525D01*
X157846525Y-88593368D01*
X157684010Y-88836589D01*
X157572068Y-89106842D01*
X157515000Y-89393740D01*
X157515000Y-89686260D01*
X157572068Y-89973158D01*
X157684010Y-90243411D01*
X157846525Y-90486632D01*
X158053368Y-90693475D01*
X158227760Y-90810000D01*
X158053368Y-90926525D01*
X157846525Y-91133368D01*
X157684010Y-91376589D01*
X157572068Y-91646842D01*
X157515000Y-91933740D01*
X157515000Y-92226260D01*
X157572068Y-92513158D01*
X157684010Y-92783411D01*
X157846525Y-93026632D01*
X158053368Y-93233475D01*
X158227760Y-93350000D01*
X158053368Y-93466525D01*
X157846525Y-93673368D01*
X157684010Y-93916589D01*
X157572068Y-94186842D01*
X157515000Y-94473740D01*
X157515000Y-94766260D01*
X157572068Y-95053158D01*
X157684010Y-95323411D01*
X157846525Y-95566632D01*
X158053368Y-95773475D01*
X158227760Y-95890000D01*
X158053368Y-96006525D01*
X157846525Y-96213368D01*
X157684010Y-96456589D01*
X157572068Y-96726842D01*
X157515000Y-97013740D01*
X157515000Y-97306260D01*
X157572068Y-97593158D01*
X157684010Y-97863411D01*
X157846525Y-98106632D01*
X158053368Y-98313475D01*
X158227760Y-98430000D01*
X158053368Y-98546525D01*
X157846525Y-98753368D01*
X157684010Y-98996589D01*
X157572068Y-99266842D01*
X157515000Y-99553740D01*
X157515000Y-99846260D01*
X157572068Y-100133158D01*
X157684010Y-100403411D01*
X157846525Y-100646632D01*
X158053368Y-100853475D01*
X158227760Y-100970000D01*
X158053368Y-101086525D01*
X157846525Y-101293368D01*
X157684010Y-101536589D01*
X157572068Y-101806842D01*
X157515000Y-102093740D01*
X157515000Y-102386260D01*
X157572068Y-102673158D01*
X157684010Y-102943411D01*
X157846525Y-103186632D01*
X157978380Y-103318487D01*
X157905820Y-103340498D01*
X157795506Y-103399463D01*
X157698815Y-103478815D01*
X157619463Y-103575506D01*
X157560498Y-103685820D01*
X157524188Y-103805518D01*
X157511928Y-103930000D01*
X153279222Y-103930000D01*
X153470798Y-103611599D01*
X154112533Y-102224511D01*
X154600536Y-100776170D01*
X154929085Y-99283558D01*
X155094328Y-97764172D01*
X155094328Y-96235828D01*
X154929085Y-94716442D01*
X154600536Y-93223830D01*
X154112533Y-91775489D01*
X153470798Y-90388401D01*
X152682854Y-89078828D01*
X151757940Y-87862124D01*
X150706898Y-86752553D01*
X149542052Y-85763123D01*
X148277058Y-84905436D01*
X147757289Y-84629872D01*
X150915000Y-84629872D01*
X150915000Y-85070128D01*
X151000890Y-85501925D01*
X151169369Y-85908669D01*
X151413962Y-86274729D01*
X151725271Y-86586038D01*
X152091331Y-86830631D01*
X152498075Y-86999110D01*
X152929872Y-87085000D01*
X153370128Y-87085000D01*
X153801925Y-86999110D01*
X154208669Y-86830631D01*
X154574729Y-86586038D01*
X154886038Y-86274729D01*
X155130631Y-85908669D01*
X155299110Y-85501925D01*
X155385000Y-85070128D01*
X155385000Y-84629872D01*
X155299110Y-84198075D01*
X155130631Y-83791331D01*
X154886038Y-83425271D01*
X154574729Y-83113962D01*
X154208669Y-82869369D01*
X153801925Y-82700890D01*
X153370128Y-82615000D01*
X152929872Y-82615000D01*
X152498075Y-82700890D01*
X152091331Y-82869369D01*
X151725271Y-83113962D01*
X151413962Y-83425271D01*
X151169369Y-83791331D01*
X151000890Y-84198075D01*
X150915000Y-84629872D01*
X147757289Y-84629872D01*
X146926747Y-84189547D01*
X145506950Y-83623848D01*
X144034314Y-83214973D01*
X142526103Y-82967714D01*
X141000000Y-82884971D01*
X139473897Y-82967714D01*
X137965686Y-83214973D01*
X136493050Y-83623848D01*
X135073253Y-84189547D01*
X133722942Y-84905436D01*
X132457948Y-85763123D01*
X131293102Y-86752553D01*
X130242060Y-87862124D01*
X129317146Y-89078828D01*
X128529202Y-90388401D01*
X127887467Y-91775489D01*
X127399464Y-93223830D01*
X127070915Y-94716442D01*
X126905672Y-96235828D01*
X126905672Y-97764172D01*
X127070915Y-99283558D01*
X127399464Y-100776170D01*
X127887467Y-102224511D01*
X128529202Y-103611599D01*
X129317146Y-104921172D01*
X130242060Y-106137876D01*
X130938407Y-106873000D01*
X125000000Y-106873000D01*
X124975224Y-106875440D01*
X124951399Y-106882667D01*
X124929443Y-106894403D01*
X124916370Y-106904423D01*
X122485000Y-109031872D01*
X122485000Y-108898061D01*
X122445226Y-108698102D01*
X122367205Y-108509744D01*
X122253937Y-108340226D01*
X122109774Y-108196063D01*
X121940256Y-108082795D01*
X121751898Y-108004774D01*
X121551939Y-107965000D01*
X121348061Y-107965000D01*
X121148102Y-108004774D01*
X120959744Y-108082795D01*
X120790226Y-108196063D01*
X120646063Y-108340226D01*
X120600000Y-108409164D01*
X120553937Y-108340226D01*
X120409774Y-108196063D01*
X120240256Y-108082795D01*
X120051898Y-108004774D01*
X119851939Y-107965000D01*
X119648061Y-107965000D01*
X119448102Y-108004774D01*
X119259744Y-108082795D01*
X119090226Y-108196063D01*
X118946063Y-108340226D01*
X118832795Y-108509744D01*
X118754774Y-108698102D01*
X118715000Y-108898061D01*
X118715000Y-109101939D01*
X118754774Y-109301898D01*
X118832795Y-109490256D01*
X118946063Y-109659774D01*
X119090226Y-109803937D01*
X119259744Y-109917205D01*
X119448102Y-109995226D01*
X119648061Y-110035000D01*
X119851939Y-110035000D01*
X120051898Y-109995226D01*
X120240256Y-109917205D01*
X120409774Y-109803937D01*
X120553937Y-109659774D01*
X120600000Y-109590836D01*
X120646063Y-109659774D01*
X120790226Y-109803937D01*
X120959744Y-109917205D01*
X121148102Y-109995226D01*
X121340326Y-110033461D01*
X120916370Y-110404423D01*
X120899331Y-110422575D01*
X120886160Y-110443702D01*
X120877364Y-110466993D01*
X120873000Y-110500000D01*
X120873000Y-120840000D01*
X111083509Y-120840000D01*
X111478839Y-120444670D01*
X111898533Y-119816554D01*
X112187623Y-119118628D01*
X112335000Y-118377715D01*
X112335000Y-118277050D01*
X114515000Y-118277050D01*
X114515000Y-118722949D01*
X114536487Y-118941110D01*
X114621401Y-119221033D01*
X114759294Y-119479013D01*
X114944866Y-119705134D01*
X115170986Y-119890706D01*
X115428966Y-120028599D01*
X115708889Y-120113513D01*
X116000000Y-120142185D01*
X116291110Y-120113513D01*
X116571033Y-120028599D01*
X116829013Y-119890706D01*
X117049945Y-119709392D01*
X117060498Y-119744180D01*
X117119463Y-119854494D01*
X117198815Y-119951185D01*
X117295506Y-120030537D01*
X117405820Y-120089502D01*
X117525518Y-120125812D01*
X117650000Y-120138072D01*
X118093250Y-120135000D01*
X118252000Y-119976250D01*
X118252000Y-118748000D01*
X118748000Y-118748000D01*
X118748000Y-119976250D01*
X118906750Y-120135000D01*
X119350000Y-120138072D01*
X119474482Y-120125812D01*
X119594180Y-120089502D01*
X119704494Y-120030537D01*
X119801185Y-119951185D01*
X119880537Y-119854494D01*
X119939502Y-119744180D01*
X119975812Y-119624482D01*
X119988072Y-119500000D01*
X119985000Y-118906750D01*
X119826250Y-118748000D01*
X118748000Y-118748000D01*
X118252000Y-118748000D01*
X118232000Y-118748000D01*
X118232000Y-118252000D01*
X118252000Y-118252000D01*
X118252000Y-117023750D01*
X118748000Y-117023750D01*
X118748000Y-118252000D01*
X119826250Y-118252000D01*
X119985000Y-118093250D01*
X119988072Y-117500000D01*
X119975812Y-117375518D01*
X119939502Y-117255820D01*
X119880537Y-117145506D01*
X119801185Y-117048815D01*
X119704494Y-116969463D01*
X119594180Y-116910498D01*
X119474482Y-116874188D01*
X119350000Y-116861928D01*
X118906750Y-116865000D01*
X118748000Y-117023750D01*
X118252000Y-117023750D01*
X118093250Y-116865000D01*
X117650000Y-116861928D01*
X117525518Y-116874188D01*
X117405820Y-116910498D01*
X117295506Y-116969463D01*
X117198815Y-117048815D01*
X117119463Y-117145506D01*
X117060498Y-117255820D01*
X117049945Y-117290608D01*
X116829014Y-117109294D01*
X116571034Y-116971401D01*
X116291111Y-116886487D01*
X116000000Y-116857815D01*
X115708890Y-116886487D01*
X115428967Y-116971401D01*
X115170987Y-117109294D01*
X114944866Y-117294866D01*
X114759294Y-117520986D01*
X114621401Y-117778966D01*
X114536487Y-118058889D01*
X114515000Y-118277050D01*
X112335000Y-118277050D01*
X112335000Y-117622285D01*
X112187623Y-116881372D01*
X111898533Y-116183446D01*
X111478839Y-115555330D01*
X110944670Y-115021161D01*
X110316554Y-114601467D01*
X109618628Y-114312377D01*
X108877715Y-114165000D01*
X108122285Y-114165000D01*
X107381372Y-114312377D01*
X106683446Y-114601467D01*
X106055330Y-115021161D01*
X105660000Y-115416491D01*
X105660000Y-110850000D01*
X106361928Y-110850000D01*
X106374188Y-110974482D01*
X106410498Y-111094180D01*
X106469463Y-111204494D01*
X106548815Y-111301185D01*
X106645506Y-111380537D01*
X106755820Y-111439502D01*
X106875518Y-111475812D01*
X107000000Y-111488072D01*
X107593250Y-111485000D01*
X107752000Y-111326250D01*
X107752000Y-110248000D01*
X108248000Y-110248000D01*
X108248000Y-111326250D01*
X108406750Y-111485000D01*
X109000000Y-111488072D01*
X109124482Y-111475812D01*
X109244180Y-111439502D01*
X109354494Y-111380537D01*
X109451185Y-111301185D01*
X109530537Y-111204494D01*
X109589502Y-111094180D01*
X109625812Y-110974482D01*
X109638072Y-110850000D01*
X109635000Y-110406750D01*
X109476250Y-110248000D01*
X108248000Y-110248000D01*
X107752000Y-110248000D01*
X106523750Y-110248000D01*
X106365000Y-110406750D01*
X106361928Y-110850000D01*
X105660000Y-110850000D01*
X105660000Y-107500000D01*
X106357815Y-107500000D01*
X106386487Y-107791111D01*
X106471401Y-108071034D01*
X106609294Y-108329014D01*
X106790608Y-108549945D01*
X106755820Y-108560498D01*
X106645506Y-108619463D01*
X106548815Y-108698815D01*
X106469463Y-108795506D01*
X106410498Y-108905820D01*
X106374188Y-109025518D01*
X106361928Y-109150000D01*
X106365000Y-109593250D01*
X106523750Y-109752000D01*
X107752000Y-109752000D01*
X107752000Y-109732000D01*
X108248000Y-109732000D01*
X108248000Y-109752000D01*
X109476250Y-109752000D01*
X109635000Y-109593250D01*
X109638072Y-109150000D01*
X109625812Y-109025518D01*
X109589502Y-108905820D01*
X109585355Y-108898061D01*
X113135000Y-108898061D01*
X113135000Y-109101939D01*
X113174774Y-109301898D01*
X113252795Y-109490256D01*
X113366063Y-109659774D01*
X113510226Y-109803937D01*
X113679744Y-109917205D01*
X113868102Y-109995226D01*
X114068061Y-110035000D01*
X114271939Y-110035000D01*
X114471898Y-109995226D01*
X114660256Y-109917205D01*
X114829774Y-109803937D01*
X114973937Y-109659774D01*
X115087205Y-109490256D01*
X115165226Y-109301898D01*
X115196185Y-109146253D01*
X115301898Y-109125226D01*
X115490256Y-109047205D01*
X115659774Y-108933937D01*
X115803937Y-108789774D01*
X115917205Y-108620256D01*
X115995226Y-108431898D01*
X116035000Y-108231939D01*
X116035000Y-108028061D01*
X115995226Y-107828102D01*
X115917205Y-107639744D01*
X115803937Y-107470226D01*
X115659774Y-107326063D01*
X115490256Y-107212795D01*
X115301898Y-107134774D01*
X115101939Y-107095000D01*
X114898061Y-107095000D01*
X114698102Y-107134774D01*
X114509744Y-107212795D01*
X114340226Y-107326063D01*
X114196063Y-107470226D01*
X114082795Y-107639744D01*
X114004774Y-107828102D01*
X113973815Y-107983747D01*
X113868102Y-108004774D01*
X113679744Y-108082795D01*
X113510226Y-108196063D01*
X113366063Y-108340226D01*
X113252795Y-108509744D01*
X113174774Y-108698102D01*
X113135000Y-108898061D01*
X109585355Y-108898061D01*
X109530537Y-108795506D01*
X109451185Y-108698815D01*
X109354494Y-108619463D01*
X109244180Y-108560498D01*
X109209392Y-108549945D01*
X109390706Y-108329014D01*
X109528599Y-108071034D01*
X109613513Y-107791111D01*
X109642185Y-107500000D01*
X109613513Y-107208889D01*
X109528599Y-106928966D01*
X109390706Y-106670986D01*
X109205134Y-106444866D01*
X108995790Y-106273061D01*
X121990000Y-106273061D01*
X121990000Y-106476939D01*
X122029774Y-106676898D01*
X122107795Y-106865256D01*
X122221063Y-107034774D01*
X122365226Y-107178937D01*
X122534744Y-107292205D01*
X122723102Y-107370226D01*
X122923061Y-107410000D01*
X123126939Y-107410000D01*
X123326898Y-107370226D01*
X123515256Y-107292205D01*
X123684774Y-107178937D01*
X123828937Y-107034774D01*
X123942205Y-106865256D01*
X124020226Y-106676898D01*
X124060000Y-106476939D01*
X124060000Y-106273061D01*
X124020226Y-106073102D01*
X123942205Y-105884744D01*
X123828937Y-105715226D01*
X123684774Y-105571063D01*
X123515256Y-105457795D01*
X123326898Y-105379774D01*
X123126939Y-105340000D01*
X122923061Y-105340000D01*
X122723102Y-105379774D01*
X122534744Y-105457795D01*
X122365226Y-105571063D01*
X122221063Y-105715226D01*
X122107795Y-105884744D01*
X122029774Y-106073102D01*
X121990000Y-106273061D01*
X108995790Y-106273061D01*
X108979014Y-106259294D01*
X108721034Y-106121401D01*
X108441111Y-106036487D01*
X108222950Y-106015000D01*
X107777050Y-106015000D01*
X107558889Y-106036487D01*
X107278966Y-106121401D01*
X107020986Y-106259294D01*
X106794866Y-106444866D01*
X106609294Y-106670986D01*
X106471401Y-106928966D01*
X106386487Y-107208889D01*
X106357815Y-107500000D01*
X105660000Y-107500000D01*
X105660000Y-95500000D01*
X106357815Y-95500000D01*
X106386487Y-95791111D01*
X106471401Y-96071034D01*
X106609294Y-96329014D01*
X106794866Y-96555134D01*
X106858337Y-96607223D01*
X106756614Y-96661595D01*
X106622038Y-96772038D01*
X106511595Y-96906614D01*
X106429528Y-97060150D01*
X106378992Y-97226746D01*
X106361928Y-97400000D01*
X106361928Y-98600000D01*
X106378992Y-98773254D01*
X106429528Y-98939850D01*
X106511595Y-99093386D01*
X106622038Y-99227962D01*
X106756614Y-99338405D01*
X106910150Y-99420472D01*
X107076746Y-99471008D01*
X107250000Y-99488072D01*
X108750000Y-99488072D01*
X108923254Y-99471008D01*
X109089850Y-99420472D01*
X109243386Y-99338405D01*
X109377962Y-99227962D01*
X109488405Y-99093386D01*
X109570472Y-98939850D01*
X109621008Y-98773254D01*
X109638072Y-98600000D01*
X109638072Y-97400000D01*
X109621008Y-97226746D01*
X109570472Y-97060150D01*
X109488405Y-96906614D01*
X109377962Y-96772038D01*
X109243386Y-96661595D01*
X109141663Y-96607223D01*
X109205134Y-96555134D01*
X109390706Y-96329014D01*
X109528599Y-96071034D01*
X109613513Y-95791111D01*
X109642185Y-95500000D01*
X109613513Y-95208889D01*
X109528599Y-94928966D01*
X109390706Y-94670986D01*
X109205134Y-94444866D01*
X108979014Y-94259294D01*
X108721034Y-94121401D01*
X108441111Y-94036487D01*
X108222950Y-94015000D01*
X107777050Y-94015000D01*
X107558889Y-94036487D01*
X107278966Y-94121401D01*
X107020986Y-94259294D01*
X106794866Y-94444866D01*
X106609294Y-94670986D01*
X106471401Y-94928966D01*
X106386487Y-95208889D01*
X106357815Y-95500000D01*
X105660000Y-95500000D01*
X105660000Y-76500000D01*
X106382815Y-76500000D01*
X106411487Y-76791111D01*
X106496401Y-77071034D01*
X106634294Y-77329014D01*
X106819866Y-77555134D01*
X107045986Y-77740706D01*
X107063374Y-77750000D01*
X107045986Y-77759294D01*
X106819866Y-77944866D01*
X106634294Y-78170986D01*
X106496401Y-78428966D01*
X106411487Y-78708889D01*
X106382815Y-79000000D01*
X106411487Y-79291111D01*
X106496401Y-79571034D01*
X106634294Y-79829014D01*
X106819866Y-80055134D01*
X107045986Y-80240706D01*
X107063374Y-80250000D01*
X107045986Y-80259294D01*
X106819866Y-80444866D01*
X106634294Y-80670986D01*
X106496401Y-80928966D01*
X106411487Y-81208889D01*
X106382815Y-81500000D01*
X106411487Y-81791111D01*
X106496401Y-82071034D01*
X106634294Y-82329014D01*
X106819866Y-82555134D01*
X107045986Y-82740706D01*
X107063374Y-82750000D01*
X107045986Y-82759294D01*
X106819866Y-82944866D01*
X106634294Y-83170986D01*
X106496401Y-83428966D01*
X106411487Y-83708889D01*
X106382815Y-84000000D01*
X106411487Y-84291111D01*
X106496401Y-84571034D01*
X106634294Y-84829014D01*
X106819866Y-85055134D01*
X107045986Y-85240706D01*
X107063374Y-85250000D01*
X107045986Y-85259294D01*
X106819866Y-85444866D01*
X106634294Y-85670986D01*
X106496401Y-85928966D01*
X106411487Y-86208889D01*
X106382815Y-86500000D01*
X106411487Y-86791111D01*
X106496401Y-87071034D01*
X106634294Y-87329014D01*
X106819866Y-87555134D01*
X106883337Y-87607223D01*
X106781614Y-87661595D01*
X106647038Y-87772038D01*
X106536595Y-87906614D01*
X106454528Y-88060150D01*
X106403992Y-88226746D01*
X106386928Y-88400000D01*
X106386928Y-89600000D01*
X106403992Y-89773254D01*
X106454528Y-89939850D01*
X106536595Y-90093386D01*
X106647038Y-90227962D01*
X106781614Y-90338405D01*
X106935150Y-90420472D01*
X107101746Y-90471008D01*
X107275000Y-90488072D01*
X108725000Y-90488072D01*
X108898254Y-90471008D01*
X109064850Y-90420472D01*
X109218386Y-90338405D01*
X109352962Y-90227962D01*
X109463405Y-90093386D01*
X109545472Y-89939850D01*
X109596008Y-89773254D01*
X109613072Y-89600000D01*
X109613072Y-88400000D01*
X109596008Y-88226746D01*
X109545472Y-88060150D01*
X109463405Y-87906614D01*
X109352962Y-87772038D01*
X109218386Y-87661595D01*
X109116663Y-87607223D01*
X109180134Y-87555134D01*
X109365706Y-87329014D01*
X109503599Y-87071034D01*
X109588513Y-86791111D01*
X109617185Y-86500000D01*
X109588513Y-86208889D01*
X109503599Y-85928966D01*
X109365706Y-85670986D01*
X109180134Y-85444866D01*
X108954014Y-85259294D01*
X108936626Y-85250000D01*
X108954014Y-85240706D01*
X109180134Y-85055134D01*
X109365706Y-84829014D01*
X109503599Y-84571034D01*
X109588513Y-84291111D01*
X109617185Y-84000000D01*
X109588513Y-83708889D01*
X109503599Y-83428966D01*
X109365706Y-83170986D01*
X109180134Y-82944866D01*
X108954014Y-82759294D01*
X108936626Y-82750000D01*
X108954014Y-82740706D01*
X109180134Y-82555134D01*
X109365706Y-82329014D01*
X109503599Y-82071034D01*
X109552231Y-81910714D01*
X113477653Y-81910714D01*
X113477653Y-82114592D01*
X113517427Y-82314551D01*
X113595448Y-82502909D01*
X113708716Y-82672427D01*
X113852879Y-82816590D01*
X114022397Y-82929858D01*
X114210755Y-83007879D01*
X114410714Y-83047653D01*
X114614592Y-83047653D01*
X114814551Y-83007879D01*
X114908752Y-82968859D01*
X115013368Y-83073475D01*
X115187760Y-83190000D01*
X115013368Y-83306525D01*
X114806525Y-83513368D01*
X114644010Y-83756589D01*
X114532068Y-84026842D01*
X114475000Y-84313740D01*
X114475000Y-84606260D01*
X114532068Y-84893158D01*
X114644010Y-85163411D01*
X114806525Y-85406632D01*
X115013368Y-85613475D01*
X115187760Y-85730000D01*
X115013368Y-85846525D01*
X114806525Y-86053368D01*
X114644010Y-86296589D01*
X114532068Y-86566842D01*
X114475000Y-86853740D01*
X114475000Y-87146260D01*
X114532068Y-87433158D01*
X114644010Y-87703411D01*
X114806525Y-87946632D01*
X115013368Y-88153475D01*
X115187760Y-88270000D01*
X115013368Y-88386525D01*
X114806525Y-88593368D01*
X114644010Y-88836589D01*
X114532068Y-89106842D01*
X114475000Y-89393740D01*
X114475000Y-89686260D01*
X114532068Y-89973158D01*
X114644010Y-90243411D01*
X114806525Y-90486632D01*
X115013368Y-90693475D01*
X115187760Y-90810000D01*
X115013368Y-90926525D01*
X114806525Y-91133368D01*
X114644010Y-91376589D01*
X114532068Y-91646842D01*
X114475000Y-91933740D01*
X114475000Y-92226260D01*
X114532068Y-92513158D01*
X114644010Y-92783411D01*
X114806525Y-93026632D01*
X115013368Y-93233475D01*
X115187760Y-93350000D01*
X115013368Y-93466525D01*
X114806525Y-93673368D01*
X114644010Y-93916589D01*
X114532068Y-94186842D01*
X114475000Y-94473740D01*
X114475000Y-94766260D01*
X114532068Y-95053158D01*
X114644010Y-95323411D01*
X114806525Y-95566632D01*
X115013368Y-95773475D01*
X115187760Y-95890000D01*
X115013368Y-96006525D01*
X114806525Y-96213368D01*
X114644010Y-96456589D01*
X114532068Y-96726842D01*
X114475000Y-97013740D01*
X114475000Y-97306260D01*
X114532068Y-97593158D01*
X114644010Y-97863411D01*
X114806525Y-98106632D01*
X115013368Y-98313475D01*
X115187760Y-98430000D01*
X115013368Y-98546525D01*
X114806525Y-98753368D01*
X114644010Y-98996589D01*
X114532068Y-99266842D01*
X114475000Y-99553740D01*
X114475000Y-99846260D01*
X114532068Y-100133158D01*
X114644010Y-100403411D01*
X114806525Y-100646632D01*
X115013368Y-100853475D01*
X115187760Y-100970000D01*
X115013368Y-101086525D01*
X114806525Y-101293368D01*
X114644010Y-101536589D01*
X114532068Y-101806842D01*
X114475000Y-102093740D01*
X114475000Y-102386260D01*
X114532068Y-102673158D01*
X114644010Y-102943411D01*
X114806525Y-103186632D01*
X114938380Y-103318487D01*
X114865820Y-103340498D01*
X114755506Y-103399463D01*
X114658815Y-103478815D01*
X114579463Y-103575506D01*
X114520498Y-103685820D01*
X114484188Y-103805518D01*
X114471928Y-103930000D01*
X114471928Y-105630000D01*
X114484188Y-105754482D01*
X114520498Y-105874180D01*
X114579463Y-105984494D01*
X114658815Y-106081185D01*
X114755506Y-106160537D01*
X114865820Y-106219502D01*
X114985518Y-106255812D01*
X115110000Y-106268072D01*
X116810000Y-106268072D01*
X116934482Y-106255812D01*
X117054180Y-106219502D01*
X117164494Y-106160537D01*
X117261185Y-106081185D01*
X117340537Y-105984494D01*
X117399502Y-105874180D01*
X117424083Y-105793147D01*
X117523527Y-105898817D01*
X117760560Y-106067820D01*
X118026009Y-106187333D01*
X118252000Y-106085405D01*
X118252000Y-105028000D01*
X118748000Y-105028000D01*
X118748000Y-106085405D01*
X118973991Y-106187333D01*
X119239440Y-106067820D01*
X119476473Y-105898817D01*
X119675981Y-105686819D01*
X119830296Y-105439972D01*
X119907323Y-105253989D01*
X119802857Y-105028000D01*
X118748000Y-105028000D01*
X118252000Y-105028000D01*
X118232000Y-105028000D01*
X118232000Y-104532000D01*
X118252000Y-104532000D01*
X118252000Y-102488000D01*
X118748000Y-102488000D01*
X118748000Y-104532000D01*
X119802857Y-104532000D01*
X119907323Y-104306011D01*
X119830296Y-104120028D01*
X119675981Y-103873181D01*
X119476473Y-103661183D01*
X119264433Y-103510000D01*
X119476473Y-103358817D01*
X119675981Y-103146819D01*
X119830296Y-102899972D01*
X119907323Y-102713989D01*
X119802857Y-102488000D01*
X118748000Y-102488000D01*
X118252000Y-102488000D01*
X118232000Y-102488000D01*
X118232000Y-101992000D01*
X118252000Y-101992000D01*
X118252000Y-101972000D01*
X118748000Y-101972000D01*
X118748000Y-101992000D01*
X119802857Y-101992000D01*
X119907323Y-101766011D01*
X119830296Y-101580028D01*
X119675981Y-101333181D01*
X119476473Y-101121183D01*
X119268210Y-100972693D01*
X119446632Y-100853475D01*
X119653475Y-100646632D01*
X119815990Y-100403411D01*
X119927932Y-100133158D01*
X119985000Y-99846260D01*
X119985000Y-99553740D01*
X119927932Y-99266842D01*
X119815990Y-98996589D01*
X119653475Y-98753368D01*
X119446632Y-98546525D01*
X119272240Y-98430000D01*
X119446632Y-98313475D01*
X119653475Y-98106632D01*
X119815990Y-97863411D01*
X119927932Y-97593158D01*
X119985000Y-97306260D01*
X119985000Y-97013740D01*
X119927932Y-96726842D01*
X119815990Y-96456589D01*
X119653475Y-96213368D01*
X119446632Y-96006525D01*
X119272240Y-95890000D01*
X119446632Y-95773475D01*
X119653475Y-95566632D01*
X119815990Y-95323411D01*
X119927932Y-95053158D01*
X119985000Y-94766260D01*
X119985000Y-94473740D01*
X119927932Y-94186842D01*
X119815990Y-93916589D01*
X119653475Y-93673368D01*
X119446632Y-93466525D01*
X119272240Y-93350000D01*
X119446632Y-93233475D01*
X119653475Y-93026632D01*
X119815990Y-92783411D01*
X119927932Y-92513158D01*
X119985000Y-92226260D01*
X119985000Y-91933740D01*
X119927932Y-91646842D01*
X119815990Y-91376589D01*
X119653475Y-91133368D01*
X119446632Y-90926525D01*
X119404033Y-90898061D01*
X123240000Y-90898061D01*
X123240000Y-91101939D01*
X123279774Y-91301898D01*
X123357795Y-91490256D01*
X123471063Y-91659774D01*
X123615226Y-91803937D01*
X123784744Y-91917205D01*
X123973102Y-91995226D01*
X124173061Y-92035000D01*
X124376939Y-92035000D01*
X124576898Y-91995226D01*
X124765256Y-91917205D01*
X124934774Y-91803937D01*
X125078937Y-91659774D01*
X125192205Y-91490256D01*
X125270226Y-91301898D01*
X125310000Y-91101939D01*
X125310000Y-90898061D01*
X125270226Y-90698102D01*
X125192205Y-90509744D01*
X125078937Y-90340226D01*
X124934774Y-90196063D01*
X124765256Y-90082795D01*
X124576898Y-90004774D01*
X124376939Y-89965000D01*
X124173061Y-89965000D01*
X123973102Y-90004774D01*
X123784744Y-90082795D01*
X123615226Y-90196063D01*
X123471063Y-90340226D01*
X123357795Y-90509744D01*
X123279774Y-90698102D01*
X123240000Y-90898061D01*
X119404033Y-90898061D01*
X119272240Y-90810000D01*
X119446632Y-90693475D01*
X119653475Y-90486632D01*
X119815990Y-90243411D01*
X119927932Y-89973158D01*
X119985000Y-89686260D01*
X119985000Y-89398061D01*
X124690000Y-89398061D01*
X124690000Y-89601939D01*
X124729774Y-89801898D01*
X124807795Y-89990256D01*
X124921063Y-90159774D01*
X125065226Y-90303937D01*
X125234744Y-90417205D01*
X125423102Y-90495226D01*
X125623061Y-90535000D01*
X125826939Y-90535000D01*
X126026898Y-90495226D01*
X126215256Y-90417205D01*
X126384774Y-90303937D01*
X126528937Y-90159774D01*
X126642205Y-89990256D01*
X126720226Y-89801898D01*
X126760000Y-89601939D01*
X126760000Y-89398061D01*
X126720226Y-89198102D01*
X126642205Y-89009744D01*
X126528937Y-88840226D01*
X126384774Y-88696063D01*
X126215256Y-88582795D01*
X126026898Y-88504774D01*
X125826939Y-88465000D01*
X125623061Y-88465000D01*
X125423102Y-88504774D01*
X125234744Y-88582795D01*
X125065226Y-88696063D01*
X124921063Y-88840226D01*
X124807795Y-89009744D01*
X124729774Y-89198102D01*
X124690000Y-89398061D01*
X119985000Y-89398061D01*
X119985000Y-89393740D01*
X119927932Y-89106842D01*
X119815990Y-88836589D01*
X119653475Y-88593368D01*
X119446632Y-88386525D01*
X119272240Y-88270000D01*
X119446632Y-88153475D01*
X119653475Y-87946632D01*
X119815990Y-87703411D01*
X119927932Y-87433158D01*
X119985000Y-87146260D01*
X119985000Y-86853740D01*
X119927932Y-86566842D01*
X119815990Y-86296589D01*
X119653475Y-86053368D01*
X119446632Y-85846525D01*
X119272240Y-85730000D01*
X119446632Y-85613475D01*
X119653475Y-85406632D01*
X119815990Y-85163411D01*
X119927932Y-84893158D01*
X119980303Y-84629872D01*
X126615000Y-84629872D01*
X126615000Y-85070128D01*
X126700890Y-85501925D01*
X126869369Y-85908669D01*
X127113962Y-86274729D01*
X127425271Y-86586038D01*
X127791331Y-86830631D01*
X128198075Y-86999110D01*
X128629872Y-87085000D01*
X129070128Y-87085000D01*
X129501925Y-86999110D01*
X129908669Y-86830631D01*
X130274729Y-86586038D01*
X130586038Y-86274729D01*
X130830631Y-85908669D01*
X130999110Y-85501925D01*
X131085000Y-85070128D01*
X131085000Y-84629872D01*
X130999110Y-84198075D01*
X130830631Y-83791331D01*
X130586038Y-83425271D01*
X130274729Y-83113962D01*
X129908669Y-82869369D01*
X129501925Y-82700890D01*
X129070128Y-82615000D01*
X128629872Y-82615000D01*
X128198075Y-82700890D01*
X127791331Y-82869369D01*
X127425271Y-83113962D01*
X127113962Y-83425271D01*
X126869369Y-83791331D01*
X126700890Y-84198075D01*
X126615000Y-84629872D01*
X119980303Y-84629872D01*
X119985000Y-84606260D01*
X119985000Y-84313740D01*
X119927932Y-84026842D01*
X119815990Y-83756589D01*
X119653475Y-83513368D01*
X119588168Y-83448061D01*
X122515000Y-83448061D01*
X122515000Y-83651939D01*
X122554774Y-83851898D01*
X122632795Y-84040256D01*
X122746063Y-84209774D01*
X122890226Y-84353937D01*
X123059744Y-84467205D01*
X123248102Y-84545226D01*
X123448061Y-84585000D01*
X123651939Y-84585000D01*
X123851898Y-84545226D01*
X124040256Y-84467205D01*
X124209774Y-84353937D01*
X124353937Y-84209774D01*
X124467205Y-84040256D01*
X124545226Y-83851898D01*
X124585000Y-83651939D01*
X124585000Y-83448061D01*
X124545226Y-83248102D01*
X124467205Y-83059744D01*
X124353937Y-82890226D01*
X124209774Y-82746063D01*
X124040256Y-82632795D01*
X123851898Y-82554774D01*
X123651939Y-82515000D01*
X123448061Y-82515000D01*
X123248102Y-82554774D01*
X123059744Y-82632795D01*
X122890226Y-82746063D01*
X122746063Y-82890226D01*
X122632795Y-83059744D01*
X122554774Y-83248102D01*
X122515000Y-83448061D01*
X119588168Y-83448061D01*
X119446632Y-83306525D01*
X119272240Y-83190000D01*
X119446632Y-83073475D01*
X119653475Y-82866632D01*
X119815990Y-82623411D01*
X119927932Y-82353158D01*
X119985000Y-82066260D01*
X119985000Y-81773740D01*
X119927932Y-81486842D01*
X119815990Y-81216589D01*
X119653475Y-80973368D01*
X119446632Y-80766525D01*
X119272240Y-80650000D01*
X119446632Y-80533475D01*
X119653475Y-80326632D01*
X119815990Y-80083411D01*
X119927932Y-79813158D01*
X119985000Y-79526260D01*
X119985000Y-79233740D01*
X119927932Y-78946842D01*
X119815990Y-78676589D01*
X119653475Y-78433368D01*
X119446632Y-78226525D01*
X119272240Y-78110000D01*
X119446632Y-77993475D01*
X119653475Y-77786632D01*
X119815990Y-77543411D01*
X119927932Y-77273158D01*
X119932924Y-77248061D01*
X122465000Y-77248061D01*
X122465000Y-77451939D01*
X122504774Y-77651898D01*
X122582795Y-77840256D01*
X122696063Y-78009774D01*
X122840226Y-78153937D01*
X123009744Y-78267205D01*
X123198102Y-78345226D01*
X123398061Y-78385000D01*
X123601939Y-78385000D01*
X123801898Y-78345226D01*
X123990256Y-78267205D01*
X124159774Y-78153937D01*
X124303937Y-78009774D01*
X124417205Y-77840256D01*
X124495226Y-77651898D01*
X124535000Y-77451939D01*
X124535000Y-77248061D01*
X124495226Y-77048102D01*
X124417205Y-76859744D01*
X124303937Y-76690226D01*
X124159774Y-76546063D01*
X123990256Y-76432795D01*
X123801898Y-76354774D01*
X123601939Y-76315000D01*
X123398061Y-76315000D01*
X123198102Y-76354774D01*
X123009744Y-76432795D01*
X122840226Y-76546063D01*
X122696063Y-76690226D01*
X122582795Y-76859744D01*
X122504774Y-77048102D01*
X122465000Y-77248061D01*
X119932924Y-77248061D01*
X119985000Y-76986260D01*
X119985000Y-76693740D01*
X119927932Y-76406842D01*
X119815990Y-76136589D01*
X119653475Y-75893368D01*
X119446632Y-75686525D01*
X119272240Y-75570000D01*
X119446632Y-75453475D01*
X119653475Y-75246632D01*
X119815990Y-75003411D01*
X119927932Y-74733158D01*
X119985000Y-74446260D01*
X119985000Y-74153740D01*
X119927932Y-73866842D01*
X119911020Y-73826011D01*
X157592677Y-73826011D01*
X157697143Y-74052000D01*
X158752000Y-74052000D01*
X158752000Y-72994595D01*
X159248000Y-72994595D01*
X159248000Y-74052000D01*
X160302857Y-74052000D01*
X160407323Y-73826011D01*
X160330296Y-73640028D01*
X160175981Y-73393181D01*
X159976473Y-73181183D01*
X159739440Y-73012180D01*
X159473991Y-72892667D01*
X159248000Y-72994595D01*
X158752000Y-72994595D01*
X158526009Y-72892667D01*
X158260560Y-73012180D01*
X158023527Y-73181183D01*
X157824019Y-73393181D01*
X157669704Y-73640028D01*
X157592677Y-73826011D01*
X119911020Y-73826011D01*
X119815990Y-73596589D01*
X119653475Y-73353368D01*
X119446632Y-73146525D01*
X119203411Y-72984010D01*
X118933158Y-72872068D01*
X118646260Y-72815000D01*
X118353740Y-72815000D01*
X118066842Y-72872068D01*
X117796589Y-72984010D01*
X117553368Y-73146525D01*
X117346525Y-73353368D01*
X117230000Y-73527760D01*
X117113475Y-73353368D01*
X116906632Y-73146525D01*
X116663411Y-72984010D01*
X116393158Y-72872068D01*
X116106260Y-72815000D01*
X115813740Y-72815000D01*
X115526842Y-72872068D01*
X115256589Y-72984010D01*
X115013368Y-73146525D01*
X114806525Y-73353368D01*
X114644010Y-73596589D01*
X114532068Y-73866842D01*
X114475000Y-74153740D01*
X114475000Y-74446260D01*
X114532068Y-74733158D01*
X114644010Y-75003411D01*
X114806525Y-75246632D01*
X115013368Y-75453475D01*
X115187760Y-75570000D01*
X115013368Y-75686525D01*
X114806525Y-75893368D01*
X114644010Y-76136589D01*
X114532068Y-76406842D01*
X114475000Y-76693740D01*
X114475000Y-76986260D01*
X114532068Y-77273158D01*
X114644010Y-77543411D01*
X114806525Y-77786632D01*
X115013368Y-77993475D01*
X115187760Y-78110000D01*
X115013368Y-78226525D01*
X114806525Y-78433368D01*
X114644010Y-78676589D01*
X114532068Y-78946842D01*
X114475000Y-79233740D01*
X114475000Y-79526260D01*
X114532068Y-79813158D01*
X114644010Y-80083411D01*
X114806525Y-80326632D01*
X115013368Y-80533475D01*
X115187760Y-80650000D01*
X115013368Y-80766525D01*
X114806525Y-80973368D01*
X114781481Y-81010849D01*
X114614592Y-80977653D01*
X114410714Y-80977653D01*
X114210755Y-81017427D01*
X114022397Y-81095448D01*
X113852879Y-81208716D01*
X113708716Y-81352879D01*
X113595448Y-81522397D01*
X113517427Y-81710755D01*
X113477653Y-81910714D01*
X109552231Y-81910714D01*
X109588513Y-81791111D01*
X109617185Y-81500000D01*
X109588513Y-81208889D01*
X109503599Y-80928966D01*
X109365706Y-80670986D01*
X109180134Y-80444866D01*
X108954014Y-80259294D01*
X108936626Y-80250000D01*
X108954014Y-80240706D01*
X109180134Y-80055134D01*
X109284809Y-79927587D01*
X109448102Y-79995226D01*
X109648061Y-80035000D01*
X109851939Y-80035000D01*
X110051898Y-79995226D01*
X110240256Y-79917205D01*
X110409774Y-79803937D01*
X110553937Y-79659774D01*
X110667205Y-79490256D01*
X110745226Y-79301898D01*
X110785000Y-79101939D01*
X110785000Y-78898061D01*
X110745226Y-78698102D01*
X110667205Y-78509744D01*
X110553937Y-78340226D01*
X110409774Y-78196063D01*
X110240256Y-78082795D01*
X110051898Y-78004774D01*
X109851939Y-77965000D01*
X109648061Y-77965000D01*
X109448102Y-78004774D01*
X109284809Y-78072413D01*
X109180134Y-77944866D01*
X108954014Y-77759294D01*
X108936626Y-77750000D01*
X108954014Y-77740706D01*
X109180134Y-77555134D01*
X109365706Y-77329014D01*
X109503599Y-77071034D01*
X109588513Y-76791111D01*
X109617185Y-76500000D01*
X109588513Y-76208889D01*
X109503599Y-75928966D01*
X109365706Y-75670986D01*
X109180134Y-75444866D01*
X108954014Y-75259294D01*
X108696034Y-75121401D01*
X108416111Y-75036487D01*
X108197950Y-75015000D01*
X107802050Y-75015000D01*
X107583889Y-75036487D01*
X107303966Y-75121401D01*
X107045986Y-75259294D01*
X106819866Y-75444866D01*
X106634294Y-75670986D01*
X106496401Y-75928966D01*
X106411487Y-76208889D01*
X106382815Y-76500000D01*
X105660000Y-76500000D01*
X105660000Y-71583509D01*
X106055330Y-71978839D01*
X106683446Y-72398533D01*
X107381372Y-72687623D01*
X108122285Y-72835000D01*
X108877715Y-72835000D01*
X109618628Y-72687623D01*
X110316554Y-72398533D01*
X110944670Y-71978839D01*
X111478839Y-71444670D01*
X111877480Y-70848061D01*
X122515000Y-70848061D01*
X122515000Y-71051939D01*
X122554774Y-71251898D01*
X122632795Y-71440256D01*
X122746063Y-71609774D01*
X122890226Y-71753937D01*
X123059744Y-71867205D01*
X123248102Y-71945226D01*
X123448061Y-71985000D01*
X123651939Y-71985000D01*
X123851898Y-71945226D01*
X124040256Y-71867205D01*
X124209774Y-71753937D01*
X124353937Y-71609774D01*
X124467205Y-71440256D01*
X124545226Y-71251898D01*
X124585000Y-71051939D01*
X124585000Y-70848061D01*
X124545226Y-70648102D01*
X124467205Y-70459744D01*
X124353937Y-70290226D01*
X124209774Y-70146063D01*
X124040256Y-70032795D01*
X123851898Y-69954774D01*
X123651939Y-69915000D01*
X123448061Y-69915000D01*
X123248102Y-69954774D01*
X123059744Y-70032795D01*
X122890226Y-70146063D01*
X122746063Y-70290226D01*
X122632795Y-70459744D01*
X122554774Y-70648102D01*
X122515000Y-70848061D01*
X111877480Y-70848061D01*
X111898533Y-70816554D01*
X112187623Y-70118628D01*
X112335000Y-69377715D01*
X112335000Y-68622285D01*
X112187623Y-67881372D01*
X111898533Y-67183446D01*
X111478839Y-66555330D01*
X111083509Y-66160000D01*
X163916491Y-66160000D01*
X163521161Y-66555330D01*
%TA.AperFunction,Conductor*%
D25*
G36*
X163521161Y-66555330D02*
G01*
X163101467Y-67183446D01*
X162812377Y-67881372D01*
X162665000Y-68622285D01*
X162665000Y-69377715D01*
X162812377Y-70118628D01*
X163101467Y-70816554D01*
X163521161Y-71444670D01*
X163941491Y-71865000D01*
X163898061Y-71865000D01*
X163698102Y-71904774D01*
X163600000Y-71945409D01*
X163501898Y-71904774D01*
X163301939Y-71865000D01*
X163098061Y-71865000D01*
X162898102Y-71904774D01*
X162709744Y-71982795D01*
X162540226Y-72096063D01*
X162396063Y-72240226D01*
X162282795Y-72409744D01*
X162204774Y-72598102D01*
X162165000Y-72798061D01*
X162165000Y-73001939D01*
X162204774Y-73201898D01*
X162245409Y-73300000D01*
X162204774Y-73398102D01*
X162165000Y-73598061D01*
X162165000Y-73801939D01*
X162204774Y-74001898D01*
X162282795Y-74190256D01*
X162396063Y-74359774D01*
X162540226Y-74503937D01*
X162709744Y-74617205D01*
X162898102Y-74695226D01*
X163098061Y-74735000D01*
X163301939Y-74735000D01*
X163501898Y-74695226D01*
X163600000Y-74654591D01*
X163698102Y-74695226D01*
X163898061Y-74735000D01*
X164101939Y-74735000D01*
X164301898Y-74695226D01*
X164490256Y-74617205D01*
X164659774Y-74503937D01*
X164803937Y-74359774D01*
X164917205Y-74190256D01*
X164995226Y-74001898D01*
X165035000Y-73801939D01*
X165035000Y-73598061D01*
X164995226Y-73398102D01*
X164954591Y-73300000D01*
X164995226Y-73201898D01*
X165035000Y-73001939D01*
X165035000Y-72798061D01*
X164995226Y-72598102D01*
X164960013Y-72513091D01*
X165381372Y-72687623D01*
X166122285Y-72835000D01*
X166877715Y-72835000D01*
X167618628Y-72687623D01*
X168316554Y-72398533D01*
X168944670Y-71978839D01*
X169478839Y-71444670D01*
X169898533Y-70816554D01*
X170187623Y-70118628D01*
X170335000Y-69377715D01*
X170335000Y-69219721D01*
X173515000Y-69219721D01*
X173515000Y-69640279D01*
X173597047Y-70052756D01*
X173757988Y-70441302D01*
X173991637Y-70790983D01*
X174289017Y-71088363D01*
X174638698Y-71322012D01*
X175027244Y-71482953D01*
X175053199Y-71488116D01*
X174924201Y-71617114D01*
X174772629Y-71843957D01*
X174668225Y-72096011D01*
X174615000Y-72363589D01*
X174615000Y-72636411D01*
X174668225Y-72903989D01*
X174772629Y-73156043D01*
X174924201Y-73382886D01*
X175117114Y-73575799D01*
X175343957Y-73727371D01*
X175398588Y-73750000D01*
X175343957Y-73772629D01*
X175117114Y-73924201D01*
X174924201Y-74117114D01*
X174772629Y-74343957D01*
X174668225Y-74596011D01*
X174615000Y-74863589D01*
X174615000Y-75136411D01*
X174668225Y-75403989D01*
X174772629Y-75656043D01*
X174924201Y-75882886D01*
X175041315Y-76000000D01*
X174924201Y-76117114D01*
X174772629Y-76343957D01*
X174668225Y-76596011D01*
X174615000Y-76863589D01*
X174615000Y-77136411D01*
X174668225Y-77403989D01*
X174772629Y-77656043D01*
X174924201Y-77882886D01*
X175117114Y-78075799D01*
X175181310Y-78118693D01*
X175125518Y-78124188D01*
X175005820Y-78160498D01*
X174895506Y-78219463D01*
X174798815Y-78298815D01*
X174719463Y-78395506D01*
X174660498Y-78505820D01*
X174624188Y-78625518D01*
X174611928Y-78750000D01*
X174615000Y-79093250D01*
X174773750Y-79252000D01*
X175752000Y-79252000D01*
X175752000Y-79232000D01*
X176248000Y-79232000D01*
X176248000Y-79252000D01*
X176268000Y-79252000D01*
X176268000Y-79748000D01*
X176248000Y-79748000D01*
X176248000Y-79768000D01*
X175752000Y-79768000D01*
X175752000Y-79748000D01*
X174773750Y-79748000D01*
X174615000Y-79906750D01*
X174611928Y-80250000D01*
X174624188Y-80374482D01*
X174660498Y-80494180D01*
X174719463Y-80604494D01*
X174743987Y-80634376D01*
X174638698Y-80677988D01*
X174289017Y-80911637D01*
X173991637Y-81209017D01*
X173757988Y-81558698D01*
X173597047Y-81947244D01*
X173515000Y-82359721D01*
X173515000Y-82780279D01*
X173597047Y-83192756D01*
X173757988Y-83581302D01*
X173991637Y-83930983D01*
X174289017Y-84228363D01*
X174638698Y-84462012D01*
X175027244Y-84622953D01*
X175439721Y-84705000D01*
X175860279Y-84705000D01*
X176272756Y-84622953D01*
X176661302Y-84462012D01*
X177010983Y-84228363D01*
X177308363Y-83930983D01*
X177542012Y-83581302D01*
X177702953Y-83192756D01*
X177785000Y-82780279D01*
X177785000Y-82359721D01*
X179195000Y-82359721D01*
X179195000Y-82780279D01*
X179277047Y-83192756D01*
X179437988Y-83581302D01*
X179671637Y-83930983D01*
X179969017Y-84228363D01*
X180318698Y-84462012D01*
X180707244Y-84622953D01*
X181119721Y-84705000D01*
X181540279Y-84705000D01*
X181952756Y-84622953D01*
X182341302Y-84462012D01*
X182690983Y-84228363D01*
X182988363Y-83930983D01*
X183222012Y-83581302D01*
X183382953Y-83192756D01*
X183465000Y-82780279D01*
X183465000Y-82359721D01*
X183382953Y-81947244D01*
X183222012Y-81558698D01*
X182988363Y-81209017D01*
X182690983Y-80911637D01*
X182341302Y-80677988D01*
X181952756Y-80517047D01*
X181540279Y-80435000D01*
X181119721Y-80435000D01*
X180707244Y-80517047D01*
X180318698Y-80677988D01*
X179969017Y-80911637D01*
X179671637Y-81209017D01*
X179437988Y-81558698D01*
X179277047Y-81947244D01*
X179195000Y-82359721D01*
X177785000Y-82359721D01*
X177702953Y-81947244D01*
X177542012Y-81558698D01*
X177308363Y-81209017D01*
X177010983Y-80911637D01*
X176931487Y-80858520D01*
X176994180Y-80839502D01*
X177104494Y-80780537D01*
X177201185Y-80701185D01*
X177280537Y-80604494D01*
X177320691Y-80529372D01*
X177941353Y-80529372D01*
X178015708Y-80753659D01*
X178271896Y-80847462D01*
X178541462Y-80889483D01*
X178814046Y-80878106D01*
X179079172Y-80813770D01*
X179224292Y-80753659D01*
X179298647Y-80529372D01*
X178620000Y-79850725D01*
X177941353Y-80529372D01*
X177320691Y-80529372D01*
X177339502Y-80494180D01*
X177375812Y-80374482D01*
X177388072Y-80250000D01*
X177386829Y-80111084D01*
X177590628Y-80178647D01*
X178269275Y-79500000D01*
X178970725Y-79500000D01*
X179649372Y-80178647D01*
X179873659Y-80104292D01*
X179967462Y-79848104D01*
X180009483Y-79578538D01*
X179998106Y-79305954D01*
X179933770Y-79040828D01*
X179873659Y-78895708D01*
X179649372Y-78821353D01*
X178970725Y-79500000D01*
X178269275Y-79500000D01*
X177590628Y-78821353D01*
X177386829Y-78888916D01*
X177388072Y-78750000D01*
X177375812Y-78625518D01*
X177339502Y-78505820D01*
X177280537Y-78395506D01*
X177201185Y-78298815D01*
X177104494Y-78219463D01*
X176994180Y-78160498D01*
X176874482Y-78124188D01*
X176818690Y-78118693D01*
X176882886Y-78075799D01*
X177075799Y-77882886D01*
X177227371Y-77656043D01*
X177310000Y-77456559D01*
X177392629Y-77656043D01*
X177544201Y-77882886D01*
X177737114Y-78075799D01*
X177963957Y-78227371D01*
X178014989Y-78248509D01*
X177941353Y-78470628D01*
X178620000Y-79149275D01*
X179298647Y-78470628D01*
X179225011Y-78248509D01*
X179276043Y-78227371D01*
X179502886Y-78075799D01*
X179695799Y-77882886D01*
X179847371Y-77656043D01*
X179951775Y-77403989D01*
X180005000Y-77136411D01*
X180005000Y-76863589D01*
X179951775Y-76596011D01*
X179847371Y-76343957D01*
X179695799Y-76117114D01*
X179578685Y-76000000D01*
X179695799Y-75882886D01*
X179847371Y-75656043D01*
X179951775Y-75403989D01*
X180005000Y-75136411D01*
X180005000Y-74863589D01*
X179951775Y-74596011D01*
X179847371Y-74343957D01*
X179695799Y-74117114D01*
X179502886Y-73924201D01*
X179276043Y-73772629D01*
X179221412Y-73750000D01*
X179276043Y-73727371D01*
X179502886Y-73575799D01*
X179695799Y-73382886D01*
X179847371Y-73156043D01*
X179951775Y-72903989D01*
X180005000Y-72636411D01*
X180005000Y-72363589D01*
X179951775Y-72096011D01*
X179847371Y-71843957D01*
X179695799Y-71617114D01*
X179502886Y-71424201D01*
X179276043Y-71272629D01*
X179023989Y-71168225D01*
X178756411Y-71115000D01*
X178483589Y-71115000D01*
X178216011Y-71168225D01*
X177963957Y-71272629D01*
X177737114Y-71424201D01*
X177544201Y-71617114D01*
X177392629Y-71843957D01*
X177310000Y-72043441D01*
X177227371Y-71843957D01*
X177075799Y-71617114D01*
X176882886Y-71424201D01*
X176695626Y-71299078D01*
X177010983Y-71088363D01*
X177308363Y-70790983D01*
X177542012Y-70441302D01*
X177702953Y-70052756D01*
X177785000Y-69640279D01*
X177785000Y-69219721D01*
X179195000Y-69219721D01*
X179195000Y-69640279D01*
X179277047Y-70052756D01*
X179437988Y-70441302D01*
X179671637Y-70790983D01*
X179969017Y-71088363D01*
X180318698Y-71322012D01*
X180707244Y-71482953D01*
X181119721Y-71565000D01*
X181540279Y-71565000D01*
X181952756Y-71482953D01*
X182341302Y-71322012D01*
X182690983Y-71088363D01*
X182988363Y-70790983D01*
X183222012Y-70441302D01*
X183382953Y-70052756D01*
X183465000Y-69640279D01*
X183465000Y-69219721D01*
X183382953Y-68807244D01*
X183222012Y-68418698D01*
X182988363Y-68069017D01*
X182690983Y-67771637D01*
X182341302Y-67537988D01*
X181952756Y-67377047D01*
X181540279Y-67295000D01*
X181119721Y-67295000D01*
X180707244Y-67377047D01*
X180318698Y-67537988D01*
X179969017Y-67771637D01*
X179671637Y-68069017D01*
X179437988Y-68418698D01*
X179277047Y-68807244D01*
X179195000Y-69219721D01*
X177785000Y-69219721D01*
X177702953Y-68807244D01*
X177542012Y-68418698D01*
X177308363Y-68069017D01*
X177010983Y-67771637D01*
X176661302Y-67537988D01*
X176272756Y-67377047D01*
X175860279Y-67295000D01*
X175439721Y-67295000D01*
X175027244Y-67377047D01*
X174638698Y-67537988D01*
X174289017Y-67771637D01*
X173991637Y-68069017D01*
X173757988Y-68418698D01*
X173597047Y-68807244D01*
X173515000Y-69219721D01*
X170335000Y-69219721D01*
X170335000Y-68622285D01*
X170187623Y-67881372D01*
X169898533Y-67183446D01*
X169478839Y-66555330D01*
X169083509Y-66160000D01*
X186467721Y-66160000D01*
X187051010Y-66217192D01*
X187581036Y-66377216D01*
X188069879Y-66637140D01*
X188498931Y-66987065D01*
X188851844Y-67413664D01*
X189115173Y-67900681D01*
X189278894Y-68429578D01*
X189340000Y-69010960D01*
X189340000Y-87373000D01*
X188626057Y-87373000D01*
X188619110Y-87338075D01*
X188450631Y-86931331D01*
X188206038Y-86565271D01*
X187894729Y-86253962D01*
X187528669Y-86009369D01*
X187121925Y-85840890D01*
X186690128Y-85755000D01*
X186249872Y-85755000D01*
X185818075Y-85840890D01*
X185411331Y-86009369D01*
X185045271Y-86253962D01*
X184733962Y-86565271D01*
X184489369Y-86931331D01*
X184320890Y-87338075D01*
X184313943Y-87373000D01*
X165000000Y-87373000D01*
X164975224Y-87375440D01*
X164951399Y-87382667D01*
X164926183Y-87396656D01*
X161426183Y-89896656D01*
X161407440Y-89913043D01*
X161392254Y-89932771D01*
X161381208Y-89955083D01*
X161374728Y-89979121D01*
X161373000Y-90000000D01*
X161373000Y-105447394D01*
X159947394Y-106873000D01*
X151061593Y-106873000D01*
X151757940Y-106137876D01*
X152682854Y-104921172D01*
X153279222Y-103930000D01*
X157511928Y-103930000D01*
X157511928Y-105630000D01*
X157524188Y-105754482D01*
X157560498Y-105874180D01*
X157619463Y-105984494D01*
X157698815Y-106081185D01*
X157795506Y-106160537D01*
X157905820Y-106219502D01*
X158025518Y-106255812D01*
X158150000Y-106268072D01*
X159850000Y-106268072D01*
X159974482Y-106255812D01*
X160094180Y-106219502D01*
X160204494Y-106160537D01*
X160301185Y-106081185D01*
X160380537Y-105984494D01*
X160439502Y-105874180D01*
X160475812Y-105754482D01*
X160488072Y-105630000D01*
X160488072Y-103930000D01*
X160475812Y-103805518D01*
X160439502Y-103685820D01*
X160380537Y-103575506D01*
X160301185Y-103478815D01*
X160204494Y-103399463D01*
X160094180Y-103340498D01*
X160021620Y-103318487D01*
X160153475Y-103186632D01*
X160315990Y-102943411D01*
X160427932Y-102673158D01*
X160485000Y-102386260D01*
X160485000Y-102093740D01*
X160427932Y-101806842D01*
X160315990Y-101536589D01*
X160153475Y-101293368D01*
X159946632Y-101086525D01*
X159772240Y-100970000D01*
X159946632Y-100853475D01*
X160153475Y-100646632D01*
X160315990Y-100403411D01*
X160427932Y-100133158D01*
X160485000Y-99846260D01*
X160485000Y-99553740D01*
X160427932Y-99266842D01*
X160315990Y-98996589D01*
X160153475Y-98753368D01*
X159946632Y-98546525D01*
X159772240Y-98430000D01*
X159946632Y-98313475D01*
X160153475Y-98106632D01*
X160315990Y-97863411D01*
X160427932Y-97593158D01*
X160485000Y-97306260D01*
X160485000Y-97013740D01*
X160427932Y-96726842D01*
X160315990Y-96456589D01*
X160153475Y-96213368D01*
X159946632Y-96006525D01*
X159772240Y-95890000D01*
X159946632Y-95773475D01*
X160153475Y-95566632D01*
X160315990Y-95323411D01*
X160427932Y-95053158D01*
X160485000Y-94766260D01*
X160485000Y-94473740D01*
X160427932Y-94186842D01*
X160315990Y-93916589D01*
X160153475Y-93673368D01*
X159946632Y-93466525D01*
X159772240Y-93350000D01*
X159946632Y-93233475D01*
X160153475Y-93026632D01*
X160315990Y-92783411D01*
X160427932Y-92513158D01*
X160485000Y-92226260D01*
X160485000Y-91933740D01*
X160427932Y-91646842D01*
X160315990Y-91376589D01*
X160153475Y-91133368D01*
X159946632Y-90926525D01*
X159772240Y-90810000D01*
X159946632Y-90693475D01*
X160153475Y-90486632D01*
X160315990Y-90243411D01*
X160427932Y-89973158D01*
X160485000Y-89686260D01*
X160485000Y-89393740D01*
X160427932Y-89106842D01*
X160315990Y-88836589D01*
X160153475Y-88593368D01*
X159946632Y-88386525D01*
X159772240Y-88270000D01*
X159946632Y-88153475D01*
X160153475Y-87946632D01*
X160315990Y-87703411D01*
X160427932Y-87433158D01*
X160485000Y-87146260D01*
X160485000Y-86853740D01*
X160427932Y-86566842D01*
X160315990Y-86296589D01*
X160153475Y-86053368D01*
X159946632Y-85846525D01*
X159772240Y-85730000D01*
X159946632Y-85613475D01*
X160153475Y-85406632D01*
X160315990Y-85163411D01*
X160427932Y-84893158D01*
X160485000Y-84606260D01*
X160485000Y-84313740D01*
X160427932Y-84026842D01*
X160315990Y-83756589D01*
X160153475Y-83513368D01*
X159946632Y-83306525D01*
X159772240Y-83190000D01*
X159946632Y-83073475D01*
X160153475Y-82866632D01*
X160315990Y-82623411D01*
X160427932Y-82353158D01*
X160485000Y-82066260D01*
X160485000Y-81773740D01*
X160437511Y-81535000D01*
X160601939Y-81535000D01*
X160801898Y-81495226D01*
X160990256Y-81417205D01*
X161159774Y-81303937D01*
X161303937Y-81159774D01*
X161417205Y-80990256D01*
X161495226Y-80801898D01*
X161535000Y-80601939D01*
X161535000Y-80398061D01*
X161495226Y-80198102D01*
X161417205Y-80009744D01*
X161303937Y-79840226D01*
X161159774Y-79696063D01*
X161139514Y-79682526D01*
X161301898Y-79650226D01*
X161490256Y-79572205D01*
X161659774Y-79458937D01*
X161803937Y-79314774D01*
X161917205Y-79145256D01*
X161995226Y-78956898D01*
X162035000Y-78756939D01*
X162035000Y-78553061D01*
X161995226Y-78353102D01*
X161917205Y-78164744D01*
X161803937Y-77995226D01*
X161659774Y-77851063D01*
X161490256Y-77737795D01*
X161301898Y-77659774D01*
X161101939Y-77620000D01*
X160898061Y-77620000D01*
X160698102Y-77659774D01*
X160509744Y-77737795D01*
X160340226Y-77851063D01*
X160196063Y-77995226D01*
X160082795Y-78164744D01*
X160024818Y-78304711D01*
X159946632Y-78226525D01*
X159772240Y-78110000D01*
X159946632Y-77993475D01*
X160153475Y-77786632D01*
X160315990Y-77543411D01*
X160427932Y-77273158D01*
X160485000Y-76986260D01*
X160485000Y-76693740D01*
X160427932Y-76406842D01*
X160315990Y-76136589D01*
X160153475Y-75893368D01*
X159946632Y-75686525D01*
X159768210Y-75567307D01*
X159976473Y-75418817D01*
X160175981Y-75206819D01*
X160330296Y-74959972D01*
X160407323Y-74773989D01*
X160302857Y-74548000D01*
X159248000Y-74548000D01*
X159248000Y-74568000D01*
X158752000Y-74568000D01*
X158752000Y-74548000D01*
X157697143Y-74548000D01*
X157592677Y-74773989D01*
X157669704Y-74959972D01*
X157824019Y-75206819D01*
X158023527Y-75418817D01*
X158231790Y-75567307D01*
X158053368Y-75686525D01*
X157846525Y-75893368D01*
X157684010Y-76136589D01*
X157572068Y-76406842D01*
X157515000Y-76693740D01*
X157515000Y-76986260D01*
X157572068Y-77273158D01*
X157684010Y-77543411D01*
X157846525Y-77786632D01*
X158053368Y-77993475D01*
X158227760Y-78110000D01*
X158053368Y-78226525D01*
X157846525Y-78433368D01*
X157684010Y-78676589D01*
X157572068Y-78946842D01*
X157515000Y-79233740D01*
X157515000Y-79526260D01*
X157572068Y-79813158D01*
X157684010Y-80083411D01*
X157846525Y-80326632D01*
X158053368Y-80533475D01*
X158227760Y-80650000D01*
X158053368Y-80766525D01*
X157846525Y-80973368D01*
X157684010Y-81216589D01*
X157572068Y-81486842D01*
X157515000Y-81773740D01*
X157515000Y-82066260D01*
X157572068Y-82353158D01*
X157684010Y-82623411D01*
X157846525Y-82866632D01*
X158053368Y-83073475D01*
X158227760Y-83190000D01*
X158053368Y-83306525D01*
X157846525Y-83513368D01*
X157684010Y-83756589D01*
X157572068Y-84026842D01*
X157515000Y-84313740D01*
X157515000Y-84606260D01*
X157572068Y-84893158D01*
X157684010Y-85163411D01*
X157846525Y-85406632D01*
X158053368Y-85613475D01*
X158227760Y-85730000D01*
X158053368Y-85846525D01*
X157846525Y-86053368D01*
X157684010Y-86296589D01*
X157572068Y-86566842D01*
X157515000Y-86853740D01*
X157515000Y-87146260D01*
X157572068Y-87433158D01*
X157684010Y-87703411D01*
X157846525Y-87946632D01*
X158053368Y-88153475D01*
X158227760Y-88270000D01*
X158053368Y-88386525D01*
X157846525Y-88593368D01*
X157684010Y-88836589D01*
X157572068Y-89106842D01*
X157515000Y-89393740D01*
X157515000Y-89686260D01*
X157572068Y-89973158D01*
X157684010Y-90243411D01*
X157846525Y-90486632D01*
X158053368Y-90693475D01*
X158227760Y-90810000D01*
X158053368Y-90926525D01*
X157846525Y-91133368D01*
X157684010Y-91376589D01*
X157572068Y-91646842D01*
X157515000Y-91933740D01*
X157515000Y-92226260D01*
X157572068Y-92513158D01*
X157684010Y-92783411D01*
X157846525Y-93026632D01*
X158053368Y-93233475D01*
X158227760Y-93350000D01*
X158053368Y-93466525D01*
X157846525Y-93673368D01*
X157684010Y-93916589D01*
X157572068Y-94186842D01*
X157515000Y-94473740D01*
X157515000Y-94766260D01*
X157572068Y-95053158D01*
X157684010Y-95323411D01*
X157846525Y-95566632D01*
X158053368Y-95773475D01*
X158227760Y-95890000D01*
X158053368Y-96006525D01*
X157846525Y-96213368D01*
X157684010Y-96456589D01*
X157572068Y-96726842D01*
X157515000Y-97013740D01*
X157515000Y-97306260D01*
X157572068Y-97593158D01*
X157684010Y-97863411D01*
X157846525Y-98106632D01*
X158053368Y-98313475D01*
X158227760Y-98430000D01*
X158053368Y-98546525D01*
X157846525Y-98753368D01*
X157684010Y-98996589D01*
X157572068Y-99266842D01*
X157515000Y-99553740D01*
X157515000Y-99846260D01*
X157572068Y-100133158D01*
X157684010Y-100403411D01*
X157846525Y-100646632D01*
X158053368Y-100853475D01*
X158227760Y-100970000D01*
X158053368Y-101086525D01*
X157846525Y-101293368D01*
X157684010Y-101536589D01*
X157572068Y-101806842D01*
X157515000Y-102093740D01*
X157515000Y-102386260D01*
X157572068Y-102673158D01*
X157684010Y-102943411D01*
X157846525Y-103186632D01*
X157978380Y-103318487D01*
X157905820Y-103340498D01*
X157795506Y-103399463D01*
X157698815Y-103478815D01*
X157619463Y-103575506D01*
X157560498Y-103685820D01*
X157524188Y-103805518D01*
X157511928Y-103930000D01*
X153279222Y-103930000D01*
X153470798Y-103611599D01*
X154112533Y-102224511D01*
X154600536Y-100776170D01*
X154929085Y-99283558D01*
X155094328Y-97764172D01*
X155094328Y-96235828D01*
X154929085Y-94716442D01*
X154600536Y-93223830D01*
X154112533Y-91775489D01*
X153470798Y-90388401D01*
X152682854Y-89078828D01*
X151757940Y-87862124D01*
X150706898Y-86752553D01*
X149542052Y-85763123D01*
X148277058Y-84905436D01*
X147757289Y-84629872D01*
X150915000Y-84629872D01*
X150915000Y-85070128D01*
X151000890Y-85501925D01*
X151169369Y-85908669D01*
X151413962Y-86274729D01*
X151725271Y-86586038D01*
X152091331Y-86830631D01*
X152498075Y-86999110D01*
X152929872Y-87085000D01*
X153370128Y-87085000D01*
X153801925Y-86999110D01*
X154208669Y-86830631D01*
X154574729Y-86586038D01*
X154886038Y-86274729D01*
X155130631Y-85908669D01*
X155299110Y-85501925D01*
X155385000Y-85070128D01*
X155385000Y-84629872D01*
X155299110Y-84198075D01*
X155130631Y-83791331D01*
X154886038Y-83425271D01*
X154574729Y-83113962D01*
X154208669Y-82869369D01*
X153801925Y-82700890D01*
X153370128Y-82615000D01*
X152929872Y-82615000D01*
X152498075Y-82700890D01*
X152091331Y-82869369D01*
X151725271Y-83113962D01*
X151413962Y-83425271D01*
X151169369Y-83791331D01*
X151000890Y-84198075D01*
X150915000Y-84629872D01*
X147757289Y-84629872D01*
X146926747Y-84189547D01*
X145506950Y-83623848D01*
X144034314Y-83214973D01*
X142526103Y-82967714D01*
X141000000Y-82884971D01*
X139473897Y-82967714D01*
X137965686Y-83214973D01*
X136493050Y-83623848D01*
X135073253Y-84189547D01*
X133722942Y-84905436D01*
X132457948Y-85763123D01*
X131293102Y-86752553D01*
X130242060Y-87862124D01*
X129317146Y-89078828D01*
X128529202Y-90388401D01*
X127887467Y-91775489D01*
X127399464Y-93223830D01*
X127070915Y-94716442D01*
X126905672Y-96235828D01*
X126905672Y-97764172D01*
X127070915Y-99283558D01*
X127399464Y-100776170D01*
X127887467Y-102224511D01*
X128529202Y-103611599D01*
X129317146Y-104921172D01*
X130242060Y-106137876D01*
X130938407Y-106873000D01*
X125000000Y-106873000D01*
X124975224Y-106875440D01*
X124951399Y-106882667D01*
X124929443Y-106894403D01*
X124916370Y-106904423D01*
X122485000Y-109031872D01*
X122485000Y-108898061D01*
X122445226Y-108698102D01*
X122367205Y-108509744D01*
X122253937Y-108340226D01*
X122109774Y-108196063D01*
X121940256Y-108082795D01*
X121751898Y-108004774D01*
X121551939Y-107965000D01*
X121348061Y-107965000D01*
X121148102Y-108004774D01*
X120959744Y-108082795D01*
X120790226Y-108196063D01*
X120646063Y-108340226D01*
X120600000Y-108409164D01*
X120553937Y-108340226D01*
X120409774Y-108196063D01*
X120240256Y-108082795D01*
X120051898Y-108004774D01*
X119851939Y-107965000D01*
X119648061Y-107965000D01*
X119448102Y-108004774D01*
X119259744Y-108082795D01*
X119090226Y-108196063D01*
X118946063Y-108340226D01*
X118832795Y-108509744D01*
X118754774Y-108698102D01*
X118715000Y-108898061D01*
X118715000Y-109101939D01*
X118754774Y-109301898D01*
X118832795Y-109490256D01*
X118946063Y-109659774D01*
X119090226Y-109803937D01*
X119259744Y-109917205D01*
X119448102Y-109995226D01*
X119648061Y-110035000D01*
X119851939Y-110035000D01*
X120051898Y-109995226D01*
X120240256Y-109917205D01*
X120409774Y-109803937D01*
X120553937Y-109659774D01*
X120600000Y-109590836D01*
X120646063Y-109659774D01*
X120790226Y-109803937D01*
X120959744Y-109917205D01*
X121148102Y-109995226D01*
X121340326Y-110033461D01*
X120916370Y-110404423D01*
X120899331Y-110422575D01*
X120886160Y-110443702D01*
X120877364Y-110466993D01*
X120873000Y-110500000D01*
X120873000Y-120840000D01*
X111083509Y-120840000D01*
X111478839Y-120444670D01*
X111898533Y-119816554D01*
X112187623Y-119118628D01*
X112335000Y-118377715D01*
X112335000Y-118277050D01*
X114515000Y-118277050D01*
X114515000Y-118722949D01*
X114536487Y-118941110D01*
X114621401Y-119221033D01*
X114759294Y-119479013D01*
X114944866Y-119705134D01*
X115170986Y-119890706D01*
X115428966Y-120028599D01*
X115708889Y-120113513D01*
X116000000Y-120142185D01*
X116291110Y-120113513D01*
X116571033Y-120028599D01*
X116829013Y-119890706D01*
X117049945Y-119709392D01*
X117060498Y-119744180D01*
X117119463Y-119854494D01*
X117198815Y-119951185D01*
X117295506Y-120030537D01*
X117405820Y-120089502D01*
X117525518Y-120125812D01*
X117650000Y-120138072D01*
X118093250Y-120135000D01*
X118252000Y-119976250D01*
X118252000Y-118748000D01*
X118748000Y-118748000D01*
X118748000Y-119976250D01*
X118906750Y-120135000D01*
X119350000Y-120138072D01*
X119474482Y-120125812D01*
X119594180Y-120089502D01*
X119704494Y-120030537D01*
X119801185Y-119951185D01*
X119880537Y-119854494D01*
X119939502Y-119744180D01*
X119975812Y-119624482D01*
X119988072Y-119500000D01*
X119985000Y-118906750D01*
X119826250Y-118748000D01*
X118748000Y-118748000D01*
X118252000Y-118748000D01*
X118232000Y-118748000D01*
X118232000Y-118252000D01*
X118252000Y-118252000D01*
X118252000Y-117023750D01*
X118748000Y-117023750D01*
X118748000Y-118252000D01*
X119826250Y-118252000D01*
X119985000Y-118093250D01*
X119988072Y-117500000D01*
X119975812Y-117375518D01*
X119939502Y-117255820D01*
X119880537Y-117145506D01*
X119801185Y-117048815D01*
X119704494Y-116969463D01*
X119594180Y-116910498D01*
X119474482Y-116874188D01*
X119350000Y-116861928D01*
X118906750Y-116865000D01*
X118748000Y-117023750D01*
X118252000Y-117023750D01*
X118093250Y-116865000D01*
X117650000Y-116861928D01*
X117525518Y-116874188D01*
X117405820Y-116910498D01*
X117295506Y-116969463D01*
X117198815Y-117048815D01*
X117119463Y-117145506D01*
X117060498Y-117255820D01*
X117049945Y-117290608D01*
X116829014Y-117109294D01*
X116571034Y-116971401D01*
X116291111Y-116886487D01*
X116000000Y-116857815D01*
X115708890Y-116886487D01*
X115428967Y-116971401D01*
X115170987Y-117109294D01*
X114944866Y-117294866D01*
X114759294Y-117520986D01*
X114621401Y-117778966D01*
X114536487Y-118058889D01*
X114515000Y-118277050D01*
X112335000Y-118277050D01*
X112335000Y-117622285D01*
X112187623Y-116881372D01*
X111898533Y-116183446D01*
X111478839Y-115555330D01*
X110944670Y-115021161D01*
X110316554Y-114601467D01*
X109618628Y-114312377D01*
X108877715Y-114165000D01*
X108122285Y-114165000D01*
X107381372Y-114312377D01*
X106683446Y-114601467D01*
X106055330Y-115021161D01*
X105660000Y-115416491D01*
X105660000Y-110850000D01*
X106361928Y-110850000D01*
X106374188Y-110974482D01*
X106410498Y-111094180D01*
X106469463Y-111204494D01*
X106548815Y-111301185D01*
X106645506Y-111380537D01*
X106755820Y-111439502D01*
X106875518Y-111475812D01*
X107000000Y-111488072D01*
X107593250Y-111485000D01*
X107752000Y-111326250D01*
X107752000Y-110248000D01*
X108248000Y-110248000D01*
X108248000Y-111326250D01*
X108406750Y-111485000D01*
X109000000Y-111488072D01*
X109124482Y-111475812D01*
X109244180Y-111439502D01*
X109354494Y-111380537D01*
X109451185Y-111301185D01*
X109530537Y-111204494D01*
X109589502Y-111094180D01*
X109625812Y-110974482D01*
X109638072Y-110850000D01*
X109635000Y-110406750D01*
X109476250Y-110248000D01*
X108248000Y-110248000D01*
X107752000Y-110248000D01*
X106523750Y-110248000D01*
X106365000Y-110406750D01*
X106361928Y-110850000D01*
X105660000Y-110850000D01*
X105660000Y-107500000D01*
X106357815Y-107500000D01*
X106386487Y-107791111D01*
X106471401Y-108071034D01*
X106609294Y-108329014D01*
X106790608Y-108549945D01*
X106755820Y-108560498D01*
X106645506Y-108619463D01*
X106548815Y-108698815D01*
X106469463Y-108795506D01*
X106410498Y-108905820D01*
X106374188Y-109025518D01*
X106361928Y-109150000D01*
X106365000Y-109593250D01*
X106523750Y-109752000D01*
X107752000Y-109752000D01*
X107752000Y-109732000D01*
X108248000Y-109732000D01*
X108248000Y-109752000D01*
X109476250Y-109752000D01*
X109635000Y-109593250D01*
X109638072Y-109150000D01*
X109625812Y-109025518D01*
X109589502Y-108905820D01*
X109585355Y-108898061D01*
X113135000Y-108898061D01*
X113135000Y-109101939D01*
X113174774Y-109301898D01*
X113252795Y-109490256D01*
X113366063Y-109659774D01*
X113510226Y-109803937D01*
X113679744Y-109917205D01*
X113868102Y-109995226D01*
X114068061Y-110035000D01*
X114271939Y-110035000D01*
X114471898Y-109995226D01*
X114660256Y-109917205D01*
X114829774Y-109803937D01*
X114973937Y-109659774D01*
X115087205Y-109490256D01*
X115165226Y-109301898D01*
X115196185Y-109146253D01*
X115301898Y-109125226D01*
X115490256Y-109047205D01*
X115659774Y-108933937D01*
X115803937Y-108789774D01*
X115917205Y-108620256D01*
X115995226Y-108431898D01*
X116035000Y-108231939D01*
X116035000Y-108028061D01*
X115995226Y-107828102D01*
X115917205Y-107639744D01*
X115803937Y-107470226D01*
X115659774Y-107326063D01*
X115490256Y-107212795D01*
X115301898Y-107134774D01*
X115101939Y-107095000D01*
X114898061Y-107095000D01*
X114698102Y-107134774D01*
X114509744Y-107212795D01*
X114340226Y-107326063D01*
X114196063Y-107470226D01*
X114082795Y-107639744D01*
X114004774Y-107828102D01*
X113973815Y-107983747D01*
X113868102Y-108004774D01*
X113679744Y-108082795D01*
X113510226Y-108196063D01*
X113366063Y-108340226D01*
X113252795Y-108509744D01*
X113174774Y-108698102D01*
X113135000Y-108898061D01*
X109585355Y-108898061D01*
X109530537Y-108795506D01*
X109451185Y-108698815D01*
X109354494Y-108619463D01*
X109244180Y-108560498D01*
X109209392Y-108549945D01*
X109390706Y-108329014D01*
X109528599Y-108071034D01*
X109613513Y-107791111D01*
X109642185Y-107500000D01*
X109613513Y-107208889D01*
X109528599Y-106928966D01*
X109390706Y-106670986D01*
X109205134Y-106444866D01*
X108995790Y-106273061D01*
X121990000Y-106273061D01*
X121990000Y-106476939D01*
X122029774Y-106676898D01*
X122107795Y-106865256D01*
X122221063Y-107034774D01*
X122365226Y-107178937D01*
X122534744Y-107292205D01*
X122723102Y-107370226D01*
X122923061Y-107410000D01*
X123126939Y-107410000D01*
X123326898Y-107370226D01*
X123515256Y-107292205D01*
X123684774Y-107178937D01*
X123828937Y-107034774D01*
X123942205Y-106865256D01*
X124020226Y-106676898D01*
X124060000Y-106476939D01*
X124060000Y-106273061D01*
X124020226Y-106073102D01*
X123942205Y-105884744D01*
X123828937Y-105715226D01*
X123684774Y-105571063D01*
X123515256Y-105457795D01*
X123326898Y-105379774D01*
X123126939Y-105340000D01*
X122923061Y-105340000D01*
X122723102Y-105379774D01*
X122534744Y-105457795D01*
X122365226Y-105571063D01*
X122221063Y-105715226D01*
X122107795Y-105884744D01*
X122029774Y-106073102D01*
X121990000Y-106273061D01*
X108995790Y-106273061D01*
X108979014Y-106259294D01*
X108721034Y-106121401D01*
X108441111Y-106036487D01*
X108222950Y-106015000D01*
X107777050Y-106015000D01*
X107558889Y-106036487D01*
X107278966Y-106121401D01*
X107020986Y-106259294D01*
X106794866Y-106444866D01*
X106609294Y-106670986D01*
X106471401Y-106928966D01*
X106386487Y-107208889D01*
X106357815Y-107500000D01*
X105660000Y-107500000D01*
X105660000Y-95500000D01*
X106357815Y-95500000D01*
X106386487Y-95791111D01*
X106471401Y-96071034D01*
X106609294Y-96329014D01*
X106794866Y-96555134D01*
X106858337Y-96607223D01*
X106756614Y-96661595D01*
X106622038Y-96772038D01*
X106511595Y-96906614D01*
X106429528Y-97060150D01*
X106378992Y-97226746D01*
X106361928Y-97400000D01*
X106361928Y-98600000D01*
X106378992Y-98773254D01*
X106429528Y-98939850D01*
X106511595Y-99093386D01*
X106622038Y-99227962D01*
X106756614Y-99338405D01*
X106910150Y-99420472D01*
X107076746Y-99471008D01*
X107250000Y-99488072D01*
X108750000Y-99488072D01*
X108923254Y-99471008D01*
X109089850Y-99420472D01*
X109243386Y-99338405D01*
X109377962Y-99227962D01*
X109488405Y-99093386D01*
X109570472Y-98939850D01*
X109621008Y-98773254D01*
X109638072Y-98600000D01*
X109638072Y-97400000D01*
X109621008Y-97226746D01*
X109570472Y-97060150D01*
X109488405Y-96906614D01*
X109377962Y-96772038D01*
X109243386Y-96661595D01*
X109141663Y-96607223D01*
X109205134Y-96555134D01*
X109390706Y-96329014D01*
X109528599Y-96071034D01*
X109613513Y-95791111D01*
X109642185Y-95500000D01*
X109613513Y-95208889D01*
X109528599Y-94928966D01*
X109390706Y-94670986D01*
X109205134Y-94444866D01*
X108979014Y-94259294D01*
X108721034Y-94121401D01*
X108441111Y-94036487D01*
X108222950Y-94015000D01*
X107777050Y-94015000D01*
X107558889Y-94036487D01*
X107278966Y-94121401D01*
X107020986Y-94259294D01*
X106794866Y-94444866D01*
X106609294Y-94670986D01*
X106471401Y-94928966D01*
X106386487Y-95208889D01*
X106357815Y-95500000D01*
X105660000Y-95500000D01*
X105660000Y-76500000D01*
X106382815Y-76500000D01*
X106411487Y-76791111D01*
X106496401Y-77071034D01*
X106634294Y-77329014D01*
X106819866Y-77555134D01*
X107045986Y-77740706D01*
X107063374Y-77750000D01*
X107045986Y-77759294D01*
X106819866Y-77944866D01*
X106634294Y-78170986D01*
X106496401Y-78428966D01*
X106411487Y-78708889D01*
X106382815Y-79000000D01*
X106411487Y-79291111D01*
X106496401Y-79571034D01*
X106634294Y-79829014D01*
X106819866Y-80055134D01*
X107045986Y-80240706D01*
X107063374Y-80250000D01*
X107045986Y-80259294D01*
X106819866Y-80444866D01*
X106634294Y-80670986D01*
X106496401Y-80928966D01*
X106411487Y-81208889D01*
X106382815Y-81500000D01*
X106411487Y-81791111D01*
X106496401Y-82071034D01*
X106634294Y-82329014D01*
X106819866Y-82555134D01*
X107045986Y-82740706D01*
X107063374Y-82750000D01*
X107045986Y-82759294D01*
X106819866Y-82944866D01*
X106634294Y-83170986D01*
X106496401Y-83428966D01*
X106411487Y-83708889D01*
X106382815Y-84000000D01*
X106411487Y-84291111D01*
X106496401Y-84571034D01*
X106634294Y-84829014D01*
X106819866Y-85055134D01*
X107045986Y-85240706D01*
X107063374Y-85250000D01*
X107045986Y-85259294D01*
X106819866Y-85444866D01*
X106634294Y-85670986D01*
X106496401Y-85928966D01*
X106411487Y-86208889D01*
X106382815Y-86500000D01*
X106411487Y-86791111D01*
X106496401Y-87071034D01*
X106634294Y-87329014D01*
X106819866Y-87555134D01*
X106883337Y-87607223D01*
X106781614Y-87661595D01*
X106647038Y-87772038D01*
X106536595Y-87906614D01*
X106454528Y-88060150D01*
X106403992Y-88226746D01*
X106386928Y-88400000D01*
X106386928Y-89600000D01*
X106403992Y-89773254D01*
X106454528Y-89939850D01*
X106536595Y-90093386D01*
X106647038Y-90227962D01*
X106781614Y-90338405D01*
X106935150Y-90420472D01*
X107101746Y-90471008D01*
X107275000Y-90488072D01*
X108725000Y-90488072D01*
X108898254Y-90471008D01*
X109064850Y-90420472D01*
X109218386Y-90338405D01*
X109352962Y-90227962D01*
X109463405Y-90093386D01*
X109545472Y-89939850D01*
X109596008Y-89773254D01*
X109613072Y-89600000D01*
X109613072Y-88400000D01*
X109596008Y-88226746D01*
X109545472Y-88060150D01*
X109463405Y-87906614D01*
X109352962Y-87772038D01*
X109218386Y-87661595D01*
X109116663Y-87607223D01*
X109180134Y-87555134D01*
X109365706Y-87329014D01*
X109503599Y-87071034D01*
X109588513Y-86791111D01*
X109617185Y-86500000D01*
X109588513Y-86208889D01*
X109503599Y-85928966D01*
X109365706Y-85670986D01*
X109180134Y-85444866D01*
X108954014Y-85259294D01*
X108936626Y-85250000D01*
X108954014Y-85240706D01*
X109180134Y-85055134D01*
X109365706Y-84829014D01*
X109503599Y-84571034D01*
X109588513Y-84291111D01*
X109617185Y-84000000D01*
X109588513Y-83708889D01*
X109503599Y-83428966D01*
X109365706Y-83170986D01*
X109180134Y-82944866D01*
X108954014Y-82759294D01*
X108936626Y-82750000D01*
X108954014Y-82740706D01*
X109180134Y-82555134D01*
X109365706Y-82329014D01*
X109503599Y-82071034D01*
X109552231Y-81910714D01*
X113477653Y-81910714D01*
X113477653Y-82114592D01*
X113517427Y-82314551D01*
X113595448Y-82502909D01*
X113708716Y-82672427D01*
X113852879Y-82816590D01*
X114022397Y-82929858D01*
X114210755Y-83007879D01*
X114410714Y-83047653D01*
X114614592Y-83047653D01*
X114814551Y-83007879D01*
X114908752Y-82968859D01*
X115013368Y-83073475D01*
X115187760Y-83190000D01*
X115013368Y-83306525D01*
X114806525Y-83513368D01*
X114644010Y-83756589D01*
X114532068Y-84026842D01*
X114475000Y-84313740D01*
X114475000Y-84606260D01*
X114532068Y-84893158D01*
X114644010Y-85163411D01*
X114806525Y-85406632D01*
X115013368Y-85613475D01*
X115187760Y-85730000D01*
X115013368Y-85846525D01*
X114806525Y-86053368D01*
X114644010Y-86296589D01*
X114532068Y-86566842D01*
X114475000Y-86853740D01*
X114475000Y-87146260D01*
X114532068Y-87433158D01*
X114644010Y-87703411D01*
X114806525Y-87946632D01*
X115013368Y-88153475D01*
X115187760Y-88270000D01*
X115013368Y-88386525D01*
X114806525Y-88593368D01*
X114644010Y-88836589D01*
X114532068Y-89106842D01*
X114475000Y-89393740D01*
X114475000Y-89686260D01*
X114532068Y-89973158D01*
X114644010Y-90243411D01*
X114806525Y-90486632D01*
X115013368Y-90693475D01*
X115187760Y-90810000D01*
X115013368Y-90926525D01*
X114806525Y-91133368D01*
X114644010Y-91376589D01*
X114532068Y-91646842D01*
X114475000Y-91933740D01*
X114475000Y-92226260D01*
X114532068Y-92513158D01*
X114644010Y-92783411D01*
X114806525Y-93026632D01*
X115013368Y-93233475D01*
X115187760Y-93350000D01*
X115013368Y-93466525D01*
X114806525Y-93673368D01*
X114644010Y-93916589D01*
X114532068Y-94186842D01*
X114475000Y-94473740D01*
X114475000Y-94766260D01*
X114532068Y-95053158D01*
X114644010Y-95323411D01*
X114806525Y-95566632D01*
X115013368Y-95773475D01*
X115187760Y-95890000D01*
X115013368Y-96006525D01*
X114806525Y-96213368D01*
X114644010Y-96456589D01*
X114532068Y-96726842D01*
X114475000Y-97013740D01*
X114475000Y-97306260D01*
X114532068Y-97593158D01*
X114644010Y-97863411D01*
X114806525Y-98106632D01*
X115013368Y-98313475D01*
X115187760Y-98430000D01*
X115013368Y-98546525D01*
X114806525Y-98753368D01*
X114644010Y-98996589D01*
X114532068Y-99266842D01*
X114475000Y-99553740D01*
X114475000Y-99846260D01*
X114532068Y-100133158D01*
X114644010Y-100403411D01*
X114806525Y-100646632D01*
X115013368Y-100853475D01*
X115187760Y-100970000D01*
X115013368Y-101086525D01*
X114806525Y-101293368D01*
X114644010Y-101536589D01*
X114532068Y-101806842D01*
X114475000Y-102093740D01*
X114475000Y-102386260D01*
X114532068Y-102673158D01*
X114644010Y-102943411D01*
X114806525Y-103186632D01*
X114938380Y-103318487D01*
X114865820Y-103340498D01*
X114755506Y-103399463D01*
X114658815Y-103478815D01*
X114579463Y-103575506D01*
X114520498Y-103685820D01*
X114484188Y-103805518D01*
X114471928Y-103930000D01*
X114471928Y-105630000D01*
X114484188Y-105754482D01*
X114520498Y-105874180D01*
X114579463Y-105984494D01*
X114658815Y-106081185D01*
X114755506Y-106160537D01*
X114865820Y-106219502D01*
X114985518Y-106255812D01*
X115110000Y-106268072D01*
X116810000Y-106268072D01*
X116934482Y-106255812D01*
X117054180Y-106219502D01*
X117164494Y-106160537D01*
X117261185Y-106081185D01*
X117340537Y-105984494D01*
X117399502Y-105874180D01*
X117424083Y-105793147D01*
X117523527Y-105898817D01*
X117760560Y-106067820D01*
X118026009Y-106187333D01*
X118252000Y-106085405D01*
X118252000Y-105028000D01*
X118748000Y-105028000D01*
X118748000Y-106085405D01*
X118973991Y-106187333D01*
X119239440Y-106067820D01*
X119476473Y-105898817D01*
X119675981Y-105686819D01*
X119830296Y-105439972D01*
X119907323Y-105253989D01*
X119802857Y-105028000D01*
X118748000Y-105028000D01*
X118252000Y-105028000D01*
X118232000Y-105028000D01*
X118232000Y-104532000D01*
X118252000Y-104532000D01*
X118252000Y-102488000D01*
X118748000Y-102488000D01*
X118748000Y-104532000D01*
X119802857Y-104532000D01*
X119907323Y-104306011D01*
X119830296Y-104120028D01*
X119675981Y-103873181D01*
X119476473Y-103661183D01*
X119264433Y-103510000D01*
X119476473Y-103358817D01*
X119675981Y-103146819D01*
X119830296Y-102899972D01*
X119907323Y-102713989D01*
X119802857Y-102488000D01*
X118748000Y-102488000D01*
X118252000Y-102488000D01*
X118232000Y-102488000D01*
X118232000Y-101992000D01*
X118252000Y-101992000D01*
X118252000Y-101972000D01*
X118748000Y-101972000D01*
X118748000Y-101992000D01*
X119802857Y-101992000D01*
X119907323Y-101766011D01*
X119830296Y-101580028D01*
X119675981Y-101333181D01*
X119476473Y-101121183D01*
X119268210Y-100972693D01*
X119446632Y-100853475D01*
X119653475Y-100646632D01*
X119815990Y-100403411D01*
X119927932Y-100133158D01*
X119985000Y-99846260D01*
X119985000Y-99553740D01*
X119927932Y-99266842D01*
X119815990Y-98996589D01*
X119653475Y-98753368D01*
X119446632Y-98546525D01*
X119272240Y-98430000D01*
X119446632Y-98313475D01*
X119653475Y-98106632D01*
X119815990Y-97863411D01*
X119927932Y-97593158D01*
X119985000Y-97306260D01*
X119985000Y-97013740D01*
X119927932Y-96726842D01*
X119815990Y-96456589D01*
X119653475Y-96213368D01*
X119446632Y-96006525D01*
X119272240Y-95890000D01*
X119446632Y-95773475D01*
X119653475Y-95566632D01*
X119815990Y-95323411D01*
X119927932Y-95053158D01*
X119985000Y-94766260D01*
X119985000Y-94473740D01*
X119927932Y-94186842D01*
X119815990Y-93916589D01*
X119653475Y-93673368D01*
X119446632Y-93466525D01*
X119272240Y-93350000D01*
X119446632Y-93233475D01*
X119653475Y-93026632D01*
X119815990Y-92783411D01*
X119927932Y-92513158D01*
X119985000Y-92226260D01*
X119985000Y-91933740D01*
X119927932Y-91646842D01*
X119815990Y-91376589D01*
X119653475Y-91133368D01*
X119446632Y-90926525D01*
X119404033Y-90898061D01*
X123240000Y-90898061D01*
X123240000Y-91101939D01*
X123279774Y-91301898D01*
X123357795Y-91490256D01*
X123471063Y-91659774D01*
X123615226Y-91803937D01*
X123784744Y-91917205D01*
X123973102Y-91995226D01*
X124173061Y-92035000D01*
X124376939Y-92035000D01*
X124576898Y-91995226D01*
X124765256Y-91917205D01*
X124934774Y-91803937D01*
X125078937Y-91659774D01*
X125192205Y-91490256D01*
X125270226Y-91301898D01*
X125310000Y-91101939D01*
X125310000Y-90898061D01*
X125270226Y-90698102D01*
X125192205Y-90509744D01*
X125078937Y-90340226D01*
X124934774Y-90196063D01*
X124765256Y-90082795D01*
X124576898Y-90004774D01*
X124376939Y-89965000D01*
X124173061Y-89965000D01*
X123973102Y-90004774D01*
X123784744Y-90082795D01*
X123615226Y-90196063D01*
X123471063Y-90340226D01*
X123357795Y-90509744D01*
X123279774Y-90698102D01*
X123240000Y-90898061D01*
X119404033Y-90898061D01*
X119272240Y-90810000D01*
X119446632Y-90693475D01*
X119653475Y-90486632D01*
X119815990Y-90243411D01*
X119927932Y-89973158D01*
X119985000Y-89686260D01*
X119985000Y-89398061D01*
X124690000Y-89398061D01*
X124690000Y-89601939D01*
X124729774Y-89801898D01*
X124807795Y-89990256D01*
X124921063Y-90159774D01*
X125065226Y-90303937D01*
X125234744Y-90417205D01*
X125423102Y-90495226D01*
X125623061Y-90535000D01*
X125826939Y-90535000D01*
X126026898Y-90495226D01*
X126215256Y-90417205D01*
X126384774Y-90303937D01*
X126528937Y-90159774D01*
X126642205Y-89990256D01*
X126720226Y-89801898D01*
X126760000Y-89601939D01*
X126760000Y-89398061D01*
X126720226Y-89198102D01*
X126642205Y-89009744D01*
X126528937Y-88840226D01*
X126384774Y-88696063D01*
X126215256Y-88582795D01*
X126026898Y-88504774D01*
X125826939Y-88465000D01*
X125623061Y-88465000D01*
X125423102Y-88504774D01*
X125234744Y-88582795D01*
X125065226Y-88696063D01*
X124921063Y-88840226D01*
X124807795Y-89009744D01*
X124729774Y-89198102D01*
X124690000Y-89398061D01*
X119985000Y-89398061D01*
X119985000Y-89393740D01*
X119927932Y-89106842D01*
X119815990Y-88836589D01*
X119653475Y-88593368D01*
X119446632Y-88386525D01*
X119272240Y-88270000D01*
X119446632Y-88153475D01*
X119653475Y-87946632D01*
X119815990Y-87703411D01*
X119927932Y-87433158D01*
X119985000Y-87146260D01*
X119985000Y-86853740D01*
X119927932Y-86566842D01*
X119815990Y-86296589D01*
X119653475Y-86053368D01*
X119446632Y-85846525D01*
X119272240Y-85730000D01*
X119446632Y-85613475D01*
X119653475Y-85406632D01*
X119815990Y-85163411D01*
X119927932Y-84893158D01*
X119980303Y-84629872D01*
X126615000Y-84629872D01*
X126615000Y-85070128D01*
X126700890Y-85501925D01*
X126869369Y-85908669D01*
X127113962Y-86274729D01*
X127425271Y-86586038D01*
X127791331Y-86830631D01*
X128198075Y-86999110D01*
X128629872Y-87085000D01*
X129070128Y-87085000D01*
X129501925Y-86999110D01*
X129908669Y-86830631D01*
X130274729Y-86586038D01*
X130586038Y-86274729D01*
X130830631Y-85908669D01*
X130999110Y-85501925D01*
X131085000Y-85070128D01*
X131085000Y-84629872D01*
X130999110Y-84198075D01*
X130830631Y-83791331D01*
X130586038Y-83425271D01*
X130274729Y-83113962D01*
X129908669Y-82869369D01*
X129501925Y-82700890D01*
X129070128Y-82615000D01*
X128629872Y-82615000D01*
X128198075Y-82700890D01*
X127791331Y-82869369D01*
X127425271Y-83113962D01*
X127113962Y-83425271D01*
X126869369Y-83791331D01*
X126700890Y-84198075D01*
X126615000Y-84629872D01*
X119980303Y-84629872D01*
X119985000Y-84606260D01*
X119985000Y-84313740D01*
X119927932Y-84026842D01*
X119815990Y-83756589D01*
X119653475Y-83513368D01*
X119588168Y-83448061D01*
X122515000Y-83448061D01*
X122515000Y-83651939D01*
X122554774Y-83851898D01*
X122632795Y-84040256D01*
X122746063Y-84209774D01*
X122890226Y-84353937D01*
X123059744Y-84467205D01*
X123248102Y-84545226D01*
X123448061Y-84585000D01*
X123651939Y-84585000D01*
X123851898Y-84545226D01*
X124040256Y-84467205D01*
X124209774Y-84353937D01*
X124353937Y-84209774D01*
X124467205Y-84040256D01*
X124545226Y-83851898D01*
X124585000Y-83651939D01*
X124585000Y-83448061D01*
X124545226Y-83248102D01*
X124467205Y-83059744D01*
X124353937Y-82890226D01*
X124209774Y-82746063D01*
X124040256Y-82632795D01*
X123851898Y-82554774D01*
X123651939Y-82515000D01*
X123448061Y-82515000D01*
X123248102Y-82554774D01*
X123059744Y-82632795D01*
X122890226Y-82746063D01*
X122746063Y-82890226D01*
X122632795Y-83059744D01*
X122554774Y-83248102D01*
X122515000Y-83448061D01*
X119588168Y-83448061D01*
X119446632Y-83306525D01*
X119272240Y-83190000D01*
X119446632Y-83073475D01*
X119653475Y-82866632D01*
X119815990Y-82623411D01*
X119927932Y-82353158D01*
X119985000Y-82066260D01*
X119985000Y-81773740D01*
X119927932Y-81486842D01*
X119815990Y-81216589D01*
X119653475Y-80973368D01*
X119446632Y-80766525D01*
X119272240Y-80650000D01*
X119446632Y-80533475D01*
X119653475Y-80326632D01*
X119815990Y-80083411D01*
X119927932Y-79813158D01*
X119985000Y-79526260D01*
X119985000Y-79233740D01*
X119927932Y-78946842D01*
X119815990Y-78676589D01*
X119653475Y-78433368D01*
X119446632Y-78226525D01*
X119272240Y-78110000D01*
X119446632Y-77993475D01*
X119653475Y-77786632D01*
X119815990Y-77543411D01*
X119927932Y-77273158D01*
X119932924Y-77248061D01*
X122465000Y-77248061D01*
X122465000Y-77451939D01*
X122504774Y-77651898D01*
X122582795Y-77840256D01*
X122696063Y-78009774D01*
X122840226Y-78153937D01*
X123009744Y-78267205D01*
X123198102Y-78345226D01*
X123398061Y-78385000D01*
X123601939Y-78385000D01*
X123801898Y-78345226D01*
X123990256Y-78267205D01*
X124159774Y-78153937D01*
X124303937Y-78009774D01*
X124417205Y-77840256D01*
X124495226Y-77651898D01*
X124535000Y-77451939D01*
X124535000Y-77248061D01*
X124495226Y-77048102D01*
X124417205Y-76859744D01*
X124303937Y-76690226D01*
X124159774Y-76546063D01*
X123990256Y-76432795D01*
X123801898Y-76354774D01*
X123601939Y-76315000D01*
X123398061Y-76315000D01*
X123198102Y-76354774D01*
X123009744Y-76432795D01*
X122840226Y-76546063D01*
X122696063Y-76690226D01*
X122582795Y-76859744D01*
X122504774Y-77048102D01*
X122465000Y-77248061D01*
X119932924Y-77248061D01*
X119985000Y-76986260D01*
X119985000Y-76693740D01*
X119927932Y-76406842D01*
X119815990Y-76136589D01*
X119653475Y-75893368D01*
X119446632Y-75686525D01*
X119272240Y-75570000D01*
X119446632Y-75453475D01*
X119653475Y-75246632D01*
X119815990Y-75003411D01*
X119927932Y-74733158D01*
X119985000Y-74446260D01*
X119985000Y-74153740D01*
X119927932Y-73866842D01*
X119911020Y-73826011D01*
X157592677Y-73826011D01*
X157697143Y-74052000D01*
X158752000Y-74052000D01*
X158752000Y-72994595D01*
X159248000Y-72994595D01*
X159248000Y-74052000D01*
X160302857Y-74052000D01*
X160407323Y-73826011D01*
X160330296Y-73640028D01*
X160175981Y-73393181D01*
X159976473Y-73181183D01*
X159739440Y-73012180D01*
X159473991Y-72892667D01*
X159248000Y-72994595D01*
X158752000Y-72994595D01*
X158526009Y-72892667D01*
X158260560Y-73012180D01*
X158023527Y-73181183D01*
X157824019Y-73393181D01*
X157669704Y-73640028D01*
X157592677Y-73826011D01*
X119911020Y-73826011D01*
X119815990Y-73596589D01*
X119653475Y-73353368D01*
X119446632Y-73146525D01*
X119203411Y-72984010D01*
X118933158Y-72872068D01*
X118646260Y-72815000D01*
X118353740Y-72815000D01*
X118066842Y-72872068D01*
X117796589Y-72984010D01*
X117553368Y-73146525D01*
X117346525Y-73353368D01*
X117230000Y-73527760D01*
X117113475Y-73353368D01*
X116906632Y-73146525D01*
X116663411Y-72984010D01*
X116393158Y-72872068D01*
X116106260Y-72815000D01*
X115813740Y-72815000D01*
X115526842Y-72872068D01*
X115256589Y-72984010D01*
X115013368Y-73146525D01*
X114806525Y-73353368D01*
X114644010Y-73596589D01*
X114532068Y-73866842D01*
X114475000Y-74153740D01*
X114475000Y-74446260D01*
X114532068Y-74733158D01*
X114644010Y-75003411D01*
X114806525Y-75246632D01*
X115013368Y-75453475D01*
X115187760Y-75570000D01*
X115013368Y-75686525D01*
X114806525Y-75893368D01*
X114644010Y-76136589D01*
X114532068Y-76406842D01*
X114475000Y-76693740D01*
X114475000Y-76986260D01*
X114532068Y-77273158D01*
X114644010Y-77543411D01*
X114806525Y-77786632D01*
X115013368Y-77993475D01*
X115187760Y-78110000D01*
X115013368Y-78226525D01*
X114806525Y-78433368D01*
X114644010Y-78676589D01*
X114532068Y-78946842D01*
X114475000Y-79233740D01*
X114475000Y-79526260D01*
X114532068Y-79813158D01*
X114644010Y-80083411D01*
X114806525Y-80326632D01*
X115013368Y-80533475D01*
X115187760Y-80650000D01*
X115013368Y-80766525D01*
X114806525Y-80973368D01*
X114781481Y-81010849D01*
X114614592Y-80977653D01*
X114410714Y-80977653D01*
X114210755Y-81017427D01*
X114022397Y-81095448D01*
X113852879Y-81208716D01*
X113708716Y-81352879D01*
X113595448Y-81522397D01*
X113517427Y-81710755D01*
X113477653Y-81910714D01*
X109552231Y-81910714D01*
X109588513Y-81791111D01*
X109617185Y-81500000D01*
X109588513Y-81208889D01*
X109503599Y-80928966D01*
X109365706Y-80670986D01*
X109180134Y-80444866D01*
X108954014Y-80259294D01*
X108936626Y-80250000D01*
X108954014Y-80240706D01*
X109180134Y-80055134D01*
X109284809Y-79927587D01*
X109448102Y-79995226D01*
X109648061Y-80035000D01*
X109851939Y-80035000D01*
X110051898Y-79995226D01*
X110240256Y-79917205D01*
X110409774Y-79803937D01*
X110553937Y-79659774D01*
X110667205Y-79490256D01*
X110745226Y-79301898D01*
X110785000Y-79101939D01*
X110785000Y-78898061D01*
X110745226Y-78698102D01*
X110667205Y-78509744D01*
X110553937Y-78340226D01*
X110409774Y-78196063D01*
X110240256Y-78082795D01*
X110051898Y-78004774D01*
X109851939Y-77965000D01*
X109648061Y-77965000D01*
X109448102Y-78004774D01*
X109284809Y-78072413D01*
X109180134Y-77944866D01*
X108954014Y-77759294D01*
X108936626Y-77750000D01*
X108954014Y-77740706D01*
X109180134Y-77555134D01*
X109365706Y-77329014D01*
X109503599Y-77071034D01*
X109588513Y-76791111D01*
X109617185Y-76500000D01*
X109588513Y-76208889D01*
X109503599Y-75928966D01*
X109365706Y-75670986D01*
X109180134Y-75444866D01*
X108954014Y-75259294D01*
X108696034Y-75121401D01*
X108416111Y-75036487D01*
X108197950Y-75015000D01*
X107802050Y-75015000D01*
X107583889Y-75036487D01*
X107303966Y-75121401D01*
X107045986Y-75259294D01*
X106819866Y-75444866D01*
X106634294Y-75670986D01*
X106496401Y-75928966D01*
X106411487Y-76208889D01*
X106382815Y-76500000D01*
X105660000Y-76500000D01*
X105660000Y-71583509D01*
X106055330Y-71978839D01*
X106683446Y-72398533D01*
X107381372Y-72687623D01*
X108122285Y-72835000D01*
X108877715Y-72835000D01*
X109618628Y-72687623D01*
X110316554Y-72398533D01*
X110944670Y-71978839D01*
X111478839Y-71444670D01*
X111877480Y-70848061D01*
X122515000Y-70848061D01*
X122515000Y-71051939D01*
X122554774Y-71251898D01*
X122632795Y-71440256D01*
X122746063Y-71609774D01*
X122890226Y-71753937D01*
X123059744Y-71867205D01*
X123248102Y-71945226D01*
X123448061Y-71985000D01*
X123651939Y-71985000D01*
X123851898Y-71945226D01*
X124040256Y-71867205D01*
X124209774Y-71753937D01*
X124353937Y-71609774D01*
X124467205Y-71440256D01*
X124545226Y-71251898D01*
X124585000Y-71051939D01*
X124585000Y-70848061D01*
X124545226Y-70648102D01*
X124467205Y-70459744D01*
X124353937Y-70290226D01*
X124209774Y-70146063D01*
X124040256Y-70032795D01*
X123851898Y-69954774D01*
X123651939Y-69915000D01*
X123448061Y-69915000D01*
X123248102Y-69954774D01*
X123059744Y-70032795D01*
X122890226Y-70146063D01*
X122746063Y-70290226D01*
X122632795Y-70459744D01*
X122554774Y-70648102D01*
X122515000Y-70848061D01*
X111877480Y-70848061D01*
X111898533Y-70816554D01*
X112187623Y-70118628D01*
X112335000Y-69377715D01*
X112335000Y-68622285D01*
X112187623Y-67881372D01*
X111898533Y-67183446D01*
X111478839Y-66555330D01*
X111083509Y-66160000D01*
X163916491Y-66160000D01*
X163521161Y-66555330D01*
G37*
%TD.AperFunction*%
%TD*%
M02*
