M48
; DRILL file {KiCad (6.0.0)} date Thu Jan 20 10:39:05 2022
; FORMAT={-:-/ absolute / inch / decimal}
; #@! TF.CreationDate,2022-01-20T10:39:05+08:00
; #@! TF.GenerationSoftware,Kicad,Pcbnew,(6.0.0)
; #@! TF.FileFunction,Plated,1,2,PTH
FMAT,2
INCH
; #@! TA.AperFunction,Plated,PTH,ViaDrill
T1C0.0157
; #@! TA.AperFunction,Plated,PTH,ComponentDrill
T2C0.0197
; #@! TA.AperFunction,Plated,PTH,ComponentDrill
T3C0.0362
; #@! TA.AperFunction,Plated,PTH,ComponentDrill
T4C0.0374
; #@! TA.AperFunction,Plated,PTH,ComponentDrill
T5C0.0394
; #@! TA.AperFunction,Plated,PTH,ComponentDrill
T6C0.0472
; #@! TA.AperFunction,Plated,PTH,ComponentDrill
T7C0.0906
; #@! TA.AperFunction,Plated,PTH,ComponentDrill
T8C0.1260
%
G90
G05
T1
X3.7343Y-2.8937
X3.8937Y-3.8189
X4.1476Y-3.4547
X4.155Y-4.085
X4.155Y-4.115
X4.21Y-4.085
X4.21Y-4.115
X5.4833Y-3.2231
X5.5118Y-3.252
X5.5413Y-3.2224
X5.5627Y-2.7901
X5.5728Y-3.2539
X5.9528Y-3.7992
X5.9685Y-3.5866
X5.9902Y-2.7913
X6.0226Y-2.8199
X6.0236Y-3.2047
X6.0236Y-3.2362
X6.0551Y-3.2047
X6.0551Y-3.2362
X6.0866Y-3.2047
X6.0866Y-3.2362
X6.1181Y-3.2047
X6.1181Y-3.2362
X6.2283Y-2.7451
X6.3976Y-3.5984
X6.4567Y-3.878
X6.4567Y-3.9094
X6.4567Y-3.9409
X6.4567Y-3.9724
X6.4843Y-3.878
X6.4843Y-3.9094
X6.4843Y-3.9409
X6.4843Y-3.9724
X6.6043Y-4.1669
T2
X3.5866Y-2.5
X3.5866Y-4.4291
X3.6143Y-2.4332
X3.6143Y-2.5668
X3.6143Y-4.3623
X3.6143Y-4.4959
X3.6811Y-2.4055
X3.6811Y-2.5945
X3.6811Y-4.3346
X3.6811Y-4.5236
X3.7479Y-2.4332
X3.7479Y-2.5668
X3.7479Y-4.3623
X3.7479Y-4.4959
X3.7756Y-2.5
X3.7756Y-4.4291
X5.8701Y-2.5
X5.8701Y-4.4291
X5.8978Y-2.4332
X5.8978Y-2.5668
X5.8978Y-4.3623
X5.8978Y-4.4959
X5.9646Y-2.4055
X5.9646Y-2.5945
X5.9646Y-4.3346
X5.9646Y-4.5236
X6.0314Y-2.4332
X6.0314Y-2.5668
X6.0314Y-4.3623
X6.0314Y-4.4959
X6.0591Y-2.5
X6.0591Y-4.4291
T3
X6.3391Y-2.6372
X6.3391Y-2.7356
X6.3391Y-2.8144
X6.3391Y-2.9128
X6.4423Y-2.6372
X6.4423Y-2.7356
X6.4423Y-2.8144
X6.4423Y-2.9128
T4
X3.6614Y-2.7953
X3.6614Y-2.8937
X3.6614Y-2.9921
X3.6614Y-3.0906
X3.6614Y-3.189
X3.6614Y-3.2874
T5
X3.6604Y-3.5295
X3.6604Y-3.628
X3.6614Y-4.0157
X3.6614Y-4.1142
X3.9756Y-2.7075
X3.9756Y-2.8075
X3.9756Y-2.9075
X3.9756Y-3.0075
X3.9756Y-3.1075
X3.9756Y-3.2075
X3.9756Y-3.3075
X3.9756Y-3.4075
X3.9756Y-3.5075
X3.9756Y-3.6075
X3.9756Y-3.7075
X3.9756Y-3.8075
X3.9756Y-3.9075
X3.9862Y-4.4498
X4.0756Y-2.7075
X4.0756Y-2.8075
X4.0756Y-2.9075
X4.0756Y-3.0075
X4.0756Y-3.1075
X4.0756Y-3.2075
X4.0756Y-3.3075
X4.0756Y-3.4075
X4.0756Y-3.5075
X4.0756Y-3.6075
X4.0756Y-3.7075
X4.0756Y-3.8075
X4.0756Y-3.9075
X4.0846Y-4.4498
X4.4316Y-4.45
X4.53Y-4.45
X4.7816Y-4.4498
X4.88Y-4.4498
X5.1316Y-4.4498
X5.23Y-4.4498
X5.5709Y-4.4488
X5.6691Y-2.7085
X5.6691Y-2.8085
X5.6691Y-2.9085
X5.6691Y-3.0085
X5.6691Y-3.1085
X5.6691Y-3.2085
X5.6691Y-3.3085
X5.6691Y-3.4085
X5.6691Y-3.5085
X5.6691Y-3.6085
X5.6691Y-3.7085
X5.6691Y-3.8085
X5.6691Y-3.9085
X5.6693Y-4.4488
X5.8632Y-3.2963
X5.8632Y-3.3963
X5.8632Y-3.4963
X5.8632Y-3.5963
X5.8632Y-3.6963
X5.8632Y-3.7963
X5.8632Y-3.8963
X5.8632Y-3.9963
T6
X6.3189Y-4.3701
X6.4567Y-4.3701
T7
X6.3254Y-2.5163
X6.3254Y-3.0337
X6.549Y-2.5163
X6.549Y-3.0337
T8
X3.6811Y-2.5
X3.6811Y-4.4291
X5.9646Y-2.5
X5.9646Y-4.4291
T0
M30
